<?xml version="1.0" encoding="UTF-8"?>
<svg width="1128px" height="318px" viewBox="0 0 1128 318" version="1.1" xmlns="http://www.w3.org/2000/svg" xmlns:xlink="http://www.w3.org/1999/xlink">
    <!-- Generator: Sketch 61.2 (89653) - https://sketch.com -->
    <title>Group 12</title>
    <desc>Created with Sketch.</desc>
    <defs>
        <polygon id="path-1" points="0 0.6087 272.0686 0.6087 272.0686 317.9997 0 317.9997"></polygon>
        <polygon id="path-3" points="0.7907 0.6082 274.2917 0.6082 274.2917 318 0.7907 318"></polygon>
    </defs>
    <g id="Recap-Page" stroke="none" stroke-width="1" fill="none" fill-rule="evenodd">
        <g id="1440---Recap-Homepage-v4" transform="translate(-157.000000, -112.000000)">
            <g id="Group-12" transform="translate(157.000000, 112.000000)">
                <g id="Group-3">
                    <mask id="mask-2" fill="white">
                        <use xlink:href="#path-1"></use>
                    </mask>
                    <g id="Clip-2"></g>
                    <path d="M267.9746,119.0127 C270.6906,106.3367 272.0686,95.5757 272.0686,87.0257 C272.0686,67.3447 267.7796,51.0747 259.3216,38.6627 C250.8486,26.2407 238.5826,16.7527 222.8636,10.4617 C206.5066,3.9237 186.7636,0.6087 164.1826,0.6087 L103.1146,0.6087 C81.8506,0.6087 63.1296,3.9797 47.4726,10.6267 C32.1606,17.1267 20.6796,26.4807 12.3746,39.2227 C4.1636,51.8187 -0.0004,67.9017 -0.0004,87.0257 C-0.0004,99.6127 1.9926,111.6017 5.9206,122.6587 C9.8016,133.5857 15.2306,143.0207 22.0576,150.6997 L26.8496,156.0917 L22.6316,161.9427 C13.5086,174.5987 7.4176,187.2457 4.5316,199.5337 C1.5246,212.3047 -0.0004,223.0867 -0.0004,231.5827 C-0.0004,250.3977 4.1636,266.3217 12.3766,278.9107 C20.6936,291.6807 32.1276,301.1257 47.3316,307.7847 C62.7926,314.5637 81.5606,317.9997 103.1146,317.9997 L168.9536,317.9997 C190.2116,317.9997 208.9316,314.6287 224.5946,307.9817 C239.8896,301.4877 251.3616,292.0697 259.6676,279.1887 C267.8956,266.4157 272.0686,250.2387 272.0686,231.1067 C272.0686,218.8287 270.1486,207.0607 266.3636,196.1267 C262.6176,185.3257 257.2396,175.7897 250.3796,167.7847 L245.7526,162.3857 L249.9346,156.6347 C259.3226,143.7277 265.3916,131.0697 267.9746,119.0127" id="Fill-1" fill="#FFFFFF" mask="url(#mask-2)"></path>
                </g>
                <path d="M545.3555,47.1438724 C530.8015,32.7447858 513.7515,21.2507166 494.6785,12.9856669 C475.7005,4.77161753 455.1535,0.606592476 433.6085,0.606592476 C412.0535,0.606592476 391.5075,4.77161753 372.5405,12.9846669 C353.4595,21.2497166 336.4075,32.7437858 321.8585,47.1448724 C307.3545,61.4939587 295.8955,78.496061 287.8015,97.6791764 C279.7235,116.829292 275.6265,137.482416 275.6265,159.065546 C275.6265,175.193643 278.2785,191.243739 283.5075,206.767833 C289.2165,223.751935 296.8845,236.448011 306.9505,245.579066 C316.0105,253.799115 335.1705,264.59818 352.6485,271.350221 C355.1765,277.749259 363.5325,290.898339 369.6275,295.839368 C380.6475,304.771422 390.8425,310.740458 399.1105,313.099472 C410.4685,316.351492 422.0745,317.999502 433.6085,317.999502 C455.1445,317.999502 475.6725,313.762476 494.6235,305.406426 C513.7035,296.996375 530.7725,285.416306 545.3555,270.987219 C559.8705,256.620132 571.3305,239.61803 579.4155,220.450915 C587.4935,201.3078 591.5895,180.654675 591.5895,159.065546 C591.5895,137.482416 587.4935,116.829292 579.4155,97.6801764 C571.3245,78.507061 559.8655,61.5039588 545.3555,47.1438724" id="Fill-4" fill="#FFFFFF"></path>
                <path d="M818.7847,22.5128239 C801.9407,7.97673649 778.7987,0.606692163 750.0007,0.606692163 L683.6847,0.606692163 C664.4547,0.606692163 647.5337,4.00571261 633.3927,10.7097529 C619.4197,17.3407928 608.9517,26.4598477 601.3917,38.5899206 C593.9067,50.5949928 590.1117,65.2850812 590.1117,82.2521833 C590.1117,104.336316 596.0717,121.724421 608.3307,135.409503 C620.5847,149.091585 637.8247,158.086639 659.5727,162.145664 L666.9227,163.516672 L666.9227,224.426038 C666.9227,243.561154 670.5987,260.393255 677.8507,274.454339 C685.0537,288.441423 694.9857,298.943487 708.2177,306.560532 C721.3877,314.151578 737.2117,317.999601 755.2487,317.999601 C782.4917,317.999601 803.5217,309.719551 819.5417,292.685449 C835.7127,275.494346 843.5737,253.167211 843.5737,224.426038 L843.5737,82.2521833 C843.5737,56.4560281 835.4657,36.9149106 818.7847,22.5128239" id="Fill-6" fill="#FFFFFF"></path>
                <g id="Group-10" transform="translate(853.000000, 0.000000)">
                    <mask id="mask-4" fill="white">
                        <use xlink:href="#path-3"></use>
                    </mask>
                    <g id="Clip-9"></g>
                    <path d="M264.0747,74.6572 C257.3067,59.2152 247.7797,45.8822 235.7587,35.0282 C223.6407,24.1022 209.1537,15.5532 192.6957,9.6172 C176.1017,3.6392 157.6257,0.6082 137.7787,0.6082 C111.3537,0.6082 87.5237,5.8982 66.9497,16.3312 C46.5667,26.6762 30.2627,41.4002 18.4897,60.0952 C6.7457,78.7422 0.7907,101.2862 0.7907,127.1012 C0.7907,151.8502 7.0827,173.5742 19.4907,191.6692 C32.0147,209.9462 49.0647,222.7252 71.6137,230.7362 L78.9607,233.3452 L77.4247,240.9902 C76.8397,243.8992 76.3097,247.0822 75.8487,250.4502 C75.4287,253.5332 75.2167,256.9772 75.2167,260.6842 C75.2167,272.6042 78.0477,282.4762 83.8707,290.8632 C89.8537,299.4972 97.6027,306.0102 107.5587,310.7742 C117.5567,315.5692 128.8477,318.0002 141.1197,318.0002 C157.5167,318.0002 171.1307,314.0952 181.5817,306.3942 C192.6507,298.2412 202.7597,286.6102 211.6297,271.8212 L253.1677,202.1152 C260.0087,190.8102 265.2917,178.2742 268.8707,164.8572 C272.4687,151.3642 274.2917,138.6622 274.2917,127.1012 C274.2917,107.7802 270.8537,90.1352 264.0747,74.6572" id="Fill-8" fill="#FFFFFF" mask="url(#mask-4)"></path>
                </g>
                <path d="M74.7646,127.009909 L74.6556,127.073911 C54.0586,139.229226 37.6526,154.205614 25.8936,171.590065 C13.8326,189.420527 7.7166,209.605051 7.7166,231.583621 C7.7166,249.165077 11.8406,264.074463 19.9736,275.89677 C28.0946,287.722076 39.6976,296.584306 54.4576,302.231453 C68.4086,307.575591 84.7806,310.285662 103.1146,310.285662 L168.9526,310.285662 C198.4466,310.285662 221.7746,303.803493 238.2886,291.018162 C255.5826,277.628815 264.3516,257.472292 264.3516,231.107608 C264.3516,220.591336 262.8266,210.496074 259.8206,201.10183 C256.7546,191.556583 252.4196,183.198366 246.9346,176.247186 L240.2226,167.742965 L232.2826,175.114156 C228.0976,178.996257 223.3246,182.935359 218.0946,186.81946 C212.9586,190.633559 207.2246,194.206651 201.0516,197.438735 L145.8316,227.902525 C144.3706,228.556542 143.5406,228.630544 143.2426,228.630544 C143.0096,228.630544 142.8606,228.616544 142.5106,228.355537 C141.2836,227.434513 140.4356,226.347485 140.2886,224.033425 C140.2536,223.494411 140.2156,222.903396 142.3656,221.694364 L197.1926,191.181573 C218.2156,179.656274 234.8236,164.741887 246.5006,146.885424 C258.3456,128.763954 264.3516,108.623432 264.3516,87.0228721 C264.3516,67.3113609 259.6946,51.4209489 250.5106,39.7936474 C241.4766,28.3763513 229.1016,20.1141371 213.7246,15.2310104 C199.2856,10.6458915 182.6166,8.31983121 164.1816,8.31983121 L103.1146,8.31983121 C84.1166,8.31983121 67.4576,11.1289041 53.6026,16.6680477 C39.0566,22.4871986 27.6556,31.3394281 19.7136,42.98073 C11.7536,54.6330322 7.7166,69.4524165 7.7166,87.0228721 C7.7166,97.5731457 9.2426,107.672408 12.2506,117.03765 C15.3046,126.580898 19.8156,135.122119 25.6546,142.414308 L32.3956,150.834527 L40.2816,143.477336 C49.2046,135.15312 59.6396,127.595924 71.2946,121.017754 L126.2326,90.7059676 C127.6946,90.0529507 128.5276,89.9799488 128.8276,89.9799488 C129.0616,89.9799488 129.2106,89.9919491 129.5566,90.2509558 C131.1386,91.4389866 131.8616,92.6670184 132.0506,94.4920658 C132.0516,94.4960659 132.0516,94.500066 132.0526,94.502066 C131.9176,94.7110714 131.3546,95.4470905 129.6266,96.4771172 L74.7646,127.009909 Z M103.1146,317.002836 C81.7006,317.002836 63.0676,313.594747 47.7326,306.871573 C32.7116,300.292402 21.4216,290.969161 13.2146,278.367834 C5.1086,265.940512 0.9996,250.201103 0.9996,231.583621 C0.9996,223.163402 2.5156,212.458125 5.5046,199.763796 C8.3616,187.60148 14.3966,175.074155 23.4426,162.52683 L28.1296,156.025661 L22.8046,150.034506 C16.0646,142.451309 10.7016,133.128068 6.8636,122.321787 C2.9726,111.371503 0.9996,99.4951955 0.9996,87.0228721 C0.9996,68.0953813 5.1086,52.1949689 13.2126,39.7646466 C21.4056,27.1933206 32.7396,17.9620812 47.8626,11.5429148 C63.3966,4.94674374 81.9856,1.60365705 103.1146,1.60365705 L164.1816,1.60365705 C186.6356,1.60365705 206.2536,4.8947424 222.4926,11.3859107 C238.0226,17.6010719 250.1366,26.9673148 258.4946,39.2226326 C266.8376,51.46295 271.0686,67.546367 271.0686,87.0228721 C271.0686,95.503092 269.6986,106.195369 266.9966,118.800696 C264.4426,130.721005 258.4306,143.25133 249.1266,156.045662 L244.4796,162.435828 L249.6206,168.434983 C256.3976,176.344188 261.7136,185.771433 265.4186,196.45471 C269.1666,207.280991 271.0686,218.941293 271.0686,231.107608 C271.0686,250.045099 266.9496,266.039514 258.8266,278.648841 C250.6346,291.354171 239.3086,300.650412 224.2036,307.063578 C208.6646,313.659749 190.0756,317.002836 168.9526,317.002836 L103.1146,317.002836 Z" id="Fill-11" fill="#000000"></path>
                <path d="M74.7646,127.009909 L74.6556,127.073911 C54.0586,139.229226 37.6526,154.205614 25.8936,171.590065 C13.8326,189.420527 7.7166,209.605051 7.7166,231.583621 C7.7166,249.165077 11.8406,264.074463 19.9736,275.89677 C28.0946,287.722076 39.6976,296.584306 54.4576,302.231453 C68.4086,307.575591 84.7806,310.285662 103.1146,310.285662 L168.9526,310.285662 C198.4466,310.285662 221.7746,303.803493 238.2886,291.018162 C255.5826,277.628815 264.3516,257.472292 264.3516,231.107608 C264.3516,220.591336 262.8266,210.496074 259.8206,201.10183 C256.7546,191.556583 252.4196,183.198366 246.9346,176.247186 L240.2226,167.742965 L232.2826,175.114156 C228.0976,178.996257 223.3246,182.935359 218.0946,186.81946 C212.9586,190.633559 207.2246,194.206651 201.0516,197.438735 L145.8316,227.902525 C144.3706,228.556542 143.5406,228.630544 143.2426,228.630544 C143.0096,228.630544 142.8606,228.616544 142.5106,228.355537 C141.2836,227.434513 140.4356,226.347485 140.2886,224.033425 C140.2536,223.494411 140.2156,222.903396 142.3656,221.694364 L197.1926,191.181573 C218.2156,179.656274 234.8236,164.741887 246.5006,146.885424 C258.3456,128.763954 264.3516,108.623432 264.3516,87.0228721 C264.3516,67.3113609 259.6946,51.4209489 250.5106,39.7936474 C241.4766,28.3763513 229.1016,20.1141371 213.7246,15.2310104 C199.2856,10.6458915 182.6166,8.31983121 164.1816,8.31983121 L103.1146,8.31983121 C84.1166,8.31983121 67.4576,11.1289041 53.6026,16.6680477 C39.0566,22.4871986 27.6556,31.3394281 19.7136,42.98073 C11.7536,54.6330322 7.7166,69.4524165 7.7166,87.0228721 C7.7166,97.5731457 9.2426,107.672408 12.2506,117.03765 C15.3046,126.580898 19.8156,135.122119 25.6546,142.414308 L32.3956,150.834527 L40.2816,143.477336 C49.2046,135.15312 59.6396,127.595924 71.2946,121.017754 L126.2326,90.7059676 C127.6946,90.0529507 128.5276,89.9799488 128.8276,89.9799488 C129.0616,89.9799488 129.2106,89.9919491 129.5566,90.2509558 C131.1386,91.4389866 131.8616,92.6670184 132.0506,94.4920658 C132.0516,94.4960659 132.0516,94.500066 132.0526,94.502066 C131.9176,94.7110714 131.3546,95.4470905 129.6266,96.4771172 L74.7646,127.009909 Z M103.1146,317.002836 C81.7006,317.002836 63.0676,313.594747 47.7326,306.871573 C32.7116,300.292402 21.4216,290.969161 13.2146,278.367834 C5.1086,265.940512 0.9996,250.201103 0.9996,231.583621 C0.9996,223.163402 2.5156,212.458125 5.5046,199.763796 C8.3616,187.60148 14.3966,175.074155 23.4426,162.52683 L28.1296,156.025661 L22.8046,150.034506 C16.0646,142.451309 10.7016,133.128068 6.8636,122.321787 C2.9726,111.371503 0.9996,99.4951955 0.9996,87.0228721 C0.9996,68.0953813 5.1086,52.1949689 13.2126,39.7646466 C21.4056,27.1933206 32.7396,17.9620812 47.8626,11.5429148 C63.3966,4.94674374 81.9856,1.60365705 103.1146,1.60365705 L164.1816,1.60365705 C186.6356,1.60365705 206.2536,4.8947424 222.4926,11.3859107 C238.0226,17.6010719 250.1366,26.9673148 258.4946,39.2226326 C266.8376,51.46295 271.0686,67.546367 271.0686,87.0228721 C271.0686,95.503092 269.6986,106.195369 266.9966,118.800696 C264.4426,130.721005 258.4306,143.25133 249.1266,156.045662 L244.4796,162.435828 L249.6206,168.434983 C256.3976,176.344188 261.7136,185.771433 265.4186,196.45471 C269.1666,207.280991 271.0686,218.941293 271.0686,231.107608 C271.0686,250.045099 266.9496,266.039514 258.8266,278.648841 C250.6346,291.354171 239.3086,300.650412 224.2036,307.063578 C208.6646,313.659749 190.0756,317.002836 168.9526,317.002836 L103.1146,317.002836 Z" id="Stroke-13" stroke="#000000" stroke-width="2"></path>
                <path d="M349.1445,237.785281 C349.1445,220.304828 355.0795,207.404493 367.2875,198.346258 C380.4295,188.596006 396.3495,183.854883 415.9555,183.854883 L426.4515,183.854883 C436.6245,183.854883 444.2045,182.315843 449.6245,179.149761 C456.5075,175.144657 460.3065,168.009472 460.3065,159.06524 C460.3065,149.197984 456.2685,143.309832 452.8815,140.107749 C448.1005,135.600632 441.7795,133.320573 434.0845,133.320573 C426.9385,133.320573 420.3745,135.825638 415.0905,140.568761 C413.7225,141.720791 412.7285,142.134801 412.2485,142.134801 C412.1925,142.134801 412.0225,142.134801 411.6955,142.016798 C410.3175,141.526786 409.3965,140.857768 408.7135,138.873717 C408.5615,138.435705 408.3635,137.861691 410.1455,136.078644 C416.5215,129.702479 425.1325,126.602399 436.4705,126.602399 C445.1925,126.602399 452.2995,129.524474 458.1965,135.53463 C464.1335,141.596787 467.0225,149.296987 467.0225,159.06524 C467.0225,168.242478 463.9065,175.472666 457.4985,181.170813 C450.8365,187.092967 440.2315,190.095045 425.9745,190.095045 L414.5245,190.095045 C398.1495,190.095045 384.3885,194.017146 373.6225,201.755347 C361.8355,210.237567 355.8615,223.322906 355.8615,240.649355 C355.8615,253.884698 359.0655,265.963011 365.3865,276.548286 C371.7485,287.219562 380.9005,295.64078 392.5845,301.569934 C403.9625,307.352084 417.7665,310.28616 433.6085,310.28616 C453.9775,310.28616 473.5265,306.320057 491.7095,298.499855 C509.8395,290.705653 525.9925,279.705367 539.7185,265.806007 C553.4085,251.948648 564.2995,235.744228 572.0855,217.644759 C579.9065,199.448287 583.8715,179.739776 583.8715,159.06524 C583.8715,138.396704 579.9065,118.689194 572.0875,100.489722 C564.2875,82.364252 553.3825,66.2268337 539.6735,52.5184784 C525.9705,38.8151232 509.9235,27.9148407 491.9795,20.1226387 C473.9225,12.2904356 454.2855,8.32033274 433.6085,8.32033274 C412.9225,8.32033274 393.2845,12.2904356 375.2395,20.1206386 C357.2985,27.9088405 341.2505,38.808123 327.5405,52.5184784 C313.8185,66.2418341 302.9145,82.3812525 295.1305,100.487722 C287.3105,118.668193 283.3445,138.377704 283.3445,159.06524 C283.3445,173.70462 285.4275,187.720983 289.5335,200.72132 C293.7055,213.937663 299.1655,224.888946 307.3345,234.194188 C316.1115,244.192447 329.1435,252.590665 351.5045,262.008909 C349.7685,258.399815 349.1445,247.913543 349.1445,237.785281 M353.4235,270.579131 C337.0985,264.322969 317.2245,253.551689 307.6225,244.840464 C296.7285,234.957207 289.4985,221.453857 284.4555,206.450469 C279.2605,191.026069 276.6265,175.085655 276.6265,159.06524 C276.6265,137.616684 280.6965,117.094152 288.7225,98.0666591 C296.7655,79.006165 308.1505,62.110727 322.5615,47.8533575 C337.0235,33.5389864 353.9715,22.1156903 372.9375,13.8994774 C391.7785,5.74026586 412.1915,1.60315862 433.6085,1.60315862 C455.0175,1.60315862 475.4305,5.74126589 494.2805,13.9004774 C513.2395,22.1166904 530.1875,33.5409865 544.6525,47.8523575 C559.0685,62.1207273 570.4545,79.0151652 578.4945,98.0676591 C586.5195,117.094152 590.5895,137.616684 590.5895,159.06524 C590.5895,180.520796 586.5195,201.043328 578.4945,220.062821 C570.4605,239.108315 559.0745,256.003753 544.6515,270.278123 C530.1555,284.621495 513.1875,296.133793 494.2205,304.49401 C475.3955,312.795225 455.0035,317.003334 433.6085,317.003334 C422.1675,317.003334 410.6535,315.367292 399.3855,312.141208 C388.5245,309.041128 376.9415,300.482906 370.2575,295.064765 C364.4285,290.339643 355.7815,276.932295 353.4235,270.579131" id="Fill-15" fill="#000000"></path>
                <path d="M349.1445,237.785281 C349.1445,220.304828 355.0795,207.404493 367.2875,198.346258 C380.4295,188.596006 396.3495,183.854883 415.9555,183.854883 L426.4515,183.854883 C436.6245,183.854883 444.2045,182.315843 449.6245,179.149761 C456.5075,175.144657 460.3065,168.009472 460.3065,159.06524 C460.3065,149.197984 456.2685,143.309832 452.8815,140.107749 C448.1005,135.600632 441.7795,133.320573 434.0845,133.320573 C426.9385,133.320573 420.3745,135.825638 415.0905,140.568761 C413.7225,141.720791 412.7285,142.134801 412.2485,142.134801 C412.1925,142.134801 412.0225,142.134801 411.6955,142.016798 C410.3175,141.526786 409.3965,140.857768 408.7135,138.873717 C408.5615,138.435705 408.3635,137.861691 410.1455,136.078644 C416.5215,129.702479 425.1325,126.602399 436.4705,126.602399 C445.1925,126.602399 452.2995,129.524474 458.1965,135.53463 C464.1335,141.596787 467.0225,149.296987 467.0225,159.06524 C467.0225,168.242478 463.9065,175.472666 457.4985,181.170813 C450.8365,187.092967 440.2315,190.095045 425.9745,190.095045 L414.5245,190.095045 C398.1495,190.095045 384.3885,194.017146 373.6225,201.755347 C361.8355,210.237567 355.8615,223.322906 355.8615,240.649355 C355.8615,253.884698 359.0655,265.963011 365.3865,276.548286 C371.7485,287.219562 380.9005,295.64078 392.5845,301.569934 C403.9625,307.352084 417.7665,310.28616 433.6085,310.28616 C453.9775,310.28616 473.5265,306.320057 491.7095,298.499855 C509.8395,290.705653 525.9925,279.705367 539.7185,265.806007 C553.4085,251.948648 564.2995,235.744228 572.0855,217.644759 C579.9065,199.448287 583.8715,179.739776 583.8715,159.06524 C583.8715,138.396704 579.9065,118.689194 572.0875,100.489722 C564.2875,82.364252 553.3825,66.2268337 539.6735,52.5184784 C525.9705,38.8151232 509.9235,27.9148407 491.9795,20.1226387 C473.9225,12.2904356 454.2855,8.32033274 433.6085,8.32033274 C412.9225,8.32033274 393.2845,12.2904356 375.2395,20.1206386 C357.2985,27.9088405 341.2505,38.808123 327.5405,52.5184784 C313.8185,66.2418341 302.9145,82.3812525 295.1305,100.487722 C287.3105,118.668193 283.3445,138.377704 283.3445,159.06524 C283.3445,173.70462 285.4275,187.720983 289.5335,200.72132 C293.7055,213.937663 299.1655,224.888946 307.3345,234.194188 C316.1115,244.192447 329.1435,252.590665 351.5045,262.008909 C349.7685,258.399815 349.1445,247.913543 349.1445,237.785281 Z M353.4235,270.579131 C337.0985,264.322969 317.2245,253.551689 307.6225,244.840464 C296.7285,234.957207 289.4985,221.453857 284.4555,206.450469 C279.2605,191.026069 276.6265,175.085655 276.6265,159.06524 C276.6265,137.616684 280.6965,117.094152 288.7225,98.0666591 C296.7655,79.006165 308.1505,62.110727 322.5615,47.8533575 C337.0235,33.5389864 353.9715,22.1156903 372.9375,13.8994774 C391.7785,5.74026586 412.1915,1.60315862 433.6085,1.60315862 C455.0175,1.60315862 475.4305,5.74126589 494.2805,13.9004774 C513.2395,22.1166904 530.1875,33.5409865 544.6525,47.8523575 C559.0685,62.1207273 570.4545,79.0151652 578.4945,98.0676591 C586.5195,117.094152 590.5895,137.616684 590.5895,159.06524 C590.5895,180.520796 586.5195,201.043328 578.4945,220.062821 C570.4605,239.108315 559.0745,256.003753 544.6515,270.278123 C530.1555,284.621495 513.1875,296.133793 494.2205,304.49401 C475.3955,312.795225 455.0035,317.003334 433.6085,317.003334 C422.1675,317.003334 410.6535,315.367292 399.3855,312.141208 C388.5245,309.041128 376.9415,300.482906 370.2575,295.064765 C364.4285,290.339643 355.7815,276.932295 353.4235,270.579131 Z" id="Stroke-17" stroke="#000000" stroke-width="2"></path>
                <path d="M674.6401,224.427535 C674.6401,250.47021 681.8811,271.462755 696.1611,286.820153 C710.6241,302.389556 730.5051,310.285761 755.2481,310.285761 C780.3291,310.285761 800.3051,302.374556 814.6201,286.771151 C828.7121,271.413753 835.8581,250.439209 835.8581,224.427535 L835.8581,85.5919347 C835.8581,62.0523242 827.9141,43.0118305 812.2481,28.9974671 C796.8941,15.2761113 775.9521,8.3199309 750.0001,8.3199309 L683.6851,8.3199309 C657.9021,8.3199309 637.0801,14.610094 621.8011,27.0174157 C605.8951,39.9257505 597.8281,58.5092324 597.8281,82.250848 C597.8281,97.4772429 601.4011,110.835589 608.4471,121.954878 C615.5531,133.185169 625.8941,141.779392 639.1811,147.49654 C651.8201,152.944681 666.7941,155.706753 683.6851,155.706753 L742.3681,155.706753 C744.0561,155.706753 744.4471,156.148764 744.6571,156.38577 C745.2061,157.009787 745.7251,157.833808 745.7251,159.541852 C745.7251,160.498877 745.4961,161.080892 744.8541,161.76691 C744.6821,161.949915 744.2401,162.422927 742.3681,162.422927 L674.6401,162.422927 L674.6401,224.427535 Z M755.2481,317.002935 C737.3881,317.002935 721.7331,313.199837 708.7161,305.697642 C695.6571,298.178447 685.8521,287.811178 678.7401,273.99882 C671.5611,260.078459 667.9221,243.402027 667.9221,224.427535 L667.9221,162.685934 L659.7561,161.161894 C638.2311,157.14579 621.1791,148.25656 609.0761,134.741209 C596.9881,121.247859 591.1121,104.078414 591.1121,82.250848 C591.1121,65.474413 594.8561,50.9610366 602.2411,39.1167295 C609.6971,27.1524192 620.0271,18.156186 633.8221,11.6100162 C647.8271,4.97084405 664.6041,1.60375674 683.6851,1.60375674 L750.0001,1.60375674 C778.5521,1.60375674 801.4751,8.89294576 818.1311,23.2673185 C834.5771,37.4676867 842.5741,56.7621871 842.5741,82.250848 L842.5741,224.427535 C842.5741,252.903273 834.8011,275.006846 818.8131,292.002287 C802.9921,308.825723 782.2001,317.002935 755.2481,317.002935 L755.2481,317.002935 Z" id="Fill-19" fill="#000000"></path>
                <path d="M674.6401,224.427535 C674.6401,250.47021 681.8811,271.462755 696.1611,286.820153 C710.6241,302.389556 730.5051,310.285761 755.2481,310.285761 C780.3291,310.285761 800.3051,302.374556 814.6201,286.771151 C828.7121,271.413753 835.8581,250.439209 835.8581,224.427535 L835.8581,85.5919347 C835.8581,62.0523242 827.9141,43.0118305 812.2481,28.9974671 C796.8941,15.2761113 775.9521,8.3199309 750.0001,8.3199309 L683.6851,8.3199309 C657.9021,8.3199309 637.0801,14.610094 621.8011,27.0174157 C605.8951,39.9257505 597.8281,58.5092324 597.8281,82.250848 C597.8281,97.4772429 601.4011,110.835589 608.4471,121.954878 C615.5531,133.185169 625.8941,141.779392 639.1811,147.49654 C651.8201,152.944681 666.7941,155.706753 683.6851,155.706753 L742.3681,155.706753 C744.0561,155.706753 744.4471,156.148764 744.6571,156.38577 C745.2061,157.009787 745.7251,157.833808 745.7251,159.541852 C745.7251,160.498877 745.4961,161.080892 744.8541,161.76691 C744.6821,161.949915 744.2401,162.422927 742.3681,162.422927 L674.6401,162.422927 L674.6401,224.427535 Z M755.2481,317.002935 C737.3881,317.002935 721.7331,313.199837 708.7161,305.697642 C695.6571,298.178447 685.8521,287.811178 678.7401,273.99882 C671.5611,260.078459 667.9221,243.402027 667.9221,224.427535 L667.9221,162.685934 L659.7561,161.161894 C638.2311,157.14579 621.1791,148.25656 609.0761,134.741209 C596.9881,121.247859 591.1121,104.078414 591.1121,82.250848 C591.1121,65.474413 594.8561,50.9610366 602.2411,39.1167295 C609.6971,27.1524192 620.0271,18.156186 633.8221,11.6100162 C647.8271,4.97084405 664.6041,1.60375674 683.6851,1.60375674 L750.0001,1.60375674 C778.5521,1.60375674 801.4751,8.89294576 818.1311,23.2673185 C834.5771,37.4676867 842.5741,56.7621871 842.5741,82.250848 L842.5741,224.427535 C842.5741,252.903273 834.8011,275.006846 818.8131,292.002287 C802.9921,308.825723 782.2001,317.002935 755.2481,317.002935 Z" id="Stroke-21" stroke="#000000" stroke-width="2"></path>
                <path d="M965.0171,112.289828 C972.3261,112.289828 978.2151,114.458885 983.0211,118.922 C987.6761,123.244112 989.8441,128.724254 989.8441,136.164447 C989.8441,140.091549 988.9911,144.515664 987.3071,149.312788 C986.0481,152.891881 982.7331,160.159069 974.1141,174.401438 L951.5631,212.309421 C946.1221,221.829668 942.2941,229.761873 939.8591,236.56005 C937.2551,243.803237 935.9331,251.924448 935.9331,260.686675 C935.9331,268.816886 938.1531,276.767092 942.5321,284.313287 C946.9211,291.903484 953.5781,298.217648 962.3091,303.065774 C970.9201,307.855898 981.4641,310.285961 993.6411,310.285961 C1007.7081,310.285961 1019.9521,306.815871 1030.0321,299.972693 C1039.7541,293.362522 1048.9071,282.831249 1058.0171,267.771859 L1099.6141,198.439061 C1105.7471,187.882788 1110.6591,175.921478 1114.2111,162.88814 C1117.7691,149.852802 1119.5741,137.81049 1119.5741,127.100212 C1119.5741,108.583732 1116.2261,91.7872969 1109.6221,77.1789183 C1103.0081,62.5635394 1093.6411,49.9342121 1081.7811,39.6339451 C1070.0371,29.4526811 1056.2481,21.5904773 1040.7931,16.2613392 C1025.4881,10.9912026 1008.6631,8.32013336 990.7791,8.32013336 C966.4361,8.32013336 944.3161,13.1642589 925.0351,22.7195066 C905.4801,32.4107578 889.8501,46.2991178 878.5781,63.9985766 C867.2511,81.7690372 861.5081,103.001588 861.5081,127.100212 C861.5081,150.370815 867.3131,170.650341 878.7601,187.375775 C890.2681,204.205211 906.7821,216.477529 927.8401,223.84672 L935.5171,226.53279 L939.7101,219.563609 C940.7781,217.791563 941.8681,215.797511 942.9491,213.636455 C943.7221,212.088415 944.6331,210.527375 945.6601,208.991335 L945.8001,208.78133 L967.8771,171.827372 C980.8961,149.964805 982.6501,142.014599 982.6501,137.118472 C982.6501,130.539301 979.8891,126.397194 977.5741,124.082134 C974.6241,121.134058 970.7871,119.31001 966.1611,118.657993 C962.4661,117.921974 961.2461,116.855947 961.1101,116.533938 C960.7491,115.683916 960.5801,115.099901 961.5101,113.648864 C961.8781,113.071849 962.3791,112.289828 965.0171,112.289828 M994.1201,317.003135 C981.9991,317.003135 970.8541,314.606073 960.9921,309.87595 C951.1951,305.187829 943.5761,298.784663 937.6931,290.296443 C931.9881,282.07923 929.2161,272.396979 929.2161,260.686675 C929.2161,257.02258 929.4261,253.625492 929.8401,250.586413 C930.2971,247.243327 930.8241,244.080245 931.4051,241.18917 L933.1121,232.693949 L924.9491,229.794874 C902.6061,221.856668 885.7161,209.20034 873.3161,191.103871 C861.0231,173.177407 854.7901,151.644849 854.7901,127.100212 C854.7901,101.475548 860.6941,79.1089683 872.3351,60.6254892 C884.0111,42.0840086 900.1831,27.47963 920.4021,17.218364 C940.8331,6.85709544 964.5121,1.60295925 990.7791,1.60295925 C1010.5091,1.60295925 1028.8711,4.6140373 1045.3571,10.5531912 C1061.6911,16.444344 1076.0691,24.9285639 1088.0881,35.7668448 C1100.0011,46.5221236 1109.4481,59.7424663 1116.1591,75.0558632 C1122.8821,90.4062611 1126.2911,107.918715 1126.2911,127.100212 C1126.2911,138.57351 1124.4791,151.189837 1120.9051,164.599184 C1117.3501,177.92453 1112.1041,190.372852 1105.3121,201.598143 L1063.7701,271.31195 C1054.9751,285.976331 1044.9501,297.51863 1033.9891,305.592839 C1023.7121,313.164035 1010.2991,317.003135 994.1201,317.003135" id="Fill-23" fill="#000000"></path>
                <path d="M965.0171,112.289828 C972.3261,112.289828 978.2151,114.458885 983.0211,118.922 C987.6761,123.244112 989.8441,128.724254 989.8441,136.164447 C989.8441,140.091549 988.9911,144.515664 987.3071,149.312788 C986.0481,152.891881 982.7331,160.159069 974.1141,174.401438 L951.5631,212.309421 C946.1221,221.829668 942.2941,229.761873 939.8591,236.56005 C937.2551,243.803237 935.9331,251.924448 935.9331,260.686675 C935.9331,268.816886 938.1531,276.767092 942.5321,284.313287 C946.9211,291.903484 953.5781,298.217648 962.3091,303.065774 C970.9201,307.855898 981.4641,310.285961 993.6411,310.285961 C1007.7081,310.285961 1019.9521,306.815871 1030.0321,299.972693 C1039.7541,293.362522 1048.9071,282.831249 1058.0171,267.771859 L1099.6141,198.439061 C1105.7471,187.882788 1110.6591,175.921478 1114.2111,162.88814 C1117.7691,149.852802 1119.5741,137.81049 1119.5741,127.100212 C1119.5741,108.583732 1116.2261,91.7872969 1109.6221,77.1789183 C1103.0081,62.5635394 1093.6411,49.9342121 1081.7811,39.6339451 C1070.0371,29.4526811 1056.2481,21.5904773 1040.7931,16.2613392 C1025.4881,10.9912026 1008.6631,8.32013336 990.7791,8.32013336 C966.4361,8.32013336 944.3161,13.1642589 925.0351,22.7195066 C905.4801,32.4107578 889.8501,46.2991178 878.5781,63.9985766 C867.2511,81.7690372 861.5081,103.001588 861.5081,127.100212 C861.5081,150.370815 867.3131,170.650341 878.7601,187.375775 C890.2681,204.205211 906.7821,216.477529 927.8401,223.84672 L935.5171,226.53279 L939.7101,219.563609 C940.7781,217.791563 941.8681,215.797511 942.9491,213.636455 C943.7221,212.088415 944.6331,210.527375 945.6601,208.991335 L945.8001,208.78133 L967.8771,171.827372 C980.8961,149.964805 982.6501,142.014599 982.6501,137.118472 C982.6501,130.539301 979.8891,126.397194 977.5741,124.082134 C974.6241,121.134058 970.7871,119.31001 966.1611,118.657993 C962.4661,117.921974 961.2461,116.855947 961.1101,116.533938 C960.7491,115.683916 960.5801,115.099901 961.5101,113.648864 C961.8781,113.071849 962.3791,112.289828 965.0171,112.289828 Z M994.1201,317.003135 C981.9991,317.003135 970.8541,314.606073 960.9921,309.87595 C951.1951,305.187829 943.5761,298.784663 937.6931,290.296443 C931.9881,282.07923 929.2161,272.396979 929.2161,260.686675 C929.2161,257.02258 929.4261,253.625492 929.8401,250.586413 C930.2971,247.243327 930.8241,244.080245 931.4051,241.18917 L933.1121,232.693949 L924.9491,229.794874 C902.6061,221.856668 885.7161,209.20034 873.3161,191.103871 C861.0231,173.177407 854.7901,151.644849 854.7901,127.100212 C854.7901,101.475548 860.6941,79.1089683 872.3351,60.6254892 C884.0111,42.0840086 900.1831,27.47963 920.4021,17.218364 C940.8331,6.85709544 964.5121,1.60295925 990.7791,1.60295925 C1010.5091,1.60295925 1028.8711,4.6140373 1045.3571,10.5531912 C1061.6911,16.444344 1076.0691,24.9285639 1088.0881,35.7668448 C1100.0011,46.5221236 1109.4481,59.7424663 1116.1591,75.0558632 C1122.8821,90.4062611 1126.2911,107.918715 1126.2911,127.100212 C1126.2911,138.57351 1124.4791,151.189837 1120.9051,164.599184 C1117.3501,177.92453 1112.1041,190.372852 1105.3121,201.598143 L1063.7701,271.31195 C1054.9751,285.976331 1044.9501,297.51863 1033.9891,305.592839 C1023.7121,313.164035 1010.2991,317.003135 994.1201,317.003135 Z" id="Stroke-25" stroke="#000000" stroke-width="2"></path>
            </g>
        </g>
    </g>
</svg>