<?xml version="1.0" encoding="utf-8"?>
<svg id="master-artboard" viewBox="0 0 1400 980" version="1.1" xmlns="http://www.w3.org/2000/svg" x="0px" y="0px" style="enable-background:new 0 0 1400 980;" width="1400px" height="980px"><defs><style id="ee-google-fonts">@import url(https://fonts.googleapis.com/css?family=Monoton:400);</style></defs><path d="M 252.82350158691406 458.3655090332031 L 252.82350158691406 457.5255126953125 L 264.2635192871094 457.5255126953125 L 264.2635192871094 458.3655090332031 L 252.82350158691406 458.3655090332031 M 252.82350158691406 460.0555114746094 L 252.82350158691406 459.21551513671875 L 264.2635192871094 459.21551513671875 L 264.2635192871094 460.0555114746094 L 252.82350158691406 460.0555114746094 M 252.82350158691406 461.7455139160156 L 252.82350158691406 460.905517578125 L 264.2635192871094 460.905517578125 L 264.2635192871094 461.7455139160156 L 252.82350158691406 461.7455139160156 M 254.12350463867188 457.0555114746094 L 253.1435089111328 457.0555114746094 C 253.69017028808594 456.3155212402344 254.2301788330078 455.5888366699219 254.7635040283203 454.8755187988281 C 255.29017639160156 454.1688537597656 255.73350524902344 453.578857421875 256.093505859375 453.1054992675781 C 256.44683837890625 452.6321716308594 256.7901611328125 452.1688537597656 257.1235046386719 451.71551513671875 C 257.4635009765625 451.2621765136719 257.7368469238281 450.8988342285156 257.9435119628906 450.6255187988281 C 258.1501770019531 450.3521728515625 258.3468322753906 450.08551025390625 258.53350830078125 449.82550048828125 C 258.7201843261719 449.5721740722656 258.86016845703125 449.3721923828125 258.9535217285156 449.22552490234375 C 259.0468444824219 449.078857421875 259.13018798828125 448.9388427734375 259.2035217285156 448.8055114746094 C 259.27685546875 448.67218017578125 259.32684326171875 448.5655212402344 259.353515625 448.4855041503906 C 259.3735046386719 448.405517578125 259.3835144042969 448.32550048828125 259.3835144042969 448.2455139160156 C 259.3835144042969 447.8855285644531 259.2368469238281 447.655517578125 258.9435119628906 447.5555114746094 C 258.64349365234375 447.45550537109375 258.12017822265625 447.405517578125 257.3735046386719 447.405517578125 C 256.15350341796875 447.405517578125 254.93350219726562 447.5655212402344 253.7135009765625 447.8855285644531 L 253.5435028076172 447.07550048828125 C 253.73684692382812 446.9888610839844 254.2301788330078 446.8755187988281 255.0235137939453 446.7355041503906 C 255.81683349609375 446.6021728515625 256.5801696777344 446.5355224609375 257.3135070800781 446.5355224609375 C 257.7601623535156 446.5355224609375 258.1468505859375 446.56219482421875 258.4735107421875 446.6155090332031 C 258.8001708984375 446.66217041015625 259.1001892089844 446.7455139160156 259.3735046386719 446.8655090332031 C 259.6401672363281 446.9855041503906 259.843505859375 447.16217041015625 259.9835205078125 447.3955078125 C 260.1235046386719 447.62884521484375 260.1935119628906 447.91217041015625 260.1935119628906 448.2455139160156 C 260.1935119628906 448.578857421875 260.02349853515625 449.00885009765625 259.6835021972656 449.5355224609375 C 259.33685302734375 450.0555114746094 258.4535217285156 451.2655029296875 257.03350830078125 453.16552734375 C 255.8801727294922 454.70550537109375 254.91017150878906 456.0021667480469 254.12350463867188 457.0555114746094 M 256.03350830078125 457.0555114746094 L 255.0535125732422 457.0555114746094 C 257.9668273925781 453.1355285644531 259.58349609375 450.9455261230469 259.90350341796875 450.4855041503906 C 260.5568542480469 449.5455017089844 260.92352294921875 448.8755187988281 261.0035095214844 448.47552490234375 C 261.0301818847656 448.36883544921875 261.04351806640625 448.2521667480469 261.04351806640625 448.1255187988281 C 261.04351806640625 446.5121765136719 259.81683349609375 445.70550537109375 257.3634948730469 445.70550537109375 C 256.61016845703125 445.70550537109375 255.8468475341797 445.7721862792969 255.07350158691406 445.905517578125 C 254.3001708984375 446.0388488769531 253.73350524902344 446.1688537597656 253.37350463867188 446.2955017089844 L 253.2135009765625 445.4955139160156 C 254.54684448242188 445.07550048828125 255.93350219726562 444.8655090332031 257.3735046386719 444.8655090332031 C 257.8735046386719 444.8655090332031 258.33685302734375 444.8988342285156 258.7635192871094 444.96551513671875 C 259.190185546875 445.03216552734375 259.5968322753906 445.1455078125 259.9835205078125 445.3055114746094 C 260.3768310546875 445.4588623046875 260.7101745605469 445.6588439941406 260.9835205078125 445.905517578125 C 261.2568359375 446.1521911621094 261.4735107421875 446.4621887207031 261.6335144042969 446.83551025390625 C 261.79351806640625 447.21551513671875 261.8735046386719 447.6455078125 261.8735046386719 448.1255187988281 C 261.8735046386719 448.6255187988281 261.6268310546875 449.2555236816406 261.1335144042969 450.0155029296875 C 260.6401672363281 450.7755126953125 259.1668395996094 452.8155212402344 256.7135009765625 456.1355285644531 C 256.420166015625 456.5288391113281 256.1935119628906 456.83551025390625 256.03350830078125 457.0555114746094 M 257.9934997558594 457.0555114746094 L 257.0135192871094 457.0555114746094 C 259.67352294921875 453.41552734375 261.2901611328125 451.1488342285156 261.8634948730469 450.2555236816406 C 262.43017578125 449.3621826171875 262.7135009765625 448.6155090332031 262.7135009765625 448.0155029296875 C 262.7135009765625 447.2755126953125 262.5735168457031 446.6421813964844 262.29351806640625 446.1155090332031 C 262.0068359375 445.5821838378906 261.6068420410156 445.16552734375 261.093505859375 444.8655090332031 C 260.5801696777344 444.5721740722656 260.016845703125 444.3588562011719 259.40350341796875 444.22552490234375 C 258.7901611328125 444.0921936035156 258.11016845703125 444.0255126953125 257.3634948730469 444.0255126953125 C 255.91683959960938 444.0255126953125 254.4735107421875 444.2455139160156 253.03350830078125 444.6855163574219 L 252.86351013183594 443.82550048828125 C 254.40350341796875 443.3721923828125 255.89016723632812 443.1455078125 257.3235168457031 443.1455078125 C 258.0301818847656 443.1455078125 258.6835021972656 443.1955261230469 259.28350830078125 443.2955017089844 C 259.8835144042969 443.4021911621094 260.4501647949219 443.5721740722656 260.9835205078125 443.8055114746094 C 261.52349853515625 444.0455017089844 261.9768371582031 444.3488464355469 262.343505859375 444.71551513671875 C 262.7168273925781 445.0821838378906 263.0135192871094 445.5455017089844 263.2335205078125 446.1054992675781 C 263.4535217285156 446.66552734375 263.5635070800781 447.30218505859375 263.5635070800781 448.0155029296875 C 263.5635070800781 448.5221862792969 263.4435119628906 449.0388488769531 263.2035217285156 449.5655212402344 C 262.9635009765625 450.0921936035156 262.4701843261719 450.8955078125 261.7235107421875 451.97552490234375 C 260.9768371582031 453.0488586425781 259.7335205078125 454.7421875 257.9934997558594 457.0555114746094 M 260.02349853515625 457.0555114746094 L 259.03350830078125 457.0555114746094 C 260.68682861328125 454.8755187988281 261.88018798828125 453.2388610839844 262.6134948730469 452.1455078125 C 263.353515625 451.0455017089844 263.83685302734375 450.2121887207031 264.0635070800781 449.6455078125 C 264.2901611328125 449.078857421875 264.40350341796875 448.4955139160156 264.40350341796875 447.8955078125 C 264.40350341796875 447.12884521484375 264.2868347167969 446.4355163574219 264.0534973144531 445.8155212402344 C 263.82684326171875 445.1955261230469 263.5035095214844 444.67218017578125 263.08349609375 444.2455139160156 C 262.670166015625 443.81884765625 262.170166015625 443.4621887207031 261.58349609375 443.1755065917969 C 260.996826171875 442.8821716308594 260.353515625 442.6688537597656 259.65350341796875 442.5355224609375 C 258.9535217285156 442.4021911621094 258.19683837890625 442.33551025390625 257.3835144042969 442.33551025390625 C 255.88351440429688 442.33551025390625 254.32017517089844 442.5721740722656 252.69351196289062 443.0455017089844 L 252.5235137939453 442.20550537109375 C 254.17018127441406 441.732177734375 255.78350830078125 441.4955139160156 257.3634948730469 441.4955139160156 C 258.5368347167969 441.4955139160156 259.5968322753906 441.6221923828125 260.54351806640625 441.8755187988281 C 261.49017333984375 442.12884521484375 262.31683349609375 442.50885009765625 263.02349853515625 443.0155029296875 C 263.73016357421875 443.5288391113281 264.27685546875 444.1988525390625 264.66351318359375 445.0255126953125 C 265.0501708984375 445.8521728515625 265.2434997558594 446.808837890625 265.2434997558594 447.8955078125 C 265.2434997558594 448.5821838378906 265.1335144042969 449.2288513183594 264.91351318359375 449.83551025390625 C 264.6935119628906 450.4488525390625 264.2101745605469 451.31219482421875 263.4635009765625 452.4255065917969 C 262.7168273925781 453.5455017089844 261.5701599121094 455.0888366699219 260.02349853515625 457.0555114746094 ZM 267.8954162597656 457.5455017089844 C 267.8954162597656 457.5455017089844 267.69207763671875 457.1455078125 267.285400390625 456.34552001953125 C 266.8787536621094 455.5388488769531 266.6754150390625 454.1054992675781 266.6754150390625 452.0455017089844 C 266.6754150390625 449.9788513183594 267.0820617675781 448.1421813964844 267.8954162597656 446.5355224609375 C 268.708740234375 444.92218017578125 269.8254089355469 443.6788330078125 271.2453918457031 442.8055114746094 C 272.6654052734375 441.93218994140625 274.26873779296875 441.4955139160156 276.055419921875 441.4955139160156 C 277.8354187011719 441.4955139160156 279.4353942871094 441.93218994140625 280.85540771484375 442.8055114746094 C 282.275390625 443.6788330078125 283.3920593261719 444.92218017578125 284.2054138183594 446.5355224609375 C 285.01873779296875 448.1421813964844 285.4254150390625 449.9788513183594 285.4254150390625 452.0455017089844 C 285.4254150390625 454.1054992675781 285.01873779296875 455.9388427734375 284.2054138183594 457.5455017089844 C 283.3920593261719 459.1588439941406 282.275390625 460.4021911621094 280.85540771484375 461.2755126953125 C 279.4353942871094 462.1488342285156 277.8354187011719 462.58551025390625 276.055419921875 462.58551025390625 C 274.26873779296875 462.58551025390625 272.6654052734375 462.1488342285156 271.2453918457031 461.2755126953125 C 269.8254089355469 460.4021911621094 268.708740234375 459.1588439941406 267.8954162597656 457.5455017089844 M 279.1954040527344 448.0055236816406 C 279.1954040527344 448.0055236816406 279.3920593261719 448.2455139160156 279.785400390625 448.72552490234375 C 280.17205810546875 449.2121887207031 280.36541748046875 450.31884765625 280.36541748046875 452.0455017089844 C 280.36541748046875 453.7721862792969 279.97540283203125 455.1155090332031 279.1954040527344 456.07550048828125 C 278.42205810546875 457.04217529296875 277.3753967285156 457.5255126953125 276.055419921875 457.5255126953125 C 274.73541259765625 457.5255126953125 273.6853942871094 457.04217529296875 272.9053955078125 456.07550048828125 C 272.1253967285156 455.1155090332031 271.73541259765625 453.7721862792969 271.73541259765625 452.0455017089844 C 271.73541259765625 450.31884765625 272.1253967285156 448.97216796875 272.9053955078125 448.0055236816406 C 273.6853942871094 447.0388488769531 274.73541259765625 446.5555114746094 276.055419921875 446.5555114746094 C 277.3753967285156 446.5555114746094 278.42205810546875 447.0388488769531 279.1954040527344 448.0055236816406 M 280.3954162597656 446.8155212402344 C 280.3954162597656 446.8155212402344 280.67205810546875 447.13885498046875 281.22540283203125 447.7855224609375 C 281.77874755859375 448.4388427734375 282.055419921875 449.8588562011719 282.055419921875 452.0455017089844 C 282.055419921875 454.232177734375 281.5020751953125 455.97216796875 280.3954162597656 457.2655029296875 C 279.2887268066406 458.5655212402344 277.8420715332031 459.21551513671875 276.055419921875 459.21551513671875 C 274.2620849609375 459.21551513671875 272.81207275390625 458.5655212402344 271.7054138183594 457.2655029296875 C 270.60540771484375 455.97216796875 270.055419921875 454.232177734375 270.055419921875 452.0455017089844 C 270.055419921875 449.8588562011719 270.60540771484375 448.1155090332031 271.7054138183594 446.8155212402344 C 272.81207275390625 445.5155029296875 274.2620849609375 444.8655090332031 276.055419921875 444.8655090332031 C 277.8420715332031 444.8655090332031 279.2887268066406 445.5155029296875 280.3954162597656 446.8155212402344 M 282.7453918457031 447.3855285644531 C 282.7453918457031 447.3855285644531 282.9120788574219 447.72216796875 283.2453918457031 448.3955078125 C 283.57208251953125 449.06884765625 283.73541259765625 450.2855224609375 283.73541259765625 452.0455017089844 C 283.73541259765625 453.7988586425781 283.4053955078125 455.3521728515625 282.7453918457031 456.70550537109375 C 282.0854187011719 458.05218505859375 281.1754150390625 459.0888366699219 280.0154113769531 459.8155212402344 C 278.8487243652344 460.54217529296875 277.52874755859375 460.905517578125 276.055419921875 460.905517578125 C 274.5754089355469 460.905517578125 273.2554016113281 460.54217529296875 272.09539794921875 459.8155212402344 C 270.9287414550781 459.0888366699219 270.0154113769531 458.05218505859375 269.35540771484375 456.70550537109375 C 268.6954040527344 455.3521728515625 268.36541748046875 453.7988586425781 268.36541748046875 452.0455017089844 C 268.36541748046875 450.2855224609375 268.6954040527344 448.732177734375 269.35540771484375 447.3855285644531 C 270.0154113769531 446.0388488769531 270.9287414550781 445.0021667480469 272.09539794921875 444.2755126953125 C 273.2554016113281 443.5488586425781 274.5754089355469 443.1855163574219 276.055419921875 443.1855163574219 C 277.52874755859375 443.1855163574219 278.8487243652344 443.5488586425781 280.0154113769531 444.2755126953125 C 281.1754150390625 445.0021667480469 282.0854187011719 446.0388488769531 282.7453918457031 447.3855285644531 M 273.5054016113281 448.59552001953125 C 273.5054016113281 448.59552001953125 273.3520812988281 448.7955017089844 273.04541015625 449.1955261230469 C 272.7387390136719 449.59552001953125 272.5854187011719 450.5455017089844 272.5854187011719 452.0455017089844 C 272.5854187011719 453.5455017089844 272.8920593261719 454.6921691894531 273.5054016113281 455.4855041503906 C 274.1187438964844 456.2855224609375 274.96875 456.6855163574219 276.055419921875 456.6855163574219 C 277.1420593261719 456.6855163574219 277.9920654296875 456.2855224609375 278.60540771484375 455.4855041503906 C 279.21875 454.6921691894531 279.525390625 453.5455017089844 279.525390625 452.0455017089844 C 279.525390625 450.5455017089844 279.21875 449.3955078125 278.60540771484375 448.59552001953125 C 277.9920654296875 447.80218505859375 277.1420593261719 447.405517578125 276.055419921875 447.405517578125 C 274.96875 447.405517578125 274.1187438964844 447.80218505859375 273.5054016113281 448.59552001953125 M 272.305419921875 447.405517578125 C 272.305419921875 447.405517578125 272.07208251953125 447.6888427734375 271.60540771484375 448.2555236816406 C 271.132080078125 448.8221740722656 270.8954162597656 450.08551025390625 270.8954162597656 452.0455017089844 C 270.8954162597656 454.0055236816406 271.36541748046875 455.5488586425781 272.305419921875 456.6755065917969 C 273.2453918457031 457.80218505859375 274.4953918457031 458.3655090332031 276.055419921875 458.3655090332031 C 277.6087341308594 458.3655090332031 278.85540771484375 457.80218505859375 279.79541015625 456.6755065917969 C 280.73541259765625 455.5488586425781 281.2054138183594 454.0055236816406 281.2054138183594 452.0455017089844 C 281.2054138183594 450.08551025390625 280.73541259765625 448.5388488769531 279.79541015625 447.405517578125 C 278.85540771484375 446.2788391113281 277.6087341308594 445.71551513671875 276.055419921875 445.71551513671875 C 274.4953918457031 445.71551513671875 273.2453918457031 446.2788391113281 272.305419921875 447.405517578125 M 271.11541748046875 446.21551513671875 C 271.11541748046875 446.21551513671875 270.7987365722656 446.5821838378906 270.1654052734375 447.3155212402344 C 269.525390625 448.04217529296875 269.2054138183594 449.61883544921875 269.2054138183594 452.0455017089844 C 269.2054138183594 454.46551513671875 269.8420715332031 456.405517578125 271.11541748046875 457.8655090332031 C 272.382080078125 459.32550048828125 274.02874755859375 460.0555114746094 276.055419921875 460.0555114746094 C 278.0754089355469 460.0555114746094 279.7220764160156 459.32550048828125 280.9953918457031 457.8655090332031 C 282.2620849609375 456.405517578125 282.8954162597656 454.46551513671875 282.8954162597656 452.0455017089844 C 282.8954162597656 449.61883544921875 282.2620849609375 447.6755065917969 280.9953918457031 446.21551513671875 C 279.7220764160156 444.7555236816406 278.0754089355469 444.0255126953125 276.055419921875 444.0255126953125 C 274.02874755859375 444.0255126953125 272.382080078125 444.7555236816406 271.11541748046875 446.21551513671875 M 268.1654052734375 448.07550048828125 C 268.1654052734375 448.07550048828125 268.0587463378906 448.37884521484375 267.84539794921875 448.9855041503906 C 267.632080078125 449.5921936035156 267.525390625 450.6121826171875 267.525390625 452.0455017089844 C 267.525390625 453.47216796875 267.7387390136719 454.79217529296875 268.1654052734375 456.0055236816406 C 268.5920715332031 457.22552490234375 269.1853942871094 458.2521667480469 269.9454040527344 459.08551025390625 C 270.69873046875 459.9188537597656 271.5987243652344 460.5721740722656 272.6454162597656 461.0455017089844 C 273.69873046875 461.5121765136719 274.8354187011719 461.7455139160156 276.055419921875 461.7455139160156 C 277.26873779296875 461.7455139160156 278.4020690917969 461.5121765136719 279.4554138183594 461.0455017089844 C 280.50872802734375 460.5721740722656 281.4120788574219 459.9188537597656 282.1654052734375 459.08551025390625 C 282.9187316894531 458.2521667480469 283.50872802734375 457.22552490234375 283.9353942871094 456.0055236816406 C 284.3687438964844 454.79217529296875 284.5854187011719 453.47216796875 284.5854187011719 452.0455017089844 C 284.5854187011719 450.6121826171875 284.3687438964844 449.2888488769531 283.9353942871094 448.07550048828125 C 283.50872802734375 446.8621826171875 282.9187316894531 445.83551025390625 282.1654052734375 444.9955139160156 C 281.4120788574219 444.16217041015625 280.50872802734375 443.5121765136719 279.4554138183594 443.0455017089844 C 278.4020690917969 442.5721740722656 277.26873779296875 442.33551025390625 276.055419921875 442.33551025390625 C 274.8354187011719 442.33551025390625 273.69873046875 442.5721740722656 272.6454162597656 443.0455017089844 C 271.5987243652344 443.5121765136719 270.69873046875 444.16217041015625 269.9454040527344 444.9955139160156 C 269.1853942871094 445.83551025390625 268.5920715332031 446.8621826171875 268.1654052734375 448.07550048828125 ZM 287.05328369140625 458.3655090332031 L 287.05328369140625 457.5255126953125 L 298.4932861328125 457.5255126953125 L 298.4932861328125 458.3655090332031 L 287.05328369140625 458.3655090332031 M 287.05328369140625 460.0555114746094 L 287.05328369140625 459.21551513671875 L 298.4932861328125 459.21551513671875 L 298.4932861328125 460.0555114746094 L 287.05328369140625 460.0555114746094 M 287.05328369140625 461.7455139160156 L 287.05328369140625 460.905517578125 L 298.4932861328125 460.905517578125 L 298.4932861328125 461.7455139160156 L 287.05328369140625 461.7455139160156 M 288.3533020019531 457.0555114746094 L 287.373291015625 457.0555114746094 C 287.9199523925781 456.3155212402344 288.4599609375 455.5888366699219 288.9932861328125 454.8755187988281 C 289.51995849609375 454.1688537597656 289.9632873535156 453.578857421875 290.32330322265625 453.1054992675781 C 290.6766357421875 452.6321716308594 291.01995849609375 452.1688537597656 291.3533020019531 451.71551513671875 C 291.69329833984375 451.2621765136719 291.96661376953125 450.8988342285156 292.17327880859375 450.6255187988281 C 292.37994384765625 450.3521728515625 292.5766296386719 450.08551025390625 292.7632751464844 449.82550048828125 C 292.949951171875 449.5721740722656 293.0899658203125 449.3721923828125 293.18328857421875 449.22552490234375 C 293.276611328125 449.078857421875 293.3599548339844 448.9388427734375 293.43328857421875 448.8055114746094 C 293.5066223144531 448.67218017578125 293.5566101074219 448.5655212402344 293.5832824707031 448.4855041503906 C 293.6033020019531 448.405517578125 293.61328125 448.32550048828125 293.61328125 448.2455139160156 C 293.61328125 447.8855285644531 293.46661376953125 447.655517578125 293.17327880859375 447.5555114746094 C 292.873291015625 447.45550537109375 292.3499450683594 447.405517578125 291.6033020019531 447.405517578125 C 290.38330078125 447.405517578125 289.1632995605469 447.5655212402344 287.94329833984375 447.8855285644531 L 287.7732849121094 447.07550048828125 C 287.96661376953125 446.9888610839844 288.4599609375 446.8755187988281 289.2532958984375 446.7355041503906 C 290.046630859375 446.6021728515625 290.8099670410156 446.5355224609375 291.5433044433594 446.5355224609375 C 291.9899597167969 446.5355224609375 292.3766174316406 446.56219482421875 292.7032775878906 446.6155090332031 C 293.02996826171875 446.66217041015625 293.3299560546875 446.7455139160156 293.6033020019531 446.8655090332031 C 293.8699645996094 446.9855041503906 294.07330322265625 447.16217041015625 294.2132873535156 447.3955078125 C 294.3533020019531 447.62884521484375 294.42327880859375 447.91217041015625 294.42327880859375 448.2455139160156 C 294.42327880859375 448.578857421875 294.2532958984375 449.00885009765625 293.9132995605469 449.5355224609375 C 293.5666198730469 450.0555114746094 292.68328857421875 451.2655029296875 291.2632751464844 453.16552734375 C 290.1099548339844 454.70550537109375 289.13995361328125 456.0021667480469 288.3533020019531 457.0555114746094 M 290.2632751464844 457.0555114746094 L 289.2832946777344 457.0555114746094 C 292.1966247558594 453.1355285644531 293.81329345703125 450.9455261230469 294.13330078125 450.4855041503906 C 294.78662109375 449.5455017089844 295.1532897949219 448.8755187988281 295.2332763671875 448.47552490234375 C 295.25994873046875 448.36883544921875 295.2732849121094 448.2521667480469 295.2732849121094 448.1255187988281 C 295.2732849121094 446.5121765136719 294.046630859375 445.70550537109375 291.5932922363281 445.70550537109375 C 290.8399658203125 445.70550537109375 290.0766296386719 445.7721862792969 289.30328369140625 445.905517578125 C 288.52996826171875 446.0388488769531 287.9632873535156 446.1688537597656 287.6033020019531 446.2955017089844 L 287.44329833984375 445.4955139160156 C 288.776611328125 445.07550048828125 290.1632995605469 444.8655090332031 291.6033020019531 444.8655090332031 C 292.1033020019531 444.8655090332031 292.5666198730469 444.8988342285156 292.9932861328125 444.96551513671875 C 293.4199523925781 445.03216552734375 293.8266296386719 445.1455078125 294.2132873535156 445.3055114746094 C 294.60662841796875 445.4588623046875 294.93994140625 445.6588439941406 295.2132873535156 445.905517578125 C 295.48663330078125 446.1521911621094 295.7032775878906 446.4621887207031 295.86328125 446.83551025390625 C 296.0232849121094 447.21551513671875 296.1033020019531 447.6455078125 296.1033020019531 448.1255187988281 C 296.1033020019531 448.6255187988281 295.85662841796875 449.2555236816406 295.36328125 450.0155029296875 C 294.8699645996094 450.7755126953125 293.3966369628906 452.8155212402344 290.94329833984375 456.1355285644531 C 290.64996337890625 456.5288391113281 290.42327880859375 456.83551025390625 290.2632751464844 457.0555114746094 M 292.2232971191406 457.0555114746094 L 291.2432861328125 457.0555114746094 C 293.9032897949219 453.41552734375 295.51995849609375 451.1488342285156 296.0932922363281 450.2555236816406 C 296.6599426269531 449.3621826171875 296.94329833984375 448.6155090332031 296.94329833984375 448.0155029296875 C 296.94329833984375 447.2755126953125 296.80328369140625 446.6421813964844 296.5232849121094 446.1155090332031 C 296.23663330078125 445.5821838378906 295.83660888671875 445.16552734375 295.32330322265625 444.8655090332031 C 294.8099670410156 444.5721740722656 294.2466125488281 444.3588562011719 293.63330078125 444.22552490234375 C 293.01995849609375 444.0921936035156 292.3399658203125 444.0255126953125 291.5932922363281 444.0255126953125 C 290.1466369628906 444.0255126953125 288.7032775878906 444.2455139160156 287.2632751464844 444.6855163574219 L 287.0932922363281 443.82550048828125 C 288.63330078125 443.3721923828125 290.1199645996094 443.1455078125 291.55328369140625 443.1455078125 C 292.25994873046875 443.1455078125 292.9132995605469 443.1955261230469 293.5132751464844 443.2955017089844 C 294.11328125 443.4021911621094 294.6799621582031 443.5721740722656 295.2132873535156 443.8055114746094 C 295.7532958984375 444.0455017089844 296.2066345214844 444.3488464355469 296.57330322265625 444.71551513671875 C 296.9466247558594 445.0821838378906 297.2432861328125 445.5455017089844 297.4632873535156 446.1054992675781 C 297.68328857421875 446.66552734375 297.7933044433594 447.30218505859375 297.7933044433594 448.0155029296875 C 297.7933044433594 448.5221862792969 297.67327880859375 449.0388488769531 297.43328857421875 449.5655212402344 C 297.19329833984375 450.0921936035156 296.699951171875 450.8955078125 295.9532775878906 451.97552490234375 C 295.2066345214844 453.0488586425781 293.9632873535156 454.7421875 292.2232971191406 457.0555114746094 M 294.2532958984375 457.0555114746094 L 293.2632751464844 457.0555114746094 C 294.9166259765625 454.8755187988281 296.1099548339844 453.2388610839844 296.8432922363281 452.1455078125 C 297.5832824707031 451.0455017089844 298.0666198730469 450.2121887207031 298.2933044433594 449.6455078125 C 298.51995849609375 449.078857421875 298.63330078125 448.4955139160156 298.63330078125 447.8955078125 C 298.63330078125 447.12884521484375 298.5166320800781 446.4355163574219 298.2832946777344 445.8155212402344 C 298.0566101074219 445.1955261230469 297.7332763671875 444.67218017578125 297.31329345703125 444.2455139160156 C 296.89996337890625 443.81884765625 296.39996337890625 443.4621887207031 295.81329345703125 443.1755065917969 C 295.22662353515625 442.8821716308594 294.5832824707031 442.6688537597656 293.88330078125 442.5355224609375 C 293.18328857421875 442.4021911621094 292.4266357421875 442.33551025390625 291.61328125 442.33551025390625 C 290.11328125 442.33551025390625 288.5499572753906 442.5721740722656 286.92327880859375 443.0455017089844 L 286.7532958984375 442.20550537109375 C 288.39996337890625 441.732177734375 290.0132751464844 441.4955139160156 291.5932922363281 441.4955139160156 C 292.7666320800781 441.4955139160156 293.8266296386719 441.6221923828125 294.7732849121094 441.8755187988281 C 295.719970703125 442.12884521484375 296.546630859375 442.50885009765625 297.2532958984375 443.0155029296875 C 297.9599609375 443.5288391113281 298.5066223144531 444.1988525390625 298.8932800292969 445.0255126953125 C 299.27996826171875 445.8521728515625 299.4732971191406 446.808837890625 299.4732971191406 447.8955078125 C 299.4732971191406 448.5821838378906 299.36328125 449.2288513183594 299.1432800292969 449.83551025390625 C 298.92327880859375 450.4488525390625 298.43994140625 451.31219482421875 297.69329833984375 452.4255065917969 C 296.9466247558594 453.5455017089844 295.7999572753906 455.0888366699219 294.2532958984375 457.0555114746094 ZM 302.1252136230469 457.5455017089844 C 302.1252136230469 457.5455017089844 301.921875 457.1455078125 301.51519775390625 456.34552001953125 C 301.1085510253906 455.5388488769531 300.90521240234375 454.1054992675781 300.90521240234375 452.0455017089844 C 300.90521240234375 449.9788513183594 301.3118591308594 448.1421813964844 302.1252136230469 446.5355224609375 C 302.93853759765625 444.92218017578125 304.0552062988281 443.6788330078125 305.4751892089844 442.8055114746094 C 306.89520263671875 441.93218994140625 308.49853515625 441.4955139160156 310.28521728515625 441.4955139160156 C 312.0652160644531 441.4955139160156 313.6651916503906 441.93218994140625 315.085205078125 442.8055114746094 C 316.50518798828125 443.6788330078125 317.6218566894531 444.92218017578125 318.4352111816406 446.5355224609375 C 319.24853515625 448.1421813964844 319.65521240234375 449.9788513183594 319.65521240234375 452.0455017089844 C 319.65521240234375 454.1054992675781 319.24853515625 455.9388427734375 318.4352111816406 457.5455017089844 C 317.6218566894531 459.1588439941406 316.50518798828125 460.4021911621094 315.085205078125 461.2755126953125 C 313.6651916503906 462.1488342285156 312.0652160644531 462.58551025390625 310.28521728515625 462.58551025390625 C 308.49853515625 462.58551025390625 306.89520263671875 462.1488342285156 305.4751892089844 461.2755126953125 C 304.0552062988281 460.4021911621094 302.93853759765625 459.1588439941406 302.1252136230469 457.5455017089844 M 313.4252014160156 448.0055236816406 C 313.4252014160156 448.0055236816406 313.6218566894531 448.2455139160156 314.01519775390625 448.72552490234375 C 314.40185546875 449.2121887207031 314.59521484375 450.31884765625 314.59521484375 452.0455017089844 C 314.59521484375 453.7721862792969 314.2052001953125 455.1155090332031 313.4252014160156 456.07550048828125 C 312.65185546875 457.04217529296875 311.6051940917969 457.5255126953125 310.28521728515625 457.5255126953125 C 308.9652099609375 457.5255126953125 307.9151916503906 457.04217529296875 307.13519287109375 456.07550048828125 C 306.3551940917969 455.1155090332031 305.9652099609375 453.7721862792969 305.9652099609375 452.0455017089844 C 305.9652099609375 450.31884765625 306.3551940917969 448.97216796875 307.13519287109375 448.0055236816406 C 307.9151916503906 447.0388488769531 308.9652099609375 446.5555114746094 310.28521728515625 446.5555114746094 C 311.6051940917969 446.5555114746094 312.65185546875 447.0388488769531 313.4252014160156 448.0055236816406 M 314.6252136230469 446.8155212402344 C 314.6252136230469 446.8155212402344 314.90185546875 447.13885498046875 315.4552001953125 447.7855224609375 C 316.008544921875 448.4388427734375 316.28521728515625 449.8588562011719 316.28521728515625 452.0455017089844 C 316.28521728515625 454.232177734375 315.73187255859375 455.97216796875 314.6252136230469 457.2655029296875 C 313.5185241699219 458.5655212402344 312.0718688964844 459.21551513671875 310.28521728515625 459.21551513671875 C 308.49188232421875 459.21551513671875 307.0418701171875 458.5655212402344 305.9352111816406 457.2655029296875 C 304.835205078125 455.97216796875 304.28521728515625 454.232177734375 304.28521728515625 452.0455017089844 C 304.28521728515625 449.8588562011719 304.835205078125 448.1155090332031 305.9352111816406 446.8155212402344 C 307.0418701171875 445.5155029296875 308.49188232421875 444.8655090332031 310.28521728515625 444.8655090332031 C 312.0718688964844 444.8655090332031 313.5185241699219 445.5155029296875 314.6252136230469 446.8155212402344 M 316.9751892089844 447.3855285644531 C 316.9751892089844 447.3855285644531 317.1418762207031 447.72216796875 317.4751892089844 448.3955078125 C 317.8018798828125 449.06884765625 317.9652099609375 450.2855224609375 317.9652099609375 452.0455017089844 C 317.9652099609375 453.7988586425781 317.63519287109375 455.3521728515625 316.9751892089844 456.70550537109375 C 316.3152160644531 458.05218505859375 315.40521240234375 459.0888366699219 314.2452087402344 459.8155212402344 C 313.0785217285156 460.54217529296875 311.758544921875 460.905517578125 310.28521728515625 460.905517578125 C 308.8052062988281 460.905517578125 307.4851989746094 460.54217529296875 306.3251953125 459.8155212402344 C 305.1585388183594 459.0888366699219 304.2452087402344 458.05218505859375 303.585205078125 456.70550537109375 C 302.9252014160156 455.3521728515625 302.59521484375 453.7988586425781 302.59521484375 452.0455017089844 C 302.59521484375 450.2855224609375 302.9252014160156 448.732177734375 303.585205078125 447.3855285644531 C 304.2452087402344 446.0388488769531 305.1585388183594 445.0021667480469 306.3251953125 444.2755126953125 C 307.4851989746094 443.5488586425781 308.8052062988281 443.1855163574219 310.28521728515625 443.1855163574219 C 311.758544921875 443.1855163574219 313.0785217285156 443.5488586425781 314.2452087402344 444.2755126953125 C 315.40521240234375 445.0021667480469 316.3152160644531 446.0388488769531 316.9751892089844 447.3855285644531 M 307.7351989746094 448.59552001953125 C 307.7351989746094 448.59552001953125 307.5818786621094 448.7955017089844 307.27520751953125 449.1955261230469 C 306.9685363769531 449.59552001953125 306.8152160644531 450.5455017089844 306.8152160644531 452.0455017089844 C 306.8152160644531 453.5455017089844 307.1218566894531 454.6921691894531 307.7351989746094 455.4855041503906 C 308.3485412597656 456.2855224609375 309.19854736328125 456.6855163574219 310.28521728515625 456.6855163574219 C 311.3718566894531 456.6855163574219 312.22186279296875 456.2855224609375 312.835205078125 455.4855041503906 C 313.44854736328125 454.6921691894531 313.75518798828125 453.5455017089844 313.75518798828125 452.0455017089844 C 313.75518798828125 450.5455017089844 313.44854736328125 449.3955078125 312.835205078125 448.59552001953125 C 312.22186279296875 447.80218505859375 311.3718566894531 447.405517578125 310.28521728515625 447.405517578125 C 309.19854736328125 447.405517578125 308.3485412597656 447.80218505859375 307.7351989746094 448.59552001953125 M 306.53521728515625 447.405517578125 C 306.53521728515625 447.405517578125 306.3018798828125 447.6888427734375 305.835205078125 448.2555236816406 C 305.36187744140625 448.8221740722656 305.1252136230469 450.08551025390625 305.1252136230469 452.0455017089844 C 305.1252136230469 454.0055236816406 305.59521484375 455.5488586425781 306.53521728515625 456.6755065917969 C 307.4751892089844 457.80218505859375 308.7251892089844 458.3655090332031 310.28521728515625 458.3655090332031 C 311.8385314941406 458.3655090332031 313.085205078125 457.80218505859375 314.02520751953125 456.6755065917969 C 314.9652099609375 455.5488586425781 315.4352111816406 454.0055236816406 315.4352111816406 452.0455017089844 C 315.4352111816406 450.08551025390625 314.9652099609375 448.5388488769531 314.02520751953125 447.405517578125 C 313.085205078125 446.2788391113281 311.8385314941406 445.71551513671875 310.28521728515625 445.71551513671875 C 308.7251892089844 445.71551513671875 307.4751892089844 446.2788391113281 306.53521728515625 447.405517578125 M 305.34521484375 446.21551513671875 C 305.34521484375 446.21551513671875 305.0285339355469 446.5821838378906 304.39520263671875 447.3155212402344 C 303.75518798828125 448.04217529296875 303.4352111816406 449.61883544921875 303.4352111816406 452.0455017089844 C 303.4352111816406 454.46551513671875 304.0718688964844 456.405517578125 305.34521484375 457.8655090332031 C 306.61187744140625 459.32550048828125 308.258544921875 460.0555114746094 310.28521728515625 460.0555114746094 C 312.3052062988281 460.0555114746094 313.9518737792969 459.32550048828125 315.2251892089844 457.8655090332031 C 316.49188232421875 456.405517578125 317.1252136230469 454.46551513671875 317.1252136230469 452.0455017089844 C 317.1252136230469 449.61883544921875 316.49188232421875 447.6755065917969 315.2251892089844 446.21551513671875 C 313.9518737792969 444.7555236816406 312.3052062988281 444.0255126953125 310.28521728515625 444.0255126953125 C 308.258544921875 444.0255126953125 306.61187744140625 444.7555236816406 305.34521484375 446.21551513671875 M 302.39520263671875 448.07550048828125 C 302.39520263671875 448.07550048828125 302.2885437011719 448.37884521484375 302.0751953125 448.9855041503906 C 301.86187744140625 449.5921936035156 301.75518798828125 450.6121826171875 301.75518798828125 452.0455017089844 C 301.75518798828125 453.47216796875 301.9685363769531 454.79217529296875 302.39520263671875 456.0055236816406 C 302.8218688964844 457.22552490234375 303.4151916503906 458.2521667480469 304.1752014160156 459.08551025390625 C 304.92852783203125 459.9188537597656 305.8285217285156 460.5721740722656 306.8752136230469 461.0455017089844 C 307.92852783203125 461.5121765136719 309.0652160644531 461.7455139160156 310.28521728515625 461.7455139160156 C 311.49853515625 461.7455139160156 312.6318664550781 461.5121765136719 313.6852111816406 461.0455017089844 C 314.738525390625 460.5721740722656 315.6418762207031 459.9188537597656 316.39520263671875 459.08551025390625 C 317.1485290527344 458.2521667480469 317.738525390625 457.22552490234375 318.1651916503906 456.0055236816406 C 318.5985412597656 454.79217529296875 318.8152160644531 453.47216796875 318.8152160644531 452.0455017089844 C 318.8152160644531 450.6121826171875 318.5985412597656 449.2888488769531 318.1651916503906 448.07550048828125 C 317.738525390625 446.8621826171875 317.1485290527344 445.83551025390625 316.39520263671875 444.9955139160156 C 315.6418762207031 444.16217041015625 314.738525390625 443.5121765136719 313.6852111816406 443.0455017089844 C 312.6318664550781 442.5721740722656 311.49853515625 442.33551025390625 310.28521728515625 442.33551025390625 C 309.0652160644531 442.33551025390625 307.92852783203125 442.5721740722656 306.8752136230469 443.0455017089844 C 305.8285217285156 443.5121765136719 304.92852783203125 444.16217041015625 304.1752014160156 444.9955139160156 C 303.4151916503906 445.83551025390625 302.8218688964844 446.8621826171875 302.39520263671875 448.07550048828125 Z" transform="matrix(16.747913360595703, 0, 0, 16.747913360595703, -4099.5673828125, -7038.1826171875)" style="fill: rgb(255, 255, 255); white-space: pre; color: rgb(51, 51, 51);"/></svg>