<svg xmlns="http://www.w3.org/2000/svg" viewBox="0 0 540.4 183.4"><title>27Rosiers</title><g id="Layer_2" data-name="Layer 2"><g id="Layer_1-2" data-name="Layer 1"><path d="M225.4,78.3a33.9,33.9,0,0,1-13.7-2.5,21.2,21.2,0,0,1-9-7.4,22,22,0,0,1-3.2-12.1,37.1,37.1,0,0,1,1.1-7.8,26.5,26.5,0,0,1,4.6-9.4,21.4,21.4,0,0,1-4.2-7.2,26,26,0,0,1-1.5-8.9,22.4,22.4,0,0,1,3.2-12.2,20,20,0,0,1,9.1-7.3A33.4,33.4,0,0,1,225.4,1h14.1a38.9,38.9,0,0,1,14.3,2.4,20.1,20.1,0,0,1,9.3,7.3q3.3,4.8,3.3,12.3a36.1,36.1,0,0,1-1,7.8,24.1,24.1,0,0,1-4.5,9.5,21.2,21.2,0,0,1,4.1,7.2,24.8,24.8,0,0,1,1.4,8.7c0,4.9-1,8.9-3.2,12.2a19.6,19.6,0,0,1-9,7.5,35.5,35.5,0,0,1-13.6,2.4Z" stroke="#000" stroke-miterlimit="10" stroke-width="2"/><path d="M225.4,70.2a28.1,28.1,0,0,1-9.7-1.6,11.9,11.9,0,0,1-5.9-4.5,13.3,13.3,0,0,1-2.1-7.8,19.9,19.9,0,0,1,3.5-11.4,29.5,29.5,0,0,1,9.8-9l12.6-7c2.7-1.5,2.9-3.5,2.8-4.6a5.7,5.7,0,0,0-2.3-4,4.7,4.7,0,0,0-2.8-.9,6.1,6.1,0,0,0-2.5.6L216,27.1a49.3,49.3,0,0,0-6.3,4.2l-1.2-2.7a19.9,19.9,0,0,1-.8-5.6,13.5,13.5,0,0,1,2-7.7,12.3,12.3,0,0,1,5.9-4.5,26.1,26.1,0,0,1,9.8-1.6h14.1a31.2,31.2,0,0,1,10.1,1.4,12.1,12.1,0,0,1,6.4,4.2c1.5,1.9,2.3,4.6,2.3,8.2a20.9,20.9,0,0,1-3.4,11.4,26.6,26.6,0,0,1-9.9,8.8l-12.7,7.1a4.8,4.8,0,0,0-2.6,4.6,5.5,5.5,0,0,0,2.2,4.1,4.5,4.5,0,0,0,2.8,1,4.4,4.4,0,0,0,2.4-.7l12.9-7a49.2,49.2,0,0,0,4.5-2.8l1.8-1.5a11.9,11.9,0,0,1,1.1,2.6,17.3,17.3,0,0,1,.9,5.6c0,4.8-1.5,8.2-4.4,10.4s-7.5,3.6-13.3,3.6Z" fill="#fff"/><path d="M310.6,78.3c-5.7,0-10.4-1.5-13.8-4.5a15,15,0,0,1-5.2-11.9,21.6,21.6,0,0,1,.3-3.5,29.6,29.6,0,0,1,.9-3.8l3.9-11.7h-.6a25.1,25.1,0,0,1-11.6-2.6,20.2,20.2,0,0,1-8-7.3,20.1,20.1,0,0,1-2.9-11c0-6.4,2.1-11.5,6.4-15.3S290,1,297.2,1h23a35.1,35.1,0,0,1,11.7,1.8,17.5,17.5,0,0,1,8,5.8c1.9,2.6,2.9,6.1,2.9,10.4a25.6,25.6,0,0,1-.3,3.9,20.2,20.2,0,0,1-.7,3.7l-8.2,28.9a61,61,0,0,1-4.7,12.2,21,21,0,0,1-7.1,7.9C318.9,77.4,315.2,78.3,310.6,78.3Z" stroke="#000" stroke-miterlimit="10" stroke-width="2"/><path d="M310.6,70.2a12.5,12.5,0,0,1-8-2.4,6.4,6.4,0,0,1-2.8-5.5,22.9,22.9,0,0,1,.2-2.5c.2-.9.4-1.8.7-2.8l9.4-29c1.1-2.9-.2-4.5-1.1-5.3a5.6,5.6,0,0,0-3.7-1.3h-.8a4.7,4.7,0,0,0-4,3.4l-3.2,9.7h-.1c-5,0-8.9-1.1-11.6-3.4s-3.9-5.2-3.9-9.2,1.3-7.1,4-9.4,6.5-3.4,11.5-3.4h23a24.9,24.9,0,0,1,8.3,1.1,8.9,8.9,0,0,1,4.6,3.2,10.2,10.2,0,0,1,1.5,5.8,20.9,20.9,0,0,1-.1,2.4,12.3,12.3,0,0,1-.5,2.5l-8.2,29.1a59.7,59.7,0,0,1-3.7,9.9,13.2,13.2,0,0,1-4.4,5.3A13.1,13.1,0,0,1,310.6,70.2Z" fill="#fff"/><path d="M23.4,182.4c-6.8,0-12.2-2.2-16.3-6.5S1,165.9,1,158.8v-7.9a26.5,26.5,0,0,1,.7-6.7,17.3,17.3,0,0,1,2.2-5,22.5,22.5,0,0,1-2.2-5.6,25.6,25.6,0,0,1-.7-6.4,22,22,0,0,1,3-11.6,20.2,20.2,0,0,1,8.4-7.7,26.7,26.7,0,0,1,12.7-2.8H48.4c6.2,0,11.3,1.1,15.4,3.4a21.6,21.6,0,0,1,9.1,9.8,35.2,35.2,0,0,1,3,15.2,29.1,29.1,0,0,1-3.8,15,22.7,22.7,0,0,1,2.8,6.3,27.3,27.3,0,0,1,.9,6.5A19.4,19.4,0,0,1,72.7,172a22.4,22.4,0,0,1-8.5,7.6,23.6,23.6,0,0,1-11.5,2.8,21.3,21.3,0,0,1-7.6-1.3,20.3,20.3,0,0,1-6.4-3.6,20.9,20.9,0,0,1-7.1,3.7A28.6,28.6,0,0,1,23.4,182.4Z" stroke="#000" stroke-miterlimit="10" stroke-width="2"/><path d="M23.4,174.2c-4.5,0-7.9-1.3-10.4-4s-3.8-6.6-3.8-11.4v-7.6q0-5.7,2.4-8.7a21.6,21.6,0,0,1,7.5-5.6,4.7,4.7,0,0,0,1.2-7.9,4.5,4.5,0,0,0-3.2-1.2l-1.9.3a26.9,26.9,0,0,0-3.9,1.6l-1.9,1.1h0a20,20,0,0,1-.2-3.5,14.6,14.6,0,0,1,1.8-7.5,11.3,11.3,0,0,1,5.2-4.7,18.6,18.6,0,0,1,8.6-1.8H48c6.6,0,11.6,1.8,14.9,5.1s4.9,8.5,4.9,15.2a21,21,0,0,1-3.3,11.9,15,15,0,0,1-8.5,6.5,4.3,4.3,0,0,0-3.4,3.3,5.4,5.4,0,0,0,.5,4.1,4.7,4.7,0,0,0,4.1,2.2,13.1,13.1,0,0,0,6.1-1.8,23.5,23.5,0,0,0,3.7-2.4,1.4,1.4,0,0,1,.2.6,11.8,11.8,0,0,1,.4,3.4,11.6,11.6,0,0,1-1.8,6,15.4,15.4,0,0,1-5.2,4.9,15.7,15.7,0,0,1-7.9,1.9,12.9,12.9,0,0,1-4-.5,10.6,10.6,0,0,1-3.4-1.6,21.5,21.5,0,0,1-3.2-2.9L31.2,156.4a4.5,4.5,0,0,0-3.6-1.9l-1.4.2a5.7,5.7,0,0,0-3.5,3.1,4.9,4.9,0,0,0,.8,5.1l6.3,7.6s1.7,2.1,1.8,2.1l-2.4,1A24,24,0,0,1,23.4,174.2Z" fill="#fff"/><path d="M40.6,139.8a3.2,3.2,0,0,1-2.1-.8,2.8,2.8,0,0,1-1-2.2v-7.1a2.6,2.6,0,0,1,1-2.1,2.9,2.9,0,0,1,2.1-.9,2.9,2.9,0,0,1,2.2.9,2.9,2.9,0,0,1,.9,2.1v7.1a3.1,3.1,0,0,1-.9,2.2A3.3,3.3,0,0,1,40.6,139.8Z" stroke="#000" stroke-miterlimit="10" stroke-width="3"/><path d="M124.5,182.4a31.2,31.2,0,0,1-8.5-1.2,20.7,20.7,0,0,1-7.5-3.9,17.2,17.2,0,0,1-4.8-7.1,18.2,18.2,0,0,1-9.9-5.1,24.1,24.1,0,0,1-5.8-9.8,35.8,35.8,0,0,1-2-11.6,37.9,37.9,0,0,1,3-15,37.1,37.1,0,0,1,8.3-12.3,41,41,0,0,1,12.3-8.3,38.5,38.5,0,0,1,29.8,0,40.3,40.3,0,0,1,12.4,8.3,38.7,38.7,0,0,1,8.3,12.3,39.7,39.7,0,0,1,2.9,15,38.8,38.8,0,0,1-2.9,14.9,38.4,38.4,0,0,1-20.7,20.7A35.5,35.5,0,0,1,124.5,182.4Z" stroke="#000" stroke-miterlimit="10" stroke-width="2"/><path d="M124.5,174.2a17,17,0,0,1-7.5-1.5,11.2,11.2,0,0,1-4.5-4.1,11.3,11.3,0,0,1-1.6-6.1c0-2.6.7-4.3,2.3-5.5a12,12,0,0,1,6.9-1.9h2.7c4.3,0,7.7-1,10.1-3.1a10.5,10.5,0,0,0,3.6-8.3,12.1,12.1,0,0,0-3.2-8.5,11,11,0,0,0-8.1-3.3,12.6,12.6,0,0,0-9.1,3.4,5,5,0,0,0-1.4,5.1,5.3,5.3,0,0,0,3.3,3.4,4.5,4.5,0,0,0,1.6.3,5.6,5.6,0,0,0,3.5-1.4,1.8,1.8,0,0,1,1.5-.6,2.4,2.4,0,0,1,1.4.3,1.6,1.6,0,0,1,.4,1.3c0,.7-.2.8-.3.9a7.8,7.8,0,0,1-3.2.5h-2.4a22.4,22.4,0,0,0-13.8,4.2,14.6,14.6,0,0,0-5.9,11.3,18.9,18.9,0,0,1-2-2,22.9,22.9,0,0,1-3.4-6.6,28.2,28.2,0,0,1-1.2-8.3,29,29,0,0,1,2.4-11.8,28.1,28.1,0,0,1,6.5-9.7,30.9,30.9,0,0,1,9.7-6.6,30,30,0,0,1,23.5,0,30.5,30.5,0,0,1,9.6,6.6,29.8,29.8,0,0,1,6.6,9.7,29,29,0,0,1,2.4,11.8,29.3,29.3,0,0,1-2.4,11.8,31.3,31.3,0,0,1-6.6,9.8,29.8,29.8,0,0,1-9.7,6.6A30.5,30.5,0,0,1,124.5,174.2Z" fill="#fff"/><path d="M198.8,182.4a34.4,34.4,0,0,1-13.8-2.5,19.4,19.4,0,0,1-8.9-7.5,22,22,0,0,1-3.2-12.1,25.8,25.8,0,0,1,1.5-8.8,23,23,0,0,1,4-7.2,26,26,0,0,1-4.5-9.4,43.7,43.7,0,0,1-1-7.8,22.1,22.1,0,0,1,3.2-12.2,20.6,20.6,0,0,1,9-7.4,36.1,36.1,0,0,1,13.7-2.4H214a34.2,34.2,0,0,1,13.7,2.5,20.1,20.1,0,0,1,9,7.4,22,22,0,0,1,3.1,12.1,26.4,26.4,0,0,1-1.5,8.9,19.8,19.8,0,0,1-4.1,7.1,26.4,26.4,0,0,1,4.6,9.4,37.6,37.6,0,0,1,1,7.9,22,22,0,0,1-3.2,12.1,19.6,19.6,0,0,1-9.1,7.4,32.9,32.9,0,0,1-13.5,2.5Z" stroke="#000" stroke-miterlimit="10" stroke-width="2"/><path d="M198.8,174.2a28.4,28.4,0,0,1-9.8-1.5,11.3,11.3,0,0,1-5.8-4.4,13.8,13.8,0,0,1-2.1-8,19.9,19.9,0,0,1,.8-5.6,20.3,20.3,0,0,1,1.1-2.6,13.3,13.3,0,0,0,1.9,1.4,22.7,22.7,0,0,0,4.5,2.8l12.7,7.1a6.9,6.9,0,0,0,2.6.6,4.9,4.9,0,0,0,2.8-.9,5.5,5.5,0,0,0,2.2-4.2,4.6,4.6,0,0,0-2.7-4.5l-12.6-7.1a32.1,32.1,0,0,1-7.1-5.3,22.5,22.5,0,0,1-4.6-6.9,19.4,19.4,0,0,1-1.6-8,14.1,14.1,0,0,1,2-7.8,11.6,11.6,0,0,1,5.8-4.5,28.5,28.5,0,0,1,9.9-1.6H214a28.1,28.1,0,0,1,9.7,1.6,12.8,12.8,0,0,1,5.9,4.5c1.4,1.9,2,4.5,2,7.8a17.3,17.3,0,0,1-.8,5.6c-.3.9-.7,1.8-1.1,2.7a13,13,0,0,0-2-1.5,31.2,31.2,0,0,0-4.3-2.7l-12.8-7.1a6.1,6.1,0,0,0-2.5-.6,4.4,4.4,0,0,0-2.7.9,5.5,5.5,0,0,0-2.4,4,4.5,4.5,0,0,0,2.8,4.6l12.6,7a29.9,29.9,0,0,1,9.8,8.8,20.3,20.3,0,0,1,3.4,11.6,13.2,13.2,0,0,1-2,7.7,12,12,0,0,1-5.8,4.5,26.1,26.1,0,0,1-9.8,1.6Z" fill="#fff"/><path d="M273.7,182.4c-6.8,0-12.3-2.2-16.3-6.5s-6.2-10-6.2-17.1v-30c0-7.2,2.1-12.9,6.2-17.2s9.5-6.5,16.3-6.5,12.3,2.1,16.3,6.5,6.1,10,6.1,17.2v30c0,7.1-2,12.8-6.1,17.1S280.5,182.4,273.7,182.4Z" stroke="#000" stroke-miterlimit="10" stroke-width="2"/><path d="M273.7,174.2c-4.5,0-8-1.3-10.5-4s-3.8-6.6-3.8-11.4v-30c0-4.9,1.3-8.8,3.8-11.5s6-4.1,10.5-4.1,8.1,1.4,10.5,4.1,3.8,6.6,3.8,11.5v30c0,4.8-1.3,8.7-3.8,11.4S278.2,174.2,273.7,174.2Z" fill="#fff"/><path d="M333.1,182.4q-11.9,0-18.9-5.7c-4.6-3.7-7-9.2-7-16.3a26.7,26.7,0,0,1,1.5-8.8,27.7,27.7,0,0,1,3.9-7.9,41.1,41.1,0,0,1-3.9-8.2,24.7,24.7,0,0,1-1.5-8.3c0-7.3,2.4-12.9,7.1-16.6s11-5.5,18.8-5.5h21.5c6.7,0,11.9,1.4,15.6,4.3s5.5,7.3,5.5,13.3-2.4,10.2-7.1,13a12.1,12.1,0,0,1,1.8,3.8,18.6,18.6,0,0,1,.5,4.2,15,15,0,0,1-2.4,8.1,13.5,13.5,0,0,1,5.3,5.3,15.1,15.1,0,0,1,2,7.8c0,5.9-1.9,10.3-5.8,13.2s-8.8,4.3-15.1,4.3Z" stroke="#000" stroke-miterlimit="10" stroke-width="2"/><path d="M333.1,174.2c-5.6,0-10-1.1-13.2-3.5s-4.5-5.6-4.5-10.3a19.4,19.4,0,0,1,1.3-7.1,28.9,28.9,0,0,1,3.7-6.4,5.4,5.4,0,0,0,.1-6.3,25,25,0,0,1-3.8-6.7,18.1,18.1,0,0,1-1.3-6.7c0-4.7,1.5-8.1,4.4-10.4s7.6-3.6,13.3-3.6h21.8c4,0,6.9.6,8.6,1.6a7.5,7.5,0,0,1,3.2,3.5,14.1,14.1,0,0,1,.8,4.4,6.6,6.6,0,0,1-2.2,5.2c-1.4,1.3-3.6,2-6.5,2a35.4,35.4,0,0,1-9.1-.9,28.2,28.2,0,0,0-5.5-1,5,5,0,0,0-4.2,2.2,5,5,0,0,0-.6,4.3,4.9,4.9,0,0,0,3.3,3.4,45.1,45.1,0,0,0,8,1.7,79.8,79.8,0,0,0,8.1.5h2.8a7.5,7.5,0,0,1,.7,1.2,7,7,0,0,1,.5,2.5,5.7,5.7,0,0,1-1.4,3.8h-2.7a53.6,53.6,0,0,0-8.2.6,47.9,47.9,0,0,0-7.7,1.7,4.6,4.6,0,0,0-3.3,3.4,5.2,5.2,0,0,0,.6,4.2,4.7,4.7,0,0,0,4.2,2.1,18.9,18.9,0,0,0,5.6-1,37.4,37.4,0,0,1,8.8-.8c2.9,0,5.1.6,6.6,2a6.4,6.4,0,0,1,2.2,5.3,14.1,14.1,0,0,1-.8,4.4,7.4,7.4,0,0,1-3.2,3.4c-1.8,1-4.7,1.5-8.6,1.5Z" fill="#fff"/><path d="M408.9,182.4c-6.8,0-12.3-2.2-16.4-6.5s-6.1-10-6.1-17.1v-7.9a26.2,26.2,0,0,1,.8-6.7,14.8,14.8,0,0,1,2.1-5,19,19,0,0,1-2.1-5.6,25.5,25.5,0,0,1-.8-6.4,22,22,0,0,1,3-11.6,20.9,20.9,0,0,1,8.4-7.7,27.3,27.3,0,0,1,12.7-2.8h23.3c6.2,0,11.3,1.1,15.4,3.4a21.1,21.1,0,0,1,9.1,9.8,35.2,35.2,0,0,1,3,15.2,28.1,28.1,0,0,1-3.8,15,20.1,20.1,0,0,1,2.8,6.3,27.3,27.3,0,0,1,.9,6.5,19.4,19.4,0,0,1-3.1,10.7,22.8,22.8,0,0,1-8.4,7.6,24,24,0,0,1-11.6,2.8,21.3,21.3,0,0,1-7.6-1.3,19.8,19.8,0,0,1-6.3-3.6,22.3,22.3,0,0,1-7.2,3.7A28.4,28.4,0,0,1,408.9,182.4Z" stroke="#000" stroke-miterlimit="10" stroke-width="2"/><path d="M408.9,174.2c-4.5,0-8-1.3-10.5-4s-3.8-6.6-3.8-11.4v-7.6q0-5.7,2.4-8.7a21.6,21.6,0,0,1,7.5-5.6c2.2-1.2,2.8-2.8,2.8-3.9a4.5,4.5,0,0,0-1.6-4,4.4,4.4,0,0,0-3.2-1.2l-1.8.3a20.1,20.1,0,0,0-3.9,1.6,11.8,11.8,0,0,0-1.9,1.1.1.1,0,0,0-.1-.1c-.1-1.1-.2-2.3-.2-3.5a14.6,14.6,0,0,1,1.8-7.5,11.3,11.3,0,0,1,5.2-4.7,19.1,19.1,0,0,1,8.6-1.8h23.2c6.7,0,11.7,1.8,14.9,5.1s4.9,8.5,4.9,15.2a21.8,21.8,0,0,1-3.2,11.9,15.5,15.5,0,0,1-8.6,6.5,4.6,4.6,0,0,0-3.4,3.3,4.9,4.9,0,0,0,.6,4.1,4.4,4.4,0,0,0,4,2.2,13.8,13.8,0,0,0,6.2-1.8,29.2,29.2,0,0,0,3.7-2.4,1.4,1.4,0,0,0,.2.6,16.7,16.7,0,0,1,.4,3.4,10.9,10.9,0,0,1-1.9,6,14.9,14.9,0,0,1-13.1,6.8,13.3,13.3,0,0,1-4-.5,11.7,11.7,0,0,1-3.4-1.6,21.5,21.5,0,0,1-3.2-2.9l-10.8-12.7a4.7,4.7,0,0,0-3.7-1.9l-1.4.2a5.7,5.7,0,0,0-3.5,3.1,5,5,0,0,0,.9,5.1l6.3,7.6,1.7,2.1-2.3,1A25.2,25.2,0,0,1,408.9,174.2Z" fill="#fff"/><path d="M426,139.8a3.2,3.2,0,0,1-2.1-.8,3.1,3.1,0,0,1-.9-2.2v-7.1a3.1,3.1,0,0,1,3-3,2.9,2.9,0,0,1,2.2.9,2.9,2.9,0,0,1,.9,2.1v7.1a3.1,3.1,0,0,1-.9,2.2A3.3,3.3,0,0,1,426,139.8Z" stroke="#000" stroke-miterlimit="10" stroke-width="3"/><path d="M498.4,182.4a33.9,33.9,0,0,1-13.7-2.5,19.6,19.6,0,0,1-9-7.5,22,22,0,0,1-3.1-12.1,25.8,25.8,0,0,1,1.4-8.8,21.4,21.4,0,0,1,4.1-7.2,23.1,23.1,0,0,1-4.5-9.4,36.1,36.1,0,0,1-1-7.8c0-4.9,1-8.9,3.2-12.2a20.1,20.1,0,0,1,9-7.4,35.5,35.5,0,0,1,13.6-2.4h15.2a33.5,33.5,0,0,1,13.7,2.5,20.1,20.1,0,0,1,9,7.4,22,22,0,0,1,3.1,12.1A26.3,26.3,0,0,1,538,136a20,20,0,0,1-4.2,7.1,24.8,24.8,0,0,1,4.6,9.4,37.6,37.6,0,0,1,1,7.9c0,4.8-1,8.8-3.2,12.1a19.9,19.9,0,0,1-9,7.4,33.7,33.7,0,0,1-13.6,2.5Z" stroke="#000" stroke-miterlimit="10" stroke-width="2"/><path d="M498.4,174.2a27.8,27.8,0,0,1-9.7-1.5,11.6,11.6,0,0,1-5.9-4.4,13.8,13.8,0,0,1-2.1-8,16.9,16.9,0,0,1,.9-5.6,11.9,11.9,0,0,1,1.1-2.6,12.4,12.4,0,0,0,1.8,1.4,26,26,0,0,0,4.5,2.8l12.7,7.1a6.9,6.9,0,0,0,2.6.6,4.5,4.5,0,0,0,2.8-.9,5.5,5.5,0,0,0,2.2-4.2,4.7,4.7,0,0,0-2.6-4.5L494,147.3a32.1,32.1,0,0,1-7.1-5.3,22.5,22.5,0,0,1-4.6-6.9,21.1,21.1,0,0,1-1.6-8,14.1,14.1,0,0,1,2-7.8,12,12,0,0,1,5.8-4.5,28.9,28.9,0,0,1,9.9-1.6h15.2a27.7,27.7,0,0,1,9.7,1.6,11.9,11.9,0,0,1,5.9,4.5,12.9,12.9,0,0,1,2.1,7.8,17.3,17.3,0,0,1-.9,5.6,15.3,15.3,0,0,1-1.1,2.7,12.5,12.5,0,0,0-1.9-1.5,32.3,32.3,0,0,0-4.4-2.7l-12.7-7.1a6.5,6.5,0,0,0-2.6-.6,4.6,4.6,0,0,0-2.7.9,5.5,5.5,0,0,0-2.4,4,4.5,4.5,0,0,0,2.8,4.6l12.6,7a29.9,29.9,0,0,1,9.8,8.8,20.3,20.3,0,0,1,3.5,11.6,14,14,0,0,1-2,7.7,12.3,12.3,0,0,1-5.9,4.5,26.1,26.1,0,0,1-9.8,1.6Z" fill="#fff"/></g></g></svg>