<svg xmlns="http://www.w3.org/2000/svg" viewBox="0 0 573.4 79.3"><title>Alector</title><g id="Layer_2" data-name="Layer 2"><g id="Layer_1-2" data-name="Layer 1"><path d="M24.9,78.3A27.2,27.2,0,0,1,16.5,77a26.4,26.4,0,0,1-7.8-4.1,20.3,20.3,0,0,1-5.6-6.7,18.7,18.7,0,0,1-2.1-9,21.1,21.1,0,0,1,.7-5.4,43,43,0,0,1,1.7-5.5L15,18.9c2.4-5.8,5.4-10.2,9-13.3S32.4,1,38.2,1,48.9,2.6,52.5,5.7s6.5,7.6,8.9,13.2L72.8,46.3a32,32,0,0,1,1.8,5.5,25.9,25.9,0,0,1,.5,5.4,20.1,20.1,0,0,1-1.8,8.6A18.9,18.9,0,0,1,68,72.4a23.5,23.5,0,0,1-7.5,4.4,27.6,27.6,0,0,1-9.1,1.5,20.9,20.9,0,0,1-7.2-1.2,18.4,18.4,0,0,1-6.1-3.8A22.6,22.6,0,0,1,32,77,19,19,0,0,1,24.9,78.3Z" stroke="#000" stroke-miterlimit="10" stroke-width="2"/><path d="M24.9,72.2a11.6,11.6,0,0,0,4.9-1A11.7,11.7,0,0,0,34,68.5L32.5,66l-1.3-2.8-5-12.1a3.2,3.2,0,0,1,.2-3.2A3.3,3.3,0,0,1,29,46.8H40.4l-4.6-11a3,3,0,0,1,.3-3.3A4,4,0,0,1,39,31.3a2.7,2.7,0,0,1,2.5,2L48,48.6a2.9,2.9,0,0,1-2.9,4.3H33.7L37,60.7a21.2,21.2,0,0,0,6,8.6,13,13,0,0,0,8.4,2.9,21.4,21.4,0,0,0,8.1-1.7,18,18,0,0,0,6.8-5A12.7,12.7,0,0,0,69,57.2a21.8,21.8,0,0,0-.5-4.2,23.9,23.9,0,0,0-1.4-4.3L55.7,21.3c-2.2-5-4.6-8.6-7.3-10.8A15.6,15.6,0,0,0,38.2,7.2a15.7,15.7,0,0,0-10.3,3.3q-4,3.3-7.2,10.8L9.1,48.7A35.2,35.2,0,0,0,7.8,53a16,16,0,0,0-.5,4.2A13.6,13.6,0,0,0,9,64.1a15.6,15.6,0,0,0,4.5,4.7,22.6,22.6,0,0,0,5.8,2.5A19.7,19.7,0,0,0,24.9,72.2Z" fill="#fff"/><path d="M107.7,78.3c-6.8,0-12.3-2.1-16.3-6.5s-6.1-10-6.1-17.1V24.8c0-7.2,2-13,6.1-17.3S100.9,1,107.7,1a24.1,24.1,0,0,1,11.9,2.9,19.5,19.5,0,0,1,7.8,8.3,27.3,27.3,0,0,1,2.7,12.6V37.5h.1A27.4,27.4,0,0,1,142.4,40a18.5,18.5,0,0,1,8.1,7,19.6,19.6,0,0,1,3,10.9,18.6,18.6,0,0,1-3.1,10.9,19.6,19.6,0,0,1-8.2,7.1,28.6,28.6,0,0,1-12,2.4Z" stroke="#000" stroke-miterlimit="10" stroke-width="2"/><path d="M107.7,72.2h22.5c5.3,0,9.5-1.3,12.5-3.9s4.6-6,4.6-10.4-1.6-8.2-4.8-10.6-7.3-3.6-12.3-3.6a30.1,30.1,0,0,0-9.2,1.4c-2.9,1-5.3,2-7.5,3a3.1,3.1,0,0,1-3.3-.3,3.8,3.8,0,0,1-1.1-2.9,2.8,2.8,0,0,1,1.8-2.4c1.8-.8,3.7-1.7,5.9-2.5a37.9,37.9,0,0,1,7.2-1.9V24.8c0-5.5-1.5-9.8-4.3-13s-6.9-4.6-12-4.6-9,1.5-11.9,4.6-4.4,7.5-4.4,13V54.7c0,5.4,1.4,9.7,4.3,12.8S102.6,72.2,107.7,72.2Z" fill="#fff"/><path d="M187.8,78.3c-7.9,0-14.2-1.9-18.9-5.6s-7-9.3-7-16.4a26.7,26.7,0,0,1,1.5-8.8,29.1,29.1,0,0,1,3.9-7.9,43.1,43.1,0,0,1-3.9-8.1,25.7,25.7,0,0,1-1.5-8.4c0-7.3,2.4-12.8,7.1-16.5S180,1,187.8,1h21.5c6.7,0,11.9,1.4,15.5,4.3s5.5,7.4,5.5,13.3-2.3,10.3-7,13a13.3,13.3,0,0,1,1.8,3.8,18.6,18.6,0,0,1,.5,4.2,15.3,15.3,0,0,1-2.4,8.2,13.3,13.3,0,0,1,5.3,5.2,15.1,15.1,0,0,1,2,7.8c0,5.9-1.9,10.3-5.8,13.2s-8.8,4.3-15.1,4.3Z" stroke="#000" stroke-miterlimit="10" stroke-width="2"/><path d="M187.8,72.2h21.8q6.5,0,9.6-1.8a9.2,9.2,0,0,0,4.1-4.5,15.7,15.7,0,0,0,.9-5.1,8.5,8.5,0,0,0-2.9-6.8c-1.9-1.7-4.5-2.5-7.9-2.5a35.1,35.1,0,0,0-9.3.9,20.4,20.4,0,0,1-5.1,1,2.7,2.7,0,0,1-2.5-1.2,3.2,3.2,0,0,1-.4-2.7,2.9,2.9,0,0,1,2-2,45.2,45.2,0,0,1,7.3-1.6,51.9,51.9,0,0,1,8-.6h1.8l1.6.2a7.8,7.8,0,0,0,2.7-6,8.7,8.7,0,0,0-.6-3.2,7,7,0,0,0-1.9-2.6h-3.5a74.3,74.3,0,0,1-7.8-.5,40.1,40.1,0,0,1-7.7-1.6,2.7,2.7,0,0,1-2-2,3.3,3.3,0,0,1,.4-2.7,2.9,2.9,0,0,1,2.5-1.2,23,23,0,0,1,5,.9,39.9,39.9,0,0,0,9.6.9c3.4,0,6-.8,7.9-2.5a8.8,8.8,0,0,0,2.8-6.7,16.1,16.1,0,0,0-.9-5.1A9.7,9.7,0,0,0,219.2,9q-3-1.8-9.6-1.8H187.8c-6.2,0-11,1.3-14.5,4s-5.2,6.6-5.2,11.9a22,22,0,0,0,1.4,7.4,27.6,27.6,0,0,0,4,7.1,3.3,3.3,0,0,1,0,4,29.3,29.3,0,0,0-3.9,6.9,20.8,20.8,0,0,0-1.5,7.8c0,5.4,1.8,9.4,5.3,12S181.8,72.2,187.8,72.2Z" fill="#fff"/><path d="M280.1,78.3c-8.2,0-15.4-1.5-21.4-4.7a33.8,33.8,0,0,1-14.1-13.4c-3.3-5.7-4.9-12.6-4.9-20.5s1.7-15,5.1-20.8A33,33,0,0,1,258.9,5.6C264.9,2.5,272,1,280.2,1h9.5a30.5,30.5,0,0,1,13.7,2.8,20.4,20.4,0,0,1,8.9,8,23.3,23.3,0,0,1,3.1,12.4,22.6,22.6,0,0,1-5.6,15.6,18.2,18.2,0,0,1,4.6,7.1,25.6,25.6,0,0,1,1.6,9.3,22.6,22.6,0,0,1-3,11.9,20.5,20.5,0,0,1-8.6,7.6,27.8,27.8,0,0,1-12.6,2.6Z" stroke="#000" stroke-miterlimit="10" stroke-width="2"/><path d="M280.1,72.2h11c5.8,0,10.4-1.4,13.8-4s5-6.7,5-12a18.1,18.1,0,0,0-1.3-7.2,12.5,12.5,0,0,0-3.6-5.3,25.5,25.5,0,0,1-13.4,3.5H277.4c-2,0-2.9-1-2.9-3.1V35.2a2.9,2.9,0,0,1,.9-2.2,2.9,2.9,0,0,1,2.1-.9,3.1,3.1,0,0,1,2.2.9,2.9,2.9,0,0,1,.9,2.2V41h11c5.2,0,9.5-1.5,12.7-4.5s4.9-7.1,4.9-12.3a18.3,18.3,0,0,0-2.3-9.5A15.3,15.3,0,0,0,300.1,9a28.2,28.2,0,0,0-10.7-1.8h-9.3c-7.1,0-13.3,1.3-18.3,3.9A27.5,27.5,0,0,0,250,22.2c-2.8,4.9-4.1,10.7-4.1,17.5s1.3,12.7,4.1,17.5a27.2,27.2,0,0,0,11.9,11.1A39.7,39.7,0,0,0,280.1,72.2Z" fill="#fff"/><path d="M364.3,78.3c-6.8,0-12.2-2.1-16.3-6.5s-6.1-10-6.1-17.2V42.4a21,21,0,0,1-13-6.9,20.4,20.4,0,0,1-4.7-13.6c0-6.3,2.1-11.4,6.4-15.2S340.6,1,347.8,1h32.8c7.2,0,12.9,1.9,17.3,5.7s6.5,8.9,6.5,15.2a20,20,0,0,1-2.2,9.6,18.4,18.4,0,0,1-6,7,26.6,26.6,0,0,1-9.4,3.9V54.6c0,7.2-2.1,12.9-6.1,17.2S371.1,78.3,364.3,78.3Z" stroke="#000" stroke-miterlimit="10" stroke-width="2"/><path d="M364.3,72.2c5.2,0,9.2-1.6,12-4.7s4.3-7.4,4.3-12.9v-15a3.1,3.1,0,0,1,.8-2.2,3.7,3.7,0,0,1,2-.9c4.7-.6,8.4-2.1,10.9-4.5s3.8-5.8,3.8-10.1-1.5-8.2-4.6-10.8-7.4-3.9-12.9-3.9H347.8c-5.5,0-9.8,1.3-12.8,3.9a13.4,13.4,0,0,0-4.7,10.8A13.4,13.4,0,0,0,335,32.7c3,2.6,7.3,3.9,12.8,3.9h14.5a3.3,3.3,0,0,1,3.1,3.1,2.9,2.9,0,0,1-.9,2.2,2.8,2.8,0,0,1-2.2.9H348V54.6c0,5.5,1.5,9.8,4.4,12.9S359.3,72.2,364.3,72.2Z" fill="#fff"/><path d="M448.8,78.3a30.6,30.6,0,0,1-8.5-1.2,20.7,20.7,0,0,1-7.5-3.9,15,15,0,0,1-4.8-7.1,18.2,18.2,0,0,1-9.9-5.1,25.8,25.8,0,0,1-5.9-9.7,35.9,35.9,0,0,1-1.9-11.7,37.1,37.1,0,0,1,3-14.9,37.5,37.5,0,0,1,8.3-12.4A38.7,38.7,0,0,1,433.9,4a38.5,38.5,0,0,1,29.8,0A38.7,38.7,0,0,1,476,12.3a36.1,36.1,0,0,1,8.3,12.4,37.1,37.1,0,0,1,3,14.9,37.9,37.9,0,0,1-3,15A35.7,35.7,0,0,1,476,66.9a38.7,38.7,0,0,1-12.3,8.3A35.5,35.5,0,0,1,448.8,78.3Z" stroke="#000" stroke-miterlimit="10" stroke-width="2"/><path d="M448.8,72.2a31.1,31.1,0,0,0,12.5-2.6,30.4,30.4,0,0,0,10.3-7,33.4,33.4,0,0,0,7-10.4,31.2,31.2,0,0,0,2.5-12.6A31.2,31.2,0,0,0,478.6,27,33.2,33.2,0,0,0,461.3,9.7a30.3,30.3,0,0,0-12.5-2.5,30.7,30.7,0,0,0-12.5,2.5,33,33,0,0,0-10.3,7A31.9,31.9,0,0,0,419,27a31.2,31.2,0,0,0-2.5,12.6,28.6,28.6,0,0,0,1.3,8.9,22.3,22.3,0,0,0,3.7,7.2,14.6,14.6,0,0,0,5.6,4.4c0-.5-.1-.9-.1-1.3v-1c0-4.8,1.7-8.5,5.1-11A21.1,21.1,0,0,1,444.7,43h2.5c1.9,0,3.3-.2,4.1-.8a2.7,2.7,0,0,0,1.4-2.6,3.7,3.7,0,0,0-1-2.7,4.1,4.1,0,0,0-2.8-.9,3.7,3.7,0,0,0-2.8,1.1,2.9,2.9,0,0,1-3.1.7,3.2,3.2,0,0,1-2.1-2.1,2.6,2.6,0,0,1,.9-3,10.3,10.3,0,0,1,7.7-2.9,8.7,8.7,0,0,1,6.6,2.8,9.6,9.6,0,0,1,2.7,7,8.5,8.5,0,0,1-3,6.8c-1.9,1.8-4.9,2.7-8.8,2.7h-2.6a13.6,13.6,0,0,0-8.1,2.2c-2.1,1.5-3.1,3.9-3.1,7.1a13,13,0,0,0,1.9,7.1,12.6,12.6,0,0,0,5.3,4.9A18,18,0,0,0,448.8,72.2Z" fill="#fff"/><path d="M520,78.3c-6.8,0-12.3-2.1-16.4-6.5s-6.1-10-6.1-17.1V46.9a25.1,25.1,0,0,1,.8-6.7,14.5,14.5,0,0,1,2.1-5.1,19,19,0,0,1-2.1-5.6,24.9,24.9,0,0,1-.8-6.4,21.7,21.7,0,0,1,3-11.5,21.1,21.1,0,0,1,8.4-7.8A27.3,27.3,0,0,1,521.6,1h23.3c6.2,0,11.3,1.1,15.4,3.4a21.1,21.1,0,0,1,9.1,9.8,35.5,35.5,0,0,1,3,15.2,28.5,28.5,0,0,1-3.8,15.1,18.6,18.6,0,0,1,2.8,6.2,27.3,27.3,0,0,1,.9,6.5,19.1,19.1,0,0,1-3.1,10.7,22,22,0,0,1-8.4,7.6,24,24,0,0,1-11.6,2.8,23.7,23.7,0,0,1-7.6-1.2,22.2,22.2,0,0,1-6.3-3.7,20.5,20.5,0,0,1-7.2,3.7A28.4,28.4,0,0,1,520,78.3Z" stroke="#000" stroke-miterlimit="10" stroke-width="2"/><path d="M520,72.2a23.5,23.5,0,0,0,6.3-.8,13.5,13.5,0,0,0,4.8-2.4l-1.5-1.8-1.7-2.1-6.3-7.6a2.6,2.6,0,0,1-.5-3,3.6,3.6,0,0,1,2.2-2,2.7,2.7,0,0,1,2.9,1.1l10.9,12.7a15.3,15.3,0,0,0,3.6,3.2,11.6,11.6,0,0,0,4,2,16.3,16.3,0,0,0,4.5.6,18,18,0,0,0,8.9-2.2,17,17,0,0,0,5.9-5.7,12.3,12.3,0,0,0,2.2-7,14.8,14.8,0,0,0-.5-3.9,13,13,0,0,0-1.4-3.2,30.6,30.6,0,0,1-5.4,3.8,12.2,12.2,0,0,1-5.2,1.6,2.5,2.5,0,0,1-2.3-1.3,2.9,2.9,0,0,1-.3-2.6,2.5,2.5,0,0,1,2-1.9,17.3,17.3,0,0,0,9.7-7.3,23.8,23.8,0,0,0,3.5-13c0-7.2-1.8-12.7-5.5-16.5s-9-5.7-16.3-5.7H521.3a21.5,21.5,0,0,0-9.5,1.9,13.9,13.9,0,0,0-6,5.5,16.5,16.5,0,0,0-2.1,8.5,23.4,23.4,0,0,0,.3,3.8,18.7,18.7,0,0,0,.8,3.4,15,15,0,0,1,4-2.9,15.9,15.9,0,0,1,3.5-1.4,3.4,3.4,0,0,1,3.2.4,3.3,3.3,0,0,1,1,2.4,2.9,2.9,0,0,1-1.8,2.2,24.1,24.1,0,0,0-8.1,6.2c-1.9,2.3-2.9,5.6-2.9,9.9v7.6c0,5.4,1.4,9.7,4.3,12.8S514.9,72.2,520,72.2Z" fill="#fff"/><path d="M537.1,35.8a2.9,2.9,0,0,1-2.1-.9,2.9,2.9,0,0,1-.9-2.2V25.6a2.5,2.5,0,0,1,.9-2,2.9,2.9,0,0,1,2.1-.9,2.8,2.8,0,0,1,2.2.9,2.5,2.5,0,0,1,.9,2v7.1a2.9,2.9,0,0,1-.9,2.2A2.8,2.8,0,0,1,537.1,35.8Z" stroke="#000" stroke-miterlimit="10" stroke-width="2"/></g></g></svg>