<?xml version="1.0" encoding="utf-8"?>
<!-- Generator: Adobe Illustrator 24.0.1, SVG Export Plug-In . SVG Version: 6.00 Build 0)  -->
<svg version="1.1" id="Layer_1" xmlns="http://www.w3.org/2000/svg" xmlns:xlink="http://www.w3.org/1999/xlink" x="0px" y="0px"
	 viewBox="0 0 260.7 262.2" style="enable-background:new 0 0 260.7 262.2;" xml:space="preserve">
<style type="text/css">
	.st0{fill:#FDCE20;}
	.st1{fill:#FFFFFF;}
</style>
<title>Barrel_Logo</title>
<g id="Layer_2_1_">
	<g id="Layer_1-2">
		<g>
			<path class="st0" d="M256.5,142.1l-7-10.7c-0.9-1.3-0.9-2.9-0.1-4.2l6.8-10.8c0.9-1.6,0.6-3.6-0.7-4.9l-9.4-8.6
				c-1.1-1.1-1.5-2.6-1.1-4.1l4-12.1c0.5-1.8-0.2-3.7-1.8-4.6L236,76c-1.4-0.7-2.1-2.2-2-3.7l0.9-12.7c0.1-1.8-1-3.5-2.8-4
				l-12.4-3.3c-1.4-0.4-2.5-1.6-2.8-3.1l-2.1-12.6c-0.3-1.8-1.9-3.2-3.7-3.2l-12.8-0.2c-1.5-0.1-2.9-1-3.5-2.4l-5.1-11.7
				c-0.7-1.7-2.6-2.6-4.4-2.2l-12.4,2.9c-1.5,0.3-3-0.3-3.9-1.5l-7.8-10.1c-1.1-1.5-3.1-2-4.8-1.1L145,12.8
				c-1.3,0.7-2.9,0.5-4.1-0.4l-10-8.1c-1.5-1.1-3.5-1.1-4.9,0.1l-9.7,8.3c-1.1,1-2.7,1.2-4.1,0.6l-11.6-5.4
				c-1.6-0.8-3.7-0.3-4.7,1.2l-7.5,10.4c-0.9,1.3-2.4,1.9-3.9,1.6L72,18.6c-1.8-0.3-3.6,0.7-4.3,2.4l-4.8,11.8
				c-0.5,1.4-1.9,2.4-3.4,2.4l-12.7,0.7c-1.9,0-3.4,1.4-3.6,3.3l-1.8,12.6c-0.2,1.5-1.3,2.7-2.7,3.2l-12.3,3.6
				c-1.8,0.6-2.9,2.3-2.7,4.1L25,75.4c0.1,1.5-0.6,2.9-1.9,3.7l-11,6.5c-1.6,0.9-2.3,2.9-1.7,4.6l4.3,12.1c0.6,1.4,0.2,3-0.9,4
				l-9.1,9c-1.4,1.2-1.6,3.3-0.6,4.8l7.1,10.7c0.8,1.2,0.8,2.9,0,4.1l-6.7,10.9c-1,1.6-0.7,3.7,0.7,4.9l9.4,8.6c1.1,1,1.5,2.6,1,4
				l-3.9,12.2c-0.6,1.8,0.2,3.7,1.8,4.6l11.2,6.1c1.3,0.8,2.1,2.2,2,3.7l-0.9,12.7c-0.2,1.8,1,3.6,2.8,4l12.3,3.3
				c1.5,0.4,2.6,1.6,2.8,3.1l2.2,12.6c0.3,1.8,1.9,3.1,3.7,3.2l12.8,0.2c1.5,0.1,2.8,1,3.4,2.3l5.1,11.8c0.8,1.7,2.6,2.6,4.4,2.2
				l12.5-2.9c1.5-0.3,2.9,0.3,3.9,1.4l7.7,10.2c1.1,1.5,3.1,1.9,4.8,1.1l11.4-5.7c1.4-0.7,3-0.5,4.2,0.4l9.9,8
				c1.4,1.2,3.5,1.2,4.9,0l9.8-8.3c1.1-1,2.7-1.2,4.1-0.6l11.6,5.4c1.7,0.8,3.7,0.2,4.7-1.3l7.5-10.3c0.8-1.3,2.3-1.9,3.8-1.6
				l12.6,2.5c1.8,0.3,3.6-0.7,4.3-2.4l4.7-11.9c0.6-1.4,1.9-2.3,3.4-2.4l12.8-0.6c1.8-0.1,3.4-1.5,3.6-3.3l1.8-12.6
				c0.2-1.5,1.3-2.7,2.7-3.2l12.2-3.6c1.8-0.6,2.9-2.2,2.8-4.1l-1.3-12.7c-0.2-1.5,0.5-3,1.8-3.7l11.1-6.5c1.5-1,2.2-3,1.6-4.7
				l-4.3-12c-0.5-1.4-0.1-2.9,0.9-4l9.2-9C257.3,145.6,257.5,143.6,256.5,142.1z"/>
			<path d="M132.1,262.2c-1.7,0-3.3-0.6-4.7-1.7l-9.8-7.9c-0.1-0.1-0.3-0.1-0.5,0l-11.4,5.7c-3.1,1.6-7,0.7-9.1-2.1L89,246
				c-0.1-0.1-0.3-0.2-0.5-0.2l-12.4,2.9c-3.4,0.8-6.9-1-8.4-4.2l-5.1-11.8c-0.1-0.1-0.2-0.2-0.4-0.3l-12.7-0.2
				c-3.5-0.1-6.5-2.7-7.1-6.1l-2.2-12.6c0,0,0-0.1,0-0.1c0-0.1-0.1-0.1-0.1-0.2L27.7,210c-3.4-0.8-5.7-4.1-5.4-7.7l0.9-12.6
				c0-0.1-0.1-0.3-0.3-0.4l-11.1-6.1c-3.1-1.7-4.5-5.4-3.5-8.8l3.9-12.2c0,0,0-0.1,0-0.1c0-0.1,0-0.2-0.1-0.2l-9.4-8.6
				c-2.7-2.3-3.2-6.3-1.3-9.4l6.7-10.9c0.1-0.2,0.1-0.3,0-0.4L1.2,122c-1.9-2.9-1.5-6.9,1.1-9.3l9.1-9c0,0,0.1-0.1,0.1-0.1
				c0-0.1-0.1-0.1-0.1-0.2L7.1,91.4c-1.1-3.3,0.2-7,3.2-8.8l11-6.5c0.1-0.1,0.2-0.2,0.2-0.4l-1.3-12.7c-0.3-3.5,1.8-6.7,5.1-7.8
				l12.3-3.6c0.2-0.1,0.3-0.2,0.3-0.4l1.8-12.5c0.4-3.6,3.4-6.3,7-6.4l12.6-0.7c0.1,0,0.2,0,0.2,0c0,0,0,0,0,0c0,0,0.1,0,0.1-0.1
				c0-0.1,0-0.1,0.1-0.2l4.8-11.8c1.4-3.2,4.7-5.1,8.1-4.5c0,0,0.1,0,0.1,0l12.5,2.5c0.1,0,0.2,0,0.3-0.1c0,0,0-0.1,0.1-0.1
				l7.5-10.4c2-2.9,5.9-3.9,9.1-2.3l11.6,5.4c0.1,0,0.2,0,0.4-0.1l9.7-8.3c2.7-2.2,6.6-2.3,9.3-0.2l10.1,8.1c0.1,0,0.2,0.1,0.3,0
				L154.8,4c3.1-1.6,7-0.7,9.2,2.1l7.8,10.1c0.1,0.2,0.3,0.2,0.4,0.2l12.3-2.9c3.4-0.8,7,0.9,8.4,4.2l5.1,11.7
				c0.1,0.1,0.2,0.3,0.5,0.3l12.7,0.2c3.6,0,6.5,2.6,7.1,6.1l2.1,12.6c0,0.1,0.2,0.3,0.3,0.3l12.3,3.3c3.4,1,5.6,4.1,5.4,7.6
				l-0.9,12.7c0,0.2,0,0.3,0.2,0.4l11.2,6.1c0,0,0.1,0,0.1,0.1c3,1.8,4.4,5.3,3.4,8.6l-4,12.1c0,0.2,0,0.4,0.2,0.6l9.3,8.5
				c2.6,2.5,3.1,6.2,1.4,9.2c0,0,0,0.1-0.1,0.1l-6.8,10.8c-0.1,0.1-0.1,0.2,0,0.3c0,0,0,0.1,0.1,0.1l7,10.7c1.9,2.9,1.5,6.8-1,9.2
				l-9.2,9c-0.1,0.1-0.1,0.2,0,0.4l4.3,12c1.1,3.3-0.1,6.9-2.9,8.8c-0.1,0-0.1,0.1-0.2,0.1l-11.1,6.5c-0.1,0.1-0.1,0.1-0.1,0.1
				c0,0.1,0,0.1,0,0.2l1.3,12.7c0,0,0,0.1,0,0.1c0.2,3.5-1.9,6.6-5.2,7.7l-12.3,3.6c-0.1,0-0.2,0.2-0.2,0.3l-1.8,12.6
				c-0.5,3.5-3.4,6.1-6.9,6.3l-12.7,0.6c-0.2,0-0.4,0.1-0.4,0.3l-4.7,11.8c-1.4,3.3-4.7,5.1-8.1,4.6c0,0-0.1,0-0.1,0l-12.6-2.5
				c-0.1,0-0.1,0-0.2,0c0,0.1-0.1,0.1-0.1,0.2l-7.5,10.3c-2,2.8-5.8,3.9-9,2.4l-11.6-5.4c-0.1,0-0.2,0-0.3,0.1l-9.9,8.3
				C135.5,261.6,133.8,262.2,132.1,262.2z M117.4,245.5c1.6,0,3.2,0.5,4.5,1.5c0,0,0.1,0,0.1,0.1l9.9,8c0.2,0.1,0.3,0.1,0.4,0
				l9.8-8.3c2.1-1.9,5.2-2.3,7.8-1.1l11.6,5.4c0.1,0,0.3,0,0.3-0.1l7.5-10.3c1.6-2.4,4.6-3.7,7.4-3l12.4,2.5c0.2,0,0.4-0.1,0.5-0.3
				l4.7-11.8c0-0.1,0-0.1,0.1-0.2c1.1-2.5,3.5-4.2,6.3-4.4c0,0,0.1,0,0.1,0l12.8-0.6c0.2,0,0.3-0.1,0.3-0.3l1.8-12.6
				c0.4-2.8,2.4-5.2,5.1-6l12.3-3.6c0.2-0.1,0.3-0.2,0.3-0.5l-1.3-12.5c-0.4-2.9,1-5.8,3.6-7.2l10.9-6.4c0.2-0.2,0.3-0.4,0.2-0.6
				l-4.3-11.9c-0.9-2.7-0.3-5.6,1.7-7.6l9.3-9.1c0.1-0.1,0.1-0.2,0-0.4c0,0,0,0,0,0l-7-10.7c-1.7-2.4-1.7-5.5-0.2-8l6.7-10.7
				c0.1-0.2,0.1-0.4-0.1-0.6l-9.3-8.5c0,0-0.1-0.1-0.1-0.1c-2-2-2.8-4.8-2-7.5c0-0.1,0-0.1,0.1-0.2l4-12.1c0-0.1,0-0.3-0.2-0.5
				l-11.1-6.1c-2.6-1.4-4.1-4.2-3.8-7.1l0.9-12.6c0-0.2-0.1-0.3-0.3-0.4l-12.3-3.3c-2.8-0.8-4.8-3.1-5.3-5.8l-2.1-12.7
				c0-0.2-0.2-0.3-0.3-0.3l-12.8-0.2c0,0-0.1,0-0.1,0c-2.8-0.2-5.3-1.9-6.5-4.4l-5.1-11.7c-0.1-0.2-0.2-0.2-0.4-0.2l-12.4,2.9
				c0,0-0.1,0-0.1,0c-2.8,0.6-5.7-0.6-7.4-2.8l-7.8-10c-0.1-0.2-0.3-0.2-0.4-0.1l-11.5,5.7c-2.5,1.3-5.6,1-7.8-0.8l-10-8.1
				c-0.1-0.1-0.3-0.1-0.4,0.1l-9.7,8.3c-2.2,1.8-5.2,2.3-7.8,1.1l-11.7-5.4c0,0-0.1,0-0.1,0c-0.1,0-0.2,0-0.3,0.1l-7.5,10.4
				c-1.7,2.4-4.6,3.6-7.5,3l-12.4-2.5c-0.2,0-0.4,0.1-0.5,0.3l-4.8,11.7c-1,2.8-3.6,4.6-6.6,4.6L47,39.4c-0.1,0-0.1,0-0.2,0h0
				c-0.1,0-0.1,0-0.1,0.1c0,0.1,0,0.1,0,0.2l-1.8,12.6c-0.4,2.8-2.4,5.1-5.1,6c0,0-0.1,0-0.1,0L27.4,62c-0.1,0-0.2,0.2-0.2,0.4
				L28.5,75c0.3,2.9-1.2,5.6-3.6,7.1l-11,6.5c-0.2,0.1-0.2,0.3-0.2,0.5l4.3,12c1.1,2.7,0.4,5.8-1.8,7.8l-9,8.9c0,0-0.1,0.1-0.1,0.1
				C7,118,7,118.1,7,118.2l7.1,10.7c1.6,2.4,1.6,5.5,0,7.9l-6.7,10.8c-0.1,0.2-0.1,0.3,0,0.4l9.5,8.7c2.1,1.9,2.9,5,2,7.7L15,176.6
				c-0.1,0.2,0,0.4,0.2,0.5l11.2,6.1c2.5,1.5,4,4.1,3.8,7l-0.9,12.7c0,0,0,0.1,0,0.1c0,0.1,0.1,0.2,0.2,0.2l12.4,3.3
				c2.8,0.7,4.9,3,5.4,5.9l2.2,12.5c0,0.2,0.2,0.3,0.4,0.3l12.7,0.2c0,0,0.1,0,0.1,0c2.8,0.2,5.2,1.8,6.4,4.3c0,0,0,0.1,0,0.1
				l5.1,11.8c0.1,0.1,0.2,0.2,0.4,0.2L87,239c0,0,0.1,0,0.1,0c2.7-0.5,5.5,0.5,7.2,2.6c0,0,0.1,0.1,0.1,0.1l7.7,10.2
				c0.1,0.1,0.3,0.2,0.5,0.1l11.4-5.7C115.1,245.7,116.3,245.5,117.4,245.5z"/>
		</g>
		<g>
			<path class="st1" d="M94.5,136.1c2.1-1.9,3.6-4.3,4.4-7c0.7-2.8,0.7-5.8-0.2-8.6c-0.5-2.2-1.5-4.3-3-6c-1.4-1.5-3.2-2.7-5.2-3.5
				c0.8-1.4,1.3-2.9,1.5-4.5c0.1-1.9-0.1-3.7-0.6-5.5c-1.1-4.2-3.5-7.1-7.1-8.4s-7.8-1.3-12.6,0l-13,3.5c-2.8,0.6-5.4,2-7.5,3.9
				c-1.9,1.7-3.3,3.9-4,6.3c-0.7,2.5-0.7,5.2,0.1,7.7c0.6,2.6,1.9,5,3.7,7c-0.3,1.1-0.5,2.3-0.4,3.4c0,1.5,0.2,2.9,0.6,4.3l1.5,5.7
				c0.6,2.6,1.9,5,3.6,7c1.5,1.8,3.6,3.1,5.9,3.6c2.6,0.6,5.3,0.5,7.8-0.2c1.5-0.4,2.9-1,4.2-1.7c1.1-0.6,2.1-1.4,3-2.3
				c1.3,0.3,2.7,0.4,4,0.4c1.6,0,3.1-0.2,4.6-0.7C89,139.8,92,138.3,94.5,136.1z"/>
		</g>
		<g>
			<path class="st1" d="M109.7,130.5c1.8,0.7,3.6,1.1,5.5,1.2c1.8,0.1,3.7,0,5.5-0.5c1.5-0.4,2.9-1.1,4.2-2c1.2-0.9,2.3-2,3.1-3.3
				c1.4,0.7,2.9,1.2,4.4,1.3c1.6,0.2,3.2,0,4.7-0.4c1.9-0.5,3.8-1.4,5.4-2.5c1.6-1.1,3-2.4,4.1-4c1-1.5,1.8-3.2,2.1-5
				c0.4-1.9,0.3-3.9-0.2-5.8c-0.3-1.1-0.8-2.2-1.3-3.2c-0.5-1.1-1.2-2.2-2-3.2l-11.6-15c-2.1-2.8-4.7-5.1-7.8-6.8
				c-3.1-1.4-6.6-1.6-9.8-0.6c-3.2,0.8-6.1,2.6-8.1,5.3c-1.9,3-3.1,6.3-3.4,9.8l-2.6,18.9c-0.2,1.3-0.2,2.5-0.2,3.8
				c0,1.2,0.2,2.3,0.5,3.4c0.5,2,1.5,3.8,2.8,5.4C106.3,128.7,107.9,129.8,109.7,130.5z"/>
		</g>
		<g>
			<path class="st1" d="M193.6,89c0.8-3.3,0.8-6.7-0.2-10c-0.8-3.3-2.3-6.3-4.4-8.9c-1.9-2.3-4.5-3.9-7.4-4.7
				c-3.4-0.7-6.8-0.5-10.1,0.5L157,69.8c-2.8,0.7-5.3,2-7.5,3.8c-1.9,1.7-3.2,3.9-3.9,6.3c-0.7,2.6-0.7,5.2,0,7.8
				c0.4,1.4,0.9,2.7,1.6,3.9c0.6,1.1,1.3,2.1,2.2,3c-0.3,1.1-0.5,2.3-0.5,3.5c0,1.5,0.3,2.9,0.7,4.3l1.3,4.8
				c1.2,4.4,3.4,7.7,6.7,9.7s7.1,2.5,11.3,1.4c1.7-0.5,3.4-1.2,4.9-2.2c1.5-0.9,2.8-2,3.8-3.4c1.4,0.7,2.9,1.1,4.5,1.2
				c1.7,0.1,3.3,0,4.9-0.5c2.5-0.6,4.9-1.9,6.8-3.7c1.9-1.7,3.2-3.8,4-6.2c0.8-2.3,0.8-4.8,0.2-7.2c-0.4-1.4-1-2.7-1.7-3.9
				C195.6,91.1,194.7,90,193.6,89z"/>
		</g>
		<g>
			<path class="st1" d="M102.9,192.6c2.5-0.6,4.8-1.9,6.7-3.7c1.9-1.6,3.3-3.8,4-6.2c0.8-2.3,0.8-4.8,0.2-7.2
				c-0.4-1.4-1-2.7-1.7-3.9c-0.7-1.3-1.6-2.4-2.7-3.4c0.8-3.3,0.8-6.7-0.2-10c-0.7-3.3-2.3-6.3-4.4-8.9c-1.9-2.3-4.5-4-7.4-4.7
				c-3.4-0.7-6.8-0.5-10.1,0.5L72.8,149c-2.7,0.7-5.3,2-7.4,3.8c-1.9,1.7-3.3,3.9-4,6.3c-0.7,2.6-0.7,5.3,0.1,7.8
				c0.3,1.4,0.8,2.7,1.5,3.9c0.6,1.1,1.3,2.1,2.2,3c-0.3,1.1-0.5,2.3-0.5,3.5c0.1,1.5,0.3,2.9,0.7,4.3l1.3,4.8
				c1.2,4.4,3.4,7.7,6.7,9.7s7.1,2.5,11.3,1.4c1.7-0.5,3.4-1.2,4.9-2.2c1.5-0.9,2.8-2,3.8-3.4c1.4,0.7,2.9,1.1,4.5,1.2
				C99.6,193.2,101.3,193.1,102.9,192.6z"/>
		</g>
		<g>
			<path class="st1" d="M156,157.8c0.6-1.7,0.6-3.6,0.1-5.4c-0.2-0.9-0.6-1.7-1-2.5c-0.4-0.8-1-1.4-1.6-2c2.4-2.5,3.1-5.6,2.1-9.3
				c-1-3.7-2.9-6.2-5.7-7.4s-6.3-1.2-10.5-0.1l-13.3,3.6c-4.8,1.3-8.5,3.5-10.8,6.6s-2.9,7-1.7,11.6c0.5,1.8,1.3,3.4,2.3,5
				c1.1,1.5,2.4,3,3.8,4.3c-0.6,1.8-1.1,3.6-1.2,5.5c-0.1,2,0.1,3.9,0.6,5.8c1.2,4.4,3.6,7.5,7.2,9s7.8,1.7,12.7,0.4l13.5-3.6
				c3.9-1,6.9-2.8,8.8-5.3s2.4-5.5,1.4-9.2C161.9,161.4,159.3,158.8,156,157.8L156,157.8z"/>
		</g>
		<g>
			<path class="st1" d="M203.3,138.4c-2.6-0.4-5.3-0.3-7.9,0.5l-2.1-7.8c-0.7-2.7-2-5.3-3.8-7.4c-1.7-1.9-3.9-3.2-6.3-3.8
				c-2.6-0.7-5.3-0.6-7.9,0.1c-4.3,1.2-7.4,3.5-9.2,6.8s-2.1,7.4-0.9,11.9l5,18.5c0.8,4,3.3,7.5,6.7,9.7c3.2,2.1,7,2.5,11.3,1.4
				l14-3.8c2.6-0.6,5-1.8,7-3.5c1.9-1.5,3.2-3.5,4-5.8c0.8-2.4,0.8-5,0.1-7.4c-0.6-2.4-1.9-4.6-3.7-6.3
				C207.8,139.9,205.7,138.8,203.3,138.4z"/>
		</g>
		<g>
			<path d="M70.1,105.6c-0.5,0.2-1,0.5-1.3,1c-0.3,0.5-0.4,1.1-0.2,1.6l1.2,4.4c0.1,0.6,0.5,1,1,1.3c0.5,0.2,1.1,0.3,1.6,0.2
				c0.5-0.2,1-0.5,1.3-1c0.3-0.5,0.4-1.1,0.2-1.7l-1.2-4.3c-0.1-0.5-0.4-1-0.9-1.3C71.3,105.5,70.7,105.5,70.1,105.6z"/>
			<path d="M71.9,115.1c-0.5,0-1.1-0.1-1.5-0.3l-0.1,0c-0.7-0.4-1.3-1.1-1.5-1.9l-1.2-4.4c-0.3-0.8-0.2-1.7,0.3-2.4
				c0.4-0.6,1.1-1.1,1.8-1.4l0.1,0c0.8-0.2,1.6-0.1,2.4,0.3c0.8,0.4,1.3,1.1,1.4,2l1.2,4.2c0.3,0.8,0.2,1.7-0.3,2.5
				c-0.4,0.7-1.1,1.2-1.9,1.4l-0.1,0C72.4,115.1,72.1,115.1,71.9,115.1z M71.2,113c0.3,0.1,0.6,0.2,0.9,0.1c0.3-0.1,0.5-0.3,0.7-0.5
				c0.2-0.3,0.2-0.6,0.1-0.9l-1.2-4.5c0-0.2-0.2-0.5-0.4-0.6c-0.3-0.1-0.6-0.2-0.9-0.1c-0.3,0.1-0.6,0.3-0.8,0.6
				c-0.1,0.2-0.2,0.5-0.1,0.7l1.2,4.5C70.8,112.6,71,112.9,71.2,113z"/>
		</g>
		<g>
			<path d="M94.5,136.1c2.1-1.8,3.7-4.3,4.4-7c0.7-2.8,0.7-5.8-0.1-8.6c-0.6-2.2-1.6-4.3-3.1-6c-1.5-1.5-3.2-2.7-5.2-3.4
				c0.8-1.4,1.3-3,1.5-4.6c0.1-1.9-0.1-3.7-0.6-5.5c-1.1-4.2-3.5-7-7-8.4s-7.8-1.3-12.7,0l-13,3.5c-2.8,0.7-5.4,2-7.5,3.9
				c-1.9,1.7-3.3,3.9-4,6.3c-0.7,2.5-0.6,5.2,0.1,7.7c0.6,2.6,1.9,5,3.7,7c-0.3,1.1-0.5,2.3-0.4,3.4c0,1.5,0.2,3,0.6,4.4l1.6,5.6
				c0.6,2.6,1.8,5.1,3.5,7.1c1.6,1.7,3.6,3,5.9,3.6c2.6,0.6,5.3,0.5,7.8-0.3c1.5-0.4,2.9-0.9,4.2-1.7c1.1-0.6,2.1-1.4,3-2.3
				c1.3,0.3,2.7,0.5,4,0.4c1.6,0,3.1-0.2,4.6-0.6C89,139.8,92,138.3,94.5,136.1z M72.7,127.1c1-1.3,2.4-2.2,4-2.6l1.7-0.4
				c0.5-0.2,0.9-0.5,1.2-1c0.4-0.4,0.5-1.1,0.3-1.6c-0.1-0.6-0.5-1.1-1.1-1.3c-0.5-0.3-1-0.3-1.5-0.2l-1.9,0.5
				c-2.7,0.6-5,2.2-6.5,4.5c-1.5,2.2-1.9,5-1,7.6c0.4,1.4,1,2.7,1.9,3.8c0.8,1,1.8,1.9,2.9,2.6l-1.5,0.8l-2.4,0.9
				c-1.8,0.5-3.6,0.6-5.4,0.3c-1.6-0.3-3-1.1-4-2.4c-1.2-1.6-2.1-3.5-2.5-5.5l-1.5-5.3c-0.6-2-0.6-4.1,0-6.1c0.7-2,2-3.8,3.7-5.1
				c0.6-0.5,1-1.1,1.1-1.9c0.1-0.6-0.1-1.1-0.5-1.5c-0.5-0.4-1.3-0.5-1.9-0.3c-0.8,0.3-1.6,0.7-2.3,1.3c-0.9,0.8-1.7,1.7-2.4,2.7
				l-0.9-1.7c-0.3-0.7-0.5-1.5-0.8-2.3c-0.8-2.6-0.5-5.5,0.9-7.9c1.5-2.2,3.9-3.7,7.3-4.7l12.7-3.4c2.2-0.6,4.4-0.9,6.7-0.9
				c1.8,0,3.6,0.4,5.2,1.4c1.6,1.2,2.7,2.9,3.1,4.8c0.5,1.6,0.6,3.2,0.3,4.8c-0.3,1.4-1,2.7-2,3.7c-0.6,0.5-0.8,1.3-0.7,2
				c0.1,0.7,0.8,1.2,1.8,1.5c1.9,0.4,3.7,1.3,5.2,2.6c1.3,1.3,2.3,3,2.7,4.8c0.7,2.2,0.7,4.6,0,6.8c-0.7,2-1.9,3.7-3.6,5
				c-1.9,1.4-4,2.5-6.3,3c-1.7,0.5-3.5,0.6-5.3,0.5c-1.7-0.2-3.3-0.7-4.7-1.6c-1.3-0.9-2.3-2.3-2.7-3.9
				C71.5,129.9,71.8,128.3,72.7,127.1z"/>
			<path d="M65.6,146.5c-1.2,0-2.4-0.1-3.6-0.4c-2.5-0.7-4.7-2-6.4-3.9c-1.9-2.2-3.1-4.8-3.7-7.6l-1.6-5.5c-0.4-1.5-0.6-3.1-0.6-4.7
				c-0.1-1,0-2.1,0.3-3.2c-1.7-2-2.9-4.4-3.6-7c-0.8-2.6-0.8-5.5-0.1-8.2c0.8-2.6,2.3-5,4.3-6.8c2.3-2,5-3.4,7.9-4.1l13-3.5
				c5.3-1.4,9.8-1.4,13.3,0c3.9,1.5,6.4,4.6,7.6,9.1c0.6,1.9,0.8,3.8,0.6,5.8c-0.2,1.4-0.6,2.8-1.1,4c1.7,0.8,3.3,1.9,4.5,3.2
				c1.6,1.9,2.7,4.1,3.3,6.4c0.8,3,0.9,6.1,0.1,9.1c-0.8,2.9-2.4,5.5-4.7,7.5c-2.6,2.3-5.8,3.9-9.1,4.7c-1.6,0.4-3.2,0.6-4.8,0.6
				c-1.2,0.1-2.5,0-3.7-0.3c-0.8,0.8-1.8,1.5-2.8,2.1c-1.4,0.8-2.9,1.4-4.4,1.8C68.7,146.2,67.1,146.5,65.6,146.5z M78.7,92.6
				c-2,0-4.3,0.3-6.7,1l-13,3.5c-2.6,0.6-5.1,1.9-7.1,3.7c-1.8,1.6-3.1,3.6-3.7,5.8c-0.6,2.3-0.6,4.8,0.1,7.1
				c0.6,2.5,1.8,4.7,3.5,6.6l0.4,0.4l-0.2,0.5c-0.3,1-0.4,2-0.4,3c0,1.4,0.2,2.9,0.6,4.2l1.6,5.6c0.5,2.5,1.7,4.8,3.3,6.7
				c1.4,1.6,3.3,2.7,5.4,3.3c2.4,0.5,4.9,0.4,7.2-0.3c1.4-0.4,2.8-0.9,4-1.6c1.1-0.6,2-1.3,2.8-2.1l0.4-0.4l0.6,0.1
				c1.2,0.3,2.5,0.4,3.7,0.4c1.5,0,3-0.2,4.4-0.6c3.1-0.8,5.9-2.2,8.3-4.3l0,0c2-1.7,3.4-3.9,4.1-6.5c0.7-2.6,0.6-5.4-0.1-8.1
				c-0.5-2.1-1.5-4-2.9-5.6c-1.3-1.3-3-2.4-4.8-3.1l-1.1-0.4l0.6-1c0.7-1.3,1.2-2.8,1.4-4.2c0.1-1.7-0.1-3.4-0.6-5.1
				c-1-3.9-3.2-6.5-6.4-7.8C82.5,92.9,80.7,92.6,78.7,92.6z M65.4,142.2c-0.7,0-1.4-0.1-2.2-0.2c-1.8-0.3-3.5-1.3-4.6-2.8
				c-1.3-1.8-2.2-3.8-2.7-5.9l-1.5-5.2c-0.7-2.2-0.7-4.5,0-6.7c0.8-2.3,2.2-4.2,4.1-5.6c0.4-0.3,0.6-0.7,0.7-1.2
				c0.1-0.3,0-0.5-0.2-0.6c-0.2-0.2-0.6-0.2-0.9-0.1c-0.7,0.3-1.4,0.6-2,1.1c-0.8,0.7-1.6,1.6-2.2,2.5l-0.9,1.3l-1.7-3.1
				c-0.2-0.5-0.4-1-0.5-1.4c-0.1-0.3-0.2-0.7-0.3-1c-0.9-3-0.6-6.1,1-8.8c1.6-2.4,4.2-4.1,7.9-5.1L72,95.9c2.3-0.6,4.6-0.9,6.9-0.9
				c2,0,4,0.5,5.7,1.5c1.9,1.3,3.1,3.2,3.5,5.4c0.5,1.7,0.6,3.5,0.3,5.2c-0.3,1.6-1.1,3.1-2.3,4.2c-0.3,0.3-0.5,0.7-0.4,1.1
				c0,0.2,0.4,0.5,1.1,0.7c2.1,0.4,4.1,1.4,5.6,2.8c1.5,1.5,2.5,3.3,3,5.3c0.8,2.4,0.8,4.9,0,7.3c-0.7,2.2-2.1,4.1-4,5.5
				c-2,1.5-4.2,2.6-6.7,3.2c-1.8,0.5-3.7,0.7-5.6,0.5c-1.8-0.2-3.6-0.8-5.2-1.7c-1.6-1.1-2.7-2.7-3.1-4.5c-0.5-1.7-0.2-3.6,0.9-5.1
				l0,0c1.1-1.4,2.8-2.5,4.5-2.9l1.7-0.4c0.3-0.1,0.5-0.3,0.6-0.5l0.1-0.2c0.1-0.1,0.2-0.4,0.1-0.5l-0.1-0.2
				c-0.1-0.3-0.2-0.5-0.5-0.6l-0.1-0.1c-0.2-0.1-0.5-0.2-0.7-0.1l-1.9,0.5c-2.4,0.6-4.5,2-5.9,4.1c-1.3,2-1.7,4.5-0.9,6.7
				c0.4,1.3,0.9,2.5,1.7,3.5c0.8,0.9,1.7,1.7,2.7,2.4l1.4,0.9l-3.1,1.6l-2.4,0.9C67.9,142,66.6,142.2,65.4,142.2z M58.5,111.8
				c0.7,0,1.3,0.2,1.8,0.6c0.7,0.7,1,1.6,0.9,2.5c-0.1,1-0.7,1.9-1.5,2.5c-1.6,1.2-2.7,2.8-3.4,4.6c-0.5,1.8-0.5,3.7,0,5.5l1.5,5.3
				c0.4,1.9,1.2,3.6,2.3,5.2c0.8,1,2,1.8,3.4,2c1.6,0.3,3.3,0.2,4.9-0.3l2.3-0.9c-0.7-0.6-1.3-1.2-1.8-1.8c-1-1.3-1.7-2.7-2.1-4.2
				c-1-2.8-0.5-5.9,1.1-8.4c1.7-2.5,4.2-4.2,7.1-4.9L77,119c0.7-0.2,1.5-0.1,2.2,0.3c0.8,0.3,1.4,1.1,1.6,1.9
				c0.3,0.9,0.1,1.8-0.5,2.5c-0.4,0.6-1,1.1-1.7,1.3l-0.1,0l-1.7,0.4c-1.3,0.3-2.6,1.1-3.4,2.2c-0.7,1-0.9,2.3-0.5,3.4
				c0.4,1.4,1.2,2.6,2.3,3.4c1.2,0.8,2.7,1.3,4.2,1.4c1.7,0.1,3.3,0,4.9-0.5c2.2-0.5,4.2-1.5,6-2.8c1.5-1.1,2.7-2.7,3.3-4.5
				c0.6-2,0.6-4.2,0-6.2c-0.4-1.7-1.3-3.2-2.5-4.4c-1.3-1.2-2.9-2-4.7-2.3l-0.1,0c-1.9-0.6-2.4-1.6-2.5-2.3c-0.2-1.1,0.2-2.2,1-2.9
				c0.9-0.8,1.5-1.9,1.7-3.1c0.3-1.4,0.2-2.9-0.3-4.3l0-0.1c-0.3-1.7-1.3-3.2-2.7-4.2c-1.3-0.8-3-1.3-4.6-1.2
				c-2.2,0-4.4,0.3-6.5,0.9l-12.7,3.4c-3.2,0.9-5.4,2.3-6.7,4.3c-1.2,2.1-1.5,4.7-0.8,7c0.1,0.3,0.2,0.7,0.3,1
				c0.1,0.4,0.3,0.8,0.4,1.2l0.1,0.3c0.5-0.6,1-1.1,1.6-1.6c0.8-0.7,1.7-1.2,2.6-1.5C57.8,111.8,58.1,111.8,58.5,111.8z"/>
		</g>
		<g>
			<path d="M109.7,130.5c1.7,0.7,3.6,1.2,5.5,1.3c1.9,0.1,3.7-0.1,5.5-0.6c1.5-0.4,2.9-1.1,4.2-2c1.2-0.9,2.3-2,3.2-3.3
				c1.3,0.8,2.8,1.2,4.3,1.3c1.6,0.2,3.2,0,4.7-0.4c1.9-0.5,3.8-1.3,5.4-2.5c1.6-1.1,3-2.4,4.1-4c1.1-1.5,1.8-3.2,2.1-5
				c0.4-1.9,0.3-3.8-0.2-5.7c-0.3-1.1-0.8-2.2-1.3-3.3c-0.6-1.1-1.2-2.2-2-3.2l-11.6-15c-2.1-2.8-4.7-5.1-7.8-6.8
				c-3.1-1.3-6.6-1.5-9.8-0.5c-3.2,0.7-6.1,2.5-8.1,5.2c-1.9,3-3,6.4-3.4,9.9l-2.6,18.9c-0.2,1.2-0.2,2.5-0.2,3.7
				c0,1.2,0.2,2.4,0.5,3.5c0.5,2,1.5,3.8,2.8,5.3C106.3,128.7,107.9,129.8,109.7,130.5z M129,112.1c0.8-0.1,1.4-0.6,1.7-1.3
				c0.2-0.7,0-1.5-0.5-2.1l-6.6-8.4c-0.4-0.7-1.2-1.1-2-0.9h-0.1c-0.7,0.2-1.3,0.6-1.6,1.3c-0.4,0.8-0.3,1.7,0.3,2.3l4.5,5.8
				l-6.7,1.8c-0.7,0.1-1.3,0.6-1.6,1.3c-0.3,0.7-0.2,1.5,0.4,2.1l5.2,6.7c0.4,0.5,0.8,1,1.2,1.5c0.4,0.5,0.8,0.9,1.3,1.3
				c-0.6,0.8-1.3,1.6-2.1,2.2c-0.8,0.6-1.8,1.1-2.8,1.4c-1.2,0.2-2.3,0.4-3.5,0.4c-1.4,0-2.7-0.3-4-0.7c-1.3-0.4-2.5-1.1-3.5-2
				c-1.1-1.1-1.8-2.5-2.2-4c-0.2-0.9-0.3-1.7-0.4-2.6c0-0.9,0-1.9,0.2-2.8l2.6-18.9c0.5-3.5,1.3-6.1,2.6-7.9
				c1.4-1.9,3.4-3.2,5.7-3.7c2.2-0.6,4.6-0.5,6.8,0.4c2.5,1.3,4.6,3.1,6.2,5.4l11.7,15.1c0.6,0.8,1.1,1.6,1.5,2.4
				c0.4,0.8,0.8,1.6,1,2.5c0.5,1.8,0.4,3.7-0.3,5.4c-0.7,1.7-1.8,3.1-3.3,4.2c-1.4,1.1-3,1.9-4.7,2.4c-1.9,0.5-3.8,0.4-5.6-0.4
				c-2-1-3.7-2.5-5-4.3l-3.2-4.1L129,112.1z"/>
			<path d="M116.2,132.8c-0.3,0-0.7,0-1,0c-2-0.1-4-0.6-5.8-1.4c-1.9-0.7-3.7-1.9-5.1-3.4c-1.5-1.6-2.5-3.6-3-5.7
				c-0.3-1.2-0.5-2.5-0.5-3.7c0-1.3,0-2.6,0.2-3.8l2.6-18.9c0.4-3.6,1.6-7.2,3.5-10.3c2.2-2.9,5.3-4.9,8.7-5.6
				c3.4-1.1,7.1-0.9,10.4,0.6c3.3,1.8,6,4.2,8.2,7.1l11.6,15c0.8,1,1.5,2.2,2.1,3.4c0.5,1.1,1,2.3,1.4,3.4c0.6,2,0.6,4.2,0.2,6.2
				c-0.3,1.9-1.1,3.8-2.3,5.4c-1.2,1.7-2.6,3.1-4.4,4.2c-1.7,1.2-3.6,2.1-5.7,2.6c-1.6,0.5-3.3,0.6-5,0.4c-1.3-0.1-2.7-0.4-3.9-1
				c-0.8,1.1-1.8,2-2.9,2.8c-1.4,1-2.9,1.8-4.6,2.2C119.4,132.6,117.8,132.8,116.2,132.8z M120.3,81.1c-1.3,0-2.7,0.2-4,0.6
				c-3.1,0.7-5.8,2.4-7.6,4.8c-1.7,2.8-2.9,6.1-3.2,9.4l-2.6,18.9c-0.2,1.2-0.2,2.4-0.2,3.5c0,1.1,0.2,2.2,0.5,3.3
				c0.5,1.8,1.4,3.5,2.6,4.9c1.2,1.3,2.7,2.3,4.3,2.9l0,0c1.6,0.7,3.4,1.1,5.2,1.2c1.7,0.1,3.5-0.1,5.2-0.6c1.4-0.4,2.7-1,3.9-1.8
				c1.2-0.9,2.2-1.9,3-3.1l0.5-0.8l0.8,0.5c1.2,0.7,2.5,1.1,3.8,1.2c1.5,0.2,3,0,4.4-0.4c1.9-0.5,3.6-1.2,5.1-2.3
				c1.5-1,2.8-2.3,3.9-3.8c1-1.4,1.7-2.9,1.9-4.6c0.4-1.8,0.3-3.6-0.2-5.3c-0.3-1.1-0.7-2.1-1.2-3.1c-0.5-1.1-1.2-2.1-1.9-3
				l-11.6-15c-2-2.7-4.5-4.9-7.5-6.5C123.7,81.5,122,81.1,120.3,81.1z M116.1,128.5c-1.5,0-2.9-0.3-4.3-0.8
				c-1.4-0.4-2.7-1.2-3.9-2.2c-1.2-1.3-2.1-2.8-2.5-4.5c-0.2-0.9-0.4-1.8-0.4-2.8c0-1,0-2.1,0.2-3.1l2.6-18.9
				c0.5-3.8,1.4-6.5,2.8-8.3c1.6-2.1,3.8-3.5,6.3-4.1c2.4-0.7,5.1-0.5,7.4,0.4c2.7,1.4,4.9,3.4,6.6,5.7l11.7,15.1
				c0.6,0.8,1.1,1.7,1.6,2.6c0.5,0.8,0.8,1.7,1.1,2.7c0.6,2,0.4,4.1-0.3,6c-0.8,1.9-2,3.5-3.6,4.6c-1.5,1.1-3.2,2-5,2.5
				c-2.1,0.6-4.3,0.4-6.3-0.4c-2.2-1.1-4-2.7-5.4-4.6l-4.1-5.3l8.4-2.2c0.4-0.1,0.7-0.3,0.9-0.6c0.1-0.4,0-0.8-0.3-1.1l-6.7-8.6
				c-0.2-0.3-0.5-0.5-0.9-0.4l-0.2,0c-0.4,0.1-0.7,0.4-0.8,0.7c-0.2,0.4-0.2,0.9,0.1,1.2l5.5,7.1l-8.2,2.2c-0.5,0.1-0.8,0.3-0.9,0.7
				c-0.2,0.4-0.1,0.8,0.2,1l0.1,0.1l5.2,6.7c0.4,0.5,0.8,1,1.2,1.4c0.4,0.5,0.8,0.9,1.2,1.2l0.7,0.6l-0.5,0.8
				c-0.6,0.9-1.4,1.8-2.3,2.5c-0.9,0.7-2,1.2-3.1,1.6C118.6,128.3,117.4,128.5,116.1,128.5z M119.9,85.5c-0.9,0-1.7,0.1-2.6,0.4
				c-2.1,0.5-3.9,1.7-5.2,3.3c-1.1,1.6-1.9,3.9-2.4,7.4l-2.6,18.9c-0.2,0.9-0.2,1.8-0.2,2.6c0.1,0.8,0.2,1.6,0.4,2.4
				c0.3,1.3,1,2.5,2,3.5c0.8,0.8,1.9,1.4,3.1,1.7c1.2,0.4,2.5,0.6,3.7,0.7c1.1,0,2.2-0.1,3.3-0.4c0.8-0.2,1.7-0.6,2.4-1.2
				c0.5-0.4,1-0.8,1.4-1.3c-0.3-0.3-0.5-0.5-0.7-0.8c-0.4-0.5-0.8-1-1.2-1.5l-5.1-6.6c-0.8-0.8-1-2.1-0.6-3.2c0.4-1,1.3-1.7,2.3-1.9
				l5.2-1.4l-3.6-4.6c-0.8-0.9-1-2.3-0.4-3.4c0.4-0.9,1.3-1.6,2.3-1.8l0.2,0c1.2-0.2,2.3,0.3,2.9,1.3l6.6,8.3
				c0.7,0.8,0.9,1.9,0.7,2.9l-0.1,0.2c-0.4,1-1.3,1.7-2.4,1.9l-5.3,1.4l2.3,2.9c1.2,1.7,2.8,3.1,4.7,4c1.5,0.7,3.2,0.8,4.9,0.3
				c1.6-0.5,3-1.2,4.4-2.2c1.3-1,2.4-2.3,3-3.8c0.6-1.5,0.7-3.2,0.3-4.7c-0.2-0.8-0.5-1.6-0.9-2.3c-0.4-0.8-0.9-1.6-1.4-2.3
				l-11.7-15.1c-1.5-2.2-3.6-3.9-5.9-5.1C122.4,85.7,121.2,85.5,119.9,85.5z"/>
		</g>
		<g>
			<path d="M169.3,80.9c-0.6,0.1-1,0.5-1.3,1c-0.3,0.5-0.4,1-0.3,1.6l1.2,4.3c0.1,0.6,0.5,1,1,1.3c0.5,0.3,1.1,0.4,1.6,0.2
				c0.6-0.1,1.1-0.5,1.3-1c0.3-0.5,0.4-1.1,0.2-1.6l-1.1-4.4c-0.2-0.5-0.5-0.9-1-1.2C170.4,80.8,169.8,80.7,169.3,80.9z"/>
			<path d="M170.9,90.4c-0.5,0-1.1-0.1-1.5-0.4c-0.8-0.4-1.3-1.1-1.5-2l-1.2-4.2c-0.2-0.9,0-1.7,0.4-2.4c0.3-0.7,1-1.2,1.9-1.4
				c0.8-0.3,1.7-0.1,2.4,0.3c0.6,0.4,1.1,1,1.4,1.7l0,0.1l1.1,4.4c0.3,0.7,0.2,1.6-0.3,2.3c-0.4,0.8-1.1,1.3-1.9,1.5
				C171.5,90.4,171.2,90.4,170.9,90.4z M169.9,81.8c-0.1,0-0.2,0-0.3,0l-0.1,0c-0.3,0.1-0.5,0.2-0.6,0.5c-0.2,0.3-0.3,0.7-0.2,1
				l1.2,4.2c0.1,0.3,0.2,0.6,0.5,0.7l0.1,0.1c0.2,0.1,0.5,0.2,0.7,0.1l0.2,0c0.2,0,0.4-0.2,0.5-0.4l0.1-0.2c0.1-0.2,0.2-0.5,0.1-0.7
				l-1.1-4.4c-0.1-0.3-0.3-0.5-0.5-0.6C170.2,81.9,170.1,81.8,169.9,81.8z"/>
		</g>
		<g>
			<path d="M193.6,89c0.8-3.3,0.8-6.7-0.2-10c-0.7-3.3-2.3-6.3-4.4-8.9c-1.9-2.3-4.5-3.9-7.4-4.6c-3.3-0.8-6.8-0.6-10.1,0.4
				L157,69.8c-2.8,0.7-5.3,2-7.5,3.9c-1.8,1.7-3.2,3.8-3.9,6.2c-0.7,2.6-0.7,5.2,0,7.8c0.3,1.4,0.9,2.7,1.6,3.9
				c0.6,1.1,1.3,2.1,2.2,3c-0.3,1.1-0.5,2.3-0.5,3.5c0,1.5,0.3,2.9,0.7,4.3l1.3,4.8c1.2,4.5,3.4,7.7,6.7,9.8c3.4,2,7.5,2.5,11.3,1.3
				c1.7-0.5,3.4-1.2,4.9-2.1c1.5-0.9,2.8-2.1,3.8-3.5c1.4,0.7,2.9,1.1,4.5,1.2c1.7,0.2,3.4,0,5-0.5c2.5-0.6,4.8-1.9,6.7-3.7
				c1.9-1.7,3.2-3.8,4-6.2c0.8-2.3,0.8-4.8,0.2-7.2c-0.4-1.4-1-2.7-1.7-3.9C195.6,91.1,194.7,90,193.6,89z M184.6,94.8
				c-0.6,0.3-1.1,0.9-1.1,1.6c0,0.6,0.2,1.3,0.7,1.7c0.5,0.5,1.2,0.6,1.8,0.4c1.2-0.3,2.3-1,3.1-1.9c1-0.9,1.8-2,2.6-3.1l1.2,1.6
				c0.4,0.7,0.7,1.5,0.9,2.3c0.4,1.5,0.4,3.1-0.1,4.6c-0.5,1.7-1.4,3.2-2.7,4.4c-1.4,1.4-3.2,2.4-5.1,2.8c-0.9,0.3-1.9,0.4-2.9,0.4
				c-0.9,0-1.8-0.2-2.7-0.5c-0.9-0.4-1.8-0.9-2.7-1.4l-8.8-6.1c-0.5-0.4-1.1-0.5-1.7-0.4l-0.5,0.2c-0.6,0.4-1.1,1.1-1.2,1.8
				c-0.1,0.8,0.3,1.5,0.9,1.9l5.2,3.7l1.1,0.8l0.3,0.2l1.1,0.7c-0.6,0.9-1.5,1.6-2.4,2.1c-1.2,0.7-2.5,1.2-3.8,1.5
				c-3.1,0.9-5.8,0.6-8-0.9s-3.9-3.8-4.8-7.1l-1.2-4.7c-0.7-2.1-0.7-4.4,0.1-6.5c1-2,2.3-3.7,4-5.1c0.6-0.6,0.9-1.2,0.7-1.8
				c0-0.6-0.5-1.2-1.1-1.4c-0.4-0.2-0.9-0.3-1.3-0.1c-0.3,0-0.6,0.1-0.9,0.3l-1.9,1.5c-0.7,0.6-1.4,1.4-1.9,2.2l-0.9-1.6
				c-0.3-0.8-0.6-1.5-0.8-2.3c-0.5-1.8-0.6-3.8-0.1-5.6c0.5-1.7,1.4-3.2,2.8-4.3c1.6-1.3,3.4-2.2,5.4-2.7l14.4-3.9
				c4.4-1.2,8.1-0.9,10.9,0.8s4.9,4.9,6.1,9.3c0.8,2.8,0.8,5.7,0,8.5C188.5,91.2,186.8,93.3,184.6,94.8z"/>
			<path d="M164.7,119.9c-2.7,0-5.3-0.7-7.6-2.1c-3.6-2.3-5.9-5.7-7.2-10.4l-1.3-4.8c-0.5-1.4-0.7-3-0.7-4.5c0-1.1,0.1-2.2,0.4-3.2
				c-0.8-0.9-1.4-1.8-2-2.8c-0.8-1.2-1.3-2.7-1.7-4.1c-0.7-2.7-0.7-5.6,0-8.3c0.8-2.6,2.2-4.9,4.2-6.7c2.3-2,5-3.4,7.9-4.1l14.5-3.9
				c3.4-1.1,7.1-1.2,10.6-0.4c3.1,0.8,5.9,2.5,7.9,4.9c2.2,2.7,3.8,5.9,4.6,9.3c0.9,3.2,1.1,6.6,0.3,9.9c1,1,1.8,2,2.5,3.2
				c0.8,1.3,1.4,2.7,1.8,4.1c0.7,2.6,0.6,5.3-0.2,7.8c-0.8,2.5-2.3,4.8-4.3,6.6c-2,1.9-4.5,3.2-7.1,3.9c-1.7,0.5-3.5,0.7-5.4,0.5
				c-1.4-0.1-2.8-0.4-4.1-1c-1,1.2-2.2,2.3-3.6,3.1c-1.6,1-3.4,1.7-5.2,2.2C167.7,119.7,166.2,119.9,164.7,119.9z M177.3,66
				c-1.9,0-3.7,0.3-5.5,0.8l-14.5,3.9c-2.6,0.6-5.1,1.9-7.1,3.7c-1.7,1.5-2.9,3.5-3.6,5.7c-0.6,2.4-0.6,4.9,0,7.2
				c0.3,1.3,0.8,2.5,1.5,3.6c0.6,1.1,1.2,2,2.1,2.8l0.4,0.4l-0.2,0.6c-0.3,1.1-0.5,2.1-0.5,3.2c0,1.3,0.2,2.7,0.7,4l1.3,4.8
				c1.1,4.2,3.2,7.3,6.3,9.2c3.1,1.8,7,2.3,10.5,1.2c1.7-0.5,3.2-1.1,4.7-2c1.3-0.8,2.5-1.9,3.5-3.2l0.5-0.7l0.7,0.4
				c1.3,0.6,2.7,1,4.1,1.1c1.6,0.2,3.2,0,4.6-0.5c2.4-0.6,4.6-1.8,6.3-3.5c1.7-1.6,3-3.6,3.7-5.8c0.7-2.2,0.8-4.5,0.2-6.6
				c-0.4-1.3-0.9-2.5-1.6-3.6c-0.7-1.2-1.5-2.3-2.5-3.2l-0.4-0.4l0.1-0.6c0.8-3.1,0.7-6.4-0.2-9.5c-0.7-3.2-2.2-6.1-4.2-8.5
				c-1.8-2.1-4.2-3.6-6.9-4.3C180,66.2,178.7,66,177.3,66z M164.5,115.6c-1.9,0-3.7-0.5-5.2-1.6c-2.5-1.7-4.3-4.3-5.2-7.7l-1.2-4.7
				c-0.8-2.2-0.7-4.8,0.1-7.1c1.1-2.2,2.5-4,4.3-5.5c0.3-0.3,0.4-0.6,0.4-0.7l0-0.2c0-0.2-0.2-0.4-0.4-0.5l-0.2-0.1
				c-0.1-0.1-0.3-0.1-0.4,0l-0.2,0.1l-0.2,0c-0.1,0-0.2,0-0.3,0.1l-1.9,1.5c-0.6,0.5-1.2,1.2-1.7,2l-0.9,1.4l-1.8-3.2
				c-0.3-0.8-0.6-1.6-0.8-2.4c-0.6-2-0.6-4.1-0.1-6.1c0.5-1.9,1.6-3.6,3.1-4.8c1.7-1.4,3.7-2.4,5.8-2.9l14.4-3.9
				c4.7-1.3,8.6-1,11.7,0.9c3,1.8,5.3,5.3,6.5,9.9c0.9,2.9,0.9,6.1,0,9c-0.9,2.7-2.7,5.1-5.1,6.7l-0.2,0.1c-0.3,0.1-0.5,0.4-0.5,0.7
				c0,0.4,0.1,0.7,0.4,0.9c0.2,0.2,0.5,0.3,0.8,0.2c1.1-0.3,2-0.9,2.7-1.6c1-0.9,1.8-1.9,2.5-3l0.8-1.2l2.1,2.8
				c0.5,0.8,0.8,1.7,1,2.6c0.5,1.7,0.4,3.4-0.1,5.1c-0.5,1.8-1.6,3.5-3,4.8c-1.5,1.5-3.5,2.6-5.6,3.1c-1,0.3-2.1,0.4-3.1,0.4
				c-1,0-2.1-0.2-3-0.6c-1-0.4-2-0.9-2.9-1.5l-8.8-6.1c-0.3-0.2-0.6-0.3-0.9-0.2l-0.3,0.1c-0.4,0.2-0.6,0.6-0.7,1.1
				c0,0.3,0.1,0.7,0.5,0.9l6.6,4.7l2,1.3l-0.7,0.9c-0.7,1-1.6,1.8-2.7,2.4c-1.3,0.7-2.6,1.2-4,1.6
				C166.8,115.4,165.6,115.6,164.5,115.6z M159.6,87.8c0.2,0.9-0.1,1.8-1,2.7c-1.6,1.4-2.9,3-3.8,4.8c-0.7,1.8-0.7,3.8,0,5.7
				l1.2,4.8c0.8,2.9,2.3,5.1,4.4,6.5c1.9,1.3,4.3,1.6,7.2,0.8c1.3-0.3,2.5-0.8,3.6-1.4c0.5-0.3,0.9-0.6,1.4-1l-0.4-0.3l-1.1-0.8
				l-5.2-3.7c-0.9-0.6-1.4-1.7-1.3-2.8c0.2-1.1,0.8-2,1.7-2.5l0.2-0.1l0.7-0.3c0.9-0.1,1.7,0.1,2.4,0.6l8.8,6.1
				c0.8,0.5,1.6,0.9,2.5,1.3c0.7,0.3,1.5,0.4,2.3,0.4c0.9,0,1.7-0.1,2.6-0.4c1.8-0.4,3.4-1.3,4.7-2.6c1.2-1.1,2-2.5,2.4-4
				c0.4-1.3,0.5-2.7,0.1-4c-0.2-0.7-0.4-1.4-0.8-2l-0.4-0.5c-0.6,0.8-1.2,1.5-1.9,2.1c-0.9,1-2.2,1.7-3.5,2.1
				c-0.9,0.3-2.1,0.1-2.8-0.7c-0.7-0.6-1-1.5-1-2.5c0-1,0.7-2,1.6-2.4c2-1.3,3.5-3.3,4.2-5.5c0.7-2.6,0.7-5.3,0-7.9
				c-1.1-4.2-3.1-7.2-5.7-8.7c-2.6-1.6-6-1.8-10.1-0.7L158.2,75c-1.8,0.5-3.6,1.3-5,2.5c-1.2,1-2.1,2.3-2.5,3.8
				c-0.4,1.6-0.4,3.4,0.1,5.1c0.2,0.7,0.5,1.4,0.7,2.1l0.1,0.2c0.3-0.4,0.7-0.8,1.1-1.1l1.9-1.5c0.4-0.3,0.9-0.5,1.3-0.5
				c0.6-0.2,1.3-0.1,1.9,0.2C158.8,86,159.5,86.8,159.6,87.8z"/>
		</g>
		<g>
			<path d="M102.9,192.6c2.5-0.6,4.8-1.9,6.7-3.7c1.9-1.6,3.3-3.8,4-6.2c0.8-2.3,0.8-4.8,0.2-7.2c-0.4-1.4-1-2.7-1.7-3.9
				c-0.7-1.3-1.6-2.4-2.7-3.4c0.8-3.3,0.8-6.7-0.2-10c-0.7-3.3-2.3-6.3-4.4-8.9c-1.9-2.3-4.5-3.9-7.4-4.6c-3.3-0.8-6.8-0.6-10.1,0.4
				L72.8,149c-2.8,0.7-5.3,2-7.4,3.9c-1.9,1.6-3.3,3.8-4,6.2c-0.7,2.6-0.7,5.3,0.1,7.8c0.3,1.4,0.8,2.7,1.5,3.9
				c0.6,1.1,1.3,2.1,2.2,3c-0.3,1.1-0.5,2.3-0.5,3.5c0.1,1.5,0.3,2.9,0.7,4.3l1.3,4.8c1.2,4.5,3.4,7.7,6.7,9.8
				c3.4,2,7.5,2.5,11.3,1.3c1.7-0.5,3.4-1.2,4.9-2.1c1.5-0.9,2.8-2.1,3.8-3.5c1.4,0.7,2.9,1.1,4.5,1.2
				C99.6,193.3,101.3,193.1,102.9,192.6z M82.4,180.6c-0.6,0.4-1,1.1-1.1,1.8c-0.2,0.8,0.2,1.6,0.9,1.9l5.1,3.7l1.1,0.8l0.3,0.2
				l1.1,0.7c-0.6,0.9-1.5,1.6-2.4,2.1c-1.2,0.7-2.5,1.2-3.8,1.5c-2.7,0.9-5.6,0.6-8-0.9c-2.5-1.6-4.2-4.2-4.7-7.1l-1.3-4.7
				c-0.7-2.1-0.7-4.4,0.1-6.5c1-2,2.3-3.7,4-5.1c0.5-0.4,0.8-1.1,0.8-1.8c-0.1-0.6-0.5-1.1-1.1-1.4c-0.4-0.2-0.9-0.3-1.4-0.1
				l-0.9,0.3l-1.9,1.5c-0.7,0.6-1.4,1.4-1.9,2.2l-0.9-1.6c-0.3-0.8-0.6-1.5-0.8-2.3c-0.5-1.8-0.6-3.8-0.1-5.6
				c0.5-1.7,1.5-3.2,2.8-4.3c1.6-1.3,3.4-2.2,5.4-2.7l14.4-3.9c4.5-1.2,8.1-0.9,11,0.8s4.8,4.9,6,9.3c0.8,2.8,0.8,5.7,0,8.5
				c-0.8,2.5-2.5,4.7-4.7,6.1c-0.6,0.3-1.1,0.9-1.1,1.6c0,0.6,0.3,1.2,0.7,1.7c0.5,0.5,1.2,0.6,1.9,0.4c1.1-0.4,2.2-1,3-1.9
				c1-0.9,1.9-2,2.6-3.1c0.5,0.5,0.9,1,1.2,1.6c0.4,0.7,0.7,1.5,0.9,2.3c0.4,1.5,0.4,3.1-0.1,4.6c-0.5,1.7-1.4,3.2-2.7,4.4
				c-1.4,1.4-3.2,2.4-5.1,2.8c-0.9,0.3-1.9,0.4-2.8,0.4c-1,0-1.9-0.2-2.8-0.5c-0.9-0.4-1.8-0.9-2.7-1.4l-8.8-6.1
				c-0.5-0.4-1.1-0.5-1.7-0.4L82.4,180.6z"/>
			<path d="M80.5,199.1c-2.7,0-5.3-0.7-7.6-2.1c-3.6-2.3-5.9-5.7-7.2-10.4l-1.3-4.8c-0.4-1.5-0.7-3-0.7-4.5c0-1.1,0.1-2.2,0.4-3.3
				c-0.8-0.9-1.4-1.8-2-2.8c-0.7-1.3-1.2-2.7-1.6-4.1c-0.8-2.7-0.9-5.6-0.1-8.3c0.8-2.6,2.3-4.9,4.3-6.7c2.2-2,4.9-3.4,7.8-4.1
				l14.5-3.9c3.4-1.1,7.1-1.2,10.6-0.4c3.1,0.7,5.9,2.5,7.9,4.9c2.2,2.7,3.8,5.9,4.6,9.3c0.9,3.2,1.1,6.6,0.3,9.9
				c1,1,1.8,2.1,2.5,3.3c0.8,1.2,1.4,2.6,1.8,4.1c0.7,2.6,0.6,5.3-0.2,7.8c-0.8,2.6-2.3,4.9-4.3,6.6c-1.9,1.9-4.4,3.2-7.1,3.9
				c-1.7,0.5-3.6,0.7-5.4,0.5c-1.4-0.1-2.8-0.4-4.1-1c-1,1.2-2.2,2.3-3.6,3.1c-1.6,1-3.4,1.7-5.2,2.2
				C83.5,198.9,82,199.1,80.5,199.1z M93.1,145.2c-1.9,0-3.7,0.3-5.5,0.8L73.1,150c-2.6,0.6-5,1.9-7,3.7c-1.8,1.5-3.1,3.5-3.7,5.7
				c-0.7,2.4-0.6,4.9,0.1,7.2c0.3,1.3,0.8,2.6,1.4,3.7c0.5,1,1.2,1.9,2,2.8l0.4,0.4l-0.2,0.6c-0.3,1.1-0.5,2.1-0.5,3.2
				c0.1,1.3,0.3,2.7,0.7,4l1.3,4.8c1.1,4.2,3.2,7.2,6.3,9.2c3.1,1.8,7,2.3,10.5,1.2c1.7-0.5,3.2-1.1,4.7-2c1.3-0.8,2.5-1.9,3.5-3.2
				l0.5-0.7l0.7,0.4c1.3,0.6,2.7,1,4.1,1.1c1.6,0.2,3.1,0,4.6-0.5l0.1,0c2.3-0.6,4.5-1.8,6.2-3.4c1.8-1.6,3.1-3.5,3.7-5.8
				c0.7-2.2,0.8-4.5,0.2-6.7c-0.4-1.3-0.9-2.5-1.6-3.6c-0.7-1.2-1.5-2.3-2.5-3.2l-0.5-0.4l0.2-0.6c0.8-3.1,0.7-6.4-0.2-9.5
				c-0.7-3.2-2.2-6.1-4.2-8.5c-1.8-2.1-4.2-3.6-6.9-4.3C95.8,145.4,94.5,145.2,93.1,145.2z M80.5,194.8c-1.9,0-3.8-0.5-5.4-1.6
				c-2.7-1.8-4.6-4.6-5.1-7.8l-1.3-4.6c-0.8-2.3-0.8-4.8,0.1-7.1c1.1-2.2,2.5-4,4.3-5.5c0.3-0.2,0.5-0.6,0.5-0.9
				c-0.1-0.3-0.3-0.5-0.5-0.6c-0.2-0.1-0.4-0.1-0.6-0.1l-0.8,0.3l-1.8,1.4c-0.6,0.5-1.2,1.2-1.7,2l-0.9,1.4l-1.8-3.2
				c-0.3-0.8-0.6-1.6-0.8-2.4c-0.6-2-0.6-4.1-0.1-6.1c0.6-1.9,1.6-3.5,3.1-4.8c1.7-1.4,3.7-2.4,5.8-2.9l14.4-3.9
				c4.7-1.3,8.6-1,11.8,0.9c3,1.8,5.1,5,6.5,9.9c0.9,2.9,0.9,6.1,0,9c-0.9,2.8-2.7,5.1-5.1,6.7l-0.2,0.1c-0.3,0.1-0.5,0.4-0.5,0.7
				c0,0.3,0.1,0.7,0.4,1c0.2,0.2,0.5,0.3,0.8,0.2c1-0.3,1.9-0.9,2.6-1.7c1-0.9,1.8-1.9,2.5-2.9l0.7-1.1l0.9,0.9
				c0.5,0.5,1,1.1,1.3,1.8c0.5,0.8,0.8,1.7,1,2.6c0.5,1.7,0.4,3.4-0.1,5.1c-0.5,1.8-1.6,3.5-3,4.8c-1.5,1.5-3.5,2.6-5.6,3.1
				c-0.9,0.3-2,0.4-3,0.4c-1.1,0-2.1-0.2-3.1-0.6c-1-0.4-2-0.9-2.9-1.5l-8.8-6.1c-0.3-0.2-0.6-0.3-0.9-0.2l-0.3,0.1
				c-0.3,0.2-0.5,0.6-0.6,1l0,0.1c-0.1,0.3,0.1,0.6,0.4,0.8l0.1,0.1l6.5,4.7l2,1.3l-0.7,0.9c-0.7,1-1.6,1.8-2.7,2.4
				c-1.3,0.7-2.6,1.2-4,1.6C82.8,194.6,81.6,194.8,80.5,194.8z M72.6,164.6c0.4,0,0.9,0.1,1.3,0.3c0.8,0.4,1.4,1.2,1.6,2.1l0,0.1
				c0.1,1-0.4,2-1.2,2.7c-1.5,1.3-2.8,2.9-3.7,4.8c-0.7,1.8-0.7,3.8,0,5.7l1.3,4.8c0.5,2.7,2.1,5.1,4.3,6.5c2.1,1.3,4.7,1.6,7.1,0.8
				l0.1,0c1.2-0.3,2.4-0.8,3.5-1.4c0.5-0.3,1-0.6,1.4-1l-0.4-0.3l-6.2-4.5c-1-0.6-1.6-1.7-1.4-2.9c0.1-1,0.7-1.9,1.5-2.5l0.2-0.1
				l0.7-0.3c0.9-0.1,1.7,0.1,2.4,0.6l8.8,6.1c0.8,0.5,1.6,0.9,2.5,1.3c0.8,0.3,1.6,0.4,2.4,0.4c0.9,0,1.7-0.1,2.5-0.4
				c1.8-0.4,3.4-1.3,4.7-2.6c1.2-1.1,2-2.5,2.4-4c0.4-1.3,0.5-2.7,0.1-4c-0.2-0.8-0.4-1.4-0.8-2.1c-0.1-0.2-0.2-0.3-0.3-0.4
				c-0.6,0.8-1.3,1.5-2,2.2c-0.9,0.9-2.1,1.7-3.4,2.1c-1,0.4-2.1,0.1-2.9-0.6c-0.6-0.7-1-1.5-1-2.4c0-1.1,0.7-2,1.6-2.5
				c2-1.3,3.5-3.3,4.2-5.5c0.7-2.6,0.7-5.3,0-7.9c-1.2-4.4-3-7.2-5.5-8.7c-2.7-1.6-6.1-1.8-10.2-0.7L74,154.2
				c-1.8,0.5-3.6,1.3-5,2.5c-1.2,1-2,2.3-2.5,3.8c-0.4,1.6-0.4,3.4,0.1,5c0.2,0.7,0.5,1.4,0.7,2.1l0.1,0.2c0.3-0.4,0.7-0.8,1.1-1.1
				l2.1-1.6l1.1-0.4C72,164.6,72.3,164.6,72.6,164.6z"/>
		</g>
		<g>
			<path d="M88.3,168.3c0.5-0.2,1-0.5,1.3-1c0.3-0.5,0.4-1.1,0.2-1.7l-1.1-4.3c-0.2-0.5-0.5-1-1-1.3c-0.5-0.3-1.1-0.3-1.7-0.2
				c-0.5,0.2-0.9,0.5-1.2,1c-0.3,0.5-0.5,1-0.3,1.6l1.2,4.4c0.1,0.6,0.5,1,1,1.3C87.2,168.4,87.8,168.4,88.3,168.3z"/>
			<path d="M87.8,169.4c-0.5,0-1.1-0.1-1.5-0.4c-0.8-0.4-1.3-1.1-1.5-1.9l-1.2-4.4c-0.2-0.8-0.1-1.7,0.4-2.4c0.4-0.6,1-1.1,1.7-1.4
				l0.1,0c0.8-0.2,1.6-0.1,2.4,0.3c0.8,0.5,1.3,1.1,1.5,1.9l1.1,4.3c0.3,0.8,0.2,1.7-0.3,2.5c-0.4,0.7-1.1,1.2-1.9,1.4l0,0
				C88.3,169.3,88,169.4,87.8,169.4z M86.3,160.8c-0.3,0.1-0.5,0.3-0.6,0.5l-0.1,0.1c-0.2,0.2-0.2,0.5-0.1,0.7l1.2,4.4
				c0.1,0.3,0.3,0.5,0.5,0.7c0.2,0.1,0.6,0.2,0.9,0.1c0.3-0.1,0.5-0.3,0.7-0.5c0.2-0.3,0.2-0.6,0.1-0.9l-1.1-4.4
				c-0.1-0.3-0.3-0.5-0.5-0.7C87,160.7,86.6,160.7,86.3,160.8z"/>
		</g>
		<g>
			<path d="M156.1,157.8c0.5-1.7,0.5-3.6,0.1-5.3c-0.3-0.9-0.6-1.8-1.1-2.6c-0.4-0.7-1-1.4-1.6-2c2.4-2.4,3.2-6,2.1-9.2
				c-1-3.7-2.9-6.2-5.7-7.4s-6.3-1.3-10.5-0.2l-13.3,3.6c-4.8,1.3-8.5,3.5-10.8,6.6s-2.9,7-1.7,11.6c0.5,1.8,1.3,3.5,2.4,5
				c1,1.6,2.3,3,3.7,4.3c-0.7,1.8-1,3.6-1.1,5.5c-0.2,1.9,0,3.9,0.5,5.8c1.2,4.4,3.6,7.5,7.2,9.1c3.6,1.6,7.8,1.7,12.7,0.4l13.5-3.7
				c3.4-0.7,6.5-2.6,8.8-5.2c1.9-2.5,2.4-5.6,1.4-9.3c-0.4-1.7-1.3-3.3-2.6-4.6C159,159.1,157.6,158.3,156.1,157.8z M124.2,162.5
				c0.4-1,0.1-2-0.7-2.7c-1.4-1.1-2.6-2.3-3.6-3.7c-1-1.3-1.7-2.8-2.1-4.3c-0.9-3.2-0.5-5.9,1.2-8.1c1.7-2.2,4.4-3.8,8.2-4.8
				l13.5-3.7c2-0.7,4.1-0.8,6.2-0.4c1.3,0.3,2.4,1,3.1,2.1c0.7,0.8,1.2,1.8,1.4,2.9c0.5,1.5,0.3,3.1-0.6,4.4c-1,1.5-2.5,2.5-4.3,2.9
				c-2,0.5-4,0.9-6.1,1l-3.3,0.2c-0.7,0.2-1.2,0.7-1.4,1.3c-0.2,0.6-0.2,1.3,0.2,1.9c0.3,0.6,1,1,1.7,1c1.7,0.1,3.4,0,5-0.3
				c1.7-0.2,3.4-0.5,5-1l1.3-0.4l0.8-0.3c0.6,0.3,1.1,0.7,1.4,1.3c0.4,0.5,0.7,1.1,0.9,1.8c0.4,1.3,0.2,2.8-0.6,3.9l-1,0.2l-1.1,0.2
				c-1.6,0.4-3.2,1-4.8,1.7c-1.5,0.6-2.9,1.3-4.3,2.2c-0.6,0.4-1,1.1-1,1.8c0,0.6,0.2,1.3,0.7,1.7c0.5,0.4,1.3,0.5,1.9,0.3
				c1.1-0.3,2.1-0.8,3-1.4c1.8-0.9,3.7-1.6,5.6-2.1c1.7-0.6,3.6-0.5,5.2,0.2c1.5,0.7,2.5,2.1,2.9,3.7c0.2,1.1,0.3,2.1,0.2,3.2
				c-0.2,1.3-0.8,2.4-1.7,3.3c-1.6,1.4-3.5,2.3-5.6,2.7l-13.5,3.6c-3.7,1-6.8,1-9.4,0s-4.3-3.2-5.2-6.4c-0.5-1.6-0.6-3.3-0.4-5
				C123.1,165.7,123.5,164.1,124.2,162.5z"/>
			<path d="M132.7,184.9c-2.5,0-4.7-0.5-6.8-1.4c-3.9-1.7-6.5-5-7.8-9.8c-0.6-2-0.7-4.1-0.5-6.2c0.1-1.7,0.4-3.4,0.9-5.1
				c-1.3-1.2-2.4-2.6-3.4-4c-1.1-1.6-2-3.4-2.5-5.3c-1.3-4.9-0.7-9.1,1.9-12.5c2.4-3.2,6.2-5.6,11.3-7l13.3-3.6
				c4.4-1.1,8.1-1.1,11.2,0.2c3.1,1.3,5.2,4,6.3,8.1c1.1,3.2,0.4,6.8-1.7,9.4c0.4,0.5,0.8,1,1.1,1.5c0.5,0.9,0.9,1.9,1.2,2.8
				c0.4,1.6,0.4,3.3,0.1,4.9c1.3,0.5,2.5,1.3,3.5,2.3c1.4,1.4,2.4,3.2,2.9,5.1c1.1,3.9,0.5,7.4-1.6,10.1c-2.5,2.8-5.8,4.8-9.4,5.6
				l-13.4,3.7C136.9,184.6,134.7,184.9,132.7,184.9z M144.8,131.3c-1.6,0-3.3,0.2-5.2,0.7l-13.3,3.6c-4.7,1.3-8.1,3.4-10.3,6.2
				c-2.1,2.9-2.6,6.5-1.5,10.8c0.5,1.6,1.3,3.2,2.3,4.7c1,1.5,2.2,2.9,3.5,4.1l0.5,0.5l-0.2,0.6c-0.6,1.7-1,3.4-1,5.2
				c-0.2,1.9,0,3.7,0.5,5.5c1.1,4.2,3.4,7,6.6,8.5c3.4,1.5,7.3,1.6,12,0.3l13.5-3.7c3.2-0.7,6.2-2.4,8.3-4.9c1.7-2.2,2.1-5,1.2-8.4
				c-0.4-1.6-1.2-3-2.3-4.2c-1-1-2.2-1.7-3.6-2.2l-0.9-0.3l0.3-0.9c0.4-1.6,0.5-3.2,0.1-4.8c-0.2-0.8-0.6-1.6-1-2.3
				c-0.4-0.6-0.9-1.2-1.4-1.8l-0.7-0.7l0.7-0.7c2.1-2.2,2.8-5.3,1.9-8.2c-0.9-3.5-2.7-5.7-5.1-6.8
				C148.1,131.6,146.6,131.3,144.8,131.3z M132.8,180.6c-1.7,0-3.2-0.3-4.6-0.8c-2.8-1.1-4.8-3.5-5.8-7.1c-0.5-1.8-0.7-3.6-0.4-5.4
				c0.2-1.8,0.6-3.5,1.4-5.2c0.2-0.6,0-1.2-0.4-1.6c-1.4-1.1-2.7-2.4-3.8-3.9c-1-1.4-1.8-2.9-2.3-4.6c-0.9-3.5-0.5-6.5,1.4-9
				c1.9-2.4,4.7-4.1,8.7-5.2l13.5-3.7c2.1-0.7,4.4-0.8,6.7-0.4c1.5,0.3,2.9,1.2,3.7,2.5c0.7,0.9,1.3,2,1.5,3.2
				c0.6,1.8,0.3,3.7-0.7,5.2c-1.1,1.7-2.9,2.9-4.9,3.3c-2,0.6-4.1,0.9-6.2,1l-3.2,0.2c-0.3,0.1-0.5,0.3-0.6,0.6
				c-0.1,0.4-0.1,0.7,0.1,1l0.1,0.1c0.1,0.3,0.4,0.5,0.8,0.4l0.1,0l0.1,0c1.6,0.1,3.2,0,4.8-0.3c1.7-0.2,3.3-0.5,4.9-1l2.4-0.8
				l0.4,0.2c0.7,0.4,1.3,0.9,1.8,1.6c0.5,0.6,0.8,1.3,1,2.1c0.5,1.6,0.2,3.3-0.7,4.7l-0.2,0.3l-2.5,0.5c-1.5,0.4-3.1,1-4.6,1.6
				c-1.5,0.6-2.9,1.3-4.2,2.1c-0.3,0.2-0.5,0.6-0.5,1c0,0.4,0.1,0.7,0.4,0.9c0.3,0.2,0.6,0.2,0.9,0.1c1-0.3,1.9-0.7,2.8-1.3l0.1-0.1
				c1.8-0.9,3.8-1.7,5.8-2.2c1.9-0.7,4-0.6,5.9,0.2c1.8,0.9,3,2.5,3.5,4.4c0.3,1.2,0.3,2.3,0.2,3.5c-0.2,1.5-0.9,2.9-2,3.9
				c-1.8,1.5-3.9,2.5-6.1,3l-13.4,3.6C136.2,180.3,134.4,180.6,132.8,180.6z M144.6,135.6c-1.2,0-2.4,0.2-3.6,0.6l-13.5,3.7
				c-3.6,0.9-6.1,2.4-7.7,4.4c-1.5,2-1.8,4.3-1,7.2c0.4,1.4,1.1,2.8,1.9,4c1,1.3,2.1,2.5,3.4,3.5c1.1,1,1.5,2.5,1,3.9l0,0
				c-0.6,1.5-1.1,3-1.2,4.6c-0.2,1.6-0.1,3.1,0.4,4.6c0.8,3,2.3,4.9,4.6,5.7c2.4,0.9,5.3,0.9,8.8,0l13.5-3.6c2-0.4,3.7-1.3,5.2-2.5
				c0.7-0.7,1.2-1.7,1.4-2.7c0.1-0.9,0-1.9-0.2-2.8c-0.3-1.3-1.2-2.4-2.4-3c-1.4-0.6-2.9-0.7-4.4-0.1l-0.1,0c-1.8,0.5-3.6,1.1-5.3,2
				c-1,0.7-2.1,1.2-3.2,1.5c-0.9,0.3-2,0.2-2.8-0.5l-0.1-0.1c-0.7-0.6-1-1.5-1-2.4c0-1,0.6-2.1,1.5-2.6c1.4-0.9,2.9-1.7,4.5-2.3
				c1.6-0.7,3.2-1.3,4.9-1.7l1.7-0.3c0.5-0.8,0.5-1.8,0.3-2.7c-0.2-0.6-0.4-1.1-0.7-1.5l-0.1-0.1c-0.2-0.3-0.4-0.5-0.6-0.7l-0.3,0.1
				l-1.4,0.4c-1.7,0.5-3.4,0.8-5.2,1c-1.7,0.3-3.4,0.4-5.1,0.3c-1.1,0-2.1-0.6-2.6-1.5c-0.5-0.8-0.6-1.8-0.3-2.8
				c0.3-0.9,1.1-1.7,2.1-1.9l0.2,0l3.3-0.2c2-0.1,4-0.4,5.9-1c1.6-0.3,2.9-1.2,3.7-2.5c0.7-1,0.9-2.3,0.5-3.5l0-0.1
				c-0.2-0.9-0.6-1.8-1.2-2.5c-0.6-0.9-1.5-1.5-2.5-1.8C146,135.6,145.3,135.6,144.6,135.6z"/>
		</g>
		<g>
			<path d="M203.3,138.4c-2.6-0.4-5.3-0.2-7.9,0.5l-2.1-7.7c-0.7-2.7-2-5.3-3.8-7.4c-1.6-1.9-3.8-3.3-6.3-3.9
				c-2.6-0.7-5.3-0.6-7.9,0.2c-3.9,0.8-7.3,3.3-9.2,6.8c-1.8,3.4-2.1,7.3-0.9,11.8l5,18.5c0.8,4,3.2,7.6,6.7,9.8
				c3.2,2,7,2.4,11.3,1.3l14-3.7c2.6-0.7,5-1.9,7-3.6c1.9-1.5,3.2-3.5,4-5.8c0.8-2.4,0.8-5,0.1-7.4c-0.6-2.4-1.9-4.6-3.7-6.3
				C207.8,139.9,205.7,138.8,203.3,138.4z M169.3,137.6c-0.9-2.8-0.7-5.9,0.6-8.6c1.3-2.5,3.7-4.3,6.5-4.8c2.7-0.9,5.6-0.5,8.1,0.9
				c2.2,1.4,3.8,3.8,4.7,7.2l2.1,8.1c-1.4,0.7-2.7,1.5-4,2.3l-3.2,2.5c-0.6,0.5-0.9,1.2-0.8,2c0.1,0.7,0.6,1.4,1.3,1.7
				c0.4,0.2,0.9,0.3,1.3,0.1c0.3,0,0.6-0.2,0.9-0.4c1.3-1.1,2.7-2.1,4.1-3.1c1.7-1.1,3.5-1.9,5.5-2.4c3.1-0.8,5.8-0.8,8.1,0.2
				c2.4,1,4.1,3.1,4.6,5.6c0.8,2.4,0.4,5-1,7.1c-1.5,2.1-3.8,3.5-7,4.4l-14,3.7c-2.7,0.9-5.6,0.6-8.1-0.8c-2.4-1.8-4.1-4.3-4.7-7.2
				L169.3,137.6z"/>
			<path d="M183.7,169.9c-2.7,0-5.2-0.7-7.4-2.1c-3.7-2.4-6.3-6.2-7.1-10.4l-5-18.4c-1.3-4.7-0.9-8.9,1-12.5
				c2.1-3.8,5.6-6.4,9.8-7.3c2.7-0.9,5.6-0.9,8.4-0.2c2.7,0.7,5,2.1,6.8,4.2c1.9,2.2,3.3,4.9,4,7.8l1.8,6.7c2.4-0.5,4.9-0.6,7.3-0.3
				l0,0c2.5,0.4,4.9,1.6,6.8,3.3c2,1.9,3.3,4.2,4,6.8c0.8,2.6,0.7,5.4-0.1,8c-0.8,2.5-2.3,4.6-4.3,6.3c-2.2,1.8-4.7,3.1-7.4,3.8
				l-14,3.7C186.8,169.7,185.2,169.9,183.7,169.9z M179.6,120.4c-1.3,0-2.7,0.2-4,0.6l-0.1,0c-3.6,0.8-6.7,3.1-8.5,6.3
				c-1.7,3.2-1.9,6.8-0.8,11.1l5,18.5c0.8,3.8,3.1,7.1,6.3,9.2c2.9,1.8,6.4,2.2,10.5,1.2l14-3.7c2.4-0.7,4.7-1.8,6.6-3.4
				c1.7-1.4,3-3.2,3.7-5.3c0.7-2.2,0.8-4.6,0.1-6.8c-0.6-2.3-1.8-4.3-3.4-5.9c-1.6-1.5-3.6-2.5-5.8-2.8c-2.5-0.4-5-0.2-7.5,0.5
				l-1,0.3l-2.4-8.7c-0.6-2.6-1.9-5-3.6-7c-1.5-1.8-3.5-3-5.8-3.6C181.9,120.6,180.7,120.4,179.6,120.4z M183.9,165.6
				c-1.9,0-3.8-0.5-5.4-1.5l-0.1-0.1c-2.6-1.9-4.4-4.7-5.1-7.8l-5-18.4c-1-3.1-0.8-6.4,0.7-9.3c1.5-2.8,4.1-4.7,7.2-5.3
				c3-0.9,6.2-0.5,8.8,1c2.5,1.6,4.2,4.2,5.2,7.8l2.3,8.9l-0.7,0.4c-1.3,0.7-2.6,1.4-3.9,2.2l-3.1,2.5c-0.3,0.3-0.5,0.7-0.4,1.1
				c0.1,0.4,0.3,0.8,0.7,0.9c0.2,0.1,0.4,0.1,0.5,0.1l0.2-0.1c0.1,0,0.3-0.1,0.4-0.2c1.3-1.1,2.7-2.2,4.2-3.2c1.8-1.2,3.7-2,5.8-2.5
				c3.4-0.9,6.3-0.8,8.7,0.3c2.7,1.1,4.6,3.4,5.2,6.3c0.8,2.7,0.4,5.6-1.1,7.9c-1.6,2.3-4.1,3.8-7.6,4.8l-14,3.7
				C186.2,165.5,185.1,165.6,183.9,165.6z M179.5,162.5c2.2,1.3,4.8,1.5,7.2,0.7l14.1-3.7c3-0.9,5.1-2.1,6.4-4
				c1.2-1.8,1.5-4.1,0.9-6.2l0-0.1c-0.4-2.2-1.9-4-4-4.9c-2-0.9-4.5-0.9-7.5-0.2c-1.9,0.4-3.6,1.2-5.2,2.3c-1.4,0.9-2.7,2-4,3
				c-0.4,0.3-0.8,0.5-1.3,0.6c-0.7,0.2-1.4,0.2-2.1-0.2c-0.9-0.4-1.6-1.3-1.8-2.4c-0.2-1.1,0.3-2.3,1.2-3l3.2-2.5
				c1.1-0.8,2.3-1.4,3.4-2l-1.9-7.3c-0.8-3.1-2.3-5.3-4.3-6.6c-2.2-1.3-4.8-1.6-7.3-0.8l-0.1,0c-2.5,0.5-4.6,2-5.8,4.3
				c-1.2,2.4-1.4,5.2-0.5,7.8l0,0.1l5,18.5C175.9,158.5,177.4,160.9,179.5,162.5z"/>
		</g>
	</g>
</g>
</svg>
