<svg xmlns="http://www.w3.org/2000/svg" viewBox="0 0 536.7 79.3"><title>Barrys</title><g id="Layer_2" data-name="Layer 2"><g id="Layer_1-2" data-name="Layer 1"><path d="M22.4,78.3a23.4,23.4,0,0,1-11.6-2.7,18.1,18.1,0,0,1-7.3-7.7A25.8,25.8,0,0,1,1,56V46.9a25.5,25.5,0,0,1,.7-6.7,16.8,16.8,0,0,1,2.2-5.1A24.2,24.2,0,0,1,1,23.1,21.7,21.7,0,0,1,4,11.6a20.5,20.5,0,0,1,8.4-7.8A26.7,26.7,0,0,1,25.1,1h21C53.9,1,60.3,2.7,65,6.1s7.2,8.4,7.2,15.2a23.8,23.8,0,0,1-1.4,8.4,18.7,18.7,0,0,1-4.2,6.4,20,20,0,0,1,6.6,7.4,22.5,22.5,0,0,1,2.2,10.1,25.3,25.3,0,0,1-3.3,12.9,22.4,22.4,0,0,1-9.3,8.7c-4.1,2.1-9,3.1-14.8,3.1a26.6,26.6,0,0,1-7.1-.8A20.3,20.3,0,0,1,35,75.1a16.1,16.1,0,0,1-5.5,2.4A26.2,26.2,0,0,1,22.4,78.3Z" stroke="#000" stroke-miterlimit="10" stroke-width="2"/><path d="M22.4,72.2a16.8,16.8,0,0,0,4.1-.4l3-.7a17.7,17.7,0,0,1-3.6-5.3,16.2,16.2,0,0,1-1.4-6.5c0-4.5,1.5-8.2,4.5-10.8a16.4,16.4,0,0,1,11.4-4h3.1a2.9,2.9,0,0,1,3,3,2.9,2.9,0,0,1-.9,2.2,3.2,3.2,0,0,1-2.1.8H40.8a11.3,11.3,0,0,0-7.2,2.3,7.7,7.7,0,0,0-2.9,6.4,10.6,10.6,0,0,0,2.6,7.2,15.5,15.5,0,0,0,6.5,4.3A23.3,23.3,0,0,0,48,72.2a26.8,26.8,0,0,0,10.9-2.1,15.8,15.8,0,0,0,7.5-6.2,17.8,17.8,0,0,0,2.8-10.3,16,16,0,0,0-2.1-8.5,17.1,17.1,0,0,0-6.9-6c-1.4-.8-2.1-1.8-2-2.8A3.1,3.1,0,0,1,60,33.8a12.6,12.6,0,0,0,4.6-4.9A18.4,18.4,0,0,0,66,21.3c0-3.6-.9-6.5-2.7-8.5a15.2,15.2,0,0,0-7.5-4.4A42.1,42.1,0,0,0,45.3,7.2H24.8c-5.6,0-9.9,1.4-13,4.2S7.2,18.1,7.2,23.1c0,1.3.1,2.6.2,3.8a18.9,18.9,0,0,0,.9,3.4,16.1,16.1,0,0,1,4.9-3.4,10.1,10.1,0,0,1,3.9-1,2.7,2.7,0,0,1,2.4,1,2.5,2.5,0,0,1,.1,2.4,3.9,3.9,0,0,1-2.2,2.2,18.1,18.1,0,0,0-7.8,6.3,16.9,16.9,0,0,0-2.4,9.3v8.6a21.7,21.7,0,0,0,1.7,9.4A11.2,11.2,0,0,0,14,70.5,19.3,19.3,0,0,0,22.4,72.2Z" fill="#fff"/><path d="M38.5,33a2.9,2.9,0,0,1-2.1-.9,2.7,2.7,0,0,1-1-2.2v-7a2.6,2.6,0,0,1,1-2.1,2.9,2.9,0,0,1,2.1-.9,2.9,2.9,0,0,1,2.2.9,2.9,2.9,0,0,1,.9,2.1v7A3.1,3.1,0,0,1,38.5,33Z" stroke="#000" stroke-miterlimit="10" stroke-width="2"/><path d="M107.9,78.3A27.2,27.2,0,0,1,99.5,77a29.1,29.1,0,0,1-7.8-4.1,20.3,20.3,0,0,1-5.6-6.7,18.7,18.7,0,0,1-2.1-9,26.7,26.7,0,0,1,.7-5.4,32,32,0,0,1,1.8-5.5L98,18.9a34.7,34.7,0,0,1,9.1-13.3c3.6-3.1,8.3-4.6,14.1-4.6s10.7,1.6,14.3,4.7a35.2,35.2,0,0,1,8.9,13.2l11.5,27.4a24.7,24.7,0,0,1,1.7,5.5,26.2,26.2,0,0,1,.6,5.4,19.3,19.3,0,0,1-7.1,15.2,24,24,0,0,1-7.6,4.4,26.7,26.7,0,0,1-9.1,1.5,21.8,21.8,0,0,1-7.2-1.2,20.7,20.7,0,0,1-6.1-3.8A19.9,19.9,0,0,1,115,77,18.7,18.7,0,0,1,107.9,78.3Z" stroke="#000" stroke-miterlimit="10" stroke-width="2"/><path d="M107.9,72.2a13.1,13.1,0,0,0,9.1-3.7,20.1,20.1,0,0,1-1.4-2.5l-1.3-2.8L109.2,51a2.8,2.8,0,0,1,.3-3.1,3,3,0,0,1,2.6-1.1h11.3l-4.6-11a3,3,0,0,1,.4-3.3,3.8,3.8,0,0,1,2.9-1.2,2.6,2.6,0,0,1,2.4,2L131,48.6a3.4,3.4,0,0,1,0,3.1,3.2,3.2,0,0,1-2.8,1.2H116.7l3.3,7.8a21.2,21.2,0,0,0,6,8.6,13.2,13.2,0,0,0,8.4,2.9,21.9,21.9,0,0,0,8.2-1.7,17.6,17.6,0,0,0,6.7-5,12.7,12.7,0,0,0,2.7-8.3,16,16,0,0,0-.5-4.2,35.2,35.2,0,0,0-1.3-4.3L138.7,21.3q-3.1-7.5-7.2-10.8a16.1,16.1,0,0,0-10.3-3.3,15.7,15.7,0,0,0-10.3,3.3q-3.9,3.3-7.2,10.8L92.2,48.7A23.9,23.9,0,0,0,90.8,53a21.8,21.8,0,0,0-.5,4.2,12.7,12.7,0,0,0,1.8,6.9,15.6,15.6,0,0,0,4.5,4.7,20,20,0,0,0,5.8,2.5A19.1,19.1,0,0,0,107.9,72.2Z" fill="#fff"/><path d="M190.6,78.3c-6.8,0-12.2-2.1-16.3-6.5s-6.1-10-6.1-17.1V46.9a25.5,25.5,0,0,1,.7-6.7,16.8,16.8,0,0,1,2.2-5.1,22.5,22.5,0,0,1-2.2-5.6,25.1,25.1,0,0,1-.7-6.4,21.7,21.7,0,0,1,3-11.5,20.5,20.5,0,0,1,8.4-7.8A26.7,26.7,0,0,1,192.3,1h23.3c6.2,0,11.3,1.1,15.4,3.4a21.6,21.6,0,0,1,9.1,9.8,35.5,35.5,0,0,1,3,15.2,29.4,29.4,0,0,1-3.8,15.1,20.8,20.8,0,0,1,2.8,6.2,27.3,27.3,0,0,1,.9,6.5,19.1,19.1,0,0,1-3.1,10.7,21.6,21.6,0,0,1-8.5,7.6,24.9,24.9,0,0,1-19.1,1.6,22.7,22.7,0,0,1-6.4-3.7,19.3,19.3,0,0,1-7.1,3.7A28.6,28.6,0,0,1,190.6,78.3Z" stroke="#000" stroke-miterlimit="10" stroke-width="2"/><path d="M190.6,72.2a23.8,23.8,0,0,0,6.4-.8,12.3,12.3,0,0,0,4.7-2.4l-1.4-1.8-1.7-2.1-6.3-7.6a2.9,2.9,0,0,1-.6-3,3.8,3.8,0,0,1,2.3-2,2.7,2.7,0,0,1,2.9,1.1l10.9,12.7a17.2,17.2,0,0,0,3.5,3.2,13.6,13.6,0,0,0,4,2,17.6,17.6,0,0,0,4.6.6,18.3,18.3,0,0,0,8.9-2.2,17,17,0,0,0,5.9-5.7,13,13,0,0,0,2.1-7,11.5,11.5,0,0,0-.5-3.9,12.7,12.7,0,0,0-1.3-3.2,30.6,30.6,0,0,1-5.4,3.8,12.2,12.2,0,0,1-5.2,1.6,2.7,2.7,0,0,1-2.4-1.3,3.8,3.8,0,0,1-.3-2.6,2.6,2.6,0,0,1,2-1.9,16.6,16.6,0,0,0,9.7-7.3,23,23,0,0,0,3.5-13q0-10.8-5.4-16.5c-3.6-3.8-9.1-5.7-16.3-5.7H192a21.2,21.2,0,0,0-9.5,1.9,14.2,14.2,0,0,0-6.1,5.5,17.5,17.5,0,0,0-2,8.5c0,1.3.1,2.6.2,3.8a18.9,18.9,0,0,0,.9,3.4,16.4,16.4,0,0,1,3.9-2.9,18.1,18.1,0,0,1,3.5-1.4,3.4,3.4,0,0,1,3.2.4,2.6,2.6,0,0,1,1,2.4,2.8,2.8,0,0,1-1.7,2.2,23.6,23.6,0,0,0-8.2,6.2c-1.9,2.3-2.8,5.6-2.8,9.9v7.6c0,5.4,1.4,9.7,4.3,12.8S185.6,72.2,190.6,72.2Z" fill="#fff"/><path d="M207.8,35.8a2.9,2.9,0,0,1-2.1-.9,2.7,2.7,0,0,1-1-2.2V25.6a2.6,2.6,0,0,1,1-2.1,3.2,3.2,0,0,1,2.1-.8,3.3,3.3,0,0,1,2.2.8,2.9,2.9,0,0,1,.9,2.1v7.1a3.1,3.1,0,0,1-3.1,3.1Z" stroke="#000" stroke-miterlimit="10" stroke-width="2"/><path d="M277.1,78.3c-6.8,0-12.3-2.1-16.3-6.5s-6.1-10-6.1-17.1V46.9a25.5,25.5,0,0,1,.7-6.7,19.5,19.5,0,0,1,2.1-5.1,26.9,26.9,0,0,1-2.1-5.6,25.1,25.1,0,0,1-.7-6.4,21.6,21.6,0,0,1,2.9-11.5A21.1,21.1,0,0,1,266,3.8,27.3,27.3,0,0,1,278.7,1h23.4c6.1,0,11.2,1.1,15.3,3.4a21.1,21.1,0,0,1,9.1,9.8,34.1,34.1,0,0,1,3.1,15.2,28.5,28.5,0,0,1-3.9,15.1,16.8,16.8,0,0,1,2.8,6.2,27.9,27.9,0,0,1,1,6.5,19.2,19.2,0,0,1-3.2,10.7,22,22,0,0,1-8.4,7.6,23.9,23.9,0,0,1-11.5,2.8,22.9,22.9,0,0,1-7.6-1.2,21.4,21.4,0,0,1-6.4-3.7,19.7,19.7,0,0,1-7.2,3.7A28.4,28.4,0,0,1,277.1,78.3Z" stroke="#000" stroke-miterlimit="10" stroke-width="2"/><path d="M277.1,72.2a23.5,23.5,0,0,0,6.3-.8,13.5,13.5,0,0,0,4.8-2.4l-1.5-1.8L285,65.1l-6.3-7.6a2.8,2.8,0,0,1-.5-3,3.6,3.6,0,0,1,2.3-2,2.8,2.8,0,0,1,2.9,1.1l10.9,12.7a15,15,0,0,0,3.5,3.2,12.5,12.5,0,0,0,4,2,16.5,16.5,0,0,0,4.6.6,17.9,17.9,0,0,0,8.8-2.2,18.2,18.2,0,0,0,6-5.7,13,13,0,0,0,2.1-7,14.8,14.8,0,0,0-.5-3.9,13,13,0,0,0-1.4-3.2,30.6,30.6,0,0,1-5.4,3.8,11.9,11.9,0,0,1-5.1,1.6,2.7,2.7,0,0,1-2.4-1.3,2.9,2.9,0,0,1-.3-2.6,2.5,2.5,0,0,1,2-1.9,17.3,17.3,0,0,0,9.7-7.3,23.8,23.8,0,0,0,3.5-13q0-10.8-5.4-16.5c-3.7-3.8-9.1-5.7-16.4-5.7H278.4A21,21,0,0,0,269,9.1a13.6,13.6,0,0,0-6.1,5.5,16.5,16.5,0,0,0-2.1,8.5,23.4,23.4,0,0,0,.3,3.8,33.8,33.8,0,0,0,.8,3.4,16.8,16.8,0,0,1,4-2.9,18.1,18.1,0,0,1,3.5-1.4,3.4,3.4,0,0,1,3.2.4,2.9,2.9,0,0,1,1,2.4,2.9,2.9,0,0,1-1.8,2.2,24.1,24.1,0,0,0-8.1,6.2c-1.9,2.3-2.9,5.6-2.9,9.9v7.6c0,5.4,1.5,9.7,4.4,12.8S272,72.2,277.1,72.2Z" fill="#fff"/><path d="M294.3,35.8a3.1,3.1,0,0,1-2.2-.9,2.9,2.9,0,0,1-.9-2.2V25.6a2.9,2.9,0,0,1,.9-2.1,3.4,3.4,0,0,1,4.4,0,3.2,3.2,0,0,1,.8,2.1v7.1a3.3,3.3,0,0,1-.8,2.2A3.1,3.1,0,0,1,294.3,35.8Z" stroke="#000" stroke-miterlimit="10" stroke-width="2"/><path d="M376.5,78.3a21.5,21.5,0,0,1-11.3-2.8,19.5,19.5,0,0,1-7.3-8,25.1,25.1,0,0,1-2.6-11.6V51.4L341.7,31.8a15.7,15.7,0,0,1-2.5-5.2,18.7,18.7,0,0,1-.8-5.7,19.9,19.9,0,0,1,2.7-10.4,19.7,19.7,0,0,1,7.6-7,24.2,24.2,0,0,1,19.1-1,23.7,23.7,0,0,1,7.3,4.8,21.5,21.5,0,0,1,7.3-4.8,27.2,27.2,0,0,1,20.5,1.1,18.9,18.9,0,0,1,7.7,7.4,20.3,20.3,0,0,1,2.8,10.9,22.1,22.1,0,0,1-.9,6.2,21.1,21.1,0,0,1-2.5,5.5L397.7,51.9v4a25.1,25.1,0,0,1-2.6,11.6,19.3,19.3,0,0,1-7.2,8A21.9,21.9,0,0,1,376.5,78.3Z" stroke="#000" stroke-miterlimit="10" stroke-width="2"/><path d="M376.5,72.2a15.8,15.8,0,0,0,8.2-2,11.7,11.7,0,0,0,5-5.5,19.7,19.7,0,0,0,1.8-8.8V51.2a3.3,3.3,0,0,1,.3-1.5,14.6,14.6,0,0,1,.9-1.6l12.1-17.9a14.9,14.9,0,0,0,2.4-8.3,15.3,15.3,0,0,0-1.9-8,13,13,0,0,0-5.6-5,18.7,18.7,0,0,0-8.5-1.7,17.1,17.1,0,0,0-6.5,1.1,17.4,17.4,0,0,0-5.5,3.6l1.4,1.9c.4.7.9,1.4,1.3,2.2l8.6,14c.8,1.3.9,2.4.2,3.3a3.7,3.7,0,0,1-2.8,1.5,3.1,3.1,0,0,1-2.7-1.6l-8.6-14a27.8,27.8,0,0,0-7.8-9.1,15.5,15.5,0,0,0-9.3-2.9c-3.5,0-6.3.6-8.5,2a13.5,13.5,0,0,0-4.9,5.2,14.9,14.9,0,0,0-1.6,6.5,13.4,13.4,0,0,0,.6,4,10.6,10.6,0,0,0,1.6,3.4l13.6,19.3a5.5,5.5,0,0,1,1.2,3.1v5.2q0,7.6,3.9,12C368.1,70.7,371.8,72.2,376.5,72.2Z" fill="#fff"/><path d="M444.4,60.5a15,15,0,0,1-6.2-1.3,11,11,0,0,1-4.8-3.7,9.5,9.5,0,0,1-2-6.1V37.3a18.9,18.9,0,0,1-8.7-6.8,17.7,17.7,0,0,1-3.4-10.7,18.6,18.6,0,0,1,2.6-9.5,19.5,19.5,0,0,1,6.9-6.8,19.5,19.5,0,0,1,19.1,0,19.5,19.5,0,0,1,6.9,6.8,18.6,18.6,0,0,1,2.6,9.5V49.4a9.5,9.5,0,0,1-1.9,6.1,10.4,10.4,0,0,1-4.8,3.7A15.1,15.1,0,0,1,444.4,60.5Z" stroke="#000" stroke-miterlimit="10" stroke-width="2"/><path d="M444.4,54.3a9,9,0,0,0,3.4-.5,6.3,6.3,0,0,0,2.5-1.6,4.5,4.5,0,0,0,.9-2.8V19.8a12.8,12.8,0,0,0-1.7-6.4,13.5,13.5,0,0,0-4.7-4.5,12,12,0,0,0-6.4-1.7,11.9,11.9,0,0,0-6.5,1.7,12,12,0,0,0-4.7,4.5,12.8,12.8,0,0,0-1.7,6.4,12.4,12.4,0,0,0,1.7,6.3,12,12,0,0,0,4.7,4.5,11.9,11.9,0,0,0,6.5,1.7h1.7l1.7-.2a2.7,2.7,0,0,1,2.5.9,3.2,3.2,0,0,1,.7,2.5,3.1,3.1,0,0,1-2,2.2,6.4,6.4,0,0,1-2.2.6,9.7,9.7,0,0,1-2.4.2h-.8V49.4a4.5,4.5,0,0,0,.9,2.8,6.3,6.3,0,0,0,2.5,1.6A9.3,9.3,0,0,0,444.4,54.3Z" fill="#fff"/><path d="M494.7,78.3a34.4,34.4,0,0,1-13.8-2.5,19.4,19.4,0,0,1-8.9-7.5,22,22,0,0,1-3.2-12.1,24.9,24.9,0,0,1,1.5-8.7,21,21,0,0,1,4-7.2,27.2,27.2,0,0,1-4.5-9.5,43.7,43.7,0,0,1-1-7.8A22.4,22.4,0,0,1,472,10.8a19.3,19.3,0,0,1,9-7.3A34.2,34.2,0,0,1,494.7,1h15.2a34.2,34.2,0,0,1,13.7,2.5,19.6,19.6,0,0,1,9,7.5c2.1,3.2,3.1,7.2,3.1,12a26,26,0,0,1-1.5,8.9,21.2,21.2,0,0,1-4.1,7.2,24.9,24.9,0,0,1,4.6,9.4,36.1,36.1,0,0,1,1,7.8,22,22,0,0,1-3.2,12.1,20.4,20.4,0,0,1-9.1,7.5,34.6,34.6,0,0,1-13.5,2.4Z" stroke="#000" stroke-miterlimit="10" stroke-width="2"/><path d="M494.7,72.2h15.2a27.4,27.4,0,0,0,10.5-1.8,14.5,14.5,0,0,0,6.8-5.3,15.2,15.2,0,0,0,2.3-8.8,21.6,21.6,0,0,0-3.8-12.7,30.9,30.9,0,0,0-10.5-9.4l-12.6-7a2.7,2.7,0,0,1-1.7-2.7,3.5,3.5,0,0,1,1.5-2.6,2.8,2.8,0,0,1,3.2-.1l12.7,7a42.8,42.8,0,0,1,4.2,2.6,32.4,32.4,0,0,1,3.4,2.9,13.8,13.8,0,0,0,2.7-5.1,20.6,20.6,0,0,0,.9-6.2,15.4,15.4,0,0,0-2.4-9,14.2,14.2,0,0,0-6.8-5.1,27.3,27.3,0,0,0-10.4-1.7H494.7a28.1,28.1,0,0,0-10.6,1.7,12.9,12.9,0,0,0-6.8,5.2A16.1,16.1,0,0,0,475,23a23.9,23.9,0,0,0,1.7,8.9,24.5,24.5,0,0,0,5.1,7.4,30.9,30.9,0,0,0,7.5,5.7l12.6,7a2.8,2.8,0,0,1,1.7,2.7,3.6,3.6,0,0,1-1.4,2.7,2.8,2.8,0,0,1-3.2.1l-12.8-7a42.8,42.8,0,0,1-4.2-2.6,36,36,0,0,1-3.5-2.9,15.8,15.8,0,0,0-2.6,5,20.6,20.6,0,0,0-.9,6.2c0,3.8.8,6.8,2.4,9.1a13.7,13.7,0,0,0,6.8,5.2A30,30,0,0,0,494.7,72.2Z" fill="#fff"/></g></g></svg>