<svg xmlns="http://www.w3.org/2000/svg" viewBox="0 0 325.1 183.4"><title>DrJart</title><g id="Layer_2" data-name="Layer 2"><g id="Layer_1-2" data-name="Layer 1"><path d="M93.4,78.3a30.3,30.3,0,0,1-13.6-2.8,19.6,19.6,0,0,1-8.8-8,23.6,23.6,0,0,1-3.2-12.4,22.8,22.8,0,0,1,5.6-15.6c-4.2-4-6.2-9.4-6.2-16.4a22.6,22.6,0,0,1,3-11.9,20.5,20.5,0,0,1,8.6-7.6A29.9,29.9,0,0,1,91.4,1h11.7c8.2,0,15.4,1.6,21.4,4.7a32.7,32.7,0,0,1,14,13.3,41.1,41.1,0,0,1,5,20.6c0,8.1-1.7,15-5.1,20.8a33.5,33.5,0,0,1-14.1,13.3c-6.1,3.1-13.1,4.6-21.3,4.6Z" stroke="#000" stroke-miterlimit="10" stroke-width="2"/><path d="M93.8,71.4a26.4,26.4,0,0,1-10.3-1.8A13.4,13.4,0,0,1,77,64.2a16.8,16.8,0,0,1-2.3-9.1,15.9,15.9,0,0,1,4.7-11.9,18.1,18.1,0,0,1,5.4-3.1A21.5,21.5,0,0,1,91.6,39h10.2v5.1a3.8,3.8,0,0,0,1.2,2.8,4,4,0,0,0,2.7,1.1,3.6,3.6,0,0,0,2.6-1.1,3.8,3.8,0,0,0,1.2-2.8V35.2c0-2.5-1.3-3.8-3.7-3.8H91.6a30,30,0,0,0-7.4.9,23.6,23.6,0,0,0-5.9,2.4,12.3,12.3,0,0,1-3-4.6,19,19,0,0,1-1.2-7,15.6,15.6,0,0,1,2.1-8.4,12.8,12.8,0,0,1,6.1-5.1,26.8,26.8,0,0,1,9.8-1.7h11A39.7,39.7,0,0,1,121,11.7a27.7,27.7,0,0,1,11.5,10.7c2.7,4.7,4.1,10.5,4.1,17.2a35.4,35.4,0,0,1-4,17.1,27.5,27.5,0,0,1-11.5,10.9,39.9,39.9,0,0,1-18,3.8Z" fill="#fff"/><path d="M176.4,78.3c-6.8,0-12.3-2.1-16.4-6.5s-6.1-10-6.1-17.1V46.9a25.1,25.1,0,0,1,.8-6.7,16.6,16.6,0,0,1,2.1-5.1,22.2,22.2,0,0,1-2.1-5.6,24.9,24.9,0,0,1-.8-6.4,21.7,21.7,0,0,1,3-11.5,21.1,21.1,0,0,1,8.4-7.8A27.3,27.3,0,0,1,178,1h23.4c6.1,0,11.2,1.1,15.3,3.4a21.1,21.1,0,0,1,9.1,9.8,35.5,35.5,0,0,1,3.1,15.2A28.5,28.5,0,0,1,225,44.5a16.8,16.8,0,0,1,2.8,6.2,27.3,27.3,0,0,1,.9,6.5,19.1,19.1,0,0,1-3.1,10.7,22,22,0,0,1-8.4,7.6,24,24,0,0,1-11.6,2.8,22.7,22.7,0,0,1-7.5-1.2,21.4,21.4,0,0,1-6.4-3.7,20.5,20.5,0,0,1-7.2,3.7A28.4,28.4,0,0,1,176.4,78.3Z" stroke="#000" stroke-miterlimit="10" stroke-width="2"/><path d="M176.4,71.4c-4.8,0-8.7-1.5-11.4-4.4s-4.1-7.1-4.1-12.3V47.1c0-4.1.9-7.2,2.6-9.4a23.9,23.9,0,0,1,7.9-6,3.5,3.5,0,0,0,2.2-2.9,3.4,3.4,0,0,0-1.2-2.9,3.2,3.2,0,0,0-2.3-.9l-1.6.2-3.7,1.5a20.4,20.4,0,0,0-3.2,2.2,12.9,12.9,0,0,1-.5-2.1,22.3,22.3,0,0,1-.2-3.7,15.9,15.9,0,0,1,1.9-8.1,13.3,13.3,0,0,1,5.8-5.2,19.7,19.7,0,0,1,9.1-1.9h23.2c7,0,12.3,1.9,15.8,5.5s5.2,9,5.2,16A22.4,22.4,0,0,1,218.5,42a16.1,16.1,0,0,1-9.2,7,3.7,3.7,0,0,0-2.6,2.4,4.4,4.4,0,0,0,.4,3.2,3.5,3.5,0,0,0,3.1,1.6,12.6,12.6,0,0,0,5.5-1.7,25.6,25.6,0,0,0,4.8-3.3,21.8,21.8,0,0,1,.9,2.3,14,14,0,0,1,.4,3.7,12.1,12.1,0,0,1-2,6.7,17.1,17.1,0,0,1-5.7,5.3,16.5,16.5,0,0,1-8.5,2.1,14.9,14.9,0,0,1-4.3-.6,11.1,11.1,0,0,1-3.8-1.8,19.5,19.5,0,0,1-3.4-3.1L183.2,53.1a3.3,3.3,0,0,0-2.7-1.4h-1a4.1,4.1,0,0,0-2.7,2.4,3.5,3.5,0,0,0,.6,3.8l6.3,7.6,1.7,2.1,1,1.2a13.8,13.8,0,0,1-3.9,1.8A22.2,22.2,0,0,1,176.4,71.4Z" fill="#fff"/><path d="M193.5,35.8a2.9,2.9,0,0,1-2.1-.9,2.9,2.9,0,0,1-.9-2.2V25.6a2.9,2.9,0,0,1,.9-2.1,3.2,3.2,0,0,1,2.1-.8,3.1,3.1,0,0,1,2.2.8,2.9,2.9,0,0,1,.9,2.1v7.1a2.9,2.9,0,0,1-.9,2.2A2.8,2.8,0,0,1,193.5,35.8Z" stroke="#000" stroke-miterlimit="10" stroke-width="2"/><path d="M258,78.3a18.5,18.5,0,0,1-9.5-2.5,19.5,19.5,0,0,1-6.9-6.8,17.3,17.3,0,0,1-2.6-9.4,17.1,17.1,0,0,1,2.6-9.4,19,19,0,0,1,6.9-6.9,18.8,18.8,0,0,1,25.9,6.9,17.1,17.1,0,0,1,2.6,9.4,17.3,17.3,0,0,1-2.6,9.4,20.1,20.1,0,0,1-6.8,6.8A18.6,18.6,0,0,1,258,78.3Z" stroke="#000" stroke-miterlimit="10" stroke-width="2"/><path d="M258,71.4a11.8,11.8,0,0,1-6.1-1.6,12.1,12.1,0,0,1-4.4-4.3,10.9,10.9,0,0,1-1.6-5.9,11.2,11.2,0,0,1,1.6-6,13.9,13.9,0,0,1,4.4-4.3,12.9,12.9,0,0,1,6.1-1.6,12.7,12.7,0,0,1,6.2,1.6,11.8,11.8,0,0,1,4.3,4.3,11.2,11.2,0,0,1,1.6,6,10.9,10.9,0,0,1-1.6,5.9,11.1,11.1,0,0,1-4.3,4.3A11.7,11.7,0,0,1,258,71.4Z" fill="#fff"/><path d="M34.4,182.4A45.8,45.8,0,0,1,23,180.9a40.4,40.4,0,0,1-10.8-4.8,25.4,25.4,0,0,1-8.1-8.2,23.1,23.1,0,0,1-.5-22.2,20.1,20.1,0,0,1,7-7.2,19.9,19.9,0,0,1,10-2.6h2.1v-7.2a26.6,26.6,0,0,1,2.8-12.6,19.9,19.9,0,0,1,7.8-8.2,22.7,22.7,0,0,1,11.8-2.9c6.8,0,12.3,2.1,16.3,6.5s6.1,10,6.1,17.2v21.4c0,10.6-2.9,18.6-8.8,24.1S44.7,182.4,34.4,182.4Z" stroke="#000" stroke-miterlimit="10" stroke-width="2"/><path d="M34.4,175.5A36.9,36.9,0,0,1,23.7,174a26.2,26.2,0,0,1-8.4-4,17.7,17.7,0,0,1-5.4-6.2,15.4,15.4,0,0,1-2-7.6,15.7,15.7,0,0,1,1.6-7,12,12,0,0,1,4.5-4.7,13.5,13.5,0,0,1,6.6-1.7,17.7,17.7,0,0,1,8,1.8q3.8,1.8,8.4,6.9a4,4,0,0,0,2.8,1.3l1.1-.2a4.1,4.1,0,0,0,2.5-2.8,3.6,3.6,0,0,0-1.1-3.7,42.9,42.9,0,0,0-6.3-5.8,25.1,25.1,0,0,0-6.4-3.5v-8c0-5.2,1.4-9.4,4.1-12.4s6.6-4.4,11.4-4.4,8.7,1.5,11.4,4.4,4.1,7.2,4.1,12.4v21.5c0,8.6-2.2,15-6.6,19.1S42.9,175.5,34.4,175.5Z" fill="#fff"/><path d="M100.3,182.4a27.4,27.4,0,0,1-8.4-1.4,24.6,24.6,0,0,1-7.7-4,20.4,20.4,0,0,1-5.7-6.7,19.9,19.9,0,0,1-2-9,24.8,24.8,0,0,1,.6-5.4,39.2,39.2,0,0,1,1.8-5.5L90.4,123a34.7,34.7,0,0,1,9.1-13.3c3.6-3.1,8.3-4.6,14.1-4.6s10.7,1.6,14.3,4.7a35.2,35.2,0,0,1,8.9,13.2l11.5,27.4a23.2,23.2,0,0,1,1.7,5.5,24.8,24.8,0,0,1,.6,5.4,19,19,0,0,1-1.9,8.6,19.5,19.5,0,0,1-5.2,6.6,26.1,26.1,0,0,1-7.6,4.4,26.7,26.7,0,0,1-9.1,1.5,19.5,19.5,0,0,1-7.2-1.3,18.8,18.8,0,0,1-6.1-3.8,18.4,18.4,0,0,1-6.1,3.8A18.7,18.7,0,0,1,100.3,182.4Z" stroke="#000" stroke-miterlimit="10" stroke-width="2"/><path d="M126.8,175.5a12.2,12.2,0,0,1-7.9-2.7c-2.3-1.8-4.2-4.6-5.8-8.3l-2.8-6.8h10.3a3.7,3.7,0,0,0,3.4-1.6,3.7,3.7,0,0,0,.1-3.7l-6.5-15.3a3.4,3.4,0,0,0-3.1-2.5h-.2a3.9,3.9,0,0,0-3.2,1.5,3.5,3.5,0,0,0-.6,4l4.2,10H104.5a4.2,4.2,0,0,0-3.2,1.4q-1.3,1.5-.3,3.9l5,12.1c.4,1,.8,1.9,1.3,2.9l1.2,2.1a12.5,12.5,0,0,1-3.5,2.1,11.9,11.9,0,0,1-4.7.9,21.3,21.3,0,0,1-5.3-.8,20,20,0,0,1-5.6-2.5,13.9,13.9,0,0,1-4.3-4.4,12.3,12.3,0,0,1-1.6-6.5,14.1,14.1,0,0,1,.5-4,22.5,22.5,0,0,1,1.3-4.2l11.5-27.4c2.1-4.9,4.5-8.5,7-10.6a15.1,15.1,0,0,1,9.8-3.1,14.9,14.9,0,0,1,9.8,3.1c2.6,2.1,5,5.7,7,10.6l11.5,27.4a33.8,33.8,0,0,1,1.3,4.2,19,19,0,0,1,.5,4,12.6,12.6,0,0,1-2.5,7.8,15.4,15.4,0,0,1-6.5,4.7A20.4,20.4,0,0,1,126.8,175.5Z" fill="#fff"/><path d="M183,182.4c-6.8,0-12.2-2.2-16.3-6.5s-6.1-10-6.1-17.1v-7.9a26.5,26.5,0,0,1,.7-6.7,17.3,17.3,0,0,1,2.2-5,22.5,22.5,0,0,1-2.2-5.6,25.6,25.6,0,0,1-.7-6.4,22,22,0,0,1,3-11.6,20.9,20.9,0,0,1,8.4-7.7,27,27,0,0,1,12.7-2.8H208c6.2,0,11.3,1.1,15.4,3.4a21.6,21.6,0,0,1,9.1,9.8,35.2,35.2,0,0,1,3,15.2,29.1,29.1,0,0,1-3.8,15,20.1,20.1,0,0,1,2.8,6.3,27.3,27.3,0,0,1,.9,6.5,19.4,19.4,0,0,1-3.1,10.7,22.8,22.8,0,0,1-8.4,7.6,24.3,24.3,0,0,1-11.6,2.8,21.3,21.3,0,0,1-7.6-1.3,20.3,20.3,0,0,1-6.4-3.6,20.9,20.9,0,0,1-7.1,3.7A28.6,28.6,0,0,1,183,182.4Z" stroke="#000" stroke-miterlimit="10" stroke-width="2"/><path d="M183,175.5c-4.8,0-8.6-1.5-11.3-4.4s-4.2-7.1-4.2-12.3v-7.6c0-4.1.9-7.3,2.7-9.5a24,24,0,0,1,7.9-5.9,3.5,3.5,0,0,0,2.2-2.9,3.5,3.5,0,0,0-1.3-3,3.6,3.6,0,0,0-2.3-.8l-1.5.2a20.5,20.5,0,0,0-3.7,1.5,15.8,15.8,0,0,0-3.3,2.2,15.5,15.5,0,0,1-.4-2.1,22.2,22.2,0,0,1-.3-3.7,16.3,16.3,0,0,1,2-8.2,13.1,13.1,0,0,1,5.7-5.2,21.6,21.6,0,0,1,9.2-1.8h23.2c7,0,12.3,1.8,15.8,5.5s5.2,9,5.2,16a22.6,22.6,0,0,1-3.4,12.6,16.4,16.4,0,0,1-9.3,7,3.2,3.2,0,0,0-2.5,2.4,4,4,0,0,0,.4,3.2,3.3,3.3,0,0,0,3,1.6,11.9,11.9,0,0,0,5.5-1.7,23.4,23.4,0,0,0,4.9-3.3,20.9,20.9,0,0,1,.8,2.3,13.8,13.8,0,0,1,.5,3.7,12.4,12.4,0,0,1-2,6.6,16.4,16.4,0,0,1-5.7,5.4,16.7,16.7,0,0,1-8.5,2.1,16.1,16.1,0,0,1-4.4-.6,12.7,12.7,0,0,1-3.7-1.8,16.5,16.5,0,0,1-3.4-3.1l-10.9-12.7a3.4,3.4,0,0,0-2.7-1.5l-1,.2a4.1,4.1,0,0,0-2.7,2.4,3.5,3.5,0,0,0,.6,3.8l6.3,7.6,1.6,2,1.1,1.2a17.6,17.6,0,0,1-3.9,1.9A27.9,27.9,0,0,1,183,175.5Z" fill="#fff"/><path d="M200.2,139.8a3.2,3.2,0,0,1-2.1-.8,2.8,2.8,0,0,1-1-2.2v-7.1a2.6,2.6,0,0,1,1-2.1,2.9,2.9,0,0,1,2.1-.9,2.9,2.9,0,0,1,2.2.9,2.9,2.9,0,0,1,.9,2.1v7.1a3.1,3.1,0,0,1-.9,2.2A3.3,3.3,0,0,1,200.2,139.8Z" stroke="#000" stroke-miterlimit="10" stroke-width="2"/><path d="M284,182.4c-6.8,0-12.2-2.2-16.3-6.5s-6.1-10.1-6.1-17.3V146.4a20.4,20.4,0,0,1-13-6.8,20.6,20.6,0,0,1-4.7-13.6c0-6.3,2.1-11.4,6.4-15.2s10-5.7,17.2-5.7h32.8c7.2,0,13,1.9,17.3,5.7s6.5,8.9,6.5,15.2a20,20,0,0,1-2.2,9.6,18.4,18.4,0,0,1-6,7,24.8,24.8,0,0,1-9.4,3.8v12.2c0,7.2-2.1,13-6.1,17.3S290.8,182.4,284,182.4Z" stroke="#000" stroke-miterlimit="10" stroke-width="2"/><path d="M284,175.5c-4.8,0-8.6-1.5-11.4-4.4s-4.1-7.2-4.1-12.5v-11H282a3.6,3.6,0,0,0,2.8-1.1,3.7,3.7,0,0,0,1.1-2.7,4,4,0,0,0-1.1-2.7A3.9,3.9,0,0,0,282,140H267.5c-5.3,0-9.4-1.3-12.4-3.8s-4.3-5.8-4.3-10.2,1.4-7.8,4.3-10.3,7.1-3.7,12.4-3.7h32.8c5.3,0,9.5,1.2,12.4,3.7s4.3,5.8,4.3,10.3-1.2,7.2-3.5,9.5-6,3.8-10.5,4.4a3.4,3.4,0,0,0-3.4,3.8v14.9c0,5.3-1.4,9.5-4.1,12.5S288.9,175.5,284,175.5Z" fill="#fff"/></g></g></svg>