<svg id="Layer_1" data-name="Layer 1" xmlns="http://www.w3.org/2000/svg" viewBox="0 0 182 182"><title>Facebook</title><circle cx="91" cy="91" r="87" fill="#ffa3ba"/><path d="M91,181.5A90.5,90.5,0,1,1,181.5,91,90.6,90.6,0,0,1,91,181.5Zm0-174A83.5,83.5,0,1,0,174.5,91,83.6,83.6,0,0,0,91,7.5Z"/><path d="M82.4,134.5a3.5,3.5,0,0,1-3.5-3.5V98.7H70.5A3.5,3.5,0,0,1,67,95.2V81a3.5,3.5,0,0,1,3.5-3.5h8.4V69.8c0-13.5,8.5-22.3,21.7-22.3a92.5,92.5,0,0,1,11.4.6,3.5,3.5,0,0,1,3,3.5V64.3a3.5,3.5,0,0,1-3.5,3.5H104c-3.4,0-3.5.6-3.5,3.4v6.3h9.8a3.4,3.4,0,0,1,2.6,1.2,3.3,3.3,0,0,1,.8,2.7l-1.8,14.3a3.5,3.5,0,0,1-3.5,3h-7.9V131a3.5,3.5,0,0,1-3.5,3.5Z" fill="#3bffb8" fill-rule="evenodd"/><path d="M100.6,51a89.2,89.2,0,0,1,10.9.6V64.3H104c-5.9,0-7,2.8-7,6.9V81h13.3l-1.9,14.2H97V131H82.4V95.2H70.5V81H82.4V69.8c0-12.2,7.4-18.8,18.2-18.8m0-7c-7.3,0-13.6,2.4-18.1,6.9S75.4,62,75.4,69.8V74H70.5a7,7,0,0,0-7,7V95.2a7,7,0,0,0,7,7h4.9V131a7,7,0,0,0,7,7H97a7,7,0,0,0,7-7V102.2h4.4a7,7,0,0,0,7-6.1l1.8-14.2a7.1,7.1,0,0,0-6.9-7.9H104V71.3h7.5a7,7,0,0,0,7-7V51.6a7.1,7.1,0,0,0-6.1-7c-1.8-.2-6.6-.6-11.8-.6Z"/></svg>