<svg xmlns="http://www.w3.org/2000/svg" viewBox="0 0 490.2 183.4"><title>FoodByMaria</title><g id="Layer_2" data-name="Layer 2"><g id="Layer_1-2" data-name="Layer 1"><path d="M23.9,78.3a23.2,23.2,0,0,1-12-2.9,19.8,19.8,0,0,1-8-8.2A26.5,26.5,0,0,1,1,54.7V23.1C1,15.8,3.3,10.3,8,6.6S19,1,26.7,1H48q9.8,0,15.3,4.5c3.7,2.9,5.6,7.3,5.6,13.1a17.1,17.1,0,0,1-1.7,7.7,13.1,13.1,0,0,1-5.4,5.3,14.6,14.6,0,0,1,2.3,8c0,4.4-1.2,7.8-3.6,10.1a12.4,12.4,0,0,1-9.2,3.5H47v1.5a26.5,26.5,0,0,1-2.9,12.5,20.9,20.9,0,0,1-8.2,8.2A23.7,23.7,0,0,1,23.9,78.3Z" stroke="#000" stroke-miterlimit="10" stroke-width="2"/><path d="M23.9,72.2a18,18,0,0,0,8.9-2.1A13.9,13.9,0,0,0,38.7,64a19.4,19.4,0,0,0,2.1-9.3V53.2H35.5a3,3,0,0,1-2.2-.8,3.1,3.1,0,0,1-.8-2.2,3.3,3.3,0,0,1,.8-2.2,3.1,3.1,0,0,1,2.2-.9H51.2A6.4,6.4,0,0,0,56.3,45,8.5,8.5,0,0,0,58,39.6a7.8,7.8,0,0,0-2.4-5.7l-1.8.2H51.9a67.3,67.3,0,0,1-9.1-.6,43.7,43.7,0,0,1-7.6-1.6,2.7,2.7,0,0,1-1.9-2,3.2,3.2,0,0,1,.3-2.7A2.7,2.7,0,0,1,36.1,26a24,24,0,0,1,5.4,1,46,46,0,0,0,10.2,1,12.4,12.4,0,0,0,7.9-2.5,8.4,8.4,0,0,0,3.1-6.9,12.4,12.4,0,0,0-1.3-5.8,9.5,9.5,0,0,0-4.5-4.1,20.8,20.8,0,0,0-8.8-1.5H26.7c-6,0-10.7,1.3-14.3,3.9s-5.2,6.6-5.2,12V54.7c0,5.4,1.5,9.7,4.5,12.8S18.8,72.2,23.9,72.2Z" fill="#fff"/><path d="M112.4,78.3a31.2,31.2,0,0,1-8.5-1.2,20.7,20.7,0,0,1-7.5-3.9,16.6,16.6,0,0,1-4.8-7.1A18.2,18.2,0,0,1,81.7,61a24.4,24.4,0,0,1-5.8-9.7,36,36,0,0,1-2-11.7,37.1,37.1,0,0,1,3-14.9,37.5,37.5,0,0,1,8.3-12.4A41,41,0,0,1,97.5,4a37.8,37.8,0,0,1,14.9-3,37.1,37.1,0,0,1,14.9,3,40.3,40.3,0,0,1,12.4,8.3A39.1,39.1,0,0,1,148,24.7a38.8,38.8,0,0,1,2.9,14.9,39.7,39.7,0,0,1-2.9,15,38.7,38.7,0,0,1-8.3,12.3,40.3,40.3,0,0,1-12.4,8.3A35.5,35.5,0,0,1,112.4,78.3Z" stroke="#000" stroke-miterlimit="10" stroke-width="2"/><path d="M112.4,72.2a31.1,31.1,0,0,0,12.5-2.6,31.8,31.8,0,0,0,10.4-7,33.1,33.1,0,0,0,6.9-10.4,31.8,31.8,0,0,0,0-25.2,31.6,31.6,0,0,0-6.9-10.3,33,33,0,0,0-10.3-7,32.8,32.8,0,0,0-25.1,0,33,33,0,0,0-10.3,7,31.9,31.9,0,0,0-7,10.3,31.2,31.2,0,0,0-2.5,12.6,28.6,28.6,0,0,0,1.3,8.9,20.6,20.6,0,0,0,3.8,7.2,13.9,13.9,0,0,0,5.6,4.4,6.2,6.2,0,0,1-.1-1.3v-1c0-4.8,1.7-8.5,5.1-11A20.7,20.7,0,0,1,108.4,43h2.4a7.8,7.8,0,0,0,4.2-.8,2.8,2.8,0,0,0,1.3-2.6,3.3,3.3,0,0,0-1-2.7,4.1,4.1,0,0,0-2.8-.9,3.7,3.7,0,0,0-2.8,1.1,2.9,2.9,0,0,1-3.1.7,3.2,3.2,0,0,1-2.1-2.1,2.6,2.6,0,0,1,.9-3,10.5,10.5,0,0,1,7.7-2.9,8.7,8.7,0,0,1,6.6,2.8,9.6,9.6,0,0,1,2.7,7,8.4,8.4,0,0,1-2.9,6.8c-2,1.8-4.9,2.7-8.8,2.7H108a13.6,13.6,0,0,0-8.1,2.2c-2,1.5-3.1,3.9-3.1,7.1a13,13,0,0,0,1.9,7.1,12.6,12.6,0,0,0,5.3,4.9A18,18,0,0,0,112.4,72.2Z" fill="#fff"/><path d="M198.2,78.3a31.2,31.2,0,0,1-8.5-1.2,20.7,20.7,0,0,1-7.5-3.9,16.6,16.6,0,0,1-4.8-7.1,18.2,18.2,0,0,1-9.9-5.1,24.4,24.4,0,0,1-5.8-9.7,36,36,0,0,1-2-11.7,37.1,37.1,0,0,1,3-14.9A37.5,37.5,0,0,1,171,12.3,41,41,0,0,1,183.3,4a37.8,37.8,0,0,1,14.9-3,37.1,37.1,0,0,1,14.9,3,40.3,40.3,0,0,1,12.4,8.3,39.1,39.1,0,0,1,8.3,12.4,38.8,38.8,0,0,1,2.9,14.9,39.7,39.7,0,0,1-2.9,15,38.7,38.7,0,0,1-8.3,12.3,40.3,40.3,0,0,1-12.4,8.3A35.5,35.5,0,0,1,198.2,78.3Z" stroke="#000" stroke-miterlimit="10" stroke-width="2"/><path d="M198.2,72.2a31.1,31.1,0,0,0,12.5-2.6,31.8,31.8,0,0,0,10.4-7A33.1,33.1,0,0,0,228,52.2,31.8,31.8,0,0,0,228,27a31.6,31.6,0,0,0-6.9-10.3,33,33,0,0,0-10.3-7,32.8,32.8,0,0,0-25.1,0,33,33,0,0,0-10.3,7,31.9,31.9,0,0,0-7,10.3,31.2,31.2,0,0,0-2.5,12.6,28.6,28.6,0,0,0,1.3,8.9,20.6,20.6,0,0,0,3.8,7.2,13.9,13.9,0,0,0,5.6,4.4,6.2,6.2,0,0,1-.1-1.3v-1c0-4.8,1.7-8.5,5.1-11A20.7,20.7,0,0,1,194.2,43h2.4a7.8,7.8,0,0,0,4.2-.8,2.8,2.8,0,0,0,1.3-2.6,3.3,3.3,0,0,0-1-2.7,4.1,4.1,0,0,0-2.8-.9,3.7,3.7,0,0,0-2.8,1.1,2.9,2.9,0,0,1-3.1.7,3.2,3.2,0,0,1-2.1-2.1,2.6,2.6,0,0,1,.9-3,10.5,10.5,0,0,1,7.7-2.9,8.7,8.7,0,0,1,6.6,2.8,9.6,9.6,0,0,1,2.7,7,8.8,8.8,0,0,1-2.9,6.8c-2,1.8-4.9,2.7-8.8,2.7h-2.7a13.6,13.6,0,0,0-8.1,2.2c-2,1.5-3.1,3.9-3.1,7.1a13,13,0,0,0,1.9,7.1,12.6,12.6,0,0,0,5.3,4.9A18,18,0,0,0,198.2,72.2Z" fill="#fff"/><path d="M272.9,78.3a30,30,0,0,1-13.6-2.8,20.3,20.3,0,0,1-8.9-8,23.5,23.5,0,0,1-3.1-12.4,22.8,22.8,0,0,1,5.6-15.6c-4.2-4-6.3-9.4-6.3-16.4a22.7,22.7,0,0,1,3.1-11.9,20.5,20.5,0,0,1,8.6-7.6A29.4,29.4,0,0,1,270.8,1h11.8A46.6,46.6,0,0,1,304,5.7,33.3,33.3,0,0,1,318,19a41.1,41.1,0,0,1,5,20.6c0,8.1-1.7,15-5.1,20.8a34.1,34.1,0,0,1-14.1,13.3c-6.1,3.1-13.2,4.6-21.3,4.6Z" stroke="#000" stroke-miterlimit="10" stroke-width="2"/><path d="M273.2,72.2h9.4q10.6,0,18.3-3.9A28,28,0,0,0,312.7,57a35,35,0,0,0,4.1-17.4c0-6.9-1.4-12.7-4.2-17.5A28.1,28.1,0,0,0,300.8,11c-5.1-2.6-11.2-3.8-18.2-3.8h-11a26.1,26.1,0,0,0-10.1,1.7,13.9,13.9,0,0,0-6.5,5.4,16,16,0,0,0-2.2,8.8,19,19,0,0,0,1.3,7.3,14,14,0,0,0,3.5,5.3,22.2,22.2,0,0,1,6.3-2.7,28.2,28.2,0,0,1,7.1-.9h14.2c2,0,3,1.1,3,3.1v8.9a2.9,2.9,0,0,1-.9,2.2,3.1,3.1,0,0,1-2.2.9,2.9,2.9,0,0,1-2.1-.9,3,3,0,0,1-1-2.2V38.3H271a22.2,22.2,0,0,0-6.9,1.1,14.7,14.7,0,0,0-5.7,3.3c-3.3,3.1-5,7.2-5,12.4a17.4,17.4,0,0,0,2.4,9.5,14.1,14.1,0,0,0,6.8,5.7A28.3,28.3,0,0,0,273.2,72.2Z" fill="#fff"/><path d="M354.8,78.3a22.9,22.9,0,0,1-11.6-2.7,17.8,17.8,0,0,1-7.4-7.7A27.1,27.1,0,0,1,333.3,56V46.9a25.5,25.5,0,0,1,.7-6.7,16.8,16.8,0,0,1,2.2-5.1,24.2,24.2,0,0,1-2.9-12,21.7,21.7,0,0,1,3-11.5,21.1,21.1,0,0,1,8.4-7.8A27,27,0,0,1,357.4,1h21q11.9,0,18.9,5.1c4.8,3.3,7.2,8.4,7.2,15.2a23.8,23.8,0,0,1-1.4,8.4,18.7,18.7,0,0,1-4.2,6.4,20,20,0,0,1,6.6,7.4,21.2,21.2,0,0,1,2.2,10.1,25.3,25.3,0,0,1-3.3,12.9,22.4,22.4,0,0,1-9.3,8.7c-4.1,2.1-9,3.1-14.8,3.1a26.6,26.6,0,0,1-7.1-.8,20.3,20.3,0,0,1-5.9-2.4,15.3,15.3,0,0,1-5.5,2.4A25.9,25.9,0,0,1,354.8,78.3Z" stroke="#000" stroke-miterlimit="10" stroke-width="2"/><path d="M354.8,72.2a16.4,16.4,0,0,0,4-.4l3-.7a17.7,17.7,0,0,1-3.6-5.3,16.2,16.2,0,0,1-1.4-6.5c0-4.5,1.5-8.2,4.5-10.8a16.4,16.4,0,0,1,11.4-4h3.1a2.9,2.9,0,0,1,3,3,2.9,2.9,0,0,1-.9,2.2,3.2,3.2,0,0,1-2.1.8h-2.7a11.3,11.3,0,0,0-7.2,2.3,7.7,7.7,0,0,0-2.9,6.4,10.6,10.6,0,0,0,2.6,7.2,15.5,15.5,0,0,0,6.5,4.3,23.3,23.3,0,0,0,8.2,1.5,26.8,26.8,0,0,0,10.9-2.1,16.5,16.5,0,0,0,7.6-6.2,18.6,18.6,0,0,0,2.7-10.3,16,16,0,0,0-2.1-8.5,17.1,17.1,0,0,0-6.9-6c-1.4-.8-2.1-1.8-2-2.8a3.1,3.1,0,0,1,1.8-2.5,12.6,12.6,0,0,0,4.6-4.9,18.4,18.4,0,0,0,1.4-7.6c0-3.6-.9-6.5-2.7-8.5a15.2,15.2,0,0,0-7.5-4.4,42.1,42.1,0,0,0-10.5-1.2H357.1c-5.6,0-9.9,1.4-13,4.2s-4.6,6.7-4.6,11.7c0,1.3.1,2.6.2,3.8a18.9,18.9,0,0,0,.9,3.4,17.4,17.4,0,0,1,4.9-3.4,10.1,10.1,0,0,1,3.9-1,2.7,2.7,0,0,1,2.4,1,2.8,2.8,0,0,1,.2,2.4,4.5,4.5,0,0,1-2.3,2.2,18.1,18.1,0,0,0-7.8,6.3,16.9,16.9,0,0,0-2.4,9.3v8.6a21.7,21.7,0,0,0,1.7,9.4,11.2,11.2,0,0,0,5.1,5.4A19.5,19.5,0,0,0,354.8,72.2Z" fill="#fff"/><path d="M370.8,33a2.9,2.9,0,0,1-2.1-.9,2.7,2.7,0,0,1-1-2.2v-7a2.6,2.6,0,0,1,1-2.1,2.9,2.9,0,0,1,2.1-.9,2.9,2.9,0,0,1,2.2.9,2.9,2.9,0,0,1,.9,2.1v7a3.1,3.1,0,0,1-3.1,3.1Z" stroke="#000" stroke-miterlimit="10" stroke-width="2"/><path d="M452.3,78.3A21.5,21.5,0,0,1,441,75.5a18.8,18.8,0,0,1-7.3-8,25.1,25.1,0,0,1-2.6-11.6V51.4L417.5,31.8a15.7,15.7,0,0,1-2.5-5.2,18.7,18.7,0,0,1-.8-5.7,19.9,19.9,0,0,1,2.7-10.4,19.4,19.4,0,0,1,7.5-7A22.8,22.8,0,0,1,435.3,1a22.3,22.3,0,0,1,8.3,1.5,23.7,23.7,0,0,1,7.3,4.8,21.5,21.5,0,0,1,7.3-4.8,27.2,27.2,0,0,1,20.5,1.1,18.9,18.9,0,0,1,7.7,7.4,20.3,20.3,0,0,1,2.8,10.9,22.1,22.1,0,0,1-.9,6.2,21.1,21.1,0,0,1-2.5,5.5L473.4,51.9v4a25.1,25.1,0,0,1-2.5,11.6,19.3,19.3,0,0,1-7.2,8A21.9,21.9,0,0,1,452.3,78.3Z" stroke="#000" stroke-miterlimit="10" stroke-width="2"/><path d="M452.3,72.2a15.8,15.8,0,0,0,8.2-2,11.7,11.7,0,0,0,5-5.5,19.7,19.7,0,0,0,1.8-8.8V51.2a3.3,3.3,0,0,1,.3-1.5,6.8,6.8,0,0,1,.9-1.6l12.1-17.9a14.9,14.9,0,0,0,2.4-8.3,15.3,15.3,0,0,0-1.9-8,13,13,0,0,0-5.6-5A18.7,18.7,0,0,0,467,7.2a16.7,16.7,0,0,0-6.5,1.1,17.4,17.4,0,0,0-5.5,3.6c.4.6.9,1.2,1.3,1.9a16.4,16.4,0,0,1,1.4,2.2l8.6,14c.8,1.3.9,2.4.2,3.3a3.7,3.7,0,0,1-2.8,1.5,3.1,3.1,0,0,1-2.7-1.6l-8.6-14a29.1,29.1,0,0,0-7.8-9.1,15.5,15.5,0,0,0-9.3-2.9c-3.5,0-6.3.6-8.5,2a13.5,13.5,0,0,0-4.9,5.2,14.9,14.9,0,0,0-1.6,6.5,13.4,13.4,0,0,0,.6,4,10.6,10.6,0,0,0,1.6,3.4L436,47.6a5.1,5.1,0,0,1,1.3,3.1v5.2q0,7.6,3.9,12C443.9,70.7,447.6,72.2,452.3,72.2Z" fill="#fff"/><path d="M62,182.4a25.8,25.8,0,0,1-11.7-2.7,23.6,23.6,0,0,1-8.8-7.4,18.2,18.2,0,0,1-3.4-11,25.7,25.7,0,0,1,.6-5.5,37.4,37.4,0,0,1,1.7-5.4L52,123c2.4-5.8,5.4-10.2,9.1-13.3s8.3-4.6,14.1-4.6A21.9,21.9,0,0,1,90.7,111a19.6,19.6,0,0,1,14.3-5.9c6,0,10.8,1.6,14.4,4.7a36.3,36.3,0,0,1,8.8,13.2l11.6,27.4a22.5,22.5,0,0,1,1.7,5.4,25.7,25.7,0,0,1,.6,5.5,18.8,18.8,0,0,1-3.4,11.2,22.5,22.5,0,0,1-8.8,7.3,27,27,0,0,1-11.6,2.6,22.8,22.8,0,0,1-7-1.1,19.9,19.9,0,0,1-5.9-3.2,21.6,21.6,0,0,1-13.7,4.3A26.5,26.5,0,0,1,83,181a20.1,20.1,0,0,1-7-4.3,20.9,20.9,0,0,1-6.4,4.2A19.1,19.1,0,0,1,62,182.4Z" stroke="#000" stroke-miterlimit="10" stroke-width="2"/><path d="M62,176.2a12.2,12.2,0,0,0,8-2.6,21.8,21.8,0,0,0,5.9-7.7l-6-14.2q-.9-2.2.3-3.3a3.8,3.8,0,0,1,3-1.1,2.7,2.7,0,0,1,2.4,2l6.5,15.5a2.4,2.4,0,0,1,0,2.3,12.8,12.8,0,0,1-1.1,2.4,21.8,21.8,0,0,1-1.2,2.2,13.3,13.3,0,0,0,5.1,3.5,20.3,20.3,0,0,0,6.8,1,16.7,16.7,0,0,0,7.3-1.4,14.3,14.3,0,0,0,5.6-4.6,32,32,0,0,0,4.6-8.1l5.3-12.6a3.1,3.1,0,0,1,2.5-2.1,3.4,3.4,0,0,1,2.8,1.2q1.2,1.2.3,3.3l-5.2,12.6a33.1,33.1,0,0,1-2.4,5,21.7,21.7,0,0,1-2.7,4.2,20.9,20.9,0,0,0,4,1.9,16.3,16.3,0,0,0,4.5.6,19.4,19.4,0,0,0,5.6-.8,18.3,18.3,0,0,0,5.7-2.6,12.7,12.7,0,0,0,6.3-11.5,16.3,16.3,0,0,0-.5-4.3,21.6,21.6,0,0,0-1.4-4.3l-11.5-27.4c-2.1-5-4.4-8.7-7.2-10.8a15.7,15.7,0,0,0-10.3-3.3,13.3,13.3,0,0,0-8.1,2.6,18.9,18.9,0,0,0-6,7.8L97,135.8a2.6,2.6,0,0,1-.4,3.2,4.1,4.1,0,0,1-3,1.1,2.5,2.5,0,0,1-2.3-1.9l-6.5-15.5a2.5,2.5,0,0,1,0-2.4,12.3,12.3,0,0,1,1.1-2.3,12.8,12.8,0,0,1,1.1-2,15.8,15.8,0,0,0-11.8-4.8,15.7,15.7,0,0,0-10.3,3.3c-2.7,2.1-5.1,5.8-7.2,10.8L46.2,152.7a21.6,21.6,0,0,0-1.4,4.3,21.8,21.8,0,0,0-.5,4.3,12.7,12.7,0,0,0,6.3,11.5,17.8,17.8,0,0,0,5.8,2.6A19.4,19.4,0,0,0,62,176.2Z" fill="#fff"/><path d="M173.1,182.4a27.4,27.4,0,0,1-8.4-1.4,26.2,26.2,0,0,1-7.8-4,21.3,21.3,0,0,1-5.6-6.7,18.7,18.7,0,0,1-2.1-9,20,20,0,0,1,.7-5.4,38.6,38.6,0,0,1,1.7-5.5L163.2,123c2.4-5.8,5.4-10.2,9.1-13.3s8.3-4.6,14.1-4.6,10.7,1.6,14.3,4.7a35.2,35.2,0,0,1,8.9,13.2l11.5,27.4a29,29,0,0,1,1.7,5.5,24.8,24.8,0,0,1,.6,5.4,20.4,20.4,0,0,1-1.9,8.6,20.9,20.9,0,0,1-5.2,6.6,27.4,27.4,0,0,1-7.6,4.4,27.1,27.1,0,0,1-9.1,1.5,18.8,18.8,0,0,1-7.2-1.3,17.8,17.8,0,0,1-6.1-3.8,19.5,19.5,0,0,1-6.1,3.8A18.7,18.7,0,0,1,173.1,182.4Z" stroke="#000" stroke-miterlimit="10" stroke-width="2"/><path d="M173.1,176.2a13,13,0,0,0,4.9-.9,11.7,11.7,0,0,0,4.2-2.7l-1.5-2.6a23.6,23.6,0,0,1-1.2-2.8l-5.1-12.1a3,3,0,0,1,.2-3.1,3.4,3.4,0,0,1,2.7-1.2h11.3l-4.6-11a2.8,2.8,0,0,1,.4-3.2,3.1,3.1,0,0,1,2.8-1.2,2.6,2.6,0,0,1,2.5,2l6.5,15.3a2.9,2.9,0,0,1-.1,3,2.9,2.9,0,0,1-2.8,1.3H181.9l3.3,7.8a21.2,21.2,0,0,0,6,8.6,13.1,13.1,0,0,0,8.4,2.8,19.7,19.7,0,0,0,8.1-1.7,16.3,16.3,0,0,0,6.8-5,12.5,12.5,0,0,0,2.7-8.2,22.3,22.3,0,0,0-1.9-8.5l-11.4-27.4c-2.1-5-4.6-8.7-7.3-10.9a17.6,17.6,0,0,0-20.5,0c-2.7,2.2-5.1,5.9-7.2,10.9l-11.5,27.4a22.3,22.3,0,0,0-1.9,8.5,12.7,12.7,0,0,0,1.8,6.9,12.4,12.4,0,0,0,4.5,4.6,18.3,18.3,0,0,0,5.7,2.6A19.9,19.9,0,0,0,173.1,176.2Z" fill="#fff"/><path d="M255.8,182.4c-6.8,0-12.3-2.2-16.3-6.5s-6.1-10-6.1-17.1v-7.9a26.5,26.5,0,0,1,.7-6.7,20.3,20.3,0,0,1,2.1-5,26.9,26.9,0,0,1-2.1-5.6,25.6,25.6,0,0,1-.7-6.4,22.9,22.9,0,0,1,2.9-11.6,20.5,20.5,0,0,1,8.5-7.7,26.7,26.7,0,0,1,12.7-2.8h23.3c6.1,0,11.3,1.1,15.3,3.4a21.8,21.8,0,0,1,9.2,9.8,35.2,35.2,0,0,1,3,15.2,28.2,28.2,0,0,1-3.9,15,18.1,18.1,0,0,1,2.8,6.3,23.4,23.4,0,0,1,1,6.5A19.4,19.4,0,0,1,305,172a22.1,22.1,0,0,1-8.4,7.6,23.6,23.6,0,0,1-11.5,2.8,20.9,20.9,0,0,1-7.6-1.3,19.2,19.2,0,0,1-6.4-3.6,20.9,20.9,0,0,1-7.1,3.7A29.6,29.6,0,0,1,255.8,182.4Z" stroke="#000" stroke-miterlimit="10" stroke-width="2"/><path d="M255.8,176.2a23.8,23.8,0,0,0,6.3-.7,13.5,13.5,0,0,0,4.8-2.4l-1.5-1.8a22.5,22.5,0,0,0-1.7-2.1l-6.2-7.6a2.9,2.9,0,0,1-.6-3,3.5,3.5,0,0,1,2.3-2,2.6,2.6,0,0,1,2.9,1.1L273,170.4a17.5,17.5,0,0,0,3.5,3.2,12.3,12.3,0,0,0,4,1.9,18.4,18.4,0,0,0,13.4-1.6,16.2,16.2,0,0,0,6-5.6,13,13,0,0,0,2.1-7,11.5,11.5,0,0,0-.5-3.9,13.6,13.6,0,0,0-1.4-3.3,24.5,24.5,0,0,1-5.3,3.8,11,11,0,0,1-5.2,1.6,2.6,2.6,0,0,1-2.4-1.2,3,3,0,0,1-.3-2.6,2.5,2.5,0,0,1,2-1.9,16.9,16.9,0,0,0,9.7-7.3,23,23,0,0,0,3.5-13q0-10.8-5.4-16.5c-3.7-3.9-9.1-5.8-16.4-5.8H257.1a21,21,0,0,0-9.4,2,13.1,13.1,0,0,0-6.1,5.5,16.2,16.2,0,0,0-2.1,8.5,23.4,23.4,0,0,0,.3,3.8,26.6,26.6,0,0,0,.8,3.3,18.3,18.3,0,0,1,4-2.8,19.3,19.3,0,0,1,3.5-1.5c1.4-.3,2.5-.2,3.2.5a2.7,2.7,0,0,1,1,2.4,2.9,2.9,0,0,1-1.8,2.2,24.1,24.1,0,0,0-8.1,6.2c-1.9,2.3-2.9,5.6-2.9,9.9v7.6c0,5.4,1.5,9.7,4.4,12.8S250.8,176.2,255.8,176.2Z" fill="#fff"/><path d="M273,139.8a3.7,3.7,0,0,1-2.2-.8,3.1,3.1,0,0,1-.9-2.2v-7.1a2.9,2.9,0,0,1,.9-2.1,3.3,3.3,0,0,1,2.2-.9,2.9,2.9,0,0,1,2.2.9,2.9,2.9,0,0,1,.9,2.1v7.1a3.1,3.1,0,0,1-.9,2.2A3.3,3.3,0,0,1,273,139.8Z" stroke="#000" stroke-miterlimit="10" stroke-width="2"/><path d="M342.4,182.4c-6.8,0-12.3-2.2-16.4-6.5s-6.1-10-6.1-17.1v-30c0-7.2,2.1-12.9,6.1-17.2s9.6-6.5,16.4-6.5,12.2,2.1,16.3,6.5,6.1,10,6.1,17.2v30c0,7.1-2,12.8-6.1,17.1S349.2,182.4,342.4,182.4Z" stroke="#000" stroke-miterlimit="10" stroke-width="2"/><path d="M342.4,176.2c5.1,0,9.1-1.5,12-4.6s4.3-7.4,4.3-12.8v-30c0-5.5-1.5-9.8-4.3-12.9s-6.9-4.7-12-4.7-9.1,1.6-12,4.7-4.3,7.4-4.3,12.9v30c0,5.4,1.5,9.7,4.3,12.8S337.3,176.2,342.4,176.2Z" fill="#fff"/><path d="M398.8,182.4a27.4,27.4,0,0,1-8.4-1.4,26.2,26.2,0,0,1-7.8-4,21.3,21.3,0,0,1-5.6-6.7,18.7,18.7,0,0,1-2.1-9,25,25,0,0,1,.7-5.4,29.4,29.4,0,0,1,1.8-5.5L388.9,123a34.7,34.7,0,0,1,9.1-13.3c3.6-3.1,8.3-4.6,14.1-4.6s10.7,1.6,14.3,4.7a35.2,35.2,0,0,1,8.9,13.2l11.5,27.4a23.2,23.2,0,0,1,1.7,5.5,24.8,24.8,0,0,1,.6,5.4,19,19,0,0,1-1.9,8.6,19.5,19.5,0,0,1-5.2,6.6,26.1,26.1,0,0,1-7.6,4.4,27.1,27.1,0,0,1-9.1,1.5,19.5,19.5,0,0,1-7.2-1.3,17.8,17.8,0,0,1-6.1-3.8,19.5,19.5,0,0,1-6.1,3.8A18.7,18.7,0,0,1,398.8,182.4Z" stroke="#000" stroke-miterlimit="10" stroke-width="2"/><path d="M398.8,176.2a13.9,13.9,0,0,0,5-.9,12.2,12.2,0,0,0,4.1-2.7,21.5,21.5,0,0,1-1.4-2.6,23.9,23.9,0,0,1-1.3-2.8l-5.1-12.1a2.8,2.8,0,0,1,.3-3.1,3.1,3.1,0,0,1,2.6-1.2h11.3l-4.6-11a2.8,2.8,0,0,1,.4-3.2,3.2,3.2,0,0,1,2.8-1.2,2.6,2.6,0,0,1,2.5,2l6.5,15.3a3.2,3.2,0,0,1,0,3,3.1,3.1,0,0,1-2.8,1.3H407.6l3.3,7.8a21.2,21.2,0,0,0,6,8.6,13.1,13.1,0,0,0,8.4,2.8,20.1,20.1,0,0,0,8.2-1.7,16.7,16.7,0,0,0,6.7-5,12.5,12.5,0,0,0,2.7-8.2,16,16,0,0,0-.5-4.2,30.6,30.6,0,0,0-1.3-4.3l-11.5-27.4c-2.1-5-4.5-8.7-7.2-10.9a16.1,16.1,0,0,0-10.3-3.3,15.7,15.7,0,0,0-10.3,3.3c-2.6,2.2-5,5.9-7.2,10.9l-11.5,27.4a22.3,22.3,0,0,0-1.9,8.5,12.7,12.7,0,0,0,1.8,6.9,13.2,13.2,0,0,0,4.5,4.6,17.8,17.8,0,0,0,5.8,2.6A18.8,18.8,0,0,0,398.8,176.2Z" fill="#fff"/></g></g></svg>