<svg xmlns="http://www.w3.org/2000/svg" viewBox="0 0 543.9 201.2"><title>Gitman</title><g id="Layer_2" data-name="Layer 2"><g id="Layer_1-2" data-name="Layer 1"><path d="M80.9,96.2c-5.9,0-10.6-1.7-14.2-4.9a19.8,19.8,0,0,1-6.4-13.2,40.2,40.2,0,0,1-18.7-6A34.2,34.2,0,0,1,29.5,58.9a41.8,41.8,0,0,1-4.2-19.2c0-8,1.7-15,5.1-20.8A33.5,33.5,0,0,1,44.5,5.6C50.6,2.5,57.6,1,65.8,1h9.6c7.9,0,14.1,2.1,18.7,6.2s6.9,9.8,6.9,17a22.6,22.6,0,0,1-5.6,15.6,22.4,22.4,0,0,1,4.5,7.7,26.4,26.4,0,0,1,1.7,9.9v17c0,6.7-1.8,12-5.5,15.9S87.3,96.2,80.9,96.2Z" stroke="#000" stroke-miterlimit="10" stroke-width="2"/><path d="M80.9,90a19.8,19.8,0,0,0,6.7-1.2,11.3,11.3,0,0,0,5.6-4.6c1.5-2.3,2.3-5.6,2.3-9.9V57.4c0-5.9-1.6-10.5-4.9-13.7a25.2,25.2,0,0,1-13.4,3.5H63.1c-1.9,0-2.9-1-2.9-3.1V35.2a2.9,2.9,0,0,1,.9-2.2,3.1,3.1,0,0,1,2.2-.9,2.9,2.9,0,0,1,2.1.9,2.9,2.9,0,0,1,.9,2.2V41H77.2c5.2,0,9.5-1.5,12.7-4.5s4.9-7.1,4.9-12.3-1.7-10-5.2-12.8S81.3,7.2,75,7.2H65.7q-10.7,0-18.3,3.9A27.5,27.5,0,0,0,35.6,22.2c-2.8,4.9-4.1,10.7-4.1,17.5a35.8,35.8,0,0,0,3.4,16,27.7,27.7,0,0,0,9.8,11.1A35.6,35.6,0,0,0,60.2,72V64.9a2.9,2.9,0,0,1,.9-2.1,3.1,3.1,0,0,1,2.2-.9,3.1,3.1,0,0,1,3,3v9.4c0,4.3.8,7.6,2.3,9.9a11.7,11.7,0,0,0,5.6,4.6A19.8,19.8,0,0,0,80.9,90Z" fill="#fff"/><path d="M135.7,78.3c-6.8,0-12.2-2.1-16.3-6.5s-6.1-10-6.1-17.1V24.8c0-7.2,2-13,6.1-17.3S128.9,1,135.7,1,148,3.2,152.1,7.5s6.1,10.1,6.1,17.3V54.7c0,7.1-2,12.8-6.1,17.1S142.6,78.3,135.7,78.3Z" stroke="#000" stroke-miterlimit="10" stroke-width="2"/><path d="M135.7,72.2c5.2,0,9.2-1.6,12-4.7s4.3-7.4,4.3-12.8V24.8c0-5.5-1.4-9.8-4.3-13s-6.8-4.6-12-4.6-9,1.5-11.9,4.6-4.3,7.5-4.3,13V54.7c0,5.4,1.4,9.7,4.3,12.8S130.7,72.2,135.7,72.2Z" fill="#fff"/><path d="M206.9,78.3c-6.8,0-12.2-2.1-16.3-6.5s-6.1-10-6.1-17.2V42.4c-5.5-.9-9.9-3.2-13-6.9a19.9,19.9,0,0,1-4.7-13.6c0-6.3,2.1-11.4,6.4-15.2S183.2,1,190.4,1h32.8c7.2,0,12.9,1.9,17.3,5.7s6.5,8.9,6.5,15.2a21.2,21.2,0,0,1-2.2,9.6,18.4,18.4,0,0,1-6,7,26.6,26.6,0,0,1-9.4,3.9V54.6c0,7.2-2.1,12.9-6.1,17.2S213.7,78.3,206.9,78.3Z" stroke="#000" stroke-miterlimit="10" stroke-width="2"/><path d="M206.9,72.2c5.1,0,9.1-1.6,12-4.7s4.3-7.4,4.3-12.9v-15a3.1,3.1,0,0,1,.8-2.2,3.7,3.7,0,0,1,1.9-.9c4.8-.6,8.5-2.1,11-4.5s3.8-5.8,3.8-10.1a13.6,13.6,0,0,0-4.6-10.8q-4.7-3.9-12.9-3.9H190.4q-8.2,0-12.9,3.9a13.6,13.6,0,0,0-4.6,10.8,13.6,13.6,0,0,0,4.6,10.8q4.6,3.9,12.9,3.9h14.5a3,3,0,0,1,2.2,1,2.9,2.9,0,0,1,.9,2.1,3.1,3.1,0,0,1-3.1,3.1H190.6V54.6c0,5.5,1.5,9.8,4.4,12.9S201.9,72.2,206.9,72.2Z" fill="#fff"/><path d="M272.5,78.3a25.8,25.8,0,0,1-11.7-2.7,22,22,0,0,1-8.8-7.4,18,18,0,0,1-3.4-11,24.8,24.8,0,0,1,.6-5.4,43,43,0,0,1,1.7-5.5l11.6-27.4c2.4-5.8,5.4-10.2,9-13.3S279.9,1,285.7,1a22,22,0,0,1,15.5,5.9,22,22,0,0,1,6.5-4.4A20.1,20.1,0,0,1,315.5,1c6,0,10.8,1.6,14.3,4.7a35.2,35.2,0,0,1,8.9,13.2l11.5,27.4a25.2,25.2,0,0,1,1.8,5.5,24.8,24.8,0,0,1,.6,5.4,19.3,19.3,0,0,1-3.4,11.2,21.7,21.7,0,0,1-8.8,7.3,25.6,25.6,0,0,1-11.6,2.6,20.1,20.1,0,0,1-7-1.1,18.8,18.8,0,0,1-5.9-3.2,21.6,21.6,0,0,1-13.7,4.3,24.6,24.6,0,0,1-8.8-1.4,22.1,22.1,0,0,1-7-4.3,17.9,17.9,0,0,1-6.3,4.2A19.4,19.4,0,0,1,272.5,78.3Z" stroke="#000" stroke-miterlimit="10" stroke-width="2"/><path d="M272.5,72.2a12.5,12.5,0,0,0,8-2.7,19.8,19.8,0,0,0,5.8-7.7l-5.9-14.2q-.9-2.1.3-3.3a3.9,3.9,0,0,1,2.9-1.1,2.9,2.9,0,0,1,2.5,2l6.5,15.5a2.4,2.4,0,0,1,0,2.3,27.2,27.2,0,0,1-1.1,2.5l-1.2,2.2a13.1,13.1,0,0,0,5.1,3.4,20.2,20.2,0,0,0,6.8,1.1,16.7,16.7,0,0,0,7.3-1.5,14,14,0,0,0,5.6-4.5,32.8,32.8,0,0,0,4.6-8.2l5.2-12.6a3.2,3.2,0,0,1,2.6-2.1,3.8,3.8,0,0,1,2.8,1.2c.8.8.8,2,.3,3.4l-5.2,12.5a39.8,39.8,0,0,1-2.4,5.1,24.2,24.2,0,0,1-2.7,4.1,16.2,16.2,0,0,0,4,1.9,13.3,13.3,0,0,0,4.5.7,20.3,20.3,0,0,0,5.6-.9,20.6,20.6,0,0,0,5.7-2.5,13.5,13.5,0,0,0,4.5-4.7,12.7,12.7,0,0,0,1.8-6.9,21.8,21.8,0,0,0-.5-4.3,23.9,23.9,0,0,0-1.4-4.3L333,21.2q-3.2-7.5-7.2-10.8c-2.7-2.2-6.1-3.2-10.3-3.2a13.7,13.7,0,0,0-8.2,2.5,21.1,21.1,0,0,0-5.9,7.8l6.1,14.2c.5,1.4.4,2.5-.4,3.2a3.9,3.9,0,0,1-3,1.1,2.8,2.8,0,0,1-2.4-1.9l-6.5-15.5a3.3,3.3,0,0,1,0-2.4l1.1-2.3,1.1-2a16.2,16.2,0,0,0-5.2-3.6,16.7,16.7,0,0,0-6.5-1.1c-4.2,0-7.6,1-10.3,3.2s-5.1,5.8-7.2,10.8L256.6,48.6a23.5,23.5,0,0,0-1.3,4.3,16.3,16.3,0,0,0-.5,4.3,13.6,13.6,0,0,0,1.7,6.9,15.6,15.6,0,0,0,4.5,4.7,21.8,21.8,0,0,0,5.9,2.5A19.7,19.7,0,0,0,272.5,72.2Z" fill="#fff"/><path d="M383.6,78.3a27.2,27.2,0,0,1-8.4-1.3,27.7,27.7,0,0,1-7.8-4.1,20.3,20.3,0,0,1-5.6-6.7,18.7,18.7,0,0,1-2.1-9,21.1,21.1,0,0,1,.7-5.4,43,43,0,0,1,1.7-5.5l11.6-27.4c2.4-5.8,5.4-10.2,9.1-13.3S391.1,1,396.9,1s10.7,1.6,14.3,4.7a35.2,35.2,0,0,1,8.9,13.2l11.4,27.4a32,32,0,0,1,1.8,5.5,25.9,25.9,0,0,1,.5,5.4,20.1,20.1,0,0,1-1.8,8.6,19.8,19.8,0,0,1-5.2,6.6,25.2,25.2,0,0,1-7.6,4.4,27.6,27.6,0,0,1-9.1,1.5,20.9,20.9,0,0,1-7.2-1.2,18.4,18.4,0,0,1-6.1-3.8,22.6,22.6,0,0,1-6.1,3.7A19,19,0,0,1,383.6,78.3Z" stroke="#000" stroke-miterlimit="10" stroke-width="2"/><path d="M383.6,72.2a13.6,13.6,0,0,0,9.1-3.7L391.2,66a21.4,21.4,0,0,1-1.2-2.8L384.9,51a3,3,0,0,1,.2-3.1,3.3,3.3,0,0,1,2.7-1.1h11.3l-4.6-11a3,3,0,0,1,.4-3.3,3.6,3.6,0,0,1,2.8-1.2,2.7,2.7,0,0,1,2.5,2l6.5,15.3a2.9,2.9,0,0,1-2.9,4.3H392.4l3.3,7.8a21.2,21.2,0,0,0,6,8.6,13.2,13.2,0,0,0,8.4,2.9,21.4,21.4,0,0,0,8.1-1.7,18,18,0,0,0,6.8-5,12.7,12.7,0,0,0,2.7-8.3,21.8,21.8,0,0,0-.5-4.2,23.9,23.9,0,0,0-1.4-4.3L414.4,21.3c-2.1-5-4.6-8.6-7.3-10.8a17.6,17.6,0,0,0-20.5,0q-4.1,3.3-7.2,10.8L367.8,48.7a35.2,35.2,0,0,0-1.3,4.3,16,16,0,0,0-.5,4.2,13.6,13.6,0,0,0,1.7,6.9,15.6,15.6,0,0,0,4.5,4.7,22.6,22.6,0,0,0,5.8,2.5A19.7,19.7,0,0,0,383.6,72.2Z" fill="#fff"/><path d="M466.8,78.3c-7.1,0-12.7-2.1-16.7-6.3S444,61.9,444,54.6V24.4c0-7,1.9-12.7,5.7-17S459,1,465.9,1a23.6,23.6,0,0,1,7.2,1.1,22,22,0,0,1,6.6,3.7,21.1,21.1,0,0,1,6.8-3.6A28.2,28.2,0,0,1,494.8,1c7.2,0,12.8,2.1,16.9,6.4s6.1,10,6.1,17.4V54.9q0,10.6-6,17.1t-15.9,6.3a21.1,21.1,0,0,1-7.3-1.1,21.6,21.6,0,0,1-6.6-3.6,21.9,21.9,0,0,1-6.8,3.5A28,28,0,0,1,466.8,78.3Z" stroke="#000" stroke-miterlimit="10" stroke-width="2"/><path d="M466.8,72.2a18.9,18.9,0,0,0,6-.9,15.3,15.3,0,0,0,4.8-2.3,29.6,29.6,0,0,1-2.6-3.7l-2.7-4.5-7.1-12.6c-.7-1.2-.8-2.2-.1-3.1a3.7,3.7,0,0,1,2.8-1.6,2.6,2.6,0,0,1,2.8,1.6L478,57.8a58.6,58.6,0,0,0,5.8,8.5,14.1,14.1,0,0,0,5.5,4.5,15.3,15.3,0,0,0,6.6,1.4c5.2,0,9.1-1.6,11.8-4.7s3.9-7.3,3.9-12.6V24.8c0-5.5-1.4-9.8-4.3-13s-7.1-4.6-12.5-4.6A17.9,17.9,0,0,0,484,10.3c.8,1.1,1.7,2.3,2.5,3.6l2.8,4.5L496.5,31a2.6,2.6,0,0,1,.1,3.2,4,4,0,0,1-2.7,1.7,2.9,2.9,0,0,1-2.9-1.7l-7.2-12.6a56.6,56.6,0,0,0-5.8-8.7,16.6,16.6,0,0,0-5.5-4.4,15.6,15.6,0,0,0-6.6-1.3c-5.2,0-9.1,1.5-11.8,4.7s-4,7.3-4,12.5V54.6c0,5.4,1.5,9.7,4.4,12.8S461.5,72.2,466.8,72.2Z" fill="#fff"/><path d="M38,182.4c-6,0-10.7-1.6-14.3-4.8a35.6,35.6,0,0,1-8.9-13.1L3.3,137.1a38.6,38.6,0,0,1-1.7-5.5,24.8,24.8,0,0,1-.6-5.4,19.9,19.9,0,0,1,1.8-8.5A18.7,18.7,0,0,1,7.9,111a21.6,21.6,0,0,1,7.5-4.4,28.5,28.5,0,0,1,9.4-1.5,19.5,19.5,0,0,1,7.2,1.3,23,23,0,0,1,6.1,3.8,20.5,20.5,0,0,1,7.2-3.8,28.4,28.4,0,0,1,8.2-1.3,24.5,24.5,0,0,1,11.1,2.4,18.8,18.8,0,0,1,7.6,7.2A21.5,21.5,0,0,1,75,126.2a23.8,23.8,0,0,1-.5,5.3,25.5,25.5,0,0,1-1.7,5.6L61.2,164.5a41.3,41.3,0,0,1-5.6,9.8,21.7,21.7,0,0,1-7.5,6.1A23.9,23.9,0,0,1,38,182.4Z" stroke="#000" stroke-miterlimit="10" stroke-width="2"/><path d="M38,176.2a17,17,0,0,0,7.3-1.4,14.3,14.3,0,0,0,5.6-4.6,32,32,0,0,0,4.7-8.1l11.5-27.4a24.4,24.4,0,0,0,1.3-4.4,19.9,19.9,0,0,0,.5-4.1,16.7,16.7,0,0,0-1.8-7.9,13.9,13.9,0,0,0-5.3-5.2,17.8,17.8,0,0,0-8.3-1.9,20.8,20.8,0,0,0-6,1A13,13,0,0,0,42,115a14.3,14.3,0,0,1,1.6,2.4c.4.9.9,1.8,1.3,2.9l6.5,15.5a2.3,2.3,0,0,1-.4,3,3.6,3.6,0,0,1-2.9,1.3,2.6,2.6,0,0,1-2.4-1.9l-6.5-15.5a20.9,20.9,0,0,0-6-8.7,13.7,13.7,0,0,0-8.4-2.8,19.5,19.5,0,0,0-9.8,2.3,16.2,16.2,0,0,0-5.9,5.7,13.7,13.7,0,0,0-1.9,7,14.8,14.8,0,0,0,.5,4.1A24.4,24.4,0,0,0,9,134.7l11.5,27.4q3.2,7.5,7.2,10.8A15.9,15.9,0,0,0,38,176.2Z" fill="#fff"/><path d="M107.5,182.4c-6.8,0-12.3-2.2-16.4-6.5s-6.1-10-6.1-17.1v-30c0-7.2,2.1-12.9,6.1-17.2s9.6-6.5,16.4-6.5,12.2,2.1,16.3,6.5,6.1,10,6.1,17.2v30c0,7.1-2,12.8-6.1,17.1S114.3,182.4,107.5,182.4Z" stroke="#000" stroke-miterlimit="10" stroke-width="2"/><path d="M107.5,176.2c5.1,0,9.1-1.5,12-4.6s4.3-7.4,4.3-12.8v-30c0-5.5-1.5-9.8-4.3-12.9s-6.9-4.7-12-4.7-9.1,1.6-12,4.7-4.3,7.4-4.3,12.9v30c0,5.4,1.4,9.7,4.3,12.8S102.4,176.2,107.5,176.2Z" fill="#fff"/><path d="M164.7,182.4c-7.1,0-12.7-2.1-16.8-6.4s-6.1-10-6.1-17.4V128.5c0-7,1.9-12.7,5.8-17s9.2-6.4,16.1-6.4a20.9,20.9,0,0,1,7.2,1.1,22,22,0,0,1,6.6,3.7,20.6,20.6,0,0,1,6.9-3.6,27.1,27.1,0,0,1,8.2-1.2c7.2,0,12.8,2.1,16.9,6.4s6.1,10,6.1,17.3V159c0,7.1-2,12.8-5.9,17s-9.3,6.4-16,6.4a23.6,23.6,0,0,1-7.2-1.1,21.6,21.6,0,0,1-6.6-3.6,22.4,22.4,0,0,1-6.9,3.5A27.3,27.3,0,0,1,164.7,182.4Z" stroke="#000" stroke-miterlimit="10" stroke-width="2"/><path d="M164.7,176.2a19,19,0,0,0,6-.8,15.3,15.3,0,0,0,4.8-2.3,26.8,26.8,0,0,1-2.6-3.7l-2.7-4.5L163,152.3a2.7,2.7,0,0,1,0-3.2,4.2,4.2,0,0,1,2.8-1.6,2.5,2.5,0,0,1,2.7,1.7l7.3,12.6a70,70,0,0,0,5.8,8.6,17.1,17.1,0,0,0,5.5,4.5,15.3,15.3,0,0,0,6.6,1.3c5.2,0,9.1-1.5,11.8-4.6s3.9-7.3,3.9-12.6V128.8c0-5.5-1.4-9.8-4.3-12.9s-7.1-4.7-12.5-4.7a18.4,18.4,0,0,0-10.8,3.2c.8,1.1,1.7,2.2,2.6,3.6s1.8,2.8,2.7,4.5l7.3,12.6a2.7,2.7,0,0,1,0,3.2,3.8,3.8,0,0,1-2.7,1.6,2.6,2.6,0,0,1-2.8-1.6l-7.3-12.7a52.9,52.9,0,0,0-5.8-8.6,15.5,15.5,0,0,0-5.5-4.4,15.3,15.3,0,0,0-6.6-1.4c-5.1,0-9.1,1.6-11.7,4.8s-4,7.3-4,12.5v30.1c0,5.5,1.4,9.8,4.3,12.9S159.3,176.2,164.7,176.2Z" fill="#fff"/><path d="M264.3,182.4c-6.8,0-12.2-2.2-16.3-6.5s-6.1-10.1-6.1-17.3V146.4a20.4,20.4,0,0,1-13-6.8,20.6,20.6,0,0,1-4.7-13.6c0-6.3,2.1-11.4,6.4-15.2s10-5.7,17.2-5.7h32.8c7.2,0,13,1.9,17.3,5.7s6.5,8.9,6.5,15.2a20,20,0,0,1-2.2,9.6,18.4,18.4,0,0,1-6,7,24.8,24.8,0,0,1-9.4,3.8v12.2c0,7.2-2.1,13-6.1,17.3S271.2,182.4,264.3,182.4Z" stroke="#000" stroke-miterlimit="10" stroke-width="2"/><path d="M264.3,176.2c5.2,0,9.2-1.5,12-4.6s4.3-7.5,4.3-13V143.7a2.9,2.9,0,0,1,.8-2.2,3.7,3.7,0,0,1,2-.9c4.7-.6,8.4-2.1,10.9-4.6s3.8-5.8,3.8-10-1.5-8.3-4.6-10.9-7.4-3.9-12.9-3.9H247.8c-5.5,0-9.8,1.3-12.8,3.9s-4.7,6.3-4.7,10.9a13.4,13.4,0,0,0,4.7,10.8c3,2.6,7.3,3.9,12.8,3.9h14.6a2.8,2.8,0,0,1,2.2,1,3.2,3.2,0,0,1,.8,2.1,3.3,3.3,0,0,1-.8,2.2,3.1,3.1,0,0,1-2.2.9H248.1v11.7c0,5.5,1.4,9.9,4.3,13S259.3,176.2,264.3,176.2Z" fill="#fff"/><path d="M330,182.4a27.4,27.4,0,0,1-8.4-1.4,26.2,26.2,0,0,1-7.8-4,21.3,21.3,0,0,1-5.6-6.7,18.7,18.7,0,0,1-2.1-9,25,25,0,0,1,.7-5.4,29.4,29.4,0,0,1,1.8-5.5L320.1,123a34.7,34.7,0,0,1,9.1-13.3c3.6-3.1,8.3-4.6,14.1-4.6s10.7,1.6,14.3,4.7a35.2,35.2,0,0,1,8.9,13.2L378,150.4a23.2,23.2,0,0,1,1.7,5.5,24.8,24.8,0,0,1,.6,5.4,19,19,0,0,1-1.9,8.6,19.5,19.5,0,0,1-5.2,6.6,27.4,27.4,0,0,1-7.6,4.4,27.1,27.1,0,0,1-9.1,1.5,19.2,19.2,0,0,1-7.2-1.3,17.8,17.8,0,0,1-6.1-3.8,19.5,19.5,0,0,1-6.1,3.8A18.7,18.7,0,0,1,330,182.4Z" stroke="#000" stroke-miterlimit="10" stroke-width="2"/><path d="M330,176.2a13.9,13.9,0,0,0,5-.9,12.2,12.2,0,0,0,4.1-2.7,21.5,21.5,0,0,1-1.4-2.6,23.9,23.9,0,0,1-1.3-2.8l-5.1-12.1a3,3,0,0,1,.2-3.1,3.4,3.4,0,0,1,2.7-1.2h11.3l-4.6-11a2.8,2.8,0,0,1,.4-3.2,3.2,3.2,0,0,1,2.8-1.2,2.6,2.6,0,0,1,2.5,2l6.5,15.3a3.2,3.2,0,0,1,0,3,3.1,3.1,0,0,1-2.9,1.3H338.8l3.3,7.8a21.2,21.2,0,0,0,6,8.6,13.1,13.1,0,0,0,8.4,2.8,20.4,20.4,0,0,0,8.2-1.7,16.7,16.7,0,0,0,6.7-5,12.5,12.5,0,0,0,2.7-8.2,16,16,0,0,0-.5-4.2,21.6,21.6,0,0,0-1.4-4.3l-11.4-27.4c-2.1-5-4.5-8.7-7.3-10.9a17.6,17.6,0,0,0-20.5,0c-2.6,2.2-5,5.9-7.2,10.9l-11.5,27.4a22.3,22.3,0,0,0-1.9,8.5,12.7,12.7,0,0,0,1.8,6.9,12.4,12.4,0,0,0,4.5,4.6,17.8,17.8,0,0,0,5.8,2.6A18.8,18.8,0,0,0,330,176.2Z" fill="#fff"/><path d="M442.6,200.2q-8.7,0-14.1-4.8a19.8,19.8,0,0,1-6.4-13.2,42.6,42.6,0,0,1-18.7-6,34.5,34.5,0,0,1-12.1-13.3,41.4,41.4,0,0,1-4.2-19.1c0-8.1,1.7-15,5.1-20.8a33,33,0,0,1,14.1-13.3c6-3.1,13.1-4.6,21.3-4.6h9.5c8,0,14.2,2,18.8,6.2s6.9,9.8,6.9,17a22.8,22.8,0,0,1-5.6,15.6,22.9,22.9,0,0,1,4.5,7.6,27.3,27.3,0,0,1,1.7,10v16.9c0,6.8-1.8,12.1-5.5,16S449.1,200.2,442.6,200.2Z" stroke="#000" stroke-miterlimit="10" stroke-width="2"/><path d="M442.6,194.1a19.9,19.9,0,0,0,6.8-1.2,12,12,0,0,0,5.6-4.7c1.5-2.2,2.3-5.5,2.3-9.9V161.5c0-5.9-1.6-10.5-4.9-13.7a25.2,25.2,0,0,1-13.4,3.5H424.9c-1.9,0-2.9-1.1-2.9-3.1v-8.9a2.9,2.9,0,0,1,.9-2.2,2.9,2.9,0,0,1,2.1-.9,3.1,3.1,0,0,1,3.1,3.1v5.8H439c5.2,0,9.5-1.5,12.7-4.5s4.9-7.1,4.9-12.3-1.7-10-5.2-12.8-8.3-4.3-14.6-4.3h-9.3c-7.1,0-13.3,1.3-18.3,3.9a27.8,27.8,0,0,0-11.8,11.2c-2.8,4.8-4.1,10.7-4.1,17.5a35.1,35.1,0,0,0,3.4,15.9,26.6,26.6,0,0,0,9.8,11.2A35.5,35.5,0,0,0,422,176v-7a3.1,3.1,0,0,1,3-3,2.9,2.9,0,0,1,2.2.9,2.9,2.9,0,0,1,.9,2.1v9.3c0,4.4.8,7.7,2.3,9.9a12,12,0,0,0,5.6,4.7A19.2,19.2,0,0,0,442.6,194.1Z" fill="#fff"/><path d="M500.2,182.4q-11.8,0-18.9-5.7c-4.6-3.7-7-9.2-7-16.3a26.7,26.7,0,0,1,1.5-8.8,27.7,27.7,0,0,1,3.9-7.9,41.1,41.1,0,0,1-3.9-8.2,24.7,24.7,0,0,1-1.5-8.3c0-7.3,2.4-12.9,7.1-16.6s11-5.5,18.8-5.5h21.5c6.7,0,11.9,1.4,15.5,4.3s5.5,7.3,5.5,13.3-2.3,10.2-7,13a12.1,12.1,0,0,1,1.8,3.8,18.6,18.6,0,0,1,.5,4.2,15,15,0,0,1-2.4,8.1,14.2,14.2,0,0,1,5.3,5.3,15.1,15.1,0,0,1,2,7.8c0,5.9-1.9,10.3-5.8,13.2s-8.8,4.3-15.1,4.3Z" stroke="#000" stroke-miterlimit="10" stroke-width="2"/><path d="M500.2,176.2H522q6.4,0,9.6-1.8a9,9,0,0,0,4.1-4.4,16.1,16.1,0,0,0,.9-5.1,8.8,8.8,0,0,0-2.9-6.9c-1.9-1.6-4.5-2.4-7.9-2.4a35.1,35.1,0,0,0-9.3.9,19.5,19.5,0,0,1-5.1.9,2.7,2.7,0,0,1-2.5-1.2,3,3,0,0,1-.4-2.6,2.7,2.7,0,0,1,2-2,45.2,45.2,0,0,1,7.3-1.6,51.9,51.9,0,0,1,8-.6h3.4a7.6,7.6,0,0,0,2.7-5.9,8.7,8.7,0,0,0-.6-3.2,8.3,8.3,0,0,0-1.9-2.6h-3.5a74.3,74.3,0,0,1-7.8-.5,49.5,49.5,0,0,1-7.7-1.6,2.7,2.7,0,0,1-2-2,3.3,3.3,0,0,1,.4-2.7,3,3,0,0,1,2.5-1.3,25,25,0,0,1,5,1,39.9,39.9,0,0,0,9.6.9c3.4,0,6-.8,7.9-2.6a8.4,8.4,0,0,0,2.8-6.6,16.1,16.1,0,0,0-.9-5.1,9.7,9.7,0,0,0-4.1-4.5c-2-1.2-5.2-1.9-9.6-1.9H500.2c-6.2,0-11,1.4-14.5,4s-5.2,6.7-5.2,12a22,22,0,0,0,1.4,7.4,29.4,29.4,0,0,0,4,7.1,3.3,3.3,0,0,1,0,4,29.3,29.3,0,0,0-3.9,6.9,20.8,20.8,0,0,0-1.5,7.8c0,5.4,1.8,9.3,5.3,11.9S494.2,176.2,500.2,176.2Z" fill="#fff"/></g></g></svg>