<svg xmlns="http://www.w3.org/2000/svg" viewBox="0 0 544.9 202.2"><title>GitmanVintage</title><g id="Layer_2" data-name="Layer 2"><g id="Layer_1-2" data-name="Layer 1"><path d="M81.4,96.7c-5.9,0-10.6-1.7-14.2-4.9a19.8,19.8,0,0,1-6.4-13.2,40.2,40.2,0,0,1-18.7-6A34.2,34.2,0,0,1,30,59.4a41.8,41.8,0,0,1-4.2-19.2c0-8,1.7-15,5.1-20.8A33.5,33.5,0,0,1,45,6.1C51.1,3,58.1,1.5,66.3,1.5h9.6c7.9,0,14.1,2.1,18.7,6.2s6.9,9.8,6.9,17a22.6,22.6,0,0,1-5.6,15.6,22.4,22.4,0,0,1,4.5,7.7,26.4,26.4,0,0,1,1.7,9.9v17c0,6.7-1.8,12-5.5,15.9S87.8,96.7,81.4,96.7Z" stroke="#000" stroke-miterlimit="10" stroke-width="3"/><path d="M81.4,90a18.2,18.2,0,0,1-6.5-1.2,10.9,10.9,0,0,1-5.4-4.4c-1.4-2.2-2.2-5.4-2.2-9.6V65.4A2.9,2.9,0,0,0,66.2,63a3.4,3.4,0,0,0-2.4-1.1A3.4,3.4,0,0,0,61.3,63a2.9,2.9,0,0,0-1.1,2.4v6.5a35.1,35.1,0,0,1-14.7-5,27.9,27.9,0,0,1-9.7-11,35.5,35.5,0,0,1-3.3-15.7c0-6.7,1.3-12.5,4-17.2A27.4,27.4,0,0,1,48.1,12,40.3,40.3,0,0,1,66.2,8.2h9.3c6.1,0,10.9,1.3,14.3,4.1s5,6.9,5,12.4-1.6,9.1-4.7,12S82.8,41,77.7,41H67.3V35.7a3.3,3.3,0,0,0-1.1-2.6,3.7,3.7,0,0,0-2.4-1,3.7,3.7,0,0,0-2.5,1,3.3,3.3,0,0,0-1.1,2.6v8.9c0,2.4,1.2,3.6,3.4,3.6H77.7a25.4,25.4,0,0,0,13.4-3.4c2.9,3.1,4.4,7.5,4.4,13.1V74.8c0,4.2-.7,7.4-2.2,9.6A10.6,10.6,0,0,1,88,88.8,19.2,19.2,0,0,1,81.4,90Z" fill="#fff"/><path d="M136.2,78.8c-6.8,0-12.2-2.1-16.3-6.5s-6.1-10-6.1-17.1V25.3c0-7.2,2-13,6.1-17.3s9.5-6.5,16.3-6.5S148.5,3.7,152.6,8s6.1,10.1,6.1,17.3V55.2c0,7.1-2,12.8-6.1,17.1S143.1,78.8,136.2,78.8Z" stroke="#000" stroke-miterlimit="10" stroke-width="3"/><path d="M136.2,72.2c-4.8,0-8.7-1.5-11.5-4.5s-4.2-7.2-4.2-12.5V25.3q0-8.1,4.2-12.6c2.8-3,6.7-4.5,11.5-4.5s8.9,1.5,11.7,4.5,4.1,7.2,4.1,12.6V55.2c0,5.3-1.4,9.5-4.1,12.5S141.2,72.2,136.2,72.2Z" fill="#fff"/><path d="M207.4,78.8c-6.8,0-12.2-2.1-16.3-6.5s-6.1-10-6.1-17.2V42.9c-5.5-.9-9.9-3.2-13-6.9a19.9,19.9,0,0,1-4.7-13.6c0-6.3,2.1-11.4,6.4-15.2s10-5.7,17.2-5.7h32.8c7.2,0,12.9,1.9,17.3,5.7s6.5,8.9,6.5,15.2a21.2,21.2,0,0,1-2.2,9.6,18.4,18.4,0,0,1-6,7,26.6,26.6,0,0,1-9.4,3.9V55.1c0,7.2-2.1,12.9-6.1,17.2S214.2,78.8,207.4,78.8Z" stroke="#000" stroke-miterlimit="10" stroke-width="3"/><path d="M207.4,72.2c-4.9,0-8.8-1.5-11.6-4.5s-4.2-7.3-4.2-12.6V43.8h13.8a3.4,3.4,0,0,0,2.6-1,3.5,3.5,0,0,0,1-2.6,3.6,3.6,0,0,0-1-2.5,3.5,3.5,0,0,0-2.6-1.1H190.9c-5.3,0-9.6-1.2-12.5-3.7s-4.5-6.1-4.5-10.5,1.5-8,4.5-10.5,7.2-3.7,12.5-3.7h32.8c5.3,0,9.6,1.2,12.5,3.7s4.5,6.1,4.5,10.5-1.2,7.4-3.7,9.7-6,3.9-10.6,4.4a4.4,4.4,0,0,0-2.2,1,3.4,3.4,0,0,0-1,2.6v15c0,5.3-1.4,9.6-4.2,12.6S212.4,72.2,207.4,72.2Z" fill="#fff"/><path d="M273,78.8a25.8,25.8,0,0,1-11.7-2.7,22,22,0,0,1-8.8-7.4,18,18,0,0,1-3.4-11,24.8,24.8,0,0,1,.6-5.4,43,43,0,0,1,1.7-5.5L263,19.4c2.4-5.8,5.4-10.2,9-13.3s8.4-4.6,14.2-4.6a22,22,0,0,1,15.5,5.9A22,22,0,0,1,308.2,3,20.1,20.1,0,0,1,316,1.5c6,0,10.8,1.6,14.3,4.7a35.2,35.2,0,0,1,8.9,13.2l11.5,27.4a25.2,25.2,0,0,1,1.8,5.5,24.8,24.8,0,0,1,.6,5.4,19.3,19.3,0,0,1-3.4,11.2,21.7,21.7,0,0,1-8.8,7.3,25.6,25.6,0,0,1-11.6,2.6,20.1,20.1,0,0,1-7-1.1,18.8,18.8,0,0,1-5.9-3.2,21.6,21.6,0,0,1-13.7,4.3,24.6,24.6,0,0,1-8.8-1.4,22.1,22.1,0,0,1-7-4.3,17.9,17.9,0,0,1-6.3,4.2A19.4,19.4,0,0,1,273,78.8Z" stroke="#000" stroke-miterlimit="10" stroke-width="3"/><path d="M329.3,72.2a12.7,12.7,0,0,1-4.4-.7,14,14,0,0,1-3.3-1.5,42,42,0,0,0,2.4-3.8q1.2-2.4,2.4-5.1l5.1-12.5q1-2.4-.3-3.9a4.1,4.1,0,0,0-3-1.4h-.3c-1.3,0-2.2.8-2.9,2.3l-5.3,12.6a37.7,37.7,0,0,1-4.5,8.1,14.8,14.8,0,0,1-5.4,4.4,17.3,17.3,0,0,1-7.1,1.4,21.8,21.8,0,0,1-6.6-1,13.3,13.3,0,0,1-4.7-3.1c.3-.6.7-1.2,1-1.9a14.2,14.2,0,0,0,1.2-2.5,3.2,3.2,0,0,0,0-2.7l-6.5-15.5a3.4,3.4,0,0,0-2.9-2.3h-.3a4.1,4.1,0,0,0-3,1.2c-1,.9-1.1,2.3-.5,3.9l5.9,14a19.6,19.6,0,0,1-5.6,7.3,12.3,12.3,0,0,1-7.7,2.6,22.8,22.8,0,0,1-5.5-.8,20.9,20.9,0,0,1-5.7-2.6,12.9,12.9,0,0,1-4.3-4.4,11.9,11.9,0,0,1-1.7-6.7,16,16,0,0,1,.5-4.2,22.5,22.5,0,0,1,1.3-4.2l11.5-27.4c2.1-4.9,4.5-8.5,7.1-10.6s5.9-3.1,10-3.1a14.8,14.8,0,0,1,11.1,4.3l-.9,1.7c-.4.7-.7,1.5-1.1,2.3a3.4,3.4,0,0,0,0,2.8l6.5,15.5a3.1,3.1,0,0,0,2.8,2.2h.3a4.4,4.4,0,0,0,3-1.2c.7-.6,1.4-1.8.5-3.8l-5.9-14a19.8,19.8,0,0,1,5.6-7.4A13.4,13.4,0,0,1,316,8.2a15.5,15.5,0,0,1,10,3.1c2.7,2.1,5,5.7,7,10.6l11.6,27.4a33.8,33.8,0,0,1,1.3,4.2,21.8,21.8,0,0,1,.5,4.2,12.8,12.8,0,0,1-1.7,6.7,13.9,13.9,0,0,1-4.3,4.4,20.9,20.9,0,0,1-5.7,2.6A22.1,22.1,0,0,1,329.3,72.2Z" fill="#fff"/><path d="M384.1,78.8a27.2,27.2,0,0,1-8.4-1.3,27.7,27.7,0,0,1-7.8-4.1,20.3,20.3,0,0,1-5.6-6.7,18.7,18.7,0,0,1-2.1-9,21.1,21.1,0,0,1,.7-5.4,43,43,0,0,1,1.7-5.5l11.6-27.4c2.4-5.8,5.4-10.2,9.1-13.3s8.3-4.6,14.1-4.6,10.7,1.6,14.3,4.7a35.2,35.2,0,0,1,8.9,13.2L432,46.8a32,32,0,0,1,1.8,5.5,25.9,25.9,0,0,1,.5,5.4,20.1,20.1,0,0,1-1.8,8.6,19.8,19.8,0,0,1-5.2,6.6,25.2,25.2,0,0,1-7.6,4.4,27.6,27.6,0,0,1-9.1,1.5,20.9,20.9,0,0,1-7.2-1.2,18.4,18.4,0,0,1-6.1-3.8,22.6,22.6,0,0,1-6.1,3.7A19,19,0,0,1,384.1,78.8Z" stroke="#000" stroke-miterlimit="10" stroke-width="3"/><path d="M410.6,72.2a12.8,12.8,0,0,1-8.1-2.8,20.6,20.6,0,0,1-5.9-8.4l-3-7.1h10.7a3.5,3.5,0,0,0,3.2-1.5,3.3,3.3,0,0,0,.1-3.5l-6.5-15.3a3,3,0,0,0-2.9-2.3h-.1a4.1,4.1,0,0,0-3.1,1.4,3.3,3.3,0,0,0-.5,3.7l4.3,10.4H388.3a3.9,3.9,0,0,0-3.1,1.3,3.5,3.5,0,0,0-.3,3.6L390,63.8a25.5,25.5,0,0,0,1.3,2.9l1.3,2.3a18.3,18.3,0,0,1-3.8,2.3,11.9,11.9,0,0,1-4.7.9,21.4,21.4,0,0,1-5.4-.8,20.9,20.9,0,0,1-5.7-2.6,13.9,13.9,0,0,1-4.3-4.4,11.9,11.9,0,0,1-1.7-6.7,15.3,15.3,0,0,1,.5-4.1,22.5,22.5,0,0,1,1.3-4.2L380.4,22c2-4.9,4.4-8.5,7-10.7s5.9-3.1,10-3.1a15.2,15.2,0,0,1,9.9,3.1c2.6,2.2,5,5.8,7.1,10.7l11.5,27.4a33.8,33.8,0,0,1,1.3,4.2,20.8,20.8,0,0,1,.5,4.1,12.1,12.1,0,0,1-2.6,7.9,15.5,15.5,0,0,1-6.6,4.9A20.4,20.4,0,0,1,410.6,72.2Z" fill="#fff"/><path d="M467.3,78.8c-7.1,0-12.7-2.1-16.7-6.3s-6.1-10.1-6.1-17.4V24.9c0-7,1.9-12.7,5.7-17s9.3-6.4,16.2-6.4a23.6,23.6,0,0,1,7.2,1.1,22,22,0,0,1,6.6,3.7A21.1,21.1,0,0,1,487,2.7a28.2,28.2,0,0,1,8.3-1.2c7.2,0,12.8,2.1,16.9,6.4s6.1,10,6.1,17.4V55.4q0,10.6-6,17.1t-15.9,6.3a21.1,21.1,0,0,1-7.3-1.1,21.6,21.6,0,0,1-6.6-3.6,21.9,21.9,0,0,1-6.8,3.5A28,28,0,0,1,467.3,78.8Z" stroke="#000" stroke-miterlimit="10" stroke-width="3"/><path d="M496.4,72.2a15.9,15.9,0,0,1-6.4-1.3,15,15,0,0,1-5.3-4.4,58.6,58.6,0,0,1-5.8-8.5l-7.3-12.6a3.1,3.1,0,0,0-2.8-2h-.4a4.2,4.2,0,0,0-3.2,1.8,3.1,3.1,0,0,0,.1,3.7l7.1,12.6,2.7,4.5c.8,1.2,1.5,2.3,2.3,3.3a18.1,18.1,0,0,1-4.2,2,21,21,0,0,1-5.9.8c-5.1,0-9.2-1.6-12-4.6s-4.2-7.3-4.2-12.5V24.9c0-5,1.3-9.1,3.9-12.2s6.4-4.5,11.4-4.5a15.4,15.4,0,0,1,6.3,1.2,15.4,15.4,0,0,1,5.4,4.4,53.5,53.5,0,0,1,5.8,8.5L491.1,35a3.5,3.5,0,0,0,2.9,1.9h.4a4.5,4.5,0,0,0,3.1-1.9,3.1,3.1,0,0,0,0-3.7l-7.3-12.7c-.9-1.6-1.9-3.1-2.7-4.4L485.2,11a17.6,17.6,0,0,1,10.1-2.8c5.2,0,9.3,1.5,12.1,4.5s4.2,7.2,4.2,12.6V55.4c0,5.1-1.3,9.3-3.8,12.3S501.4,72.2,496.4,72.2Z" fill="#fff"/><path d="M38.5,182.9c-6,0-10.7-1.6-14.3-4.8a37.1,37.1,0,0,1-9-13.1L3.8,137.6a38.6,38.6,0,0,1-1.7-5.5,24.8,24.8,0,0,1-.6-5.4,19.9,19.9,0,0,1,1.8-8.5,18.7,18.7,0,0,1,5.1-6.7,21.6,21.6,0,0,1,7.5-4.4,28.5,28.5,0,0,1,9.4-1.5,19.5,19.5,0,0,1,7.2,1.3,23,23,0,0,1,6.1,3.8,20.5,20.5,0,0,1,7.2-3.8,28.4,28.4,0,0,1,8.2-1.3A24.5,24.5,0,0,1,65.1,108a18.8,18.8,0,0,1,7.6,7.2,21.5,21.5,0,0,1,2.8,11.5A23.8,23.8,0,0,1,75,132a25.5,25.5,0,0,1-1.7,5.6L61.7,165a41.3,41.3,0,0,1-5.6,9.8,21.7,21.7,0,0,1-7.5,6.1A23.9,23.9,0,0,1,38.5,182.9Z" stroke="#000" stroke-miterlimit="10" stroke-width="3"/><path d="M38.5,176.2a15.7,15.7,0,0,1-10-3.1c-2.6-2.2-5-5.8-7.1-10.7L10,135a35.9,35.9,0,0,1-1.4-4.3,18.7,18.7,0,0,1-.4-4,13.2,13.2,0,0,1,1.9-6.8,15.1,15.1,0,0,1,5.7-5.5,19.3,19.3,0,0,1,9.5-2.2,12.8,12.8,0,0,1,8.1,2.7c2.3,1.8,4.2,4.7,5.8,8.5l6.5,15.5a3,3,0,0,0,2.9,2.2,4.5,4.5,0,0,0,3.3-1.4,2.8,2.8,0,0,0,.4-3.6l-6.4-15.5c-.5-1.1-.9-2-1.4-2.9a15.9,15.9,0,0,0-1.3-2.2,13.6,13.6,0,0,1,5-2.3,19.1,19.1,0,0,1,5.8-1,16.6,16.6,0,0,1,8,1.8,11.4,11.4,0,0,1,5.1,5.1,15.3,15.3,0,0,1,1.8,7.6,19,19,0,0,1-.5,4,17.6,17.6,0,0,1-1.3,4.3L55.6,162.4a34.5,34.5,0,0,1-4.5,8,16.3,16.3,0,0,1-5.5,4.5A17.3,17.3,0,0,1,38.5,176.2Z" fill="#fff"/><path d="M108,182.9c-6.8,0-12.3-2.2-16.4-6.5s-6.1-10-6.1-17.1v-30c0-7.2,2.1-12.9,6.1-17.2s9.6-6.5,16.4-6.5,12.2,2.1,16.3,6.5,6.1,10,6.1,17.2v30c0,7.1-2,12.8-6.1,17.1S114.8,182.9,108,182.9Z" stroke="#000" stroke-miterlimit="10" stroke-width="3"/><path d="M108,176.2c-4.9,0-8.8-1.5-11.6-4.5s-4.2-7.2-4.2-12.4v-30c0-5.3,1.4-9.5,4.2-12.5s6.7-4.6,11.6-4.6,8.9,1.6,11.6,4.5,4.2,7.3,4.2,12.6v30c0,5.2-1.4,9.4-4.2,12.4S112.9,176.2,108,176.2Z" fill="#fff"/><path d="M165.2,182.9c-7.1,0-12.7-2.1-16.8-6.4s-6.1-10-6.1-17.4V129c0-7,1.9-12.7,5.8-17s9.2-6.4,16.1-6.4a20.9,20.9,0,0,1,7.2,1.1,22,22,0,0,1,6.6,3.7,20.6,20.6,0,0,1,6.9-3.6,27.1,27.1,0,0,1,8.2-1.2c7.2,0,12.8,2.1,16.9,6.4s6.1,10,6.1,17.3v30.2c0,7.1-2,12.8-5.9,17s-9.3,6.4-16,6.4a23.6,23.6,0,0,1-7.2-1.1,21.6,21.6,0,0,1-6.6-3.6,22.4,22.4,0,0,1-6.9,3.5A27.3,27.3,0,0,1,165.2,182.9Z" stroke="#000" stroke-miterlimit="10" stroke-width="3"/><path d="M194.2,176.2a13.3,13.3,0,0,1-11.7-5.6,76.3,76.3,0,0,1-5.8-8.5l-7.2-12.7a3.4,3.4,0,0,0-2.9-1.9h-.4a4.7,4.7,0,0,0-3.1,1.8,2.9,2.9,0,0,0,0,3.7l7.1,12.7,2.7,4.5c.8,1.2,1.5,2.3,2.3,3.3a13.5,13.5,0,0,1-4.2,1.9,17.7,17.7,0,0,1-5.8.8q-7.8,0-12-4.5T149,159.1V129c0-5.1,1.3-9.2,3.9-12.2s6.3-4.6,11.3-4.6a16.2,16.2,0,0,1,6.4,1.3,18.5,18.5,0,0,1,5.4,4.3,60.8,60.8,0,0,1,5.7,8.6l7.2,12.6a3.5,3.5,0,0,0,2.9,2h.4a3.9,3.9,0,0,0,3.1-1.8,3.1,3.1,0,0,0,0-3.8l-7.2-12.6-2.8-4.5-2.2-3.2a17.8,17.8,0,0,1,10-2.8c5.3,0,9.4,1.6,12.1,4.6s4.2,7.2,4.2,12.5v30.2c0,5.1-1.2,9.2-3.8,12.2S199.2,176.2,194.2,176.2Z" fill="#fff"/><path d="M264.8,182.9c-6.8,0-12.2-2.2-16.3-6.5s-6.1-10.1-6.1-17.3V146.9a20.4,20.4,0,0,1-13-6.8,20.6,20.6,0,0,1-4.7-13.6c0-6.3,2.1-11.4,6.4-15.2s10-5.7,17.2-5.7h32.8c7.2,0,13,1.9,17.3,5.7s6.5,8.9,6.5,15.2a20,20,0,0,1-2.2,9.6,18.4,18.4,0,0,1-6,7,24.8,24.8,0,0,1-9.4,3.8v12.2c0,7.2-2.1,13-6.1,17.3S271.7,182.9,264.8,182.9Z" stroke="#000" stroke-miterlimit="10" stroke-width="3"/><path d="M264.8,176.2c-4.9,0-8.7-1.5-11.5-4.5s-4.2-7.2-4.2-12.6V147.9h13.8a3.4,3.4,0,0,0,2.5-1.1,3.2,3.2,0,0,0,1-2.5,3.5,3.5,0,0,0-1-2.5,3.4,3.4,0,0,0-2.5-1.1H248.3c-5.3,0-9.5-1.3-12.5-3.8s-4.5-6-4.5-10.4,1.5-8,4.5-10.5,7.2-3.8,12.5-3.8h32.8c5.4,0,9.6,1.3,12.6,3.8s4.4,6,4.4,10.5-1.2,7.3-3.6,9.7-6.1,3.8-10.7,4.4a3.7,3.7,0,0,0-2.2,1,3.3,3.3,0,0,0-1,2.6v14.9c0,5.4-1.4,9.6-4.1,12.6S269.8,176.2,264.8,176.2Z" fill="#fff"/><path d="M330.5,182.9a27.4,27.4,0,0,1-8.4-1.4,26.2,26.2,0,0,1-7.8-4,21.3,21.3,0,0,1-5.6-6.7,18.7,18.7,0,0,1-2.1-9,25,25,0,0,1,.7-5.4,29.4,29.4,0,0,1,1.8-5.5l11.5-27.4a34.7,34.7,0,0,1,9.1-13.3c3.6-3.1,8.3-4.6,14.1-4.6s10.7,1.6,14.3,4.7a35.2,35.2,0,0,1,8.9,13.2l11.5,27.4a23.2,23.2,0,0,1,1.7,5.5,24.8,24.8,0,0,1,.6,5.4,19,19,0,0,1-1.9,8.6,19.5,19.5,0,0,1-5.2,6.6,27.4,27.4,0,0,1-7.6,4.4,27.1,27.1,0,0,1-9.1,1.5,19.2,19.2,0,0,1-7.2-1.3,17.8,17.8,0,0,1-6.1-3.8,19.5,19.5,0,0,1-6.1,3.8A18.7,18.7,0,0,1,330.5,182.9Z" stroke="#000" stroke-miterlimit="10" stroke-width="3"/><path d="M357,176.2a12.8,12.8,0,0,1-8.1-2.7,20.9,20.9,0,0,1-5.8-8.4l-3-7.1h10.6a3.7,3.7,0,0,0,3.3-1.5,3.9,3.9,0,0,0,.1-3.5l-6.5-15.3a3.1,3.1,0,0,0-2.9-2.3h-.2a3.9,3.9,0,0,0-3.1,1.4,3.2,3.2,0,0,0-.5,3.7l4.4,10.3H334.7a3.6,3.6,0,0,0-3,1.4q-1.2,1.4-.3,3.6l5,12.1c.4,1,.8,1.9,1.3,2.9A25.3,25.3,0,0,0,339,173a12,12,0,0,1-3.7,2.3,12.8,12.8,0,0,1-4.8.9,22,22,0,0,1-11.1-3.3,13.9,13.9,0,0,1-4.3-4.4,13.1,13.1,0,0,1-1.7-6.7,19.9,19.9,0,0,1,.5-4.1,33.8,33.8,0,0,1,1.3-4.2l11.6-27.4c2.1-4.9,4.5-8.5,7.1-10.7a15.1,15.1,0,0,1,9.9-3.2,15.3,15.3,0,0,1,9.9,3.2c2.7,2.2,5.1,5.8,7.1,10.7l11.5,27.4a22.5,22.5,0,0,1,1.3,4.2,14.8,14.8,0,0,1,.5,4.1,12.1,12.1,0,0,1-2.6,7.9,16.7,16.7,0,0,1-6.5,4.9A20.8,20.8,0,0,1,357,176.2Z" fill="#fff"/><path d="M443.1,200.7q-8.7,0-14.1-4.8a19.8,19.8,0,0,1-6.4-13.2,42.6,42.6,0,0,1-18.7-6,34.5,34.5,0,0,1-12.1-13.3,41.4,41.4,0,0,1-4.2-19.1c0-8.1,1.7-15,5.1-20.8a33,33,0,0,1,14.1-13.3c6-3.1,13.1-4.6,21.3-4.6h9.5c8,0,14.2,2,18.8,6.2s6.9,9.8,6.9,17a22.8,22.8,0,0,1-5.6,15.6,22.9,22.9,0,0,1,4.5,7.6,27.3,27.3,0,0,1,1.7,10v16.9c0,6.8-1.8,12.1-5.5,16S449.6,200.7,443.1,200.7Z" stroke="#000" stroke-miterlimit="10" stroke-width="3"/><path d="M443.1,194.1a18.1,18.1,0,0,1-6.4-1.2,11,11,0,0,1-5.4-4.4c-1.4-2.2-2.2-5.5-2.2-9.7v-9.3A3.1,3.1,0,0,0,428,167a3.7,3.7,0,0,0-2.5-1,3.7,3.7,0,0,0-2.4,1,3.1,3.1,0,0,0-1.1,2.5V176a33.8,33.8,0,0,1-14.7-5.1,26.9,26.9,0,0,1-9.7-10.9,35.5,35.5,0,0,1-3.3-15.7c0-6.7,1.3-12.5,4-17.2a26.8,26.8,0,0,1,11.6-11c5-2.6,11.1-3.9,18.1-3.9h9.3c6.1,0,10.9,1.4,14.3,4.2s5,6.9,5,12.4-1.6,9-4.7,11.9a17.7,17.7,0,0,1-12.4,4.4H429.1v-5.3a3.3,3.3,0,0,0-1.1-2.6,3.3,3.3,0,0,0-2.5-1,3.6,3.6,0,0,0-3.5,3.6v8.9c0,2.3,1.2,3.6,3.4,3.6h14.1a26.4,26.4,0,0,0,13.4-3.4c2.9,3.1,4.4,7.5,4.4,13.1v16.8c0,4.2-.8,7.5-2.2,9.7a11,11,0,0,1-5.4,4.4A18.8,18.8,0,0,1,443.1,194.1Z" fill="#fff"/><path d="M500.7,182.9q-11.8,0-18.9-5.7c-4.6-3.7-7-9.2-7-16.3a26.7,26.7,0,0,1,1.5-8.8,27.7,27.7,0,0,1,3.9-7.9,41.1,41.1,0,0,1-3.9-8.2,24.7,24.7,0,0,1-1.5-8.3c0-7.3,2.4-12.9,7.1-16.6s11-5.5,18.8-5.5h21.5c6.7,0,11.9,1.4,15.5,4.3s5.5,7.3,5.5,13.3-2.3,10.2-7,13A12.1,12.1,0,0,1,538,140a18.6,18.6,0,0,1,.5,4.2,15,15,0,0,1-2.4,8.1,14.2,14.2,0,0,1,5.3,5.3,15.1,15.1,0,0,1,2,7.8c0,5.9-1.9,10.3-5.8,13.2s-8.8,4.3-15.1,4.3Z" stroke="#000" stroke-miterlimit="10" stroke-width="3"/><path d="M500.7,176.2c-5.9,0-10.6-1.2-14.1-3.8s-5.1-6.3-5.1-11.5a21.8,21.8,0,0,1,1.4-7.6,26.8,26.8,0,0,1,3.9-6.8,3.9,3.9,0,0,0,0-4.6,25.5,25.5,0,0,1-3.9-7,20.9,20.9,0,0,1-1.4-7.2c0-5.1,1.7-9,5-11.6s8.2-3.9,14.2-3.9h21.8c4.2,0,7.4.6,9.4,1.8a8.6,8.6,0,0,1,3.8,4.3,14.6,14.6,0,0,1,.9,4.9,8.2,8.2,0,0,1-2.7,6.3c-1.7,1.6-4.3,2.4-7.5,2.4a39.5,39.5,0,0,1-9.5-.9,25.6,25.6,0,0,0-5.1-1,3.2,3.2,0,0,0-2.9,1.5,3.8,3.8,0,0,0-.5,3.1,3.4,3.4,0,0,0,2.4,2.4,47.2,47.2,0,0,0,7.7,1.6,76.1,76.1,0,0,0,7.9.5h3.4a7.7,7.7,0,0,1,2.1,5.3,7.1,7.1,0,0,1-2.4,5.4h-3.2a51,51,0,0,0-8,.6,42.1,42.1,0,0,0-7.4,1.6,3.4,3.4,0,0,0-2.4,2.4,3.9,3.9,0,0,0,.4,3,3.3,3.3,0,0,0,3,1.4,19.5,19.5,0,0,0,5.2-.9,34.7,34.7,0,0,1,9.2-.9,11.7,11.7,0,0,1,7.6,2.3,8.2,8.2,0,0,1,2.7,6.5,14.6,14.6,0,0,1-.9,4.9,8.2,8.2,0,0,1-3.9,4.2c-2,1.2-5.1,1.7-9.3,1.7Z" fill="#fff"/></g></g></svg>