<svg xmlns="http://www.w3.org/2000/svg" viewBox="0 0 410.5 79.3"><title>Hooey</title><g id="Layer_2" data-name="Layer 2"><g id="Layer_1-2" data-name="Layer 1"><path d="M23.4,78.3a22.5,22.5,0,0,1-11.8-2.9,19.3,19.3,0,0,1-7.8-8.2A26.5,26.5,0,0,1,1,54.7V24.8A26.1,26.1,0,0,1,3.8,12.2a19.5,19.5,0,0,1,7.8-8.3A23.4,23.4,0,0,1,23.4,1c6.2,0,11.2,1.8,15.1,5.3A22.1,22.1,0,0,1,53.6,1,24.1,24.1,0,0,1,65.5,3.9a20.8,20.8,0,0,1,7.8,8.3A27.3,27.3,0,0,1,76,24.8V54.7a27.7,27.7,0,0,1-2.7,12.5,20.6,20.6,0,0,1-7.8,8.2,23.1,23.1,0,0,1-11.9,2.9A25.5,25.5,0,0,1,45.2,77a22,22,0,0,1-6.7-3.8A22.9,22.9,0,0,1,31.8,77,25.5,25.5,0,0,1,23.4,78.3Z" stroke="#000" stroke-miterlimit="10" stroke-width="2"/><path d="M53.6,71.7a19.5,19.5,0,0,1-6.1-.9A15.6,15.6,0,0,1,43,68.2a26.9,26.9,0,0,0,2.4-6,25.2,25.2,0,0,0,1-7.5v-.9h5.4a3.6,3.6,0,0,0,2.6-1.1,3.3,3.3,0,0,0,1.1-2.5,3.4,3.4,0,0,0-1.1-2.5,3.6,3.6,0,0,0-2.6-1.1h-9a3.3,3.3,0,0,0-2.6,1,3.5,3.5,0,0,0-1,2.6v4.5c0,5.3-1.4,9.5-4.1,12.5s-6.7,4.5-11.7,4.5A16.1,16.1,0,0,1,15,69.6a13.8,13.8,0,0,1-5.4-5.8,20,20,0,0,1-1.9-9.1V24.8a20.6,20.6,0,0,1,1.9-9.3A13.8,13.8,0,0,1,15,9.7a16.1,16.1,0,0,1,8.4-2q7.5,0,11.7,4.5c2.7,3,4.1,7.2,4.1,12.6v.8H33.8a3.3,3.3,0,0,0-2.6,1.1,3.6,3.6,0,0,0,0,5,3.5,3.5,0,0,0,2.6,1h9c2.3,0,3.6-1.2,3.6-3.5V24.8a27.4,27.4,0,0,0-3.3-13.6,17.3,17.3,0,0,1,4.4-2.5,17,17,0,0,1,6.1-1,16.2,16.2,0,0,1,8.5,2,12.7,12.7,0,0,1,5.4,5.8,22,22,0,0,1,1.9,9.3V54.7a21.4,21.4,0,0,1-1.9,9.1,12.7,12.7,0,0,1-5.4,5.8A16.2,16.2,0,0,1,53.6,71.7Z" fill="#fff"/><path d="M124.9,78.3a31.9,31.9,0,0,1-8.6-1.2,19.5,19.5,0,0,1-7.4-3.9,15,15,0,0,1-4.8-7.1A17.5,17.5,0,0,1,94.2,61a24.6,24.6,0,0,1-5.9-9.7,35.9,35.9,0,0,1-1.9-11.7,37,37,0,0,1,2.9-14.9,39.1,39.1,0,0,1,8.3-12.4A40.3,40.3,0,0,1,110,4a37.1,37.1,0,0,1,14.9-3,37.8,37.8,0,0,1,14.9,3,41,41,0,0,1,12.3,8.3,39.1,39.1,0,0,1,8.3,12.4,37.1,37.1,0,0,1,3,14.9,37.9,37.9,0,0,1-3,15,38.7,38.7,0,0,1-8.3,12.3,41,41,0,0,1-12.3,8.3A36.2,36.2,0,0,1,124.9,78.3Z" stroke="#000" stroke-miterlimit="10" stroke-width="2"/><path d="M124.9,71.7a18.4,18.4,0,0,1-8.2-1.7,12.3,12.3,0,0,1-7-11.6c0-3.1,1-5.3,3-6.7a13.3,13.3,0,0,1,7.8-2.1h2.6c4,0,7.1-1,9.1-2.8a9.2,9.2,0,0,0,3.2-7.2,10.1,10.1,0,0,0-2.9-7.4,9.5,9.5,0,0,0-7-2.9,10.9,10.9,0,0,0-8,3,3.2,3.2,0,0,0-1,3.6,3.6,3.6,0,0,0,2.4,2.4l1,.2a3.6,3.6,0,0,0,2.5-1,3.7,3.7,0,0,1,2.6-1,2.8,2.8,0,0,1,3.2,3.1,2.1,2.1,0,0,1-1.1,2.2,7.7,7.7,0,0,1-3.9.7h-2.4a21,21,0,0,0-12.9,3.9c-3.5,2.6-5.3,6.4-5.3,11.4v1.4A12.7,12.7,0,0,1,98,55.4a21.2,21.2,0,0,1-3.7-7A31.7,31.7,0,0,1,93,39.6a32.3,32.3,0,0,1,2.5-12.4A34,34,0,0,1,102.4,17a33.6,33.6,0,0,1,10.1-6.9,33,33,0,0,1,24.7,0A33.6,33.6,0,0,1,147.3,17a32.3,32.3,0,0,1,6.9,10.2,30.5,30.5,0,0,1,2.5,12.4A30.2,30.2,0,0,1,154.2,52a33.1,33.1,0,0,1-17.1,17.2A31.3,31.3,0,0,1,124.9,71.7Z" fill="#fff"/><path d="M210.7,78.3a31.9,31.9,0,0,1-8.6-1.2,19.5,19.5,0,0,1-7.4-3.9,15,15,0,0,1-4.8-7.1A17.5,17.5,0,0,1,180,61a24.6,24.6,0,0,1-5.9-9.7,35.9,35.9,0,0,1-1.9-11.7,37,37,0,0,1,2.9-14.9,39.1,39.1,0,0,1,8.3-12.4A40.3,40.3,0,0,1,195.8,4a37.1,37.1,0,0,1,14.9-3,37.8,37.8,0,0,1,14.9,3,41,41,0,0,1,12.3,8.3,39.1,39.1,0,0,1,8.3,12.4,37.1,37.1,0,0,1,3,14.9,37.9,37.9,0,0,1-3,15,38.7,38.7,0,0,1-8.3,12.3,41,41,0,0,1-12.3,8.3A36.2,36.2,0,0,1,210.7,78.3Z" stroke="#000" stroke-miterlimit="10" stroke-width="2"/><path d="M210.7,71.7a18.4,18.4,0,0,1-8.2-1.7,12.3,12.3,0,0,1-7-11.6c0-3.1,1-5.3,3-6.7a13.3,13.3,0,0,1,7.8-2.1h2.6c4,0,7.1-1,9.1-2.8a9.2,9.2,0,0,0,3.2-7.2,10.1,10.1,0,0,0-2.9-7.4,9.5,9.5,0,0,0-7-2.9,10.9,10.9,0,0,0-8,3,3.2,3.2,0,0,0-1,3.6,3.6,3.6,0,0,0,2.4,2.4l1,.2a3.6,3.6,0,0,0,2.5-1,3.7,3.7,0,0,1,2.6-1,2.8,2.8,0,0,1,3.2,3.1,2.1,2.1,0,0,1-1.1,2.2,7.7,7.7,0,0,1-3.9.7h-2.4a21,21,0,0,0-12.9,3.9c-3.5,2.6-5.3,6.4-5.3,11.4v1.4a12.7,12.7,0,0,1-4.6-3.8,21.2,21.2,0,0,1-3.7-7,31.7,31.7,0,0,1-1.3-8.8,32.3,32.3,0,0,1,2.5-12.4A34,34,0,0,1,188.2,17a33.6,33.6,0,0,1,10.1-6.9,33,33,0,0,1,24.7,0A33.6,33.6,0,0,1,233.1,17,32.3,32.3,0,0,1,240,27.2a30.5,30.5,0,0,1,2.5,12.4A30.2,30.2,0,0,1,240,52a33.1,33.1,0,0,1-17.1,17.2A31.3,31.3,0,0,1,210.7,71.7Z" fill="#fff"/><path d="M284.6,78.3c-7.9,0-14.2-1.9-18.9-5.6s-7-9.3-7-16.4a26.7,26.7,0,0,1,1.5-8.8,29.1,29.1,0,0,1,3.9-7.9,43.1,43.1,0,0,1-3.9-8.1,25.7,25.7,0,0,1-1.5-8.4c0-7.3,2.4-12.8,7.1-16.5S276.8,1,284.6,1h21.5c6.7,0,11.9,1.4,15.5,4.3s5.5,7.4,5.5,13.3-2.3,10.3-7,13a13.3,13.3,0,0,1,1.8,3.8,18.6,18.6,0,0,1,.5,4.2,15.3,15.3,0,0,1-2.4,8.2,13.9,13.9,0,0,1,5.3,5.2,15.1,15.1,0,0,1,2,7.8c0,5.9-1.9,10.3-5.8,13.2s-8.8,4.3-15.1,4.3Z" stroke="#000" stroke-miterlimit="10" stroke-width="2"/><path d="M284.6,71.7c-5.9,0-10.6-1.3-14.1-3.8s-5.1-6.4-5.1-11.6a21.8,21.8,0,0,1,1.4-7.6,30.7,30.7,0,0,1,3.9-6.8,3.8,3.8,0,0,0,0-4.5,27,27,0,0,1-3.9-7,21.4,21.4,0,0,1-1.4-7.3c0-5.1,1.7-9,5-11.5s8.2-3.9,14.2-3.9h21.8c4.2,0,7.4.6,9.4,1.8a8.4,8.4,0,0,1,3.8,4.2,15,15,0,0,1,.9,4.9,8.2,8.2,0,0,1-2.7,6.3c-1.7,1.6-4.3,2.4-7.5,2.4a39.5,39.5,0,0,1-9.5-.9,23.6,23.6,0,0,0-5.1-.9,3.2,3.2,0,0,0-2.9,1.5,3.7,3.7,0,0,0-.5,3.1,3.3,3.3,0,0,0,2.4,2.3,40.1,40.1,0,0,0,7.7,1.6,76.1,76.1,0,0,0,7.9.5h3.4a9.1,9.1,0,0,1,1.5,2.3,8,8,0,0,1,.6,3,7.3,7.3,0,0,1-2.3,5.4h-3.3a51,51,0,0,0-8,.6,42.1,42.1,0,0,0-7.4,1.7,3.3,3.3,0,0,0-2.4,2.3,3.9,3.9,0,0,0,.4,3,3.3,3.3,0,0,0,3,1.5,20.3,20.3,0,0,0,5.2-1,34.7,34.7,0,0,1,9.2-.9,11.7,11.7,0,0,1,7.6,2.3,8.3,8.3,0,0,1,2.7,6.5,14.6,14.6,0,0,1-.9,4.9,7.9,7.9,0,0,1-3.9,4.2q-3,1.8-9.3,1.8Z" fill="#fff"/><path d="M372.7,78.3a21.3,21.3,0,0,1-11.3-2.8,19.7,19.7,0,0,1-7.4-8,25.1,25.1,0,0,1-2.5-11.6V51.4L337.8,31.8a17.9,17.9,0,0,1-2.5-5.2,22.4,22.4,0,0,1-.8-5.7,19.1,19.1,0,0,1,2.8-10.4,18.8,18.8,0,0,1,7.5-7A22.6,22.6,0,0,1,355.6,1,23.2,23.2,0,0,1,364,2.5a23.7,23.7,0,0,1,7.3,4.8,21.5,21.5,0,0,1,7.3-4.8A24.5,24.5,0,0,1,387.3,1a25.4,25.4,0,0,1,11.8,2.6,18.9,18.9,0,0,1,7.7,7.4,21.2,21.2,0,0,1,2.7,10.9,26.4,26.4,0,0,1-.8,6.2,21.4,21.4,0,0,1-2.6,5.5L393.8,51.9v4a25.1,25.1,0,0,1-2.5,11.6,18.8,18.8,0,0,1-7.3,8A21.3,21.3,0,0,1,372.7,78.3Z" stroke="#000" stroke-miterlimit="10" stroke-width="2"/><path d="M372.7,71.7q-6.9,0-10.8-4.2c-2.5-2.7-3.8-6.6-3.8-11.6V50.7a5.8,5.8,0,0,0-1.3-3.4L343.3,28a12.6,12.6,0,0,1-1.6-3.3,15.2,15.2,0,0,1-.5-3.8,13.9,13.9,0,0,1,1.5-6.3,12.5,12.5,0,0,1,4.7-5,15.6,15.6,0,0,1,8.2-1.9,14.8,14.8,0,0,1,9,2.8,30.5,30.5,0,0,1,7.8,8.9L381,33.5a3.2,3.2,0,0,0,2.9,1.8h.2a4.2,4.2,0,0,0,3.1-1.7c.6-.8,1-2-.1-3.8l-8.6-14.1-1.4-2.2c-.4-.5-.7-1.1-1.1-1.5a14.2,14.2,0,0,1,5-3.2,16.1,16.1,0,0,1,6.3-1.1,18.6,18.6,0,0,1,8.4,1.7,11.8,11.8,0,0,1,5.3,4.8,14.4,14.4,0,0,1,1.9,7.7,14,14,0,0,1-2.4,8L388.4,47.8a14.7,14.7,0,0,0-.9,1.7,3.9,3.9,0,0,0-.4,1.7v4.7a19.1,19.1,0,0,1-1.7,8.6,11.8,11.8,0,0,1-4.8,5.3A15.9,15.9,0,0,1,372.7,71.7Z" fill="#fff"/></g></g></svg>