<svg id="Layer_1" data-name="Layer 1" xmlns="http://www.w3.org/2000/svg" viewBox="0 0 182 182"><title>Instagram</title><g id="Oval-Copy"><circle cx="91" cy="91" r="87" fill="#ffa3ba"/><path d="M91,181.5A90.5,90.5,0,1,1,181.5,91,90.6,90.6,0,0,1,91,181.5Zm0-174A83.5,83.5,0,1,0,174.5,91,83.6,83.6,0,0,0,91,7.5Z"/></g><path d="M91,67.6A23.4,23.4,0,1,0,114.4,91,23.3,23.3,0,0,0,91,67.6Zm0,32.8a9.4,9.4,0,1,1,9.4-9.4A9.4,9.4,0,0,1,91,100.4Z" fill="#3bffb8" fill-rule="evenodd"/><path d="M133,74.9c-.4-7.9-2.5-13.8-7.3-18.6s-10.7-6.8-18.5-7.2-25.8-.4-32.4,0-13.6,2.4-18.5,7.2S49.4,67,49,74.8s-.3,25.8,0,32.4,2.5,13.7,7.3,18.5,10.7,6.8,18.5,7.2,25.8.4,32.4,0,13.7-2.4,18.5-7.2,6.9-10.7,7.3-18.6S133.3,81.4,133,74.9ZM119.3,94.1c0,3.5,0,5.6-.1,7.9-.1,5-.5,8.7-1.3,10.5a9.3,9.3,0,0,1-5.4,5.4c-1.8.8-5.5,1.2-10.5,1.3H80c-5-.1-8.7-.5-10.5-1.3a9.6,9.6,0,0,1-5.4-5.4c-.8-1.8-1.2-5.5-1.3-10.5-.1-2.3-.1-4.4-.1-7.9.1-2,.1-2.4.1-3.1s0-1.1-.1-3.1,0-5.6.1-7.9c.1-5,.5-8.7,1.3-10.5a9.6,9.6,0,0,1,5.4-5.4c1.8-.8,5.5-1.2,10.5-1.3h22c5,.1,8.7.5,10.6,1.3a9.7,9.7,0,0,1,5.3,5.4c.8,1.8,1.2,5.5,1.3,10.5.1,2.3.1,4.4.1,7.9v6.2Z" fill="#3bffb8" fill-rule="evenodd"/><path d="M91,78.1A12.9,12.9,0,1,0,103.9,91,12.9,12.9,0,0,0,91,78.1Zm0,18.8a5.9,5.9,0,0,1,0-11.8,5.9,5.9,0,0,1,0,11.8Z" fill-rule="evenodd"/><path d="M122.7,79.9q-.2-8.4-1.5-11.7a13.4,13.4,0,0,0-7.4-7.4q-3.3-1.3-11.7-1.5H79.9q-8.4.2-11.7,1.5a13.4,13.4,0,0,0-7.4,7.4q-1.3,3.3-1.5,11.7c-.1,2.5-.1,4.8-.1,8.1s.1,2.3.1,3,0,1.1-.1,3.1,0,5.5.1,8q.2,8.4,1.5,11.7a13.4,13.4,0,0,0,7.4,7.4q3.3,1.3,11.7,1.5h22.2q8.4-.2,11.7-1.5a13.4,13.4,0,0,0,7.4-7.4q1.3-3.3,1.5-11.7c.1-2.5.1-4.7.1-8V87.9C122.8,84.6,122.8,82.4,122.7,79.9ZM91,110.9A19.9,19.9,0,1,1,110.9,91,19.9,19.9,0,0,1,91,110.9ZM67.3,70.8a6.7,6.7,0,0,1,3.5-3.5c.6-.2,2.9-.9,9.3-1h.5A27.2,27.2,0,0,0,66.3,80.6v-.5C66.4,73.6,67.1,71.4,67.3,70.8Zm3.5,43.9a6.7,6.7,0,0,1-3.5-3.5c-.2-.6-.9-2.8-1-9.3v-.5a26.4,26.4,0,0,0,14.3,14.3h-.5C73.6,115.6,71.4,114.9,70.8,114.7Zm43.9-3.5a6,6,0,0,1-3.5,3.5c-.6.2-2.8.9-9.3,1h-.5a27.4,27.4,0,0,0,14.4-14.4v.5C115.6,108.4,115,110.6,114.7,111.2Z" fill-rule="evenodd"/><path d="M136.4,74.7c-.4-9.1-3-15.6-8.3-20.8s-11.7-7.9-20.8-8.3c-6.5-.4-26.1-.4-32.6,0-9,.4-15.6,3-20.8,8.2S46,65.5,45.6,74.6c-.4,6.6-.4,26.2,0,32.7.4,9.1,2.9,15.6,8.3,20.9s11.7,7.8,20.8,8.2c3.2.2,9.8.3,16.3.3s13.1-.1,16.3-.3c9.1-.4,15.6-3,20.9-8.3s7.8-11.7,8.2-20.8C136.8,100.6,136.8,81.4,136.4,74.7ZM129.5,107c-.4,7.3-2.3,12.2-6.3,16.2s-8.9,5.9-16.2,6.2-25.5.4-32,0-12.2-2.2-16.2-6.2-5.9-8.9-6.3-16.2-.3-25.6,0-32,2.3-12.2,6.3-16.2,8.9-5.9,16.2-6.2c3.2-.2,9.6-.3,16-.3s12.8.1,16,.3c7.3.3,12.2,2.2,16.2,6.2s5.9,8.9,6.3,16.2h0C129.8,81.5,129.8,100.6,129.5,107Z" fill-rule="evenodd"/><circle cx="112" cy="71" r="5" fill="#3bffb8"/></svg>