<svg xmlns="http://www.w3.org/2000/svg" viewBox="0 0 715.8 79.3"><title>LilMixins</title><g id="Layer_2" data-name="Layer 2"><g id="Layer_1-2" data-name="Layer 1"><path d="M23.4,78.3c-6.8,0-12.2-2.1-16.3-6.5S1,61.8,1,54.7V24.8c0-7.2,2-13,6.1-17.3S16.6,1,23.4,1A23.8,23.8,0,0,1,35.3,3.9a19.5,19.5,0,0,1,7.8,8.3,26.1,26.1,0,0,1,2.8,12.6V37.5H46A27,27,0,0,1,58.1,40a19.4,19.4,0,0,1,8.2,7,20.4,20.4,0,0,1,2.9,10.9,19.4,19.4,0,0,1-3,10.9,19.9,19.9,0,0,1-8.3,7.1A28.1,28.1,0,0,1,46,78.3Z" stroke="#000" stroke-miterlimit="10" stroke-width="2"/><path d="M23.4,72.2H46c5.3,0,9.4-1.3,12.5-3.9s4.5-6,4.5-10.4-1.6-8.2-4.7-10.6S51,43.7,46,43.7a30.3,30.3,0,0,0-9.3,1.4c-2.8,1-5.3,2-7.4,3a3.1,3.1,0,0,1-3.3-.3,3.4,3.4,0,0,1-1.1-2.9,2.5,2.5,0,0,1,1.7-2.4c1.8-.8,3.8-1.7,6-2.5a38.9,38.9,0,0,1,7.1-1.9V24.8c0-5.5-1.4-9.8-4.3-13s-6.8-4.6-12-4.6-9,1.5-11.9,4.6-4.3,7.5-4.3,13V54.7c0,5.4,1.4,9.7,4.3,12.8S18.3,72.2,23.4,72.2Z" fill="#fff"/><path d="M100.9,78.3c-6.8,0-12.3-2.1-16.4-6.5s-6.1-10-6.1-17.1V24.8c0-7.2,2.1-13,6.1-17.3S94.1,1,100.9,1s12.2,2.2,16.3,6.5,6.1,10.1,6.1,17.3V54.7c0,7.1-2,12.8-6.1,17.1S107.7,78.3,100.9,78.3Z" stroke="#000" stroke-miterlimit="10" stroke-width="2"/><path d="M100.9,72.2c5.1,0,9.1-1.6,12-4.7s4.3-7.4,4.3-12.8V24.8c0-5.5-1.5-9.8-4.3-13s-6.9-4.6-12-4.6-9.1,1.5-12,4.6-4.3,7.5-4.3,13V54.7c0,5.4,1.4,9.7,4.3,12.8S95.8,72.2,100.9,72.2Z" fill="#fff"/><path d="M157.6,78.3c-6.8,0-12.2-2.1-16.3-6.5s-6.1-10-6.1-17.1V24.8c0-7.2,2-13,6.1-17.3S150.8,1,157.6,1a23.8,23.8,0,0,1,11.9,2.9,19.5,19.5,0,0,1,7.8,8.3,26.1,26.1,0,0,1,2.8,12.6V37.5h.1A27,27,0,0,1,192.3,40a19.4,19.4,0,0,1,8.2,7,20.4,20.4,0,0,1,2.9,10.9,19.4,19.4,0,0,1-3,10.9,19.9,19.9,0,0,1-8.3,7.1,28.1,28.1,0,0,1-11.9,2.4Z" stroke="#000" stroke-miterlimit="10" stroke-width="2"/><path d="M157.6,72.2h22.6c5.3,0,9.4-1.3,12.5-3.9s4.5-6,4.5-10.4-1.6-8.2-4.7-10.6-7.3-3.6-12.3-3.6a30.3,30.3,0,0,0-9.3,1.4c-2.8,1-5.3,2-7.4,3a3.1,3.1,0,0,1-3.3-.3,3.4,3.4,0,0,1-1.1-2.9,2.5,2.5,0,0,1,1.7-2.4c1.8-.8,3.8-1.7,6-2.5a38.9,38.9,0,0,1,7.1-1.9V24.8c0-5.5-1.4-9.8-4.3-13s-6.8-4.6-12-4.6-9,1.5-11.9,4.6-4.3,7.5-4.3,13V54.7c0,5.4,1.4,9.7,4.2,12.8S152.5,72.2,157.6,72.2Z" fill="#fff"/><path d="M272,78.3a26.4,26.4,0,0,1-11.7-2.7,23.5,23.5,0,0,1-8.8-7.4,18.6,18.6,0,0,1-3.3-11,24.8,24.8,0,0,1,.6-5.4,31.4,31.4,0,0,1,1.7-5.5L262,18.9a34.7,34.7,0,0,1,9.1-13.3c3.6-3.1,8.3-4.6,14.1-4.6a21.7,21.7,0,0,1,15.5,5.9,23.3,23.3,0,0,1,6.5-4.4A20.8,20.8,0,0,1,315,1c6.1,0,10.8,1.6,14.4,4.7s6.5,7.6,8.9,13.2l11.5,27.4a32,32,0,0,1,1.8,5.5,32.9,32.9,0,0,1,.5,5.4,19.2,19.2,0,0,1-3.3,11.2,22.3,22.3,0,0,1-8.8,7.3,25.9,25.9,0,0,1-11.6,2.6,19.8,19.8,0,0,1-7-1.1,17.7,17.7,0,0,1-5.9-3.2,21.9,21.9,0,0,1-13.8,4.3,24.1,24.1,0,0,1-8.7-1.4,22.1,22.1,0,0,1-7-4.3,17.9,17.9,0,0,1-6.3,4.2A19.6,19.6,0,0,1,272,78.3Z" stroke="#000" stroke-miterlimit="10" stroke-width="2"/><path d="M272,72.2a12.8,12.8,0,0,0,8.1-2.7,20.8,20.8,0,0,0,5.8-7.7L280,47.6q-.9-2.1.3-3.3a3.9,3.9,0,0,1,2.9-1.1,3,3,0,0,1,2.5,2l6.5,15.5a3.1,3.1,0,0,1,0,2.3,27.2,27.2,0,0,1-1.1,2.5,16.4,16.4,0,0,0-1.2,2.2,11.8,11.8,0,0,0,5.1,3.4,19.6,19.6,0,0,0,6.7,1.1,17.2,17.2,0,0,0,7.4-1.5,15.5,15.5,0,0,0,5.6-4.5,36.3,36.3,0,0,0,4.5-8.2l5.3-12.6a3.1,3.1,0,0,1,2.5-2.1,3.6,3.6,0,0,1,2.8,1.2c.8.8.9,2,.3,3.4l-5.2,12.5c-.7,1.8-1.5,3.5-2.3,5.1a48.6,48.6,0,0,1-2.7,4.1,15.6,15.6,0,0,0,3.9,1.9,13.5,13.5,0,0,0,4.6.7,19.6,19.6,0,0,0,5.5-.9,21.2,21.2,0,0,0,5.8-2.5,15.6,15.6,0,0,0,4.5-4.7,12.7,12.7,0,0,0,1.8-6.9,21.8,21.8,0,0,0-.5-4.3,35.9,35.9,0,0,0-1.4-4.3L332.5,21.2c-2-5-4.4-8.6-7.1-10.8S319.2,7.2,315,7.2a13.6,13.6,0,0,0-8.1,2.5,21.1,21.1,0,0,0-5.9,7.8l6,14.2c.6,1.4.5,2.5-.4,3.2a3.6,3.6,0,0,1-2.9,1.1,2.6,2.6,0,0,1-2.4-1.9l-6.5-15.5a2.5,2.5,0,0,1,0-2.4c.4-.8.7-1.6,1.1-2.3l1.1-2a16.6,16.6,0,0,0-5.3-3.6,16.4,16.4,0,0,0-6.5-1.1c-4.1,0-7.6,1-10.2,3.2s-5.1,5.8-7.3,10.8L256.2,48.6a35.9,35.9,0,0,0-1.4,4.3,21.8,21.8,0,0,0-.5,4.3,12.7,12.7,0,0,0,1.8,6.9,15.6,15.6,0,0,0,4.5,4.7,21.2,21.2,0,0,0,5.8,2.5A20.3,20.3,0,0,0,272,72.2Z" fill="#fff"/><path d="M384.6,78.3c-6.9,0-12.3-2.1-16.4-6.5s-6.1-10-6.1-17.1V24.8c0-7.2,2.1-13,6.1-17.3S377.7,1,384.6,1s12.2,2.2,16.3,6.5S407,17.6,407,24.8V54.7c0,7.1-2,12.8-6.1,17.1S391.4,78.3,384.6,78.3Z" stroke="#000" stroke-miterlimit="10" stroke-width="2"/><path d="M384.6,72.2c5.1,0,9.1-1.6,12-4.7s4.2-7.4,4.2-12.8V24.8c0-5.5-1.4-9.8-4.2-13s-6.9-4.6-12-4.6-9.1,1.5-12,4.6-4.3,7.5-4.3,13V54.7c0,5.4,1.4,9.7,4.3,12.8S379.5,72.2,384.6,72.2Z" fill="#fff"/><path d="M440.8,78.3a23,23,0,0,1-11.5-2.8,21.2,21.2,0,0,1-8.1-7.6,19.6,19.6,0,0,1-3-10.7,20.8,20.8,0,0,1,1.1-6.6,23.7,23.7,0,0,1,2.9-6l3.8-5.9-4.6-6.6a18.3,18.3,0,0,1-3.2-10.5A20.6,20.6,0,0,1,421,11.1a20,20,0,0,1,7.7-7.3A20.8,20.8,0,0,1,439.6,1a21.2,21.2,0,0,1,9,2,24,24,0,0,1,7.2,5.3,24.9,24.9,0,0,1,7.5-5.5,22.3,22.3,0,0,1,8.8-1.7,23.6,23.6,0,0,1,11.7,2.8,21.6,21.6,0,0,1,8,7.6,20.2,20.2,0,0,1,2.9,10.7,23.8,23.8,0,0,1-1,6.5,24.3,24.3,0,0,1-2.9,6.1l-4.9,7.3,3.5,5.1a21,21,0,0,1,2.4,5,17.7,17.7,0,0,1,.9,5.6,19.8,19.8,0,0,1-2.8,10.4,21.1,21.1,0,0,1-7.7,7.4,21.6,21.6,0,0,1-10.8,2.7,19.3,19.3,0,0,1-8.3-1.7,22.9,22.9,0,0,1-6.9-4.5,22.5,22.5,0,0,1-7.1,4.7A21.9,21.9,0,0,1,440.8,78.3Z" stroke="#000" stroke-miterlimit="10" stroke-width="2"/><path d="M440.8,72.2a16.2,16.2,0,0,0,6.1-1.1,15.8,15.8,0,0,0,5.1-3.7,15.6,15.6,0,0,1-1.3-1.9,23.9,23.9,0,0,1-1.3-2.1l-6.2-10.2c-.7-1.3-.8-2.4-.1-3.2a3.9,3.9,0,0,1,2.8-1.5,2.6,2.6,0,0,1,2.7,1.6l6,10.1a41.2,41.2,0,0,0,7.1,8.6,14.5,14.5,0,0,0,9.7,3.4,14.7,14.7,0,0,0,8.3-2.2,14.2,14.2,0,0,0,5.1-5.5,15.1,15.1,0,0,0,1.7-6.7A11.7,11.7,0,0,0,486,54a10.4,10.4,0,0,0-1.7-3.3l-2.2-3.2-3.4,5.2c-.8,1.2-1.7,1.8-2.8,1.6a3.3,3.3,0,0,1-2.6-1.7,2.8,2.8,0,0,1,.3-3.2l12.1-18a22.7,22.7,0,0,0,2.1-4.5,14.9,14.9,0,0,0,.7-4.7,14.4,14.4,0,0,0-1.9-7.2,13.5,13.5,0,0,0-5.5-5.6,16.7,16.7,0,0,0-9-2.2,15.7,15.7,0,0,0-6.7,1.3,18.7,18.7,0,0,0-5.7,4.5,7.1,7.1,0,0,1,1,1.4,11.4,11.4,0,0,1,.9,1.6l6,10.1c.8,1.2.9,2.3.2,3.2a3.7,3.7,0,0,1-2.8,1.5,2.8,2.8,0,0,1-2.7-1.5l-6-10.1a31.6,31.6,0,0,0-7.8-9.1,15.3,15.3,0,0,0-8.9-2.9,15.5,15.5,0,0,0-8.3,2.1,14.4,14.4,0,0,0-5.2,5.5,14.9,14.9,0,0,0-1.7,6.8,11.9,11.9,0,0,0,2.2,7l3.2,4.6,2.9-4.4c.9-1.1,1.8-1.7,2.9-1.5a3.5,3.5,0,0,1,2.6,1.6,3.1,3.1,0,0,1-.3,3.4L427.4,48.1a15.9,15.9,0,0,0-2.2,4.3,12.7,12.7,0,0,0-.8,4.8,14.3,14.3,0,0,0,1.9,7.1,15,15,0,0,0,5.5,5.7A18.2,18.2,0,0,0,440.8,72.2Z" fill="#fff"/><path d="M528.3,78.3c-6.8,0-12.2-2.1-16.3-6.5s-6.1-10-6.1-17.1V24.8c0-7.2,2-13,6.1-17.3S521.5,1,528.3,1s12.3,2.2,16.4,6.5,6.1,10.1,6.1,17.3V54.7c0,7.1-2.1,12.8-6.1,17.1S535.2,78.3,528.3,78.3Z" stroke="#000" stroke-miterlimit="10" stroke-width="2"/><path d="M528.3,72.2c5.2,0,9.2-1.6,12-4.7s4.3-7.4,4.3-12.8V24.8c0-5.5-1.4-9.8-4.3-13s-6.8-4.6-12-4.6-9,1.5-11.9,4.6-4.3,7.5-4.3,13V54.7c0,5.4,1.4,9.7,4.3,12.8S523.3,72.2,528.3,72.2Z" fill="#fff"/><path d="M585.5,78.3c-7.1,0-12.7-2.1-16.7-6.3s-6.1-10.1-6.1-17.4V24.4c0-7,1.9-12.7,5.7-17S577.7,1,584.5,1a23.8,23.8,0,0,1,7.3,1.1,22,22,0,0,1,6.6,3.7,21.1,21.1,0,0,1,6.8-3.6A27.8,27.8,0,0,1,613.5,1c7.2,0,12.8,2.1,16.9,6.4s6.1,10,6.1,17.4V54.9q0,10.6-6,17.1c-3.9,4.2-9.3,6.3-15.9,6.3a21.1,21.1,0,0,1-7.3-1.1,21.6,21.6,0,0,1-6.6-3.6,21.9,21.9,0,0,1-6.8,3.5A28.4,28.4,0,0,1,585.5,78.3Z" stroke="#000" stroke-miterlimit="10" stroke-width="2"/><path d="M585.5,72.2a18.9,18.9,0,0,0,6-.9,15.3,15.3,0,0,0,4.8-2.3,29.6,29.6,0,0,1-2.6-3.7L591,60.8l-7.1-12.6c-.7-1.2-.8-2.2-.1-3.1a3.7,3.7,0,0,1,2.8-1.6,2.6,2.6,0,0,1,2.8,1.6l7.2,12.7a67.1,67.1,0,0,0,5.9,8.5,14.1,14.1,0,0,0,5.5,4.5,15.3,15.3,0,0,0,6.6,1.4c5.2,0,9.1-1.6,11.7-4.7s4-7.3,4-12.6V24.8c0-5.5-1.4-9.8-4.3-13s-7.1-4.6-12.5-4.6a17.9,17.9,0,0,0-10.8,3.1l2.5,3.6,2.8,4.5L615.2,31a2.6,2.6,0,0,1,.1,3.2,4,4,0,0,1-2.8,1.7,2.9,2.9,0,0,1-2.8-1.7l-7.2-12.6a56.6,56.6,0,0,0-5.8-8.7,16.9,16.9,0,0,0-5.6-4.4,15.3,15.3,0,0,0-6.6-1.3c-5.1,0-9,1.5-11.7,4.7s-4,7.3-4,12.5V54.6c0,5.4,1.5,9.7,4.4,12.8S580.2,72.2,585.5,72.2Z" fill="#fff"/><path d="M673.8,78.3A34.4,34.4,0,0,1,660,75.8a19.6,19.6,0,0,1-9-7.5,22,22,0,0,1-3.1-12.1,27.4,27.4,0,0,1,1.4-8.7,21.2,21.2,0,0,1,4.1-7.2,27.2,27.2,0,0,1-4.5-9.5,36.1,36.1,0,0,1-1-7.8,22.4,22.4,0,0,1,3.2-12.2,19.3,19.3,0,0,1,9-7.3A33.9,33.9,0,0,1,673.8,1h15.1a34.4,34.4,0,0,1,13.8,2.5,18.9,18.9,0,0,1,8.9,7.5,21.4,21.4,0,0,1,3.2,12,26,26,0,0,1-1.5,8.9,23,23,0,0,1-4.1,7.2,24.6,24.6,0,0,1,4.5,9.4,37.1,37.1,0,0,1,1.1,7.8,21.2,21.2,0,0,1-3.3,12.1,19.6,19.6,0,0,1-9,7.5,35.2,35.2,0,0,1-13.6,2.4Z" stroke="#000" stroke-miterlimit="10" stroke-width="2"/><path d="M673.8,72.2h15.1a28,28,0,0,0,10.6-1.8,14.5,14.5,0,0,0,6.8-5.3,16,16,0,0,0,2.3-8.8,22.3,22.3,0,0,0-3.8-12.7,30.9,30.9,0,0,0-10.5-9.4l-12.6-7a2.7,2.7,0,0,1-1.7-2.7,3.5,3.5,0,0,1,1.5-2.6,2.7,2.7,0,0,1,3.1-.1l12.8,7a41,41,0,0,1,4.1,2.6,25.7,25.7,0,0,1,3.5,2.9,13.8,13.8,0,0,0,2.7-5.1,20.6,20.6,0,0,0,.9-6.2,15.4,15.4,0,0,0-2.4-9,14.2,14.2,0,0,0-6.8-5.1,27.9,27.9,0,0,0-10.5-1.7H673.8a28.6,28.6,0,0,0-10.7,1.7,13.1,13.1,0,0,0-6.7,5.2c-1.6,2.3-2.3,5.3-2.3,8.9a22.1,22.1,0,0,0,1.7,8.9,26.1,26.1,0,0,0,5,7.4,33.6,33.6,0,0,0,7.6,5.7L681,52a3,3,0,0,1,1.7,2.7,3.4,3.4,0,0,1-1.5,2.7c-.8.7-1.9.7-3.2.1l-12.7-7a35,35,0,0,1-4.3-2.6c-1.2-1-2.4-1.9-3.4-2.9a15.8,15.8,0,0,0-2.6,5,20.6,20.6,0,0,0-.9,6.2c0,3.8.8,6.8,2.4,9.1a13.7,13.7,0,0,0,6.8,5.2A29.6,29.6,0,0,0,673.8,72.2Z" fill="#fff"/></g></g></svg>