<svg id="Layer_1" data-name="Layer 1" xmlns="http://www.w3.org/2000/svg" viewBox="0 0 182 182"><title>LinkedIn</title><g id="Oval-Copy-3"><circle cx="91" cy="91" r="87" fill="#ffa3ba"/><path d="M91,181.5A90.5,90.5,0,1,1,181.5,91,90.6,90.6,0,0,1,91,181.5Zm0-174A83.5,83.5,0,1,0,174.5,91,83.6,83.6,0,0,0,91,7.5Z"/></g><path d="M118,128.3a3.5,3.5,0,0,1-3.5-3.5V102c0-7.6-1-8.9-4-8.9s-5.2.6-5.2,8.5v23.2a3.5,3.5,0,0,1-3.5,3.5H87.4a3.5,3.5,0,0,1-3.5-3.5V78a3.4,3.4,0,0,1,3.5-3.5h13.9a3.5,3.5,0,0,1,3.1,1.8,19.7,19.7,0,0,1,10.8-3c18.4,0,20.8,13.8,20.8,25.8v25.7a3.5,3.5,0,0,1-3.5,3.5Z" fill="#3bffb8"/><path d="M115.2,76.8c14.6,0,17.3,9.7,17.3,22.3v25.7H118V102c0-5.4-.1-12.4-7.5-12.4s-8.7,5.9-8.7,12v23.2H87.4V78h13.9v6.3h.2c1.9-3.6,6.6-7.5,13.7-7.5m0-7A23.4,23.4,0,0,0,104.9,72a6.3,6.3,0,0,0-3.6-1H87.4a7,7,0,0,0-7,7v46.8a7,7,0,0,0,7,7h14.4a7,7,0,0,0,7-7V101.6c0-3.4.5-4.6.7-4.9h1.2a32.6,32.6,0,0,1,.3,5.4v22.8a7,7,0,0,0,7,7h14.5a7,7,0,0,0,7-7V99.1c0-7.3,0-29.3-24.3-29.3Z"/><path d="M61.9,63.3A12,12,0,1,1,73.8,51.2,12,12,0,0,1,61.9,63.3Z" fill="#3bffb8"/><path d="M61.9,42.8a8.5,8.5,0,0,1,8.4,8.4,8.4,8.4,0,1,1-16.8,0,8.5,8.5,0,0,1,8.4-8.4m0-7A15.5,15.5,0,1,0,77.3,51.2,15.4,15.4,0,0,0,61.9,35.8Z"/><rect x="51.2" y="74.5" width="21.5" height="53.86" rx="3.5" fill="#3bffb8"/><path d="M69.1,78v46.8H54.7V78H69.1m0-7H54.7a7,7,0,0,0-7,7v46.8a7,7,0,0,0,7,7H69.1a7,7,0,0,0,7-7V78a7,7,0,0,0-7-7Z"/></svg>