<svg xmlns="http://www.w3.org/2000/svg" viewBox="0 0 537 183.4"><title>LOM</title><g id="Layer_2" data-name="Layer 2"><g id="Layer_1-2" data-name="Layer 1"><path d="M23.4,78.3c-6.8,0-12.2-2.1-16.3-6.5S1,61.8,1,54.7V24.8c0-7.2,2-13,6.1-17.3S16.6,1,23.4,1A23.8,23.8,0,0,1,35.3,3.9a19.5,19.5,0,0,1,7.8,8.3,26.1,26.1,0,0,1,2.8,12.6V37.5H46A27,27,0,0,1,58.1,40a19.4,19.4,0,0,1,8.2,7,20.4,20.4,0,0,1,2.9,10.9,19.4,19.4,0,0,1-3,10.9,19.9,19.9,0,0,1-8.3,7.1A28.1,28.1,0,0,1,46,78.3Z" stroke="#000" stroke-miterlimit="10" stroke-width="2"/><path d="M100.5,78.3A28.2,28.2,0,0,1,92.1,77a27.1,27.1,0,0,1-7.7-4.1,19.2,19.2,0,0,1-5.6-6.7,18.7,18.7,0,0,1-2.1-9,26.2,26.2,0,0,1,.6-5.4c.5-1.8,1.1-3.6,1.8-5.5L90.6,18.9c2.5-5.8,5.5-10.2,9.1-13.3S108.1,1,113.9,1s10.7,1.6,14.3,4.7,6.5,7.6,8.9,13.2l11.4,27.4a32,32,0,0,1,1.8,5.5,35,35,0,0,1,.5,5.4,20.1,20.1,0,0,1-1.8,8.6,18.9,18.9,0,0,1-5.3,6.6,23,23,0,0,1-7.6,4.4,26.6,26.6,0,0,1-9,1.5,20.9,20.9,0,0,1-7.2-1.2,19.9,19.9,0,0,1-6.2-3.8,19.9,19.9,0,0,1-6.1,3.7A18.7,18.7,0,0,1,100.5,78.3Z" stroke="#000" stroke-miterlimit="10" stroke-width="2"/><path d="M192,78.3c-6,0-10.7-1.6-14.3-4.8a34,34,0,0,1-8.9-13.1L157.2,33a38.6,38.6,0,0,1-1.7-5.5,24.8,24.8,0,0,1-.6-5.4A23.3,23.3,0,0,1,157.5,11a19.3,19.3,0,0,1,7.6-7.4A24.4,24.4,0,0,1,176.6,1a29.8,29.8,0,0,1,7.9,1.2,19.2,19.2,0,0,1,7,3.5,24.5,24.5,0,0,1,7.9-3.6A30.2,30.2,0,0,1,206.8,1a18.8,18.8,0,0,1,13.3,5.2,19.6,19.6,0,0,1,7.3-3.9A28.4,28.4,0,0,1,235.6,1a24.1,24.1,0,0,1,11.3,2.5,18.2,18.2,0,0,1,7.5,7.3,22.2,22.2,0,0,1,2.7,11.3,24.8,24.8,0,0,1-.6,5.4,24.7,24.7,0,0,1-1.7,5.5L243.2,60.4c-2.4,5.8-5.4,10.2-9.1,13.3s-8.3,4.6-14.1,4.6a27,27,0,0,1-7.7-1.1,21.9,21.9,0,0,1-6.4-3.4A21.7,21.7,0,0,1,192,78.3Z" stroke="#000" stroke-miterlimit="10" stroke-width="2"/><path d="M292.5,78.3a34.4,34.4,0,0,1-13.8-2.5,19.9,19.9,0,0,1-8.9-7.5,22,22,0,0,1-3.2-12.1,24.9,24.9,0,0,1,1.5-8.7,21,21,0,0,1,4-7.2,27.2,27.2,0,0,1-4.5-9.5,43.7,43.7,0,0,1-1-7.8,22.4,22.4,0,0,1,3.2-12.2,20,20,0,0,1,9.1-7.3A33.4,33.4,0,0,1,292.5,1h15.2a33.9,33.9,0,0,1,13.7,2.5,19.6,19.6,0,0,1,9,7.5c2.1,3.2,3.1,7.2,3.1,12a26,26,0,0,1-1.5,8.9,19.6,19.6,0,0,1-4.1,7.2,23.5,23.5,0,0,1,4.6,9.4,36.1,36.1,0,0,1,1,7.8,22,22,0,0,1-3.2,12.1,20.7,20.7,0,0,1-9,7.5,35.5,35.5,0,0,1-13.6,2.4Z" stroke="#000" stroke-miterlimit="10" stroke-width="2"/><path d="M419.3,78.3a31.2,31.2,0,0,1-8.5-1.2,20.7,20.7,0,0,1-7.5-3.9,16.6,16.6,0,0,1-4.8-7.1,18.2,18.2,0,0,1-9.9-5.1,24.4,24.4,0,0,1-5.8-9.7,36,36,0,0,1-2-11.7,37.1,37.1,0,0,1,3-14.9,37.5,37.5,0,0,1,8.3-12.4A41,41,0,0,1,404.4,4a38.5,38.5,0,0,1,29.8,0,40.3,40.3,0,0,1,12.4,8.3,39.1,39.1,0,0,1,8.3,12.4,38.8,38.8,0,0,1,2.9,14.9,39.7,39.7,0,0,1-2.9,15,38.7,38.7,0,0,1-8.3,12.3,40.3,40.3,0,0,1-12.4,8.3A35.5,35.5,0,0,1,419.3,78.3Z" stroke="#000" stroke-miterlimit="10" stroke-width="2"/><path d="M491,78.3a23.1,23.1,0,0,1-11.9-2.9,20,20,0,0,1-8.1-8.2,26.5,26.5,0,0,1-2.8-12.5V23.1c0-7.3,2.3-12.8,7-16.5S486.1,1,493.9,1h21.2c6.6,0,11.7,1.5,15.4,4.5s5.5,7.3,5.5,13.1a15.9,15.9,0,0,1-1.7,7.7,12.3,12.3,0,0,1-5.3,5.3,15.4,15.4,0,0,1,2.3,8c0,4.4-1.2,7.8-3.6,10.1a12.5,12.5,0,0,1-9.3,3.5h-4.3v1.5a25.4,25.4,0,0,1-2.9,12.5,20,20,0,0,1-8.1,8.2A23.8,23.8,0,0,1,491,78.3Z" stroke="#000" stroke-miterlimit="10" stroke-width="2"/><path d="M40,182.4a25.8,25.8,0,0,1-11.7-2.7,22.8,22.8,0,0,1-8.8-7.4,18.2,18.2,0,0,1-3.4-11,25.7,25.7,0,0,1,.6-5.5,37.4,37.4,0,0,1,1.7-5.4L30,123c2.4-5.8,5.4-10.2,9.1-13.3s8.3-4.6,14.1-4.6A21.9,21.9,0,0,1,68.7,111,19.6,19.6,0,0,1,83,105.1c6,0,10.8,1.6,14.4,4.7a36.3,36.3,0,0,1,8.8,13.2l11.6,27.4a22.5,22.5,0,0,1,1.7,5.4,25.7,25.7,0,0,1,.6,5.5,18.8,18.8,0,0,1-3.4,11.2,22.5,22.5,0,0,1-8.8,7.3,27,27,0,0,1-11.6,2.6,22.8,22.8,0,0,1-7-1.1,19.9,19.9,0,0,1-5.9-3.2,21.6,21.6,0,0,1-13.7,4.3A26.5,26.5,0,0,1,61,181a20.1,20.1,0,0,1-7-4.3,20.9,20.9,0,0,1-6.4,4.2A19.1,19.1,0,0,1,40,182.4Z" stroke="#000" stroke-miterlimit="10" stroke-width="2"/><path d="M166.4,182.4a30.6,30.6,0,0,1-8.5-1.2,19.2,19.2,0,0,1-7.5-3.9,15.5,15.5,0,0,1-4.8-7.1,17.5,17.5,0,0,1-9.9-5.1,25.5,25.5,0,0,1-5.9-9.8,35.7,35.7,0,0,1-1.9-11.6,37.9,37.9,0,0,1,3-15,35.7,35.7,0,0,1,8.3-12.3,38.7,38.7,0,0,1,12.3-8.3,38.5,38.5,0,0,1,29.8,0,39.8,39.8,0,0,1,12.3,8.3,37.1,37.1,0,0,1,8.3,12.3,37.9,37.9,0,0,1,3,15,37.1,37.1,0,0,1-3,14.9,38.6,38.6,0,0,1-8.3,12.4,39.8,39.8,0,0,1-12.3,8.3A35.9,35.9,0,0,1,166.4,182.4Z" stroke="#000" stroke-miterlimit="10" stroke-width="2"/><path d="M251,182.4c-6.8,0-12.3-2.2-16.4-6.5s-6.1-10.1-6.1-17.3V146.4a19.9,19.9,0,0,1-12.9-6.8,20.2,20.2,0,0,1-4.8-13.6c0-6.3,2.2-11.4,6.5-15.2s10-5.7,17.2-5.7h32.8c7.1,0,12.9,1.9,17.2,5.7s6.5,8.9,6.5,15.2a21.2,21.2,0,0,1-2.1,9.6,19.6,19.6,0,0,1-6.1,7,24.1,24.1,0,0,1-9.4,3.8v12.2c0,7.2-2,13-6.1,17.3S257.8,182.4,251,182.4Z" stroke="#000" stroke-miterlimit="10" stroke-width="2"/><path d="M322,182.4c-6.8,0-12.2-2.2-16.3-6.5s-6.1-10-6.1-17.1v-30c0-7.2,2-12.9,6.1-17.2s9.5-6.5,16.3-6.5,12.3,2.1,16.4,6.5,6.1,10,6.1,17.2v30c0,7.1-2.1,12.8-6.1,17.1S328.9,182.4,322,182.4Z" stroke="#000" stroke-miterlimit="10" stroke-width="2"/><path d="M393.3,182.4a31.2,31.2,0,0,1-8.5-1.2,20.7,20.7,0,0,1-7.5-3.9,15.5,15.5,0,0,1-4.8-7.1,18.2,18.2,0,0,1-9.9-5.1,25.5,25.5,0,0,1-5.9-9.8,38.6,38.6,0,0,1-1.9-11.6,37.9,37.9,0,0,1,3-15,37.1,37.1,0,0,1,8.3-12.3,39.8,39.8,0,0,1,12.3-8.3,38.5,38.5,0,0,1,29.8,0,38.7,38.7,0,0,1,12.3,8.3,35.7,35.7,0,0,1,8.3,12.3,37.9,37.9,0,0,1,3,15A38.7,38.7,0,0,1,420.5,171a38.7,38.7,0,0,1-12.3,8.3A35.5,35.5,0,0,1,393.3,182.4Z" stroke="#000" stroke-miterlimit="10" stroke-width="2"/><path d="M465,182.4c-7.1,0-12.7-2.1-16.7-6.4s-6.1-10-6.1-17.4V128.5c0-7,1.9-12.7,5.7-17s9.2-6.4,16.1-6.4a21.1,21.1,0,0,1,7.3,1.1,22,22,0,0,1,6.6,3.7,21.1,21.1,0,0,1,6.8-3.6,27.8,27.8,0,0,1,8.3-1.2c7.2,0,12.8,2.1,16.9,6.4s6.1,10,6.1,17.3V159c0,7.1-2,12.8-6,17s-9.3,6.4-15.9,6.4a23.8,23.8,0,0,1-7.3-1.1,21.6,21.6,0,0,1-6.6-3.6,21.9,21.9,0,0,1-6.8,3.5A28.4,28.4,0,0,1,465,182.4Z" stroke="#000" stroke-miterlimit="10" stroke-width="2"/><path d="M23.4,71.2c-4.8,0-8.5-1.5-11.2-4.4s-4-7-4-12.1V24.8c0-5.3,1.3-9.4,4-12.3s6.5-4.3,11.2-4.3S32,9.6,34.7,12.5s4,7,4,12.3V37.2a41.1,41.1,0,0,0-6.5,1.9,57.2,57.2,0,0,0-6,2.5,3.7,3.7,0,0,0-2.3,3.3,4.5,4.5,0,0,0,1.4,3.6,3.6,3.6,0,0,0,2.4.9,4.6,4.6,0,0,0,1.9-.4A67.4,67.4,0,0,1,37,46.1a25.8,25.8,0,0,1,9-1.4c4.7,0,8.7,1.1,11.7,3.4S62,53.5,62,57.9s-1.3,7.3-4.2,9.7S51,71.2,46,71.2Z" fill="#fff"/><path d="M127.1,71.2a11.7,11.7,0,0,1-7.8-2.7,19.3,19.3,0,0,1-5.7-8.2l-2.7-6.4h9.9a4,4,0,0,0,3.6-1.7,4.1,4.1,0,0,0,.2-4l-6.5-15.3a3.6,3.6,0,0,0-3.4-2.6h-.2a4.5,4.5,0,0,0-3.4,1.5,4,4,0,0,0-.6,4.3l4.1,9.7h-9.9a4.3,4.3,0,0,0-3.4,1.5c-.6.7-1.2,2-.4,4.1L106,63.5a25.5,25.5,0,0,0,1.3,2.9l1.1,1.9a11.2,11.2,0,0,1-3.3,2,11.4,11.4,0,0,1-4.6.9,21.3,21.3,0,0,1-5.2-.8,18.3,18.3,0,0,1-5.5-2.5,12.4,12.4,0,0,1-4.2-4.3A11.7,11.7,0,0,1,84,57.2a19.4,19.4,0,0,1,.4-4,32.4,32.4,0,0,1,1.3-4.1L97.3,21.7c2-4.8,4.4-8.4,6.9-10.5a15,15,0,0,1,9.7-3,15.3,15.3,0,0,1,9.6,3c2.5,2.1,4.9,5.7,6.9,10.5l11.5,27.4a38.4,38.4,0,0,1,1.3,4.1,19.9,19.9,0,0,1,.5,4,11.8,11.8,0,0,1-2.5,7.6,15.1,15.1,0,0,1-6.4,4.7A19.9,19.9,0,0,1,127.1,71.2Z" fill="#fff"/><path d="M220,71.2a14.7,14.7,0,0,1-9.6-3.1c-2.6-2.1-4.9-5.6-7-10.5l-4.1-9.9a3.6,3.6,0,0,0-3.5-2.5,5.1,5.1,0,0,0-3.7,1.5,3.6,3.6,0,0,0-.4,4.3l4.2,9.8c.8,1.8,1.6,3.5,2.4,5a25.9,25.9,0,0,0,1.9,3.3,10.4,10.4,0,0,1-3.2,1.4,19.5,19.5,0,0,1-5,.7,15,15,0,0,1-9.7-3.1c-2.5-2.1-4.9-5.6-6.9-10.5L163.8,30.2a33.8,33.8,0,0,1-1.3-4.2,17.4,17.4,0,0,1-.5-3.9,13.2,13.2,0,0,1,2.3-8.1A14.2,14.2,0,0,1,170,9.6a15.7,15.7,0,0,1,6.6-1.4c4,0,7.3.8,9.6,2.6a18.2,18.2,0,0,1,5.9,8.2l6.6,15.5a3.8,3.8,0,0,0,3.5,2.5,5.1,5.1,0,0,0,3.7-1.5,3.6,3.6,0,0,0,.4-4.3l-6.6-15.4-1.5-3.1a12.8,12.8,0,0,0-1.1-2,16.6,16.6,0,0,1,4.6-1.9,25,25,0,0,1,5.1-.6,11.9,11.9,0,0,1,7.8,2.6,19.5,19.5,0,0,1,5.7,8.2l6.5,15.5a3.6,3.6,0,0,0,3.4,2.5,5,5,0,0,0,3.7-1.5,3.3,3.3,0,0,0,.4-4.3l-6.4-15.4q-.7-1.7-1.5-3a9.5,9.5,0,0,0-1-1.7,10.7,10.7,0,0,1,4.3-2,22.8,22.8,0,0,1,5.8-.9,15.7,15.7,0,0,1,6.6,1.4,13.3,13.3,0,0,1,5.6,4.4c1.5,2,2.2,4.7,2.2,8.1a17.2,17.2,0,0,1-.4,3.9,34.5,34.5,0,0,1-1.4,4.2L236.6,57.6q-3.2,7.4-6.9,10.5A15.2,15.2,0,0,1,220,71.2Z" fill="#fff"/><path d="M292.5,71.2a30.1,30.1,0,0,1-10.1-1.6,12.9,12.9,0,0,1-6.3-4.8,15.1,15.1,0,0,1-2.3-8.6,18.7,18.7,0,0,1,.9-5.9,19.1,19.1,0,0,1,1.8-3.8l2.7,2.2a36.7,36.7,0,0,0,4.4,2.7l12.7,7a4.8,4.8,0,0,0,2.1.6,3.7,3.7,0,0,0,2.2-.8,4.5,4.5,0,0,0,1.8-3.4,3.5,3.5,0,0,0-2.2-3.6l-12.6-7.1a31.1,31.1,0,0,1-7.3-5.5,22.3,22.3,0,0,1-4.8-7.1,21.9,21.9,0,0,1-1.7-8.5,14.6,14.6,0,0,1,2.2-8.4,13.2,13.2,0,0,1,6.2-4.8,29,29,0,0,1,10.3-1.6h15.2a27.8,27.8,0,0,1,10.1,1.6,14,14,0,0,1,6.3,4.8,14.4,14.4,0,0,1,2.3,8.4,18.7,18.7,0,0,1-.9,5.9,15.7,15.7,0,0,1-1.9,3.9l-2.7-2.2c-1.4-.9-2.8-1.8-4.3-2.6l-12.7-7.1a5.8,5.8,0,0,0-2.1-.5,3.1,3.1,0,0,0-2.1.7,4.5,4.5,0,0,0-2,3.3c-.1,1.1.2,2.6,2.3,3.7l12.6,7a30.5,30.5,0,0,1,10.1,9,21.7,21.7,0,0,1,3.7,12.2,15.3,15.3,0,0,1-2.2,8.3,14.2,14.2,0,0,1-6.3,4.9,28.3,28.3,0,0,1-10.2,1.7Z" fill="#fff"/><path d="M419.3,71.2a17.1,17.1,0,0,1-7.9-1.7,12.2,12.2,0,0,1-5-4.5,13,13,0,0,1-1.7-6.6c0-2.9.9-4.9,2.7-6.3a13.3,13.3,0,0,1,7.5-2h2.7c4.1,0,7.3-1,9.4-2.9a9.8,9.8,0,0,0,3.3-7.6,10.8,10.8,0,0,0-2.9-7.7,9.8,9.8,0,0,0-7.4-3.1,11.4,11.4,0,0,0-8.4,3.2,3.4,3.4,0,0,0-1.1,4,4,4,0,0,0,2.7,2.8l1.2.2a4.1,4.1,0,0,0,2.8-1.2,3.7,3.7,0,0,1,2.2-.8,3.1,3.1,0,0,1,2.1.6,2.6,2.6,0,0,1,.7,2,1.9,1.9,0,0,1-.8,1.8,7.8,7.8,0,0,1-3.7.6h-2.4a21.8,21.8,0,0,0-13.2,4c-3.7,2.7-5.6,6.7-5.6,11.8v.6a14.2,14.2,0,0,1-3.7-3.3,20.4,20.4,0,0,1-3.5-6.9,27.1,27.1,0,0,1-1.3-8.6,31.2,31.2,0,0,1,2.4-12.2,31.6,31.6,0,0,1,6.8-10,31.1,31.1,0,0,1,10-6.8,30.4,30.4,0,0,1,12.1-2.4,31.2,31.2,0,0,1,12.2,2.4,30.7,30.7,0,0,1,9.9,6.8,30.1,30.1,0,0,1,6.8,10,31.5,31.5,0,0,1-6.8,34.5,30.1,30.1,0,0,1-10,6.8A30.8,30.8,0,0,1,419.3,71.2Z" fill="#fff"/><path d="M491,71.2c-4.7,0-8.6-1.5-11.4-4.4s-4.3-7-4.3-12.1V23.1c0-5.1,1.6-8.8,4.9-11.2s7.9-3.7,13.7-3.7h21.3c3.7,0,6.5.4,8.5,1.4a9,9,0,0,1,4,3.7,11.5,11.5,0,0,1,1.2,5.3,7.5,7.5,0,0,1-2.7,6.1,11.4,11.4,0,0,1-7.3,2.3,44.7,44.7,0,0,1-10-1,25.2,25.2,0,0,0-5.6-1,3.6,3.6,0,0,0-3.4,1.7,4.7,4.7,0,0,0-.4,3.5,3.8,3.8,0,0,0,2.5,2.7,66.7,66.7,0,0,0,7.8,1.6,70.3,70.3,0,0,0,9.3.6H521l1.4-.2a6.8,6.8,0,0,1,1.7,4.7,7.8,7.8,0,0,1-1.4,4.8,5.6,5.6,0,0,1-4.4,1.7H502.7a4,4,0,0,0-2.9,1.2,3.7,3.7,0,0,0-1.2,2.9,4.1,4.1,0,0,0,1.2,3,4.3,4.3,0,0,0,2.9,1H507v.5a19.2,19.2,0,0,1-2,8.9,13.5,13.5,0,0,1-5.5,5.6A17.2,17.2,0,0,1,491,71.2Z" fill="#fff"/><path d="M96.3,175.2a14.2,14.2,0,0,1-4.2-.6,13.9,13.9,0,0,1-2.8-1.2,28,28,0,0,0,2.1-3.4,35.6,35.6,0,0,0,2.4-5.2L99,152.3c.9-2.2.3-3.6-.5-4.4a4.3,4.3,0,0,0-3.3-1.5h-.3a3.9,3.9,0,0,0-3.3,2.7l-5.3,12.6a35.8,35.8,0,0,1-4.5,7.9,13.9,13.9,0,0,1-5.2,4.3,16.7,16.7,0,0,1-6.9,1.3,20.2,20.2,0,0,1-6.4-.9,13,13,0,0,1-4.3-2.7l.9-1.6a14.2,14.2,0,0,0,1.2-2.5,3.7,3.7,0,0,0-.1-3.1l-6.4-15.5a4,4,0,0,0-3.4-2.6h-.3a4.9,4.9,0,0,0-3.3,1.3c-.8.8-1.6,2.1-.6,4.5l5.8,13.8a19.3,19.3,0,0,1-5.4,6.9,11.9,11.9,0,0,1-7.4,2.4,22.2,22.2,0,0,1-5.4-.7,22.7,22.7,0,0,1-5.5-2.5,13.3,13.3,0,0,1-4.2-4.3,11.7,11.7,0,0,1-1.6-6.4,14.8,14.8,0,0,1,.5-4.1,19.6,19.6,0,0,1,1.3-4.1l11.5-27.4c2.1-4.9,4.4-8.4,6.9-10.4a15.2,15.2,0,0,1,9.7-3.1,16.6,16.6,0,0,1,6.1,1.1,12.5,12.5,0,0,1,4.4,2.9l-.7,1.3a16.3,16.3,0,0,0-1.1,2.3,3.8,3.8,0,0,0,0,3.3l6.4,15.5a3.8,3.8,0,0,0,3.3,2.5h.3a5.3,5.3,0,0,0,3.4-1.3c.8-.8,1.5-2.2.6-4.4L70,121.6a18.1,18.1,0,0,1,5.5-7,12.2,12.2,0,0,1,7.5-2.4,15.2,15.2,0,0,1,9.7,3.1c2.6,2,4.9,5.5,6.9,10.4l11.5,27.4a19.6,19.6,0,0,1,1.3,4.1,14.8,14.8,0,0,1,.5,4.1,11.7,11.7,0,0,1-1.6,6.4,13.3,13.3,0,0,1-4.2,4.3,22.7,22.7,0,0,1-5.5,2.5A20.9,20.9,0,0,1,96.3,175.2Z" fill="#fff"/><path d="M166.4,175.2a17.8,17.8,0,0,1-8-1.6,11.9,11.9,0,0,1-4.9-4.5,12.3,12.3,0,0,1-1.7-6.6q0-4.4,2.7-6.3a12.3,12.3,0,0,1,7.5-2.1h2.6c4.1,0,7.3-.9,9.5-2.8a9.8,9.8,0,0,0,3.3-7.6,10.9,10.9,0,0,0-3-7.8,10.1,10.1,0,0,0-7.4-3,11.9,11.9,0,0,0-8.4,3.1,4,4,0,0,0-1.1,4.1,4.4,4.4,0,0,0,2.7,2.8l1.3.2a4.3,4.3,0,0,0,2.8-1.2,2.9,2.9,0,0,1,2.2-.8,3.3,3.3,0,0,1,2.1.6,2.8,2.8,0,0,1,.6,2c0,1.1-.4,1.6-.8,1.8a7.5,7.5,0,0,1-3.7.6h-2.4a21.3,21.3,0,0,0-13.2,4c-3.6,2.7-5.5,6.7-5.5,11.7v.7a12.8,12.8,0,0,1-3.7-3.3,22.5,22.5,0,0,1-3.6-6.9,30.3,30.3,0,0,1-1.3-8.6,31.3,31.3,0,0,1,2.5-12.2,30.1,30.1,0,0,1,6.8-10,30.7,30.7,0,0,1,9.9-6.8,31.3,31.3,0,0,1,12.2-2.5,30.4,30.4,0,0,1,12.1,2.5,31.1,31.1,0,0,1,10,6.8,31.6,31.6,0,0,1,6.8,10,32.2,32.2,0,0,1,0,24.4,33.3,33.3,0,0,1-6.8,10.1,30.6,30.6,0,0,1-22.1,9.2Z" fill="#fff"/><path d="M251,175.2c-4.8,0-8.5-1.4-11.2-4.3s-4.1-7-4.1-12.3V147.9H249a4.1,4.1,0,0,0,4.1-4.1,3.8,3.8,0,0,0-1.2-2.8,3.6,3.6,0,0,0-2.9-1.3H234.5c-5.3,0-9.4-1.2-12.3-3.7s-4.2-5.7-4.2-10,1.4-7.7,4.2-10.1,7-3.7,12.3-3.7h32.8c5.2,0,9.3,1.3,12.2,3.7s4.2,5.7,4.2,10.1-1.1,7-3.4,9.3-5.9,3.8-10.4,4.3a4.2,4.2,0,0,0-2.5,1.2,3.5,3.5,0,0,0-1.1,2.9v14.9c0,5.3-1.4,9.4-4.1,12.3S255.8,175.2,251,175.2Z" fill="#fff"/><path d="M322,175.2c-4.8,0-8.4-1.4-11.2-4.3s-4-7-4-12.1v-30c0-5.2,1.3-9.3,4-12.2s6.5-4.4,11.2-4.4,8.6,1.5,11.3,4.4,4,7,4,12.2v30c0,5.1-1.3,9.2-4,12.1S326.9,175.2,322,175.2Z" fill="#fff"/><path d="M393.3,175.2a17.1,17.1,0,0,1-7.9-1.6,12.2,12.2,0,0,1-5-4.5,13.2,13.2,0,0,1-1.7-6.6q0-4.4,2.7-6.3a12.3,12.3,0,0,1,7.5-2.1h2.7c4.1,0,7.3-.9,9.4-2.8a9.8,9.8,0,0,0,3.3-7.6,10.9,10.9,0,0,0-3-7.8,9.7,9.7,0,0,0-7.3-3,11.7,11.7,0,0,0-8.4,3.1,3.9,3.9,0,0,0-1.2,4.1,4.7,4.7,0,0,0,2.7,2.8l1.3.2a4.1,4.1,0,0,0,2.8-1.2,3.2,3.2,0,0,1,2.2-.8,3.3,3.3,0,0,1,2.1.6,2.8,2.8,0,0,1,.7,2,1.8,1.8,0,0,1-.9,1.8,7.3,7.3,0,0,1-3.6.6h-2.5a21,21,0,0,0-13.1,4c-3.7,2.7-5.6,6.7-5.6,11.7v.7a14.2,14.2,0,0,1-3.7-3.3,22.5,22.5,0,0,1-3.6-6.9,30.3,30.3,0,0,1-1.2-8.6,31.2,31.2,0,0,1,2.4-12.2,30.1,30.1,0,0,1,6.8-10,31.1,31.1,0,0,1,10-6.8,30.4,30.4,0,0,1,12.1-2.5,31.3,31.3,0,0,1,12.2,2.5,30.7,30.7,0,0,1,9.9,6.8,30.1,30.1,0,0,1,6.8,10,31.5,31.5,0,0,1-6.8,34.5,30.1,30.1,0,0,1-10,6.8A30.7,30.7,0,0,1,393.3,175.2Z" fill="#fff"/><path d="M494.1,175.2a13.4,13.4,0,0,1-11.4-5.4,68.7,68.7,0,0,1-5.7-8.5l-7.2-12.6a3.7,3.7,0,0,0-3.3-2.2H466a5.5,5.5,0,0,0-3.5,2,3.7,3.7,0,0,0,0,4.3l7.2,12.6,2.7,4.5a24.3,24.3,0,0,0,1.9,2.9,12,12,0,0,1-3.6,1.7,20.2,20.2,0,0,1-5.7.7c-5,0-8.9-1.4-11.6-4.4s-4.1-7-4.1-12.2V128.5c0-4.9,1.3-8.9,3.8-11.9s6.1-4.4,10.9-4.4a13.2,13.2,0,0,1,6.2,1.3,15.1,15.1,0,0,1,5.2,4.2,46.5,46.5,0,0,1,5.7,8.4l7.3,12.7a3.8,3.8,0,0,0,3.3,2.2h.5a4.5,4.5,0,0,0,3.4-2,3.5,3.5,0,0,0,0-4.3L488.3,122c-.9-1.7-1.9-3.2-2.7-4.5a22.6,22.6,0,0,0-2-2.8,17.8,17.8,0,0,1,9.4-2.5c5.1,0,9,1.5,11.7,4.4s4.1,7,4.1,12.2V159c0,5-1.2,9-3.7,11.9S499,175.2,494.1,175.2Z" fill="#fff"/></g></g></svg>