<svg xmlns="http://www.w3.org/2000/svg" viewBox="0 0 782.4 183.4"><title>MacArthur_Mobile</title><g id="Layer_2" data-name="Layer 2"><g id="Layer_1-2" data-name="Layer 1"><path d="M24.9,78.3a25.8,25.8,0,0,1-11.7-2.7,22,22,0,0,1-8.8-7.4A18,18,0,0,1,1,57.2a24.8,24.8,0,0,1,.6-5.4,43,43,0,0,1,1.7-5.5L14.9,18.9c2.4-5.8,5.4-10.2,9-13.3S32.3,1,38.1,1A22,22,0,0,1,53.6,6.9a22,22,0,0,1,6.5-4.4A20.1,20.1,0,0,1,67.9,1c6,0,10.8,1.6,14.3,4.7s6.5,7.6,8.9,13.2l11.5,27.4a32,32,0,0,1,1.8,5.5,24.8,24.8,0,0,1,.6,5.4,19.3,19.3,0,0,1-3.4,11.2,21.7,21.7,0,0,1-8.8,7.3,25.6,25.6,0,0,1-11.6,2.6,20.1,20.1,0,0,1-7-1.1A18.8,18.8,0,0,1,68.3,74a21.6,21.6,0,0,1-13.7,4.3,24.3,24.3,0,0,1-8.8-1.4,22.1,22.1,0,0,1-7-4.3,17.9,17.9,0,0,1-6.3,4.2A19.4,19.4,0,0,1,24.9,78.3Z" stroke="#000" stroke-miterlimit="10" stroke-width="2"/><path d="M81.2,70.7a13.5,13.5,0,0,1-4.1-.6l-2.2-.9c.6-1,1.3-2,1.8-3s1.7-3.4,2.5-5.2l5.1-12.6a4.2,4.2,0,0,0-.5-4.9,5,5,0,0,0-3.7-1.7h-.3c-1.2,0-2.8.6-3.8,2.9L70.7,57.4a32.8,32.8,0,0,1-4.4,7.8,15,15,0,0,1-5,4.2,17.4,17.4,0,0,1-6.7,1.3,19.8,19.8,0,0,1-6.3-1,12.5,12.5,0,0,1-3.8-2.3,7.5,7.5,0,0,0,.7-1.2,15.1,15.1,0,0,0,1.2-2.6,4.3,4.3,0,0,0,0-3.5L39.9,44.6a4.4,4.4,0,0,0-3.8-2.9h-.4a4.9,4.9,0,0,0-3.6,1.5c-.9.8-1.7,2.4-.7,5l5.7,13.6A20.5,20.5,0,0,1,32,68.3a11.1,11.1,0,0,1-7.1,2.4,22,22,0,0,1-5.3-.8,19.9,19.9,0,0,1-5.4-2.4,12.1,12.1,0,0,1-4-4.1,12.1,12.1,0,0,1-1.5-6.2,18.7,18.7,0,0,1,.4-4,31,31,0,0,1,1.3-4L22,21.8c2-4.8,4.3-8.2,6.7-10.2s5.6-2.9,9.4-2.9a15.5,15.5,0,0,1,5.9,1,15.6,15.6,0,0,1,4,2.5l-.6,1c-.4.7-.7,1.5-1.1,2.4a3.8,3.8,0,0,0,0,3.6l6.4,15.5a4.2,4.2,0,0,0,3.7,2.8h.4A5.3,5.3,0,0,0,60.5,36c.7-.7,1.9-2.2.7-4.9L55.4,17.5A17.5,17.5,0,0,1,60.6,11a11.6,11.6,0,0,1,7.3-2.3c3.8,0,7,.9,9.4,2.9S82,17,84,21.8L95.5,49.2a20.7,20.7,0,0,1,1.3,4,19,19,0,0,1,.5,4,12.1,12.1,0,0,1-1.5,6.2,13.4,13.4,0,0,1-4.1,4.1,19.3,19.3,0,0,1-5.3,2.4A21.3,21.3,0,0,1,81.2,70.7Z" fill="#fff"/><path d="M136,78.3a27.2,27.2,0,0,1-8.4-1.3,26.4,26.4,0,0,1-7.8-4.1,20.3,20.3,0,0,1-5.6-6.7,18.7,18.7,0,0,1-2.1-9,21.1,21.1,0,0,1,.7-5.4,43,43,0,0,1,1.7-5.5l11.6-27.4c2.4-5.8,5.4-10.2,9-13.3S143.5,1,149.3,1,160,2.6,163.6,5.7s6.5,7.6,8.9,13.2l11.4,27.4a32,32,0,0,1,1.8,5.5,25.9,25.9,0,0,1,.5,5.4,20.1,20.1,0,0,1-1.8,8.6,18.9,18.9,0,0,1-5.3,6.6,23.5,23.5,0,0,1-7.5,4.4,27.6,27.6,0,0,1-9.1,1.5,20.9,20.9,0,0,1-7.2-1.2,18.4,18.4,0,0,1-6.1-3.8,22.6,22.6,0,0,1-6.1,3.7A19,19,0,0,1,136,78.3Z" stroke="#000" stroke-miterlimit="10" stroke-width="2"/><path d="M162.5,70.7a11.6,11.6,0,0,1-7.5-2.6c-2.2-1.7-4-4.4-5.5-8L147,54.4h9.2a4.6,4.6,0,0,0,4.1-1.9,4.8,4.8,0,0,0,.1-4.5L154,32.8c-1-2.5-2.8-3-3.8-3H150a5.4,5.4,0,0,0-3.9,1.7,4.2,4.2,0,0,0-.6,4.8l3.7,9h-9a4.6,4.6,0,0,0-3.8,1.6,4.5,4.5,0,0,0-.5,4.7L141,63.7a15.1,15.1,0,0,0,1.3,2.9l.9,1.6a12.2,12.2,0,0,1-7.2,2.5,20.6,20.6,0,0,1-5.2-.8,17,17,0,0,1-5.3-2.4,12.4,12.4,0,0,1-4.1-4.1,12.1,12.1,0,0,1-1.5-6.2,16.9,16.9,0,0,1,.4-3.8,28,28,0,0,1,1.3-4.1l11.6-27.4c2-4.8,4.3-8.2,6.7-10.3a14.8,14.8,0,0,1,9.4-2.9,14.2,14.2,0,0,1,9.3,2.9c2.5,2.1,4.8,5.5,6.8,10.3l11.4,27.4a19.6,19.6,0,0,1,1.3,4.1,17.3,17.3,0,0,1,.5,3.8,10.9,10.9,0,0,1-2.4,7.3,16,16,0,0,1-6.2,4.6A20.2,20.2,0,0,1,162.5,70.7Z" fill="#fff"/><path d="M233.4,78.3c-8.2,0-15.3-1.5-21.4-4.7a34.1,34.1,0,0,1-14-13.4c-3.3-5.7-4.9-12.6-4.9-20.5s1.6-15,5-20.8A33.8,33.8,0,0,1,212.3,5.6c6-3.1,13.1-4.6,21.2-4.6h9.6a30.5,30.5,0,0,1,13.7,2.8,20.4,20.4,0,0,1,8.9,8,24.2,24.2,0,0,1,3,12.4c0,6.2-1.8,11.5-5.6,15.6a18.4,18.4,0,0,1,4.7,7.1,25.2,25.2,0,0,1,1.6,9.3,21.8,21.8,0,0,1-3.1,11.9,20.2,20.2,0,0,1-8.5,7.6,27.8,27.8,0,0,1-12.6,2.6Z" stroke="#000" stroke-miterlimit="10" stroke-width="2"/><path d="M233.4,70.7A38.9,38.9,0,0,1,216,67a26.1,26.1,0,0,1-11.3-10.5,33.9,33.9,0,0,1-4-16.8c0-6.5,1.3-12.1,4-16.7a25.9,25.9,0,0,1,11.1-10.6c4.9-2.5,10.8-3.7,17.6-3.7h9.4a25.7,25.7,0,0,1,10.1,1.7,12.5,12.5,0,0,1,6,5.1,15.6,15.6,0,0,1,2.2,8.7c0,4.8-1.5,8.5-4.4,11.2s-6.9,4.1-11.7,4.1h-9.5V35.2a4.5,4.5,0,0,0-1.4-3.3,4.6,4.6,0,0,0-6.4,0,4.5,4.5,0,0,0-1.4,3.3v8.9c0,2.9,1.7,4.6,4.5,4.6H245a27.4,27.4,0,0,0,13.2-3.2,14.7,14.7,0,0,1,2.4,4,17.8,17.8,0,0,1,1.1,6.7c0,4.9-1.4,8.4-4.4,10.8s-7.4,3.7-12.9,3.7Z" fill="#fff"/><path d="M303,78.3a28.3,28.3,0,0,1-8.5-1.3,27.1,27.1,0,0,1-7.7-4.1,19.2,19.2,0,0,1-5.6-6.7,18.7,18.7,0,0,1-2.1-9,26.2,26.2,0,0,1,.6-5.4c.5-1.8,1.1-3.6,1.8-5.5l11.6-27.4c2.4-5.8,5.4-10.2,9-13.3S310.5,1,316.3,1,327,2.6,330.6,5.7s6.5,7.6,8.9,13.2l11.4,27.4a32,32,0,0,1,1.8,5.5,35,35,0,0,1,.5,5.4,20.1,20.1,0,0,1-1.8,8.6,18.9,18.9,0,0,1-5.3,6.6,23,23,0,0,1-7.6,4.4,26.6,26.6,0,0,1-9,1.5,20.9,20.9,0,0,1-7.2-1.2,18.4,18.4,0,0,1-6.1-3.8A21.7,21.7,0,0,1,310,77,18.5,18.5,0,0,1,303,78.3Z" stroke="#000" stroke-miterlimit="10" stroke-width="2"/><path d="M329.5,70.7a11.6,11.6,0,0,1-7.5-2.6,19.3,19.3,0,0,1-5.6-8L314,54.4h9.2a4.6,4.6,0,0,0,4.1-1.9,4.8,4.8,0,0,0,.1-4.5l-6.5-15.2a4.1,4.1,0,0,0-3.8-3h-.2a5.2,5.2,0,0,0-3.8,1.7,4.4,4.4,0,0,0-.7,4.8l3.8,9h-9.1a4.6,4.6,0,0,0-3.7,1.6c-.8.9-1.4,2.4-.5,4.7l5,12.1a25.9,25.9,0,0,0,1.4,2.9,8,8,0,0,0,.8,1.6,9.7,9.7,0,0,1-2.8,1.6,10.4,10.4,0,0,1-4.3.9,20.6,20.6,0,0,1-5.2-.8,18.6,18.6,0,0,1-5.4-2.4,11.4,11.4,0,0,1-5.5-10.3,16.9,16.9,0,0,1,.4-3.8,28,28,0,0,1,1.3-4.1l11.6-27.4c2-4.8,4.3-8.2,6.7-10.3a14.8,14.8,0,0,1,9.4-2.9,13.9,13.9,0,0,1,9.2,2.9c2.6,2.1,4.8,5.5,6.9,10.3l11.4,27.4a19.6,19.6,0,0,1,1.3,4.1,17.3,17.3,0,0,1,.5,3.8,10.9,10.9,0,0,1-2.4,7.3,16,16,0,0,1-6.2,4.6A20.2,20.2,0,0,1,329.5,70.7Z" fill="#fff"/><path d="M385.7,78.3c-6.8,0-12.3-2.1-16.4-6.5s-6.1-10-6.1-17.1V46.9a30.6,30.6,0,0,1,.7-6.7,16.8,16.8,0,0,1,2.2-5.1,22.5,22.5,0,0,1-2.2-5.6,30.6,30.6,0,0,1-.7-6.4,21.7,21.7,0,0,1,3-11.5,21.1,21.1,0,0,1,8.4-7.8A27,27,0,0,1,387.3,1h23.3c6.2,0,11.3,1.1,15.4,3.4a21.1,21.1,0,0,1,9.1,9.8,35.5,35.5,0,0,1,3,15.2,28.5,28.5,0,0,1-3.8,15.1,18.6,18.6,0,0,1,2.8,6.2,27.3,27.3,0,0,1,.9,6.5,19.1,19.1,0,0,1-3.1,10.7,22,22,0,0,1-8.4,7.6,24,24,0,0,1-11.6,2.8,23.7,23.7,0,0,1-7.6-1.2,22.2,22.2,0,0,1-6.3-3.7,20.5,20.5,0,0,1-7.2,3.7A28.4,28.4,0,0,1,385.7,78.3Z" stroke="#000" stroke-miterlimit="10" stroke-width="2"/><path d="M385.7,70.7c-4.7,0-8.2-1.4-10.9-4.2s-3.9-6.8-3.9-11.8V47.1c0-3.9.8-6.9,2.5-9a23.8,23.8,0,0,1,7.7-5.7c2-1.1,2.5-2.5,2.5-3.5a4.2,4.2,0,0,0-1.4-3.6,4.1,4.1,0,0,0-2.9-1l-1.7.2a19.5,19.5,0,0,0-3.8,1.6,16.5,16.5,0,0,0-2.5,1.5,2.9,2.9,0,0,0-.2-.9c-.1-1.1-.2-2.3-.2-3.6a15,15,0,0,1,1.9-7.8,12.3,12.3,0,0,1,5.4-4.9A21.2,21.2,0,0,1,387,8.7h23.2c6.8,0,11.9,1.7,15.3,5.2s5,8.7,5,15.5a22,22,0,0,1-3.3,12.2,15.7,15.7,0,0,1-8.9,6.7,4,4,0,0,0-3,2.9,4.6,4.6,0,0,0,.5,3.8,3.9,3.9,0,0,0,3.6,2,12.4,12.4,0,0,0,5.9-1.8,30.1,30.1,0,0,0,4.2-2.7,5.6,5.6,0,0,1,.4,1.2,12.3,12.3,0,0,1,.5,3.5,12.8,12.8,0,0,1-1.9,6.3,16.9,16.9,0,0,1-5.5,5.1,16.2,16.2,0,0,1-8.1,2,14,14,0,0,1-4.1-.6,9.9,9.9,0,0,1-3.6-1.7,17.9,17.9,0,0,1-3.2-3L393.1,52.6a4.4,4.4,0,0,0-3.3-1.7l-1.2.2a5,5,0,0,0-3.2,2.8,4.3,4.3,0,0,0,.7,4.6l6.3,7.6,2.2,2.6a16,16,0,0,1-3,1.3A25.8,25.8,0,0,1,385.7,70.7Z" fill="#fff"/><path d="M402.8,35.8a2.9,2.9,0,0,1-2.1-.9,2.9,2.9,0,0,1-.9-2.2V25.6a2.9,2.9,0,0,1,.9-2.1,3.2,3.2,0,0,1,2.1-.8,3.3,3.3,0,0,1,2.2.8,2.9,2.9,0,0,1,.9,2.1v7.1a3.1,3.1,0,0,1-3.1,3.1Z" stroke="#000" stroke-miterlimit="10" stroke-width="2.25"/><path d="M486.7,78.3c-6.9,0-12.3-2.1-16.4-6.5s-6.1-10-6.1-17.2V42.4a21,21,0,0,1-13-6.9,20.4,20.4,0,0,1-4.7-13.6c0-6.3,2.1-11.4,6.4-15.2S463,1,470.2,1h32.7c7.2,0,13,1.9,17.3,5.7s6.5,8.9,6.5,15.2a20,20,0,0,1-2.2,9.6,18.4,18.4,0,0,1-6,7,25.9,25.9,0,0,1-9.4,3.9V54.6c0,7.2-2,12.9-6.1,17.2S493.5,78.3,486.7,78.3Z" stroke="#000" stroke-miterlimit="10" stroke-width="2"/><path d="M486.7,70.7c-4.7,0-8.3-1.4-10.9-4.2s-3.9-6.8-3.9-11.9V44.3h12.8a4.6,4.6,0,0,0,3.2-1.3,4.5,4.5,0,0,0,1.4-3.3,5,5,0,0,0-1.3-3.2,4.5,4.5,0,0,0-3.3-1.4H470.2c-5.2,0-9.2-1.2-12-3.5s-4-5.5-4-9.7,1.3-7.4,4-9.7,6.8-3.5,12-3.5h32.7c5.1,0,9.1,1.2,11.9,3.5s4.1,5.5,4.1,9.7-1.1,6.8-3.3,9-5.7,3.6-10.1,4.1a5.2,5.2,0,0,0-2.8,1.3,4.4,4.4,0,0,0-1.3,3.3v15c0,5.1-1.3,9.1-3.9,11.9S491.4,70.7,486.7,70.7Z" fill="#fff"/><path d="M557.7,78.3a23.1,23.1,0,0,1-11.9-2.9,20.6,20.6,0,0,1-7.8-8.2,27.7,27.7,0,0,1-2.7-12.5V24.8A27.3,27.3,0,0,1,538,12.2a20.8,20.8,0,0,1,7.8-8.3A24.1,24.1,0,0,1,557.7,1c6.2,0,11.2,1.8,15.1,5.3,3.9-3.5,9-5.3,15.1-5.3a23.4,23.4,0,0,1,11.8,2.9,19.5,19.5,0,0,1,7.8,8.3,26.1,26.1,0,0,1,2.8,12.6V54.7a26.5,26.5,0,0,1-2.8,12.5,19.3,19.3,0,0,1-7.8,8.2,22.5,22.5,0,0,1-11.8,2.9,25.1,25.1,0,0,1-8.4-1.3,20.9,20.9,0,0,1-6.7-3.8,24.3,24.3,0,0,1-6.7,3.8A25.5,25.5,0,0,1,557.7,78.3Z" stroke="#000" stroke-miterlimit="10" stroke-width="2"/><path d="M587.9,70.7a17.2,17.2,0,0,1-5.8-.9,10.4,10.4,0,0,1-3.6-1.9,29,29,0,0,0,2.2-5.4,31,31,0,0,0,.9-7.8h4.5a4.8,4.8,0,0,0,3.3-1.2,4.5,4.5,0,0,0,1.4-3.3,4.5,4.5,0,0,0-1.4-3.2,4.5,4.5,0,0,0-3.3-1.4h-9a4.9,4.9,0,0,0-3.4,1.3,4.8,4.8,0,0,0-1.2,3.3v4.5c0,5-1.3,9-3.9,11.8s-6.2,4.2-10.9,4.2a15.9,15.9,0,0,1-7.9-1.9,12.4,12.4,0,0,1-5-5.4,18.6,18.6,0,0,1-1.9-8.7V24.8a18.2,18.2,0,0,1,1.9-8.8,12.1,12.1,0,0,1,5-5.5,15.9,15.9,0,0,1,7.9-1.8c4.7,0,8.3,1.3,10.9,4.1s3.9,6.8,3.9,11.8h-4.4a4.6,4.6,0,0,0-4.6,4.6,4.2,4.2,0,0,0,1.3,3.2,4.3,4.3,0,0,0,3.3,1.3h9a4.2,4.2,0,0,0,4.5-4.5V24.8a29.6,29.6,0,0,0-2.9-13.3,13.1,13.1,0,0,1,3.5-1.9,17,17,0,0,1,5.7-.9,16.6,16.6,0,0,1,8,1.8,12.7,12.7,0,0,1,5,5.5,20.9,20.9,0,0,1,1.7,8.8V54.7a21.1,21.1,0,0,1-1.7,8.7,12.5,12.5,0,0,1-5,5.4A16.6,16.6,0,0,1,587.9,70.7Z" fill="#fff"/><path d="M659.1,78.3c-8,0-14.7-1.2-20.3-3.7a26,26,0,0,1-12.7-11.3c-2.9-5.1-4.4-11.5-4.4-19.3V24.7a27.1,27.1,0,0,1,2.7-12.5,19.9,19.9,0,0,1,7.7-8.3A22.9,22.9,0,0,1,643.7,1,24.5,24.5,0,0,1,652,2.4a19.4,19.4,0,0,1,6.5,3.9A21.2,21.2,0,0,1,673.2,1a22.7,22.7,0,0,1,11.6,2.9,20.6,20.6,0,0,1,7.7,8.3,27.1,27.1,0,0,1,2.7,12.5V45.9c0,6.9-1.5,12.9-4.6,17.7a28.8,28.8,0,0,1-12.6,11A44.6,44.6,0,0,1,659.1,78.3Z" stroke="#000" stroke-miterlimit="10" stroke-width="2"/><path d="M659.1,70.7c-6.8,0-12.6-1-17-2.9a18.8,18.8,0,0,1-9.5-8.7c-2.1-3.9-3.2-9-3.2-15.1V24.7a20.9,20.9,0,0,1,1.7-8.8,11.7,11.7,0,0,1,4.9-5.4,15.4,15.4,0,0,1,7.7-1.8c4.6,0,8.1,1.3,10.6,4.1s3.8,6.8,3.8,11.9V40.1h-4.3a4.3,4.3,0,0,0-3.2,1.4,4.4,4.4,0,0,0-1.3,3.2,4.6,4.6,0,0,0,4.5,4.5h8.8c2.9,0,4.6-1.7,4.6-4.5V24.8a32.4,32.4,0,0,0-.9-7.9,24.9,24.9,0,0,0-2.1-5.6,14.3,14.3,0,0,1,9-2.6,15.4,15.4,0,0,1,7.7,1.8,13.5,13.5,0,0,1,4.9,5.4,19.5,19.5,0,0,1,1.7,8.8V45.9c0,5.7-1.2,10.4-3.8,14A23.1,23.1,0,0,1,673.6,68,37.5,37.5,0,0,1,659.1,70.7Z" fill="#fff"/><path d="M729,78.3c-6.8,0-12.3-2.1-16.4-6.5s-6.1-10-6.1-17.1V46.9a25.1,25.1,0,0,1,.8-6.7,14.5,14.5,0,0,1,2.1-5.1,19,19,0,0,1-2.1-5.6,24.9,24.9,0,0,1-.8-6.4,21.7,21.7,0,0,1,3-11.5,21.1,21.1,0,0,1,8.4-7.8A27.3,27.3,0,0,1,730.6,1h23.3c6.2,0,11.3,1.1,15.4,3.4a21.1,21.1,0,0,1,9.1,9.8,35.5,35.5,0,0,1,3,15.2,28.5,28.5,0,0,1-3.8,15.1,18.6,18.6,0,0,1,2.8,6.2,27.3,27.3,0,0,1,.9,6.5,19.1,19.1,0,0,1-3.1,10.7,22,22,0,0,1-8.4,7.6,24,24,0,0,1-11.6,2.8,23.7,23.7,0,0,1-7.6-1.2,22.2,22.2,0,0,1-6.3-3.7,20.5,20.5,0,0,1-7.2,3.7A28.4,28.4,0,0,1,729,78.3Z" stroke="#000" stroke-miterlimit="10" stroke-width="2"/><path d="M729,70.7c-4.7,0-8.2-1.4-10.9-4.2s-3.9-6.8-3.9-11.8V47.1c0-3.9.8-6.9,2.5-9a23.8,23.8,0,0,1,7.7-5.7,4.4,4.4,0,0,0,2.6-3.5,4.3,4.3,0,0,0-1.5-3.6,4.1,4.1,0,0,0-2.9-1l-1.7.2a19.5,19.5,0,0,0-3.8,1.6,16.5,16.5,0,0,0-2.5,1.5c0-.3-.1-.6-.1-.9a20.2,20.2,0,0,1-.3-3.6,15,15,0,0,1,1.9-7.8,12.3,12.3,0,0,1,5.4-4.9,21.2,21.2,0,0,1,8.8-1.7h23.2c6.8,0,11.9,1.7,15.3,5.2s5,8.7,5,15.5a22,22,0,0,1-3.3,12.2,15.8,15.8,0,0,1-8.8,6.7,4,4,0,0,0-3.1,2.9,4.6,4.6,0,0,0,.5,3.8,3.9,3.9,0,0,0,3.6,2,12.4,12.4,0,0,0,5.9-1.8,30.1,30.1,0,0,0,4.2-2.7,5.6,5.6,0,0,1,.4,1.2,12.3,12.3,0,0,1,.5,3.5,12.8,12.8,0,0,1-1.9,6.3,16.9,16.9,0,0,1-5.5,5.1,15.9,15.9,0,0,1-8.1,2,14,14,0,0,1-4.1-.6,9.9,9.9,0,0,1-3.6-1.7,17.9,17.9,0,0,1-3.2-3L736.4,52.6a4.4,4.4,0,0,0-3.3-1.7l-1.2.2a5,5,0,0,0-3.2,2.8,4.3,4.3,0,0,0,.7,4.6l6.3,7.6,2.2,2.6a13.6,13.6,0,0,1-3,1.3A25.8,25.8,0,0,1,729,70.7Z" fill="#fff"/><path d="M746.1,35.8a2.9,2.9,0,0,1-2.1-.9,2.9,2.9,0,0,1-.9-2.2V25.6a2.9,2.9,0,0,1,.9-2.1,3.2,3.2,0,0,1,2.1-.8,3.1,3.1,0,0,1,2.2.8,2.9,2.9,0,0,1,.9,2.1v7.1a2.9,2.9,0,0,1-.9,2.2A2.8,2.8,0,0,1,746.1,35.8Z" stroke="#000" stroke-miterlimit="10" stroke-width="2.25"/><path d="M215.4,182.4c-6.8,0-12.2-2.2-16.1-6.5s-5.8-10-5.8-17.1v-7.9a26.5,26.5,0,0,1,.7-6.7,17.3,17.3,0,0,1,2.2-5,22.5,22.5,0,0,1-2.2-5.6,25.6,25.6,0,0,1-.7-6.4,22,22,0,0,1,3-11.6,20.2,20.2,0,0,1,8.4-7.7,26.7,26.7,0,0,1,12.7-2.8H242c6.2,0,11.3,1.1,15.4,3.4a21.6,21.6,0,0,1,9.1,9.8,35.2,35.2,0,0,1,3,15.2,32.9,32.9,0,0,1-3.2,14.8,23,23,0,0,1-9.1,9.9,26.7,26.7,0,0,1-13.8,3.4h-6.2a26.8,26.8,0,0,1-3.3,11.1,19.2,19.2,0,0,1-7.5,7.2A22.6,22.6,0,0,1,215.4,182.4Z" stroke="#000" stroke-miterlimit="10" stroke-width="2"/><path d="M215.4,174.7c-4.7,0-8.1-1.3-10.5-4.1s-3.7-6.8-3.7-11.8v-7.6a15.1,15.1,0,0,1,2.2-8.5c1.5-2.3,4-4.3,7.6-6a5,5,0,0,0,2.7-3,4.1,4.1,0,0,0-4.1-5.3,11.6,11.6,0,0,0-4.5,1.2,16.2,16.2,0,0,0-3.5,2.1,20.9,20.9,0,0,1-.4-4.5,16.1,16.1,0,0,1,1.8-7.8,13.1,13.1,0,0,1,5.5-4.9,19.4,19.4,0,0,1,8.8-1.8h24.3c6.8,0,11.9,1.8,15.2,5.3s5,8.7,5,15.5a25.7,25.7,0,0,1-2.1,10.6,15.4,15.4,0,0,1-6.1,7.2,18,18,0,0,1-10.2,2.7H226.2a4.4,4.4,0,0,0-3.2,1.3,4.6,4.6,0,0,0-1.3,3.2,4.4,4.4,0,0,0,1.3,3.2,4.5,4.5,0,0,0,3.2,1.4h3a16,16,0,0,1-2,5.7,10.9,10.9,0,0,1-4.6,4.4A15.9,15.9,0,0,1,215.4,174.7Z" fill="#fff"/><path d="M234.2,139.8a3.2,3.2,0,0,1-2.1-.8,2.8,2.8,0,0,1-1-2.2v-7.1a2.6,2.6,0,0,1,1-2.1,2.9,2.9,0,0,1,2.1-.9,2.9,2.9,0,0,1,2.2.9,2.9,2.9,0,0,1,.9,2.1v7.1a3.1,3.1,0,0,1-.9,2.2A3.3,3.3,0,0,1,234.2,139.8Z" stroke="#000" stroke-miterlimit="10" stroke-width="2.25"/><path d="M301.8,182.4c-6.8,0-12.2-2.2-16.3-6.5s-6.1-10-6.1-17.1v-30c0-7.2,2-12.9,6.1-17.2s9.5-6.5,16.3-6.5a22.6,22.6,0,0,1,11.9,2.9,19.3,19.3,0,0,1,7.8,8.2,26.6,26.6,0,0,1,2.8,12.6v12.8h.1a27.7,27.7,0,0,1,12.2,2.5,19.1,19.1,0,0,1,8.1,7,20.3,20.3,0,0,1,2.9,10.8,18.7,18.7,0,0,1-11.3,18,26.4,26.4,0,0,1-11.9,2.5Z" stroke="#000" stroke-miterlimit="10" stroke-width="2"/><path d="M301.8,174.7c-4.7,0-8.2-1.3-10.8-4.1s-3.9-6.8-3.9-11.8v-30c0-5,1.3-9.1,3.9-11.9s6.2-4.2,10.8-4.2,8.3,1.4,10.9,4.2,3.9,6.8,3.9,11.9v12.1a31.7,31.7,0,0,0-6.2,1.8c-2.2.8-4.2,1.7-6,2.5a4.1,4.1,0,0,0-2.6,3.7,4.6,4.6,0,0,0,1.6,4,3.9,3.9,0,0,0,2.7,1.1,7.8,7.8,0,0,0,2.1-.4h.1a58.4,58.4,0,0,1,7.3-2.9,27.1,27.1,0,0,1,8.8-1.3,18.8,18.8,0,0,1,11.4,3.3c2.8,2.1,4.1,5.2,4.1,9.3s-1.3,7.1-4,9.3-6.6,3.5-11.5,3.5Z" fill="#fff"/><path d="M379,182.4a28.5,28.5,0,0,1-8.5-1.4,24.6,24.6,0,0,1-7.7-4,20.1,20.1,0,0,1-5.6-6.7,18.7,18.7,0,0,1-2.1-9,24.8,24.8,0,0,1,.6-5.4c.5-1.8,1.1-3.7,1.8-5.5L369.1,123c2.4-5.8,5.4-10.2,9-13.3s8.4-4.6,14.2-4.6,10.7,1.6,14.3,4.7,6.5,7.6,8.9,13.2l11.4,27.4a29.4,29.4,0,0,1,1.8,5.5,32.9,32.9,0,0,1,.5,5.4,20.4,20.4,0,0,1-1.8,8.6,19.8,19.8,0,0,1-5.3,6.6,24.8,24.8,0,0,1-7.6,4.4,26.6,26.6,0,0,1-9,1.5,18.8,18.8,0,0,1-7.2-1.3,16.9,16.9,0,0,1-6.1-3.8,20.7,20.7,0,0,1-6.1,3.8A19,19,0,0,1,379,182.4Z" stroke="#000" stroke-miterlimit="10" stroke-width="2"/><path d="M405.5,174.7a11.5,11.5,0,0,1-7.5-2.5,19.3,19.3,0,0,1-5.6-8l-2.4-5.7h9.2a4.3,4.3,0,0,0,4.2-6.4L397,136.8a4.1,4.1,0,0,0-3.9-2.9H393a5.2,5.2,0,0,0-3.9,1.7,4.2,4.2,0,0,0-.6,4.8l3.7,8.9h-9.1a4.7,4.7,0,0,0-3.7,1.7c-.8.9-1.4,2.3-.5,4.7l5.1,12.1a15.1,15.1,0,0,0,1.3,2.9c.3.6.5,1.1.8,1.6a9.7,9.7,0,0,1-2.8,1.6,10.3,10.3,0,0,1-4.3.8,20.2,20.2,0,0,1-5.2-.7,18.6,18.6,0,0,1-5.4-2.4,13.4,13.4,0,0,1-4-4.2,11.5,11.5,0,0,1-1.5-6.1,18.4,18.4,0,0,1,.4-3.9,31,31,0,0,1,1.3-4L376.2,126c2-4.8,4.3-8.3,6.7-10.3a16.1,16.1,0,0,1,18.7,0c2.5,2,4.8,5.5,6.8,10.3l11.4,27.4a20.7,20.7,0,0,1,1.3,4,18.9,18.9,0,0,1,.5,3.9,11.1,11.1,0,0,1-2.4,7.3,16,16,0,0,1-6.2,4.6A20.1,20.1,0,0,1,405.5,174.7Z" fill="#fff"/><path d="M476.4,182.4a46.6,46.6,0,0,1-21.4-4.7,34.1,34.1,0,0,1-14-13.4c-3.3-5.7-5-12.6-5-20.5s1.7-15,5.1-20.8a34.1,34.1,0,0,1,14.1-13.3c6.1-3.1,13.2-4.6,21.3-4.6h9.6a30.7,30.7,0,0,1,13.7,2.8,20.1,20.1,0,0,1,8.8,8,23.1,23.1,0,0,1,3.1,12.4c0,6.2-1.8,11.4-5.6,15.6a18.4,18.4,0,0,1,4.7,7.1,25.2,25.2,0,0,1,1.6,9.3,21.8,21.8,0,0,1-3.1,11.9,20.2,20.2,0,0,1-8.5,7.6,29.2,29.2,0,0,1-12.6,2.6Z" stroke="#000" stroke-miterlimit="10" stroke-width="2"/><path d="M476.4,174.7a39.6,39.6,0,0,1-17.5-3.6,26.7,26.7,0,0,1-11.2-10.6c-2.7-4.5-4-10.2-4-16.7s1.3-12.2,3.9-16.8a26.4,26.4,0,0,1,11.2-10.5,38.1,38.1,0,0,1,17.6-3.8h9.4a25.7,25.7,0,0,1,10.1,1.8,12.5,12.5,0,0,1,6,5.1,15.4,15.4,0,0,1,2.2,8.7c0,4.8-1.5,8.5-4.4,11.2s-6.9,4.1-11.7,4.1h-9.5v-4.3a4.5,4.5,0,0,0-1.4-3.3,4.4,4.4,0,0,0-3.2-1.3,4.8,4.8,0,0,0-3.2,1.3,4.5,4.5,0,0,0-1.4,3.3v8.9c0,2.9,1.7,4.6,4.5,4.6H488a27,27,0,0,0,13.1-3.2,13.6,13.6,0,0,1,2.5,4,19.6,19.6,0,0,1,1.1,6.7c0,4.8-1.4,8.4-4.4,10.8s-7.4,3.6-12.9,3.6Z" fill="#fff"/><path d="M548.9,182.4q-11.9,0-18.9-5.7c-4.6-3.7-6.9-9.2-6.9-16.3a26.6,26.6,0,0,1,1.4-8.8,30.6,30.6,0,0,1,3.9-7.9,41.1,41.1,0,0,1-3.9-8.2,27.3,27.3,0,0,1-1.4-8.3c0-7.3,2.3-12.9,7.1-16.6s10.9-5.5,18.7-5.5h21.6c6.6,0,11.8,1.4,15.5,4.3s5.5,7.3,5.5,13.3-2.4,10.2-7.1,13a12.1,12.1,0,0,1,1.8,3.8,14.2,14.2,0,0,1,.5,4.2,15,15,0,0,1-2.4,8.1,14.5,14.5,0,0,1,5.4,5.3,16.1,16.1,0,0,1,1.9,7.8q0,8.8-5.7,13.2c-3.8,2.9-8.9,4.3-15.2,4.3Z" stroke="#000" stroke-miterlimit="10" stroke-width="2"/><path d="M548.9,174.7q-8.5,0-13.5-3.6c-3.1-2.3-4.7-5.8-4.7-10.7a20.6,20.6,0,0,1,1.4-7.3,28,28,0,0,1,3.7-6.5,4.8,4.8,0,0,0,.1-5.7h-.1a23.3,23.3,0,0,1-3.7-6.7,19.7,19.7,0,0,1-1.4-6.9c0-4.8,1.5-8.4,4.7-10.8s7.7-3.7,13.5-3.7h21.8c4.1,0,7.1.6,8.9,1.7a7.5,7.5,0,0,1,3.4,3.7,15.4,15.4,0,0,1,.8,4.6,6.8,6.8,0,0,1-2.3,5.5c-1.6,1.5-3.9,2.2-6.9,2.2a36.8,36.8,0,0,1-9.2-.9,27.5,27.5,0,0,0-5.4-1,4.2,4.2,0,0,0-3.7,2,4.5,4.5,0,0,0-.6,3.9,4.2,4.2,0,0,0,3,3,42.1,42.1,0,0,0,7.9,1.7,79.7,79.7,0,0,0,8,.5h3a4,4,0,0,1,1,1.5,8.6,8.6,0,0,1,.5,2.7,6.1,6.1,0,0,1-1.7,4.3h-2.9a54.6,54.6,0,0,0-8.2.6,37.2,37.2,0,0,0-7.5,1.7,4,4,0,0,0-3,3,4.6,4.6,0,0,0,.5,3.8,4.3,4.3,0,0,0,3.8,1.9,18.4,18.4,0,0,0,5.5-1,37.8,37.8,0,0,1,8.9-.8c3,0,5.4.7,7,2.1s2.3,3.2,2.3,5.7a15.9,15.9,0,0,1-.8,4.6,7.3,7.3,0,0,1-3.4,3.6c-1.9,1.1-4.9,1.6-8.9,1.6Z" fill="#fff"/></g></g></svg>