<svg xmlns="http://www.w3.org/2000/svg" viewBox="0 0 782.4 183.4"><title>MacArtthur</title><g id="Layer_2" data-name="Layer 2"><g id="Layer_1-2" data-name="Layer 1"><path d="M24.9,78.3a25.8,25.8,0,0,1-11.7-2.7,22,22,0,0,1-8.8-7.4A18,18,0,0,1,1,57.2a24.8,24.8,0,0,1,.6-5.4,43,43,0,0,1,1.7-5.5L14.9,18.9c2.4-5.8,5.4-10.2,9-13.3S32.3,1,38.1,1A22,22,0,0,1,53.6,6.9a22,22,0,0,1,6.5-4.4A20.1,20.1,0,0,1,67.9,1c6,0,10.8,1.6,14.3,4.7s6.5,7.6,8.9,13.2l11.5,27.4a32,32,0,0,1,1.8,5.5,24.8,24.8,0,0,1,.6,5.4,19.3,19.3,0,0,1-3.4,11.2,21.7,21.7,0,0,1-8.8,7.3,25.6,25.6,0,0,1-11.6,2.6,20.1,20.1,0,0,1-7-1.1A18.8,18.8,0,0,1,68.3,74a21.6,21.6,0,0,1-13.7,4.3,24.3,24.3,0,0,1-8.8-1.4,22.1,22.1,0,0,1-7-4.3,17.9,17.9,0,0,1-6.3,4.2A19.4,19.4,0,0,1,24.9,78.3Z" stroke="#000" stroke-miterlimit="10" stroke-width="2"/><path d="M24.9,72.2a12.5,12.5,0,0,0,8-2.7,19.8,19.8,0,0,0,5.8-7.7L32.8,47.6q-.9-2.1.3-3.3A3.9,3.9,0,0,1,36,43.2a2.9,2.9,0,0,1,2.5,2L45,60.7A2.4,2.4,0,0,1,45,63a27.2,27.2,0,0,1-1.1,2.5l-1.2,2.2a13.1,13.1,0,0,0,5.1,3.4,19.8,19.8,0,0,0,6.8,1.1,16.7,16.7,0,0,0,7.3-1.5,14.7,14.7,0,0,0,5.6-4.5A36.3,36.3,0,0,0,72.1,58l5.2-12.6a3.2,3.2,0,0,1,2.6-2.1,3.8,3.8,0,0,1,2.8,1.2,3.3,3.3,0,0,1,.3,3.4L77.8,60.4c-.8,1.8-1.5,3.5-2.4,5.1a24.2,24.2,0,0,1-2.7,4.1,16.2,16.2,0,0,0,4,1.9,13.3,13.3,0,0,0,4.5.7,19.1,19.1,0,0,0,5.5-.9,20,20,0,0,0,5.8-2.5A13.5,13.5,0,0,0,97,64.1a12.7,12.7,0,0,0,1.8-6.9,21.8,21.8,0,0,0-.5-4.3,23.9,23.9,0,0,0-1.4-4.3L85.4,21.2q-3.2-7.5-7.2-10.8c-2.7-2.2-6.1-3.2-10.3-3.2a13.7,13.7,0,0,0-8.2,2.5,21.1,21.1,0,0,0-5.9,7.8l6.1,14.2c.5,1.4.4,2.5-.4,3.2a3.9,3.9,0,0,1-3,1.1,2.8,2.8,0,0,1-2.4-1.9L47.6,18.6a3.3,3.3,0,0,1,0-2.4l1.1-2.3,1.1-2a16.2,16.2,0,0,0-5.2-3.6,16.7,16.7,0,0,0-6.5-1.1c-4.2,0-7.6,1-10.3,3.2s-5.1,5.8-7.2,10.8L9,48.6a23.5,23.5,0,0,0-1.3,4.3,16.3,16.3,0,0,0-.5,4.3,12.6,12.6,0,0,0,1.7,6.9,15.6,15.6,0,0,0,4.5,4.7,21.8,21.8,0,0,0,5.9,2.5A19.7,19.7,0,0,0,24.9,72.2Z" fill="#fff"/><path d="M136,78.3a27.2,27.2,0,0,1-8.4-1.3,26.4,26.4,0,0,1-7.8-4.1,20.3,20.3,0,0,1-5.6-6.7,18.7,18.7,0,0,1-2.1-9,21.1,21.1,0,0,1,.7-5.4,43,43,0,0,1,1.7-5.5l11.6-27.4c2.4-5.8,5.4-10.2,9-13.3S143.5,1,149.3,1,160,2.6,163.6,5.7s6.5,7.6,8.9,13.2l11.4,27.4a32,32,0,0,1,1.8,5.5,25.9,25.9,0,0,1,.5,5.4,20.1,20.1,0,0,1-1.8,8.6,18.9,18.9,0,0,1-5.3,6.6,23.5,23.5,0,0,1-7.5,4.4,27.6,27.6,0,0,1-9.1,1.5,20.9,20.9,0,0,1-7.2-1.2,18.4,18.4,0,0,1-6.1-3.8,22.6,22.6,0,0,1-6.1,3.7A19,19,0,0,1,136,78.3Z" stroke="#000" stroke-miterlimit="10" stroke-width="2"/><path d="M136,72.2a13.6,13.6,0,0,0,9.1-3.7L143.6,66a21.4,21.4,0,0,1-1.2-2.8L137.3,51a3,3,0,0,1,.2-3.1,3.2,3.2,0,0,1,2.7-1.1h11.3l-4.6-11a3,3,0,0,1,.3-3.3,4,4,0,0,1,2.9-1.2,2.7,2.7,0,0,1,2.5,2l6.5,15.3a2.9,2.9,0,0,1-2.9,4.3H144.8l3.3,7.8a21.2,21.2,0,0,0,6,8.6,13,13,0,0,0,8.4,2.9,21.4,21.4,0,0,0,8.1-1.7,18,18,0,0,0,6.8-5,12.7,12.7,0,0,0,2.7-8.3,21.8,21.8,0,0,0-.5-4.2,23.9,23.9,0,0,0-1.4-4.3L166.8,21.3c-2.2-5-4.6-8.6-7.3-10.8a17.6,17.6,0,0,0-20.5,0q-4,3.3-7.2,10.8L120.2,48.7a35.2,35.2,0,0,0-1.3,4.3,16,16,0,0,0-.5,4.2,13.6,13.6,0,0,0,1.7,6.9,15.6,15.6,0,0,0,4.5,4.7,22.6,22.6,0,0,0,5.8,2.5A19.7,19.7,0,0,0,136,72.2Z" fill="#fff"/><path d="M233.4,78.3c-8.2,0-15.3-1.5-21.4-4.7a34.1,34.1,0,0,1-14-13.4c-3.3-5.7-4.9-12.6-4.9-20.5s1.6-15,5-20.8A33.8,33.8,0,0,1,212.3,5.6c6-3.1,13.1-4.6,21.2-4.6h9.6a30.5,30.5,0,0,1,13.7,2.8,20.4,20.4,0,0,1,8.9,8,24.2,24.2,0,0,1,3,12.4c0,6.2-1.8,11.5-5.6,15.6a18.4,18.4,0,0,1,4.7,7.1,25.2,25.2,0,0,1,1.6,9.3,21.8,21.8,0,0,1-3.1,11.9,20.2,20.2,0,0,1-8.5,7.6,27.8,27.8,0,0,1-12.6,2.6Z" stroke="#000" stroke-miterlimit="10" stroke-width="2"/><path d="M233.4,72.2h11c5.9,0,10.5-1.4,13.8-4s5-6.7,5-12A20.1,20.1,0,0,0,262,49a14.6,14.6,0,0,0-3.6-5.3A26,26,0,0,1,245,47.2H230.8c-2,0-3-1-3-3.1V35.2a2.7,2.7,0,0,1,1-2.2,2.9,2.9,0,0,1,4.2,0,2.7,2.7,0,0,1,1,2.2V41h11c5.2,0,9.4-1.5,12.7-4.5s4.9-7.1,4.9-12.3a17.4,17.4,0,0,0-2.4-9.5A15,15,0,0,0,253.5,9a28.5,28.5,0,0,0-10.7-1.8h-9.4q-10.7,0-18.3,3.9a28.1,28.1,0,0,0-11.8,11.1,35.7,35.7,0,0,0-4.1,17.5c0,6.8,1.4,12.7,4.2,17.5a27.2,27.2,0,0,0,11.9,11.1A39.6,39.6,0,0,0,233.4,72.2Z" fill="#fff"/><path d="M303,78.3a28.3,28.3,0,0,1-8.5-1.3,27.1,27.1,0,0,1-7.7-4.1,19.2,19.2,0,0,1-5.6-6.7,18.7,18.7,0,0,1-2.1-9,26.2,26.2,0,0,1,.6-5.4c.5-1.8,1.1-3.6,1.8-5.5l11.6-27.4c2.4-5.8,5.4-10.2,9-13.3S310.5,1,316.3,1,327,2.6,330.6,5.7s6.5,7.6,8.9,13.2l11.4,27.4a32,32,0,0,1,1.8,5.5,35,35,0,0,1,.5,5.4,20.1,20.1,0,0,1-1.8,8.6,18.9,18.9,0,0,1-5.3,6.6,23,23,0,0,1-7.6,4.4,26.6,26.6,0,0,1-9,1.5,20.9,20.9,0,0,1-7.2-1.2,18.4,18.4,0,0,1-6.1-3.8A21.7,21.7,0,0,1,310,77,18.5,18.5,0,0,1,303,78.3Z" stroke="#000" stroke-miterlimit="10" stroke-width="2"/><path d="M303,72.2a11.6,11.6,0,0,0,4.9-1,13.7,13.7,0,0,0,4.2-2.7L310.6,66l-1.3-2.8-5-12.2c-.5-1.3-.5-2.3.2-3.1a3.1,3.1,0,0,1,2.6-1.1h11.4l-4.7-11a3.2,3.2,0,0,1,.4-3.3,3.8,3.8,0,0,1,2.9-1.2c1.1,0,1.9.7,2.5,2l6.5,15.3a3.4,3.4,0,0,1-.1,3.1,3.2,3.2,0,0,1-2.8,1.2H311.8l3.3,7.8a22.1,22.1,0,0,0,5.9,8.6,13.3,13.3,0,0,0,8.5,2.9,21.4,21.4,0,0,0,8.1-1.7,18,18,0,0,0,6.8-5,12.7,12.7,0,0,0,2.7-8.3,21.8,21.8,0,0,0-.5-4.2,35.9,35.9,0,0,0-1.4-4.3L333.8,21.3c-2.2-5-4.6-8.6-7.3-10.8a17.6,17.6,0,0,0-20.5,0q-4,3.3-7.2,10.8L287.2,48.7a35.9,35.9,0,0,0-1.4,4.3,21.2,21.2,0,0,0-.4,4.2,12.6,12.6,0,0,0,1.7,6.9,15.6,15.6,0,0,0,4.5,4.7,22.6,22.6,0,0,0,5.8,2.5A19.7,19.7,0,0,0,303,72.2Z" fill="#fff"/><path d="M385.7,78.3c-6.8,0-12.3-2.1-16.4-6.5s-6.1-10-6.1-17.1V46.9a30.6,30.6,0,0,1,.7-6.7,16.8,16.8,0,0,1,2.2-5.1,22.5,22.5,0,0,1-2.2-5.6,30.6,30.6,0,0,1-.7-6.4,21.7,21.7,0,0,1,3-11.5,21.1,21.1,0,0,1,8.4-7.8A27,27,0,0,1,387.3,1h23.3c6.2,0,11.3,1.1,15.4,3.4a21.1,21.1,0,0,1,9.1,9.8,35.5,35.5,0,0,1,3,15.2,28.5,28.5,0,0,1-3.8,15.1,18.6,18.6,0,0,1,2.8,6.2,27.3,27.3,0,0,1,.9,6.5,19.1,19.1,0,0,1-3.1,10.7,22,22,0,0,1-8.4,7.6,24,24,0,0,1-11.6,2.8,23.7,23.7,0,0,1-7.6-1.2,22.2,22.2,0,0,1-6.3-3.7,20.5,20.5,0,0,1-7.2,3.7A28.4,28.4,0,0,1,385.7,78.3Z" stroke="#000" stroke-miterlimit="10" stroke-width="2"/><path d="M385.7,72.2a23.5,23.5,0,0,0,6.3-.8,13.5,13.5,0,0,0,4.8-2.4l-1.5-1.8-1.7-2.1-6.3-7.6a2.6,2.6,0,0,1-.5-3,3.6,3.6,0,0,1,2.2-2,2.7,2.7,0,0,1,2.9,1.1l10.9,12.7a15.3,15.3,0,0,0,3.6,3.2,11.6,11.6,0,0,0,4,2,16.3,16.3,0,0,0,4.5.6,18,18,0,0,0,8.9-2.2,17,17,0,0,0,5.9-5.7,12.3,12.3,0,0,0,2.2-7,14.8,14.8,0,0,0-.5-3.9,18.3,18.3,0,0,0-1.4-3.2,30.6,30.6,0,0,1-5.4,3.8,12.2,12.2,0,0,1-5.2,1.6,2.5,2.5,0,0,1-2.3-1.3,3.3,3.3,0,0,1-.4-2.6,2.7,2.7,0,0,1,2.1-1.9,17.3,17.3,0,0,0,9.7-7.3,23.8,23.8,0,0,0,3.5-13c0-7.2-1.8-12.7-5.5-16.5s-9-5.7-16.3-5.7H387a21.5,21.5,0,0,0-9.5,1.9,13.9,13.9,0,0,0-6,5.5,16.5,16.5,0,0,0-2.1,8.5,23.4,23.4,0,0,0,.3,3.8,13,13,0,0,0,.8,3.4,15,15,0,0,1,4-2.9A15.9,15.9,0,0,1,378,26a3.4,3.4,0,0,1,3.2.4,3.3,3.3,0,0,1,1,2.4,2.9,2.9,0,0,1-1.8,2.2,24.1,24.1,0,0,0-8.1,6.2c-2,2.3-2.9,5.6-2.9,9.9v7.6c0,5.4,1.4,9.7,4.3,12.8S380.6,72.2,385.7,72.2Z" fill="#fff"/><path d="M402.8,35.8a2.9,2.9,0,0,1-2.1-.9,2.9,2.9,0,0,1-.9-2.2V25.6a2.9,2.9,0,0,1,.9-2.1,3.2,3.2,0,0,1,2.1-.8,3.3,3.3,0,0,1,2.2.8,2.9,2.9,0,0,1,.9,2.1v7.1a3.1,3.1,0,0,1-3.1,3.1Z" stroke="#000" stroke-miterlimit="10" stroke-width="2"/><path d="M486.7,78.3c-6.9,0-12.3-2.1-16.4-6.5s-6.1-10-6.1-17.2V42.4a21,21,0,0,1-13-6.9,20.4,20.4,0,0,1-4.7-13.6c0-6.3,2.1-11.4,6.4-15.2S463,1,470.2,1h32.7c7.2,0,13,1.9,17.3,5.7s6.5,8.9,6.5,15.2a20,20,0,0,1-2.2,9.6,18.4,18.4,0,0,1-6,7,25.9,25.9,0,0,1-9.4,3.9V54.6c0,7.2-2,12.9-6.1,17.2S493.5,78.3,486.7,78.3Z" stroke="#000" stroke-miterlimit="10" stroke-width="2"/><path d="M486.7,72.2c5.1,0,9.1-1.6,11.9-4.7s4.3-7.4,4.3-12.9v-15a2.8,2.8,0,0,1,.9-2.2,3.1,3.1,0,0,1,1.9-.9c4.7-.6,8.4-2.1,10.9-4.5s3.8-5.8,3.8-10.1-1.5-8.2-4.6-10.8-7.4-3.9-12.9-3.9H470.2q-8.2,0-12.9,3.9c-3.1,2.6-4.6,6.2-4.6,10.8s1.5,8.2,4.6,10.8,7.4,3.9,12.9,3.9h14.5a3.2,3.2,0,0,1,2.2,1,2.9,2.9,0,0,1,.9,2.1,2.9,2.9,0,0,1-.9,2.2,3.1,3.1,0,0,1-2.2.9H470.4V54.6c0,5.5,1.4,9.8,4.3,12.9S481.6,72.2,486.7,72.2Z" fill="#fff"/><path d="M557.7,78.3a23.1,23.1,0,0,1-11.9-2.9,20.6,20.6,0,0,1-7.8-8.2,27.7,27.7,0,0,1-2.7-12.5V24.8A27.3,27.3,0,0,1,538,12.2a20.8,20.8,0,0,1,7.8-8.3A24.1,24.1,0,0,1,557.7,1c6.2,0,11.2,1.8,15.1,5.3,3.9-3.5,9-5.3,15.1-5.3a23.4,23.4,0,0,1,11.8,2.9,19.5,19.5,0,0,1,7.8,8.3,26.1,26.1,0,0,1,2.8,12.6V54.7a26.5,26.5,0,0,1-2.8,12.5,19.3,19.3,0,0,1-7.8,8.2,22.5,22.5,0,0,1-11.8,2.9,25.1,25.1,0,0,1-8.4-1.3,20.9,20.9,0,0,1-6.7-3.8,24.3,24.3,0,0,1-6.7,3.8A25.5,25.5,0,0,1,557.7,78.3Z" stroke="#000" stroke-miterlimit="10" stroke-width="2"/><path d="M557.7,72.2c5.1,0,9.1-1.6,12-4.7s4.3-7.4,4.3-12.8V50.2a3.3,3.3,0,0,1,.8-2.2,3,3,0,0,1,2.3-.9h9a2.9,2.9,0,0,1,2.2.9,2.9,2.9,0,0,1,0,4.4,2.9,2.9,0,0,1-2.2.8h-6v1.5a28.3,28.3,0,0,1-.9,7.4,26.2,26.2,0,0,1-2.6,6.2,14.9,14.9,0,0,0,5,2.9,18.1,18.1,0,0,0,6.3,1,17,17,0,0,0,8.7-2.1,13.3,13.3,0,0,0,5.6-6.1,20.6,20.6,0,0,0,1.9-9.3V24.8a21.2,21.2,0,0,0-1.9-9.5,13.8,13.8,0,0,0-5.6-6.1,20.1,20.1,0,0,0-15-1,17.2,17.2,0,0,0-4.9,2.9,26.5,26.5,0,0,1,3.4,13.7v4.4a2.7,2.7,0,0,1-3,3H568a3,3,0,0,1-2.1-.8,3.1,3.1,0,0,1,0-4.4,2.7,2.7,0,0,1,2.1-.9h6V24.8c0-5.5-1.4-9.8-4.3-13s-6.9-4.6-12-4.6a18,18,0,0,0-8.7,2,14.4,14.4,0,0,0-5.6,6.1,21.2,21.2,0,0,0-2,9.5V54.7a20.6,20.6,0,0,0,2,9.3,13.8,13.8,0,0,0,5.6,6.1A17,17,0,0,0,557.7,72.2Z" fill="#fff"/><path d="M659.1,78.3c-8,0-14.7-1.2-20.3-3.7a26,26,0,0,1-12.7-11.3c-2.9-5.1-4.4-11.5-4.4-19.3V24.7a27.1,27.1,0,0,1,2.7-12.5,19.9,19.9,0,0,1,7.7-8.3A22.9,22.9,0,0,1,643.7,1,24.5,24.5,0,0,1,652,2.4a19.4,19.4,0,0,1,6.5,3.9A21.2,21.2,0,0,1,673.2,1a22.7,22.7,0,0,1,11.6,2.9,20.6,20.6,0,0,1,7.7,8.3,27.1,27.1,0,0,1,2.7,12.5V45.9c0,6.9-1.5,12.9-4.6,17.7a28.8,28.8,0,0,1-12.6,11A44.6,44.6,0,0,1,659.1,78.3Z" stroke="#000" stroke-miterlimit="10" stroke-width="2"/><path d="M659.1,72.2a40.1,40.1,0,0,0,15-2.8A24.1,24.1,0,0,0,685,60.7c2.7-3.9,4-8.8,4-14.8V24.7a21.2,21.2,0,0,0-1.9-9.5,14.3,14.3,0,0,0-5.4-6,17.5,17.5,0,0,0-8.5-2c-4.5,0-8.2,1.2-10.9,3.8a20.2,20.2,0,0,1,2.5,6.2,29.9,29.9,0,0,1,.9,7.6V44.7a2.8,2.8,0,0,1-3.1,3.1h-8.8a3.1,3.1,0,0,1-3-3.1,3.5,3.5,0,0,1,.8-2.2,3.1,3.1,0,0,1,2.2-.9h5.8V24.7c0-5.5-1.4-9.7-4.2-12.9s-6.7-4.6-11.7-4.6a17.5,17.5,0,0,0-8.5,2,13.1,13.1,0,0,0-5.4,6,21.2,21.2,0,0,0-1.9,9.5V44c0,6.4,1.1,11.7,3.3,15.8a20.8,20.8,0,0,0,10.3,9.3C646.1,71.2,652,72.2,659.1,72.2Z" fill="#fff"/><path d="M729,78.3c-6.8,0-12.3-2.1-16.4-6.5s-6.1-10-6.1-17.1V46.9a25.1,25.1,0,0,1,.8-6.7,14.5,14.5,0,0,1,2.1-5.1,19,19,0,0,1-2.1-5.6,24.9,24.9,0,0,1-.8-6.4,21.7,21.7,0,0,1,3-11.5,21.1,21.1,0,0,1,8.4-7.8A27.3,27.3,0,0,1,730.6,1h23.3c6.2,0,11.3,1.1,15.4,3.4a21.1,21.1,0,0,1,9.1,9.8,35.5,35.5,0,0,1,3,15.2,28.5,28.5,0,0,1-3.8,15.1,18.6,18.6,0,0,1,2.8,6.2,27.3,27.3,0,0,1,.9,6.5,19.1,19.1,0,0,1-3.1,10.7,22,22,0,0,1-8.4,7.6,24,24,0,0,1-11.6,2.8,23.7,23.7,0,0,1-7.6-1.2,22.2,22.2,0,0,1-6.3-3.7,20.5,20.5,0,0,1-7.2,3.7A28.4,28.4,0,0,1,729,78.3Z" stroke="#000" stroke-miterlimit="10" stroke-width="2"/><path d="M729,72.2a23.5,23.5,0,0,0,6.3-.8,13.5,13.5,0,0,0,4.8-2.4l-1.5-1.8-1.7-2.1-6.3-7.6a2.6,2.6,0,0,1-.5-3,3.6,3.6,0,0,1,2.2-2,2.7,2.7,0,0,1,2.9,1.1l10.9,12.7a15.3,15.3,0,0,0,3.6,3.2,11.6,11.6,0,0,0,4,2,16.3,16.3,0,0,0,4.5.6,18,18,0,0,0,8.9-2.2,17,17,0,0,0,5.9-5.7,12.3,12.3,0,0,0,2.2-7,14.8,14.8,0,0,0-.5-3.9,13,13,0,0,0-1.4-3.2,30.6,30.6,0,0,1-5.4,3.8,12.2,12.2,0,0,1-5.2,1.6,2.5,2.5,0,0,1-2.3-1.3,2.9,2.9,0,0,1-.3-2.6,2.5,2.5,0,0,1,2-1.9,17.3,17.3,0,0,0,9.7-7.3,23.8,23.8,0,0,0,3.5-13c0-7.2-1.8-12.7-5.5-16.5s-9-5.7-16.3-5.7H730.3a21.5,21.5,0,0,0-9.5,1.9,13.9,13.9,0,0,0-6,5.5,16.5,16.5,0,0,0-2.1,8.5,23.4,23.4,0,0,0,.3,3.8,18.7,18.7,0,0,0,.8,3.4,15,15,0,0,1,4-2.9,15.9,15.9,0,0,1,3.5-1.4,3.4,3.4,0,0,1,3.2.4,3.3,3.3,0,0,1,1,2.4,2.9,2.9,0,0,1-1.8,2.2,24.1,24.1,0,0,0-8.1,6.2c-1.9,2.3-2.9,5.6-2.9,9.9v7.6c0,5.4,1.4,9.7,4.3,12.8S723.9,72.2,729,72.2Z" fill="#fff"/><path d="M746.1,35.8a2.9,2.9,0,0,1-2.1-.9,2.9,2.9,0,0,1-.9-2.2V25.6a2.9,2.9,0,0,1,.9-2.1,3.2,3.2,0,0,1,2.1-.8,3.1,3.1,0,0,1,2.2.8,2.9,2.9,0,0,1,.9,2.1v7.1a2.9,2.9,0,0,1-.9,2.2A2.8,2.8,0,0,1,746.1,35.8Z" stroke="#000" stroke-miterlimit="10" stroke-width="2"/><path d="M215.4,182.4c-6.8,0-12.2-2.2-16.1-6.5s-5.8-10-5.8-17.1v-7.9a26.5,26.5,0,0,1,.7-6.7,17.3,17.3,0,0,1,2.2-5,22.5,22.5,0,0,1-2.2-5.6,25.6,25.6,0,0,1-.7-6.4,22,22,0,0,1,3-11.6,20.2,20.2,0,0,1,8.4-7.7,26.7,26.7,0,0,1,12.7-2.8H242c6.2,0,11.3,1.1,15.4,3.4a21.6,21.6,0,0,1,9.1,9.8,35.2,35.2,0,0,1,3,15.2,32.9,32.9,0,0,1-3.2,14.8,23,23,0,0,1-9.1,9.9,26.7,26.7,0,0,1-13.8,3.4h-6.2a26.8,26.8,0,0,1-3.3,11.1,19.2,19.2,0,0,1-7.5,7.2A22.6,22.6,0,0,1,215.4,182.4Z" stroke="#000" stroke-miterlimit="10" stroke-width="2"/><path d="M215.4,176.2a16.2,16.2,0,0,0,7.9-1.7,12,12,0,0,0,5.2-5,18.8,18.8,0,0,0,2.4-7.9h-4.7a2.9,2.9,0,0,1-2.1-.9,3.1,3.1,0,0,1,0-4.4,2.8,2.8,0,0,1,2.1-.8h17.2a20,20,0,0,0,11-2.9,17.3,17.3,0,0,0,6.7-7.9,27,27,0,0,0,2.2-11.2q0-10.8-5.4-16.5c-3.6-3.9-9.1-5.8-16.3-5.8H217.3a21.2,21.2,0,0,0-9.5,2,13.6,13.6,0,0,0-6.1,5.5,17.2,17.2,0,0,0-2,8.5,18.6,18.6,0,0,0,1.1,7.1,17.6,17.6,0,0,1,4.9-3.3,10.6,10.6,0,0,1,3.9-1.1A2.8,2.8,0,0,1,212,131a3,3,0,0,1,.3,2.3,3.5,3.5,0,0,1-2,2c-3.8,1.9-6.5,4-8.2,6.6a16.9,16.9,0,0,0-2.4,9.3v7.6c0,5.4,1.3,9.7,4,12.8S210.3,176.2,215.4,176.2Z" fill="#fff"/><path d="M234.2,139.8a3.2,3.2,0,0,1-2.1-.8,2.8,2.8,0,0,1-1-2.2v-7.1a2.6,2.6,0,0,1,1-2.1,2.9,2.9,0,0,1,2.1-.9,2.9,2.9,0,0,1,2.2.9,2.9,2.9,0,0,1,.9,2.1v7.1a3.1,3.1,0,0,1-.9,2.2A3.3,3.3,0,0,1,234.2,139.8Z" stroke="#000" stroke-miterlimit="10" stroke-width="2"/><path d="M301.8,182.4c-6.8,0-12.2-2.2-16.3-6.5s-6.1-10-6.1-17.1v-30c0-7.2,2-12.9,6.1-17.2s9.5-6.5,16.3-6.5a22.6,22.6,0,0,1,11.9,2.9,19.3,19.3,0,0,1,7.8,8.2,26.6,26.6,0,0,1,2.8,12.6v12.8h.1a27.7,27.7,0,0,1,12.2,2.5,19.1,19.1,0,0,1,8.1,7,20.3,20.3,0,0,1,2.9,10.8,18.7,18.7,0,0,1-11.3,18,26.4,26.4,0,0,1-11.9,2.5Z" stroke="#000" stroke-miterlimit="10" stroke-width="2"/><path d="M301.8,176.2h22.6c5.3,0,9.4-1.2,12.5-3.8a13.2,13.2,0,0,0,4.5-10.5c0-4.6-1.5-8.1-4.7-10.5s-7.3-3.6-12.3-3.6a27.5,27.5,0,0,0-9.3,1.4,47.4,47.4,0,0,0-7.4,3c-1.4.5-2.5.4-3.3-.4a3.1,3.1,0,0,1-1.1-2.8,3,3,0,0,1,1.7-2.5l6-2.4a39,39,0,0,1,7.1-2V128.8c0-5.5-1.4-9.8-4.3-12.9s-6.8-4.7-12-4.7-9,1.6-11.9,4.7-4.3,7.4-4.3,12.9v30c0,5.4,1.4,9.7,4.3,12.8S296.7,176.2,301.8,176.2Z" fill="#fff"/><path d="M379,182.4a28.5,28.5,0,0,1-8.5-1.4,24.6,24.6,0,0,1-7.7-4,20.1,20.1,0,0,1-5.6-6.7,18.7,18.7,0,0,1-2.1-9,24.8,24.8,0,0,1,.6-5.4c.5-1.8,1.1-3.7,1.8-5.5L369.1,123c2.4-5.8,5.4-10.2,9-13.3s8.4-4.6,14.2-4.6,10.7,1.6,14.3,4.7,6.5,7.6,8.9,13.2l11.4,27.4a29.4,29.4,0,0,1,1.8,5.5,32.9,32.9,0,0,1,.5,5.4,20.4,20.4,0,0,1-1.8,8.6,19.8,19.8,0,0,1-5.3,6.6,24.8,24.8,0,0,1-7.6,4.4,26.6,26.6,0,0,1-9,1.5,18.8,18.8,0,0,1-7.2-1.3,16.9,16.9,0,0,1-6.1-3.8,20.7,20.7,0,0,1-6.1,3.8A19,19,0,0,1,379,182.4Z" stroke="#000" stroke-miterlimit="10" stroke-width="2"/><path d="M379,176.2a13.3,13.3,0,0,0,4.9-.9,13.7,13.7,0,0,0,4.2-2.7l-1.5-2.6a23.9,23.9,0,0,1-1.3-2.8l-5-12.1c-.5-1.3-.5-2.3.2-3.1a3.2,3.2,0,0,1,2.6-1.2h11.4l-4.7-11a3,3,0,0,1,.4-3.2,3.4,3.4,0,0,1,2.9-1.2,2.7,2.7,0,0,1,2.5,2l6.5,15.3a2.9,2.9,0,0,1-.1,3,3,3,0,0,1-2.8,1.3H387.8l3.3,7.8a21.2,21.2,0,0,0,6,8.6,12.7,12.7,0,0,0,8.4,2.8,19.7,19.7,0,0,0,8.1-1.7,17,17,0,0,0,6.8-5,12.5,12.5,0,0,0,2.7-8.2,21.8,21.8,0,0,0-.5-4.2,30.9,30.9,0,0,0-1.4-4.3l-11.4-27.4c-2.2-5-4.6-8.7-7.3-10.9a17.6,17.6,0,0,0-20.5,0c-2.7,2.2-5.1,5.9-7.2,10.9l-11.6,27.4a21.3,21.3,0,0,0-1.3,4.3,16,16,0,0,0-.5,4.2,12.6,12.6,0,0,0,1.7,6.9,14.1,14.1,0,0,0,4.5,4.6,19.9,19.9,0,0,0,5.8,2.6A19.4,19.4,0,0,0,379,176.2Z" fill="#fff"/><path d="M476.4,182.4a46.6,46.6,0,0,1-21.4-4.7,34.1,34.1,0,0,1-14-13.4c-3.3-5.7-5-12.6-5-20.5s1.7-15,5.1-20.8a34.1,34.1,0,0,1,14.1-13.3c6.1-3.1,13.2-4.6,21.3-4.6h9.6a30.7,30.7,0,0,1,13.7,2.8,20.1,20.1,0,0,1,8.8,8,23.1,23.1,0,0,1,3.1,12.4c0,6.2-1.8,11.4-5.6,15.6a18.4,18.4,0,0,1,4.7,7.1,25.2,25.2,0,0,1,1.6,9.3,21.8,21.8,0,0,1-3.1,11.9,20.2,20.2,0,0,1-8.5,7.6,29.2,29.2,0,0,1-12.6,2.6Z" stroke="#000" stroke-miterlimit="10" stroke-width="2"/><path d="M476.4,176.2h11c5.9,0,10.5-1.3,13.8-4s5-6.6,5-11.9A21.1,21.1,0,0,0,505,153a14.2,14.2,0,0,0-3.6-5.2,26,26,0,0,1-13.4,3.5H473.8c-2,0-3-1.1-3-3.1v-8.9a2.9,2.9,0,0,1,.9-2.2,3.3,3.3,0,0,1,2.2-.9,2.9,2.9,0,0,1,2.1.9,2.7,2.7,0,0,1,1,2.2v5.8h11c5.2,0,9.4-1.5,12.7-4.5s4.9-7.1,4.9-12.3a17.4,17.4,0,0,0-2.4-9.5,14.2,14.2,0,0,0-6.8-5.7,27.5,27.5,0,0,0-10.6-1.9h-9.4q-10.6,0-18.3,3.9a28.3,28.3,0,0,0-11.8,11.2,35.4,35.4,0,0,0-4.1,17.5,34.6,34.6,0,0,0,4.2,17.5,27.8,27.8,0,0,0,11.9,11.1C463.4,175,469.5,176.2,476.4,176.2Z" fill="#fff"/><path d="M548.9,182.4q-11.9,0-18.9-5.7c-4.6-3.7-6.9-9.2-6.9-16.3a26.6,26.6,0,0,1,1.4-8.8,30.6,30.6,0,0,1,3.9-7.9,41.1,41.1,0,0,1-3.9-8.2,27.3,27.3,0,0,1-1.4-8.3c0-7.3,2.3-12.9,7.1-16.6s10.9-5.5,18.7-5.5h21.6c6.6,0,11.8,1.4,15.5,4.3s5.5,7.3,5.5,13.3-2.4,10.2-7.1,13a12.1,12.1,0,0,1,1.8,3.8,14.2,14.2,0,0,1,.5,4.2,15,15,0,0,1-2.4,8.1,14.5,14.5,0,0,1,5.4,5.3,16.1,16.1,0,0,1,1.9,7.8q0,8.8-5.7,13.2c-3.8,2.9-8.9,4.3-15.2,4.3Z" stroke="#000" stroke-miterlimit="10" stroke-width="2"/><path d="M548.9,176.2h21.8q6.4,0,9.6-1.8a8.6,8.6,0,0,0,4.1-4.4,16.1,16.1,0,0,0,.9-5.1,8.8,8.8,0,0,0-2.8-6.9c-1.9-1.6-4.6-2.4-8-2.4a35.6,35.6,0,0,0-9.3.9,19.5,19.5,0,0,1-5.1.9,2.8,2.8,0,0,1-2.5-1.2,3.4,3.4,0,0,1-.4-2.6,2.9,2.9,0,0,1,2-2,44.2,44.2,0,0,1,7.4-1.6,50.6,50.6,0,0,1,7.9-.6h3.4a7.6,7.6,0,0,0,2.7-5.9,8.7,8.7,0,0,0-.6-3.2,6.8,6.8,0,0,0-1.8-2.6h-3.6a74.3,74.3,0,0,1-7.8-.5,52.1,52.1,0,0,1-7.7-1.6,2.9,2.9,0,0,1-2-2,3.3,3.3,0,0,1,.4-2.7A3,3,0,0,1,560,130a25,25,0,0,1,5,1,39.9,39.9,0,0,0,9.6.9c3.4,0,6-.8,7.9-2.6a8.4,8.4,0,0,0,2.8-6.6,16.1,16.1,0,0,0-.9-5.1,9.4,9.4,0,0,0-4-4.5c-2.1-1.2-5.3-1.9-9.7-1.9H548.9c-6.2,0-11,1.4-14.5,4s-5.2,6.7-5.2,12a22,22,0,0,0,1.4,7.4,29.4,29.4,0,0,0,4,7.1,3.3,3.3,0,0,1,0,4,29.3,29.3,0,0,0-3.9,6.9,20.8,20.8,0,0,0-1.5,7.8c0,5.4,1.8,9.3,5.4,11.9S542.9,176.2,548.9,176.2Z" fill="#fff"/></g></g></svg>