<?xml version="1.0" encoding="UTF-8"?>
<svg width="406px" height="192px" viewBox="0 0 406 192" version="1.1" xmlns="http://www.w3.org/2000/svg" xmlns:xlink="http://www.w3.org/1999/xlink">
    <!-- Generator: Sketch 62 (91390) - https://sketch.com -->
    <title>Group 59</title>
    <desc>Created with Sketch.</desc>
    <g id="Recap-Page" stroke="none" stroke-width="1" fill="none" fill-rule="evenodd">
        <g id="1440---Recap-Homepage-v3-Copy-3" transform="translate(-816.000000, -1245.000000)">
            <g id="Group-59" transform="translate(817.000000, 1246.000000)">
                <path d="M67.1772,77.7377 C62.9752,77.7377 59.0492,76.8357 55.4002,75.0287 C51.7512,73.2227 48.8022,70.7347 46.5542,67.5637 C44.3042,64.3957 43.1812,60.7087 43.1812,56.5067 C43.1812,54.6647 43.3832,52.8407 43.7892,51.0327 C44.1942,49.2267 44.7652,47.4027 45.5032,45.5587 L57.1142,18.0247 C59.5472,12.2017 62.5882,7.7407 66.2372,4.6437 C69.8862,1.5487 74.6222,0.0007 80.4472,0.0007 C86.6392,0.0007 91.8362,1.9907 96.0382,5.9707 C97.9542,4.0547 100.1302,2.5817 102.5622,1.5487 C104.9952,0.5167 107.6112,0.0007 110.4142,0.0007 C116.4572,0.0007 121.2682,1.5867 124.8442,4.7557 C128.4192,7.9247 131.3862,12.3487 133.7462,18.0247 L145.3572,45.5587 C146.1672,47.4027 146.7572,49.2267 147.1262,51.0327 C147.4942,52.8407 147.6792,54.6647 147.6792,56.5067 C147.6792,60.7827 146.5542,64.5237 144.3062,67.7297 C142.0572,70.9367 139.1092,73.4077 135.4602,75.1387 C131.8112,76.8727 127.9222,77.7377 123.7942,77.7377 C121.2872,77.7377 118.9462,77.3697 116.7722,76.6327 C114.5962,75.8957 112.6252,74.8267 110.8562,73.4257 C107.0962,76.3007 102.4882,77.7377 97.0332,77.7377 C93.7892,77.7377 90.8582,77.2587 88.2422,76.3007 C85.6252,75.3427 83.2832,73.9057 81.2202,71.9877 C79.3772,73.8317 77.2572,75.2497 74.8622,76.2447 C72.4662,77.2397 69.9042,77.7377 67.1772,77.7377" id="Fill-1" fill="#000000"></path>
                <path d="M67.1772,77.7377 C62.9752,77.7377 59.0492,76.8357 55.4002,75.0287 C51.7512,73.2227 48.8022,70.7347 46.5542,67.5637 C44.3042,64.3957 43.1812,60.7087 43.1812,56.5067 C43.1812,54.6647 43.3832,52.8407 43.7892,51.0327 C44.1942,49.2267 44.7652,47.4027 45.5032,45.5587 L57.1142,18.0247 C59.5472,12.2017 62.5882,7.7407 66.2372,4.6437 C69.8862,1.5487 74.6222,0.0007 80.4472,0.0007 C86.6392,0.0007 91.8362,1.9907 96.0382,5.9707 C97.9542,4.0547 100.1302,2.5817 102.5622,1.5487 C104.9952,0.5167 107.6112,0.0007 110.4142,0.0007 C116.4572,0.0007 121.2682,1.5867 124.8442,4.7557 C128.4192,7.9247 131.3862,12.3487 133.7462,18.0247 L145.3572,45.5587 C146.1672,47.4027 146.7572,49.2267 147.1262,51.0327 C147.4942,52.8407 147.6792,54.6647 147.6792,56.5067 C147.6792,60.7827 146.5542,64.5237 144.3062,67.7297 C142.0572,70.9367 139.1092,73.4077 135.4602,75.1387 C131.8112,76.8727 127.9222,77.7377 123.7942,77.7377 C121.2872,77.7377 118.9462,77.3697 116.7722,76.6327 C114.5962,75.8957 112.6252,74.8267 110.8562,73.4257 C107.0962,76.3007 102.4882,77.7377 97.0332,77.7377 C93.7892,77.7377 90.8582,77.2587 88.2422,76.3007 C85.6252,75.3427 83.2832,73.9057 81.2202,71.9877 C79.3772,73.8317 77.2572,75.2497 74.8622,76.2447 C72.4662,77.2397 69.9042,77.7377 67.1772,77.7377 Z" id="Stroke-3" stroke="#000000" stroke-width="2"></path>
                <path d="M67.1772,71.5454 C70.2732,71.5454 72.9632,70.6604 75.2492,68.8914 C77.5332,67.1224 79.4882,64.5424 81.1102,61.1504 L75.1382,46.8864 C74.5482,45.4124 74.6582,44.2874 75.4702,43.5134 C76.2812,42.7394 77.2572,42.3904 78.4012,42.4624 C79.5432,42.5374 80.3722,43.2004 80.8892,44.4534 L87.4132,60.0454 C87.7812,60.7824 87.7812,61.5574 87.4132,62.3674 C87.1172,63.1794 86.7502,63.9894 86.3072,64.8004 C85.8652,65.6114 85.4592,66.3484 85.0912,67.0114 C86.5652,68.6344 88.2792,69.7954 90.2332,70.4944 C92.1852,71.1964 94.4522,71.5454 97.0332,71.5454 C99.8342,71.5454 102.2862,71.0664 104.3872,70.1084 C106.4882,69.1504 108.3682,67.6194 110.0272,65.5194 C111.6852,63.4174 113.2152,60.6724 114.6152,57.2804 L119.9242,44.6744 C120.5122,43.3474 121.3612,42.6484 122.4672,42.5734 C123.5732,42.5004 124.5122,42.8884 125.2862,43.7344 C126.0612,44.5824 126.1522,45.7074 125.5632,47.1074 L120.3662,59.7134 C119.6282,61.5574 118.8352,63.2514 117.9892,64.8004 C117.1402,66.3484 116.2372,67.7494 115.2792,69.0024 C116.5322,69.8144 117.8592,70.4404 119.2602,70.8824 C120.6592,71.3234 122.1712,71.5454 123.7942,71.5454 C125.4892,71.5454 127.3492,71.2694 129.3782,70.7164 C131.4052,70.1624 133.3402,69.2974 135.1832,68.1174 C137.0252,66.9394 138.5372,65.3914 139.7172,63.4734 C140.8962,61.5574 141.4872,59.2344 141.4872,56.5064 C141.4872,55.1074 141.3212,53.6694 140.9892,52.1934 C140.6572,50.7204 140.1962,49.2824 139.6072,47.8814 L127.9962,20.3474 C125.9312,15.2604 123.5342,11.6304 120.8082,9.4544 C118.0802,7.2804 114.6152,6.1924 110.4142,6.1924 C107.3172,6.1924 104.5892,7.0604 102.2312,8.7914 C99.8702,10.5244 97.8802,13.1224 96.2602,16.5874 L102.3412,30.8524 C102.9302,32.2534 102.8012,33.3404 101.9542,34.1134 C101.1062,34.8884 100.1112,35.2384 98.9692,35.1644 C97.8252,35.0924 97.0332,34.4644 96.5912,33.2844 L90.0672,17.6924 C89.6972,16.8824 89.6972,16.0714 90.0672,15.2604 C90.4352,14.4494 90.8032,13.6944 91.1732,12.9934 C91.5412,12.2934 91.9092,11.6104 92.2792,10.9474 C90.6562,9.3264 88.8872,8.1274 86.9702,7.3544 C85.0532,6.5794 82.8792,6.1924 80.4472,6.1924 C76.2442,6.1924 72.7982,7.2804 70.1072,9.4544 C67.4152,11.6304 65.0022,15.2604 62.8652,20.3474 L51.2532,47.8814 C50.6622,49.2824 50.2032,50.7204 49.8712,52.1934 C49.5392,53.6694 49.3732,55.1074 49.3732,56.5064 C49.3732,59.2344 49.9632,61.5574 51.1432,63.4734 C52.3212,65.3914 53.8332,66.9394 55.6772,68.1174 C57.5182,69.2974 59.4722,70.1624 61.5372,70.7164 C63.6002,71.2694 65.4802,71.5454 67.1772,71.5454" id="Fill-5" fill="#FFFFFF"></path>
                <path d="M180.3003,77.7377 C173.4443,77.7377 167.9703,75.5637 163.8793,71.2137 C159.7873,66.8647 157.7413,61.1147 157.7413,53.9637 L157.7413,23.8847 C157.7413,16.6617 159.7873,10.8747 163.8793,6.5237 C167.9703,2.1747 173.4443,0.0007 180.3003,0.0007 C187.1563,0.0007 192.6303,2.1747 196.7213,6.5237 C200.8123,10.8747 202.8583,16.6617 202.8583,23.8847 L202.8583,53.9637 C202.8583,61.1147 200.8123,66.8647 196.7213,71.2137 C192.6303,75.5637 187.1563,77.7377 180.3003,77.7377" id="Fill-7" fill="#000000"></path>
                <path d="M180.3003,77.7377 C173.4443,77.7377 167.9703,75.5637 163.8793,71.2137 C159.7873,66.8647 157.7413,61.1147 157.7413,53.9637 L157.7413,23.8847 C157.7413,16.6617 159.7873,10.8747 163.8793,6.5237 C167.9703,2.1747 173.4443,0.0007 180.3003,0.0007 C187.1563,0.0007 192.6303,2.1747 196.7213,6.5237 C200.8123,10.8747 202.8583,16.6617 202.8583,23.8847 L202.8583,53.9637 C202.8583,61.1147 200.8123,66.8647 196.7213,71.2137 C192.6303,75.5637 187.1563,77.7377 180.3003,77.7377 Z" id="Stroke-9" stroke="#000000" stroke-width="2"></path>
                <path d="M180.3003,71.5454 C185.4593,71.5454 189.4783,69.9804 192.3533,66.8454 C195.2283,63.7134 196.6663,59.4194 196.6663,53.9634 L196.6663,23.8854 C196.6663,18.3564 195.2283,14.0264 192.3533,10.8924 C189.4783,7.7594 185.4593,6.1924 180.3003,6.1924 C175.2133,6.1924 171.2133,7.7594 168.3023,10.8924 C165.3893,14.0264 163.9343,18.3564 163.9343,23.8854 L163.9343,53.9634 C163.9343,59.4194 165.3893,63.7134 168.3023,66.8454 C171.2133,69.9804 175.2133,71.5454 180.3003,71.5454" id="Fill-11" fill="#FFFFFF"></path>
                <path d="M240.3437,77.7377 C235.0357,77.7377 230.4277,76.8907 226.5217,75.1947 C222.6137,73.4997 219.6107,70.9927 217.5097,67.6747 C215.4077,64.3577 214.3577,60.3037 214.3577,55.5107 C214.3577,52.4147 214.8367,49.4847 215.7947,46.7197 C216.7527,43.9557 218.1167,41.5417 219.8867,39.4767 C217.5267,36.2337 216.0157,33.0637 215.3527,29.9667 C214.6897,26.8707 214.3577,24.2557 214.3577,22.1157 C214.3577,17.2507 215.4257,13.1777 217.5647,9.8967 C219.7017,6.6177 222.7237,4.1467 226.6317,2.4877 C230.5387,0.8297 235.1087,0.0007 240.3437,0.0007 L255.6037,0.0007 C260.9117,0.0007 265.5177,0.8477 269.4267,2.5437 C273.3327,4.2397 276.3377,6.7277 278.4387,10.0077 C280.5397,13.2887 281.5907,17.3247 281.5907,22.1157 C281.5907,25.2867 281.0927,28.2717 280.0967,31.0727 C279.1017,33.8757 277.7197,36.2697 275.9507,38.2607 C278.3087,41.4307 279.8387,44.5827 280.5397,47.7157 C281.2397,50.8487 281.5907,53.4847 281.5907,55.6217 C281.5907,60.4147 280.5017,64.4677 278.3277,67.7857 C276.1527,71.1027 273.1307,73.5917 269.2607,75.2497 C265.3897,76.9087 260.8377,77.7377 255.6037,77.7377 L240.3437,77.7377 Z" id="Fill-13" fill="#000000"></path>
                <path d="M240.3437,77.7377 C235.0357,77.7377 230.4277,76.8907 226.5217,75.1947 C222.6137,73.4997 219.6107,70.9927 217.5097,67.6747 C215.4077,64.3577 214.3577,60.3037 214.3577,55.5107 C214.3577,52.4147 214.8367,49.4847 215.7947,46.7197 C216.7527,43.9557 218.1167,41.5417 219.8867,39.4767 C217.5267,36.2337 216.0157,33.0637 215.3527,29.9667 C214.6897,26.8707 214.3577,24.2557 214.3577,22.1157 C214.3577,17.2507 215.4257,13.1777 217.5647,9.8967 C219.7017,6.6177 222.7237,4.1467 226.6317,2.4877 C230.5387,0.8297 235.1087,0.0007 240.3437,0.0007 L255.6037,0.0007 C260.9117,0.0007 265.5177,0.8477 269.4267,2.5437 C273.3327,4.2397 276.3377,6.7277 278.4387,10.0077 C280.5397,13.2887 281.5907,17.3247 281.5907,22.1157 C281.5907,25.2867 281.0927,28.2717 280.0967,31.0727 C279.1017,33.8757 277.7197,36.2697 275.9507,38.2607 C278.3087,41.4307 279.8387,44.5827 280.5397,47.7157 C281.2397,50.8487 281.5907,53.4847 281.5907,55.6217 C281.5907,60.4147 280.5017,64.4677 278.3277,67.7857 C276.1527,71.1027 273.1307,73.5917 269.2607,75.2497 C265.3897,76.9087 260.8377,77.7377 255.6037,77.7377 L240.3437,77.7377 Z" id="Stroke-15" stroke="#000000" stroke-width="2"></path>
                <path d="M240.3437,71.5454 L255.6037,71.5454 C259.7317,71.5454 263.2697,70.9564 266.2197,69.7754 C269.1667,68.5984 271.4337,66.8284 273.0197,64.4684 C274.6047,62.1094 275.3977,59.1604 275.3977,55.6214 C275.3977,50.8304 274.1067,46.5544 271.5277,42.7944 C268.9467,39.0344 265.4457,35.9014 261.0227,33.3954 L248.3057,26.3174 C247.0517,25.6544 246.4807,24.7704 246.5917,23.6644 C246.7017,22.5584 247.2177,21.6734 248.1397,21.0104 C249.0607,20.3474 250.1117,20.3114 251.2917,20.8994 L264.1187,27.9774 C265.5927,28.7884 266.9747,29.6544 268.2647,30.5754 C269.5537,31.4984 270.7157,32.4744 271.7487,33.5054 C272.9267,32.0314 273.8307,30.3174 274.4577,28.3634 C275.0827,26.4114 275.3977,24.3274 275.3977,22.1154 C275.3977,18.4314 274.5857,15.4264 272.9647,13.1044 C271.3427,10.7814 269.0567,9.0504 266.1087,7.9064 C263.1597,6.7644 259.6567,6.1924 255.6037,6.1924 L240.3437,6.1924 C236.2147,6.1924 232.6587,6.7644 229.6727,7.9064 C226.6877,9.0504 224.4207,10.8004 222.8717,13.1584 C221.3237,15.5194 220.5507,18.5054 220.5507,22.1154 C220.5507,25.2864 221.1387,28.2534 222.3197,31.0184 C223.4977,33.7824 225.1757,36.2704 227.3507,38.4824 C229.5247,40.6934 232.0507,42.6114 234.9257,44.2324 L247.6417,51.3094 C248.8207,51.9734 249.3737,52.8764 249.3007,54.0184 C249.2267,55.1624 248.7477,56.0644 247.8637,56.7284 C246.9787,57.3914 245.9087,57.4294 244.6557,56.8384 L231.8287,49.7614 C230.2807,48.9504 228.8607,48.0664 227.5717,47.1074 C226.2807,46.1494 225.1197,45.1914 224.0887,44.2324 C222.9827,45.6334 222.1147,47.3114 221.4897,49.2634 C220.8627,51.2174 220.5507,53.2994 220.5507,55.5114 C220.5507,59.2714 221.3607,62.3304 222.9827,64.6894 C224.6037,67.0494 226.8897,68.7804 229.8387,69.8864 C232.7867,70.9924 236.2887,71.5454 240.3437,71.5454" id="Fill-17" fill="#FFFFFF"></path>
                <path d="M318.6333,77.7377 C313.3253,77.7377 308.7173,76.8907 304.8113,75.1947 C300.9033,73.4997 297.9003,70.9927 295.7993,67.6747 C293.6973,64.3577 292.6473,60.3037 292.6473,55.5107 C292.6473,52.4147 293.1263,49.4847 294.0843,46.7197 C295.0423,43.9557 296.4063,41.5417 298.1763,39.4767 C295.8163,36.2337 294.3053,33.0637 293.6423,29.9667 C292.9793,26.8707 292.6473,24.2557 292.6473,22.1157 C292.6473,17.2507 293.7153,13.1777 295.8543,9.8967 C297.9913,6.6177 301.0133,4.1467 304.9213,2.4877 C308.8283,0.8297 313.3983,0.0007 318.6333,0.0007 L333.8933,0.0007 C339.2013,0.0007 343.8073,0.8477 347.7163,2.5437 C351.6223,4.2397 354.6273,6.7277 356.7283,10.0077 C358.8293,13.2887 359.8803,17.3247 359.8803,22.1157 C359.8803,25.2867 359.3823,28.2717 358.3863,31.0727 C357.3913,33.8757 356.0093,36.2697 354.2403,38.2607 C356.5983,41.4307 358.1283,44.5827 358.8293,47.7157 C359.5293,50.8487 359.8803,53.4847 359.8803,55.6217 C359.8803,60.4147 358.7913,64.4677 356.6173,67.7857 C354.4423,71.1027 351.4203,73.5917 347.5503,75.2497 C343.6793,76.9087 339.1273,77.7377 333.8933,77.7377 L318.6333,77.7377 Z" id="Fill-19" fill="#000000"></path>
                <path d="M318.6333,77.7377 C313.3253,77.7377 308.7173,76.8907 304.8113,75.1947 C300.9033,73.4997 297.9003,70.9927 295.7993,67.6747 C293.6973,64.3577 292.6473,60.3037 292.6473,55.5107 C292.6473,52.4147 293.1263,49.4847 294.0843,46.7197 C295.0423,43.9557 296.4063,41.5417 298.1763,39.4767 C295.8163,36.2337 294.3053,33.0637 293.6423,29.9667 C292.9793,26.8707 292.6473,24.2557 292.6473,22.1157 C292.6473,17.2507 293.7153,13.1777 295.8543,9.8967 C297.9913,6.6177 301.0133,4.1467 304.9213,2.4877 C308.8283,0.8297 313.3983,0.0007 318.6333,0.0007 L333.8933,0.0007 C339.2013,0.0007 343.8073,0.8477 347.7163,2.5437 C351.6223,4.2397 354.6273,6.7277 356.7283,10.0077 C358.8293,13.2887 359.8803,17.3247 359.8803,22.1157 C359.8803,25.2867 359.3823,28.2717 358.3863,31.0727 C357.3913,33.8757 356.0093,36.2697 354.2403,38.2607 C356.5983,41.4307 358.1283,44.5827 358.8293,47.7157 C359.5293,50.8487 359.8803,53.4847 359.8803,55.6217 C359.8803,60.4147 358.7913,64.4677 356.6173,67.7857 C354.4423,71.1027 351.4203,73.5917 347.5503,75.2497 C343.6793,76.9087 339.1273,77.7377 333.8933,77.7377 L318.6333,77.7377 Z" id="Stroke-21" stroke="#000000" stroke-width="2"></path>
                <path d="M318.6333,71.5454 L333.8933,71.5454 C338.0213,71.5454 341.5593,70.9564 344.5093,69.7754 C347.4563,68.5984 349.7233,66.8284 351.3093,64.4684 C352.8943,62.1094 353.6873,59.1604 353.6873,55.6214 C353.6873,50.8304 352.3963,46.5544 349.8173,42.7944 C347.2363,39.0344 343.7353,35.9014 339.3123,33.3954 L326.5953,26.3174 C325.3413,25.6544 324.7703,24.7704 324.8813,23.6644 C324.9913,22.5584 325.5073,21.6734 326.4293,21.0104 C327.3503,20.3474 328.4013,20.3114 329.5813,20.8994 L342.4083,27.9774 C343.8823,28.7884 345.2643,29.6544 346.5543,30.5754 C347.8433,31.4984 349.0053,32.4744 350.0383,33.5054 C351.2163,32.0314 352.1203,30.3174 352.7473,28.3634 C353.3723,26.4114 353.6873,24.3274 353.6873,22.1154 C353.6873,18.4314 352.8753,15.4264 351.2543,13.1044 C349.6323,10.7814 347.3463,9.0504 344.3983,7.9064 C341.4493,6.7644 337.9463,6.1924 333.8933,6.1924 L318.6333,6.1924 C314.5043,6.1924 310.9483,6.7644 307.9623,7.9064 C304.9773,9.0504 302.7103,10.8004 301.1613,13.1584 C299.6133,15.5194 298.8403,18.5054 298.8403,22.1154 C298.8403,25.2864 299.4283,28.2534 300.6093,31.0184 C301.7873,33.7824 303.4653,36.2704 305.6403,38.4824 C307.8143,40.6934 310.3403,42.6114 313.2153,44.2324 L325.9313,51.3094 C327.1103,51.9734 327.6633,52.8764 327.5903,54.0184 C327.5163,55.1624 327.0373,56.0644 326.1533,56.7284 C325.2683,57.3914 324.1983,57.4294 322.9453,56.8384 L310.1183,49.7614 C308.5703,48.9504 307.1503,48.0664 305.8613,47.1074 C304.5703,46.1494 303.4093,45.1914 302.3783,44.2324 C301.2723,45.6334 300.4043,47.3114 299.7793,49.2634 C299.1523,51.2174 298.8403,53.2994 298.8403,55.5114 C298.8403,59.2714 299.6503,62.3304 301.2723,64.6894 C302.8933,67.0494 305.1793,68.7804 308.1283,69.8864 C311.0763,70.9924 314.5783,71.5454 318.6333,71.5454" id="Fill-23" fill="#FFFFFF"></path>
                <path d="M55.8428,189.727 C49.9438,189.727 45.1888,188.105 41.5778,184.862 C37.9648,181.617 35.8278,177.194 35.1638,171.592 C27.9388,170.928 21.6908,168.92 16.4208,165.565 C11.1498,162.211 7.0938,157.769 4.2578,152.241 C1.4188,146.711 -0.0002,140.297 -0.0002,132.999 C-0.0002,124.891 1.6948,117.924 5.0868,112.1 C8.4768,106.277 13.2148,101.816 19.2958,98.719 C25.3778,95.623 32.5098,94.076 40.6938,94.076 L50.3138,94.076 C58.2758,94.076 64.5598,96.159 69.1678,100.323 C73.7738,104.489 76.0788,110.184 76.0788,117.408 C76.0788,123.674 74.1988,128.908 70.4398,133.11 C72.3558,135.174 73.8848,137.737 75.0288,140.795 C76.1708,143.855 76.7418,147.192 76.7418,150.803 L76.7418,167.832 C76.7418,174.614 74.8798,179.957 71.1578,183.866 C67.4348,187.773 62.3288,189.727 55.8428,189.727" id="Fill-25" fill="#000000"></path>
                <path d="M55.8428,189.727 C49.9438,189.727 45.1888,188.105 41.5778,184.862 C37.9648,181.617 35.8278,177.194 35.1638,171.592 C27.9388,170.928 21.6908,168.92 16.4208,165.565 C11.1498,162.211 7.0938,157.769 4.2578,152.241 C1.4188,146.711 -0.0002,140.297 -0.0002,132.999 C-0.0002,124.891 1.6948,117.924 5.0868,112.1 C8.4768,106.277 13.2148,101.816 19.2958,98.719 C25.3778,95.623 32.5098,94.076 40.6938,94.076 L50.3138,94.076 C58.2758,94.076 64.5598,96.159 69.1678,100.323 C73.7738,104.489 76.0788,110.184 76.0788,117.408 C76.0788,123.674 74.1988,128.908 70.4398,133.11 C72.3558,135.174 73.8848,137.737 75.0288,140.795 C76.1708,143.855 76.7418,147.192 76.7418,150.803 L76.7418,167.832 C76.7418,174.614 74.8798,179.957 71.1578,183.866 C67.4348,187.773 62.3288,189.727 55.8428,189.727 Z" id="Stroke-27" stroke="#000000" stroke-width="2"></path>
                <path d="M55.8428,183.5346 C58.1268,183.5346 60.3938,183.1286 62.6438,182.3176 C64.8908,181.5066 66.7708,179.9576 68.2828,177.6736 C69.7928,175.3886 70.5498,172.0706 70.5498,167.7216 L70.5498,150.8036 C70.5498,144.8316 68.9268,140.2246 65.6838,136.9796 C61.8498,139.3406 57.3528,140.5186 52.1938,140.5186 L38.0398,140.5186 C36.0488,140.5186 35.0538,139.4876 35.0538,137.4226 L35.0538,128.4656 C35.0538,127.5806 35.3658,126.8456 35.9938,126.2546 C36.6188,125.6646 37.3378,125.3696 38.1498,125.3696 C38.9608,125.3696 39.6788,125.6646 40.3058,126.2546 C40.9318,126.8456 41.2458,127.5806 41.2458,128.4656 L41.2458,134.3266 L52.1938,134.3266 C57.4268,134.3266 61.6848,132.8156 64.9658,129.7926 C68.2448,126.7706 69.8858,122.6426 69.8858,117.4076 C69.8858,111.6576 68.1348,107.3636 64.6338,104.5246 C61.1318,101.6876 56.2468,100.2676 49.9818,100.2676 L40.5828,100.2676 C33.4308,100.2676 27.2938,101.5776 22.1708,104.1936 C17.0468,106.8106 13.1038,110.5516 10.3388,115.4176 C7.5748,120.2826 6.1928,126.1426 6.1928,132.9996 C6.1928,139.0456 7.3348,144.3886 9.6198,149.0336 C11.9048,153.6786 15.2048,157.4006 19.5168,160.2016 C23.8298,163.0046 29.0088,164.7356 35.0538,165.3986 L35.0538,158.3216 C35.0538,157.5126 35.3658,156.8116 35.9938,156.2216 C36.6188,155.6326 37.3378,155.3366 38.1498,155.3366 C38.9608,155.3366 39.6788,155.6326 40.3058,156.2216 C40.9318,156.8116 41.2458,157.5126 41.2458,158.3216 L41.2458,167.7216 C41.2458,172.0706 42.0008,175.3886 43.5128,177.6736 C45.0228,179.9576 46.9028,181.5066 49.1528,182.3176 C51.4008,183.1286 53.6308,183.5346 55.8428,183.5346" id="Fill-29" fill="#FFFFFF"></path>
                <path d="M110.9106,171.8129 C104.0546,171.8129 98.5806,169.6389 94.4896,165.2889 C90.3976,160.9399 88.3526,155.1899 88.3526,148.0389 L88.3526,140.1869 C88.3526,137.5339 88.5906,135.2859 89.0716,133.4419 C89.5496,131.5999 90.2686,129.9029 91.2276,128.3549 C90.2686,126.5849 89.5496,124.7249 89.0716,122.7709 C88.5906,120.8189 88.3526,118.6619 88.3526,116.3019 C88.3526,111.8779 89.3476,108.0079 91.3376,104.6909 C93.3286,101.3739 96.1486,98.7749 99.7976,96.8949 C103.4466,95.0149 107.7036,94.0759 112.5696,94.0759 L136.0126,94.0759 C142.2046,94.0759 147.3466,95.2189 151.4386,97.5029 C155.5296,99.7899 158.5876,103.0709 160.6166,107.3449 C162.6426,111.6219 163.6576,116.7079 163.6576,122.6049 C163.6576,128.4289 162.3666,133.4799 159.7866,137.7539 C161.0396,139.5239 161.9796,141.6249 162.6066,144.0569 C163.2326,146.4899 163.5466,148.6659 163.5466,150.5819 C163.5466,154.4899 162.4956,158.0649 160.3946,161.3079 C158.2946,164.5519 155.4746,167.1139 151.9356,168.9939 C148.3976,170.8739 144.5266,171.8129 140.3256,171.8129 C137.5966,171.8129 135.0536,171.3899 132.6946,170.5419 C130.3346,169.6949 128.1976,168.4589 126.2816,166.8359 C124.2166,168.5339 121.8206,169.7869 119.0936,170.5959 C116.3656,171.4089 113.6376,171.8129 110.9106,171.8129" id="Fill-31" fill="#000000"></path>
                <path d="M110.9106,171.8129 C104.0546,171.8129 98.5806,169.6389 94.4896,165.2889 C90.3976,160.9399 88.3526,155.1899 88.3526,148.0389 L88.3526,140.1869 C88.3526,137.5339 88.5906,135.2859 89.0716,133.4419 C89.5496,131.5999 90.2686,129.9029 91.2276,128.3549 C90.2686,126.5849 89.5496,124.7249 89.0716,122.7709 C88.5906,120.8189 88.3526,118.6619 88.3526,116.3019 C88.3526,111.8779 89.3476,108.0079 91.3376,104.6909 C93.3286,101.3739 96.1486,98.7749 99.7976,96.8949 C103.4466,95.0149 107.7036,94.0759 112.5696,94.0759 L136.0126,94.0759 C142.2046,94.0759 147.3466,95.2189 151.4386,97.5029 C155.5296,99.7899 158.5876,103.0709 160.6166,107.3449 C162.6426,111.6219 163.6576,116.7079 163.6576,122.6049 C163.6576,128.4289 162.3666,133.4799 159.7866,137.7539 C161.0396,139.5239 161.9796,141.6249 162.6066,144.0569 C163.2326,146.4899 163.5466,148.6659 163.5466,150.5819 C163.5466,154.4899 162.4956,158.0649 160.3946,161.3079 C158.2946,164.5519 155.4746,167.1139 151.9356,168.9939 C148.3976,170.8739 144.5266,171.8129 140.3256,171.8129 C137.5966,171.8129 135.0536,171.3899 132.6946,170.5419 C130.3346,169.6949 128.1976,168.4589 126.2816,166.8359 C124.2166,168.5339 121.8206,169.7869 119.0936,170.5959 C116.3656,171.4089 113.6376,171.8129 110.9106,171.8129 Z" id="Stroke-33" stroke="#000000" stroke-width="2"></path>
                <path d="M110.9106,165.6206 C113.3436,165.6206 115.4616,165.3626 117.2686,164.8466 C119.0746,164.3316 120.6786,163.5186 122.0786,162.4136 C121.5626,161.8246 121.0646,161.2346 120.5866,160.6436 C120.1056,160.0556 119.5356,159.3556 118.8726,158.5436 L112.5696,150.9136 C111.7576,149.8826 111.5746,148.8676 112.0166,147.8726 C112.4586,146.8776 113.2136,146.2136 114.2836,145.8826 C115.3506,145.5506 116.3286,145.9006 117.2136,146.9326 L128.1606,159.7606 C129.2666,161.0146 130.4456,162.0816 131.6996,162.9666 C132.9526,163.8506 134.2986,164.4976 135.7356,164.9016 C137.1736,165.3086 138.7026,165.5106 140.3256,165.5106 C143.7146,165.5106 146.6826,164.7736 149.2266,163.2986 C151.7696,161.8246 153.7606,159.9446 155.1976,157.6586 C156.6356,155.3746 157.3546,153.0146 157.3546,150.5816 C157.3546,149.1076 157.1886,147.8006 156.8566,146.6556 C156.5246,145.5146 156.0636,144.4276 155.4746,143.3936 C153.8516,144.8696 152.0466,146.1416 150.0566,147.2086 C148.0656,148.2786 146.3326,148.8116 144.8586,148.8116 C143.7526,148.8116 142.9596,148.4076 142.4816,147.5966 C142.0006,146.7856 141.8896,145.9006 142.1496,144.9416 C142.4066,143.9846 143.0896,143.3576 144.1956,143.0616 C148.3226,141.8086 151.5656,139.3576 153.9266,135.7086 C156.2846,132.0586 157.4646,127.6916 157.4646,122.6046 C157.4646,115.3816 155.6396,109.8516 151.9916,106.0176 C148.3416,102.1856 142.8686,100.2676 135.5696,100.2676 L112.2376,100.2676 C108.5506,100.2676 105.3816,100.9136 102.7276,102.2026 C100.0736,103.4936 98.0456,105.3376 96.6456,107.7316 C95.2446,110.1286 94.5446,112.9846 94.5446,116.3026 C94.5446,117.6286 94.6366,118.9006 94.8216,120.1166 C95.0046,121.3336 95.2806,122.4586 95.6506,123.4896 C96.9776,122.2366 98.3046,121.2776 99.6316,120.6146 C100.9586,119.9506 102.1366,119.4726 103.1696,119.1776 C104.5696,118.8086 105.6396,118.9556 106.3766,119.6196 C107.1126,120.2826 107.4446,121.0756 107.3716,121.9966 C107.2976,122.9196 106.7086,123.6746 105.6026,124.2636 C102.0646,126.0326 99.3356,128.0986 97.4196,130.4566 C95.5016,132.8156 94.5446,136.1336 94.5446,140.4086 L94.5446,148.0386 C94.5446,153.4946 95.9996,157.7886 98.9126,160.9206 C101.8246,164.0556 105.8246,165.6206 110.9106,165.6206" id="Fill-35" fill="#FFFFFF"></path>
                <path d="M128.1611,129.019 C127.3491,129.019 126.6301,128.725 126.0051,128.134 C125.3771,127.544 125.0651,126.807 125.0651,125.922 L125.0651,118.845 C125.0651,118.035 125.3771,117.335 126.0051,116.745 C126.6301,116.155 127.3491,115.86 128.1611,115.86 C129.0461,115.86 129.7821,116.155 130.3721,116.745 C130.9621,117.335 131.2571,118.035 131.2571,118.845 L131.2571,125.922 C131.2571,126.807 130.9621,127.544 130.3721,128.134 C129.7821,128.725 129.0461,129.019 128.1611,129.019" id="Fill-37" fill="#000000"></path>
                <path d="M128.1611,129.019 C127.3491,129.019 126.6301,128.725 126.0051,128.134 C125.3771,127.544 125.0651,126.807 125.0651,125.922 L125.0651,118.845 C125.0651,118.035 125.3771,117.335 126.0051,116.745 C126.6301,116.155 127.3491,115.86 128.1611,115.86 C129.0461,115.86 129.7821,116.155 130.3721,116.745 C130.9621,117.335 131.2571,118.035 131.2571,118.845 L131.2571,125.922 C131.2571,126.807 130.9621,127.544 130.3721,128.134 C129.7821,128.725 129.0461,129.019 128.1611,129.019 Z" id="Stroke-39" stroke="#000000" stroke-width="2"></path>
                <path d="M197.605,171.8129 C194.803,171.8129 191.983,171.3529 189.146,170.4309 C186.307,169.5099 183.709,168.1469 181.35,166.3389 C178.99,164.5339 177.11,162.3029 175.71,159.6489 C174.309,156.9959 173.609,153.9729 173.609,150.5819 C173.609,148.8119 173.831,147.0059 174.273,145.1639 C174.715,143.3219 175.304,141.4779 176.042,139.6339 L187.653,112.0999 C190.085,106.2769 193.126,101.8159 196.776,98.7189 C200.425,95.6239 205.161,94.0759 210.985,94.0759 C216.957,94.0759 221.748,95.6619 225.361,98.8309 C228.972,101.9999 231.958,106.4239 234.317,112.0999 L245.818,139.6339 C246.628,141.4779 247.217,143.3219 247.587,145.1639 C247.955,147.0059 248.14,148.8119 248.14,150.5819 C248.14,153.7519 247.513,156.6269 246.26,159.2069 C245.006,161.7889 243.255,164.0169 241.008,165.8969 C238.758,167.7769 236.215,169.2329 233.377,170.2649 C230.539,171.2979 227.498,171.8129 224.255,171.8129 C221.673,171.8129 219.26,171.3899 217.012,170.5419 C214.762,169.6949 212.716,168.4229 210.875,166.7259 C209.031,168.3489 206.985,169.6009 204.737,170.4859 C202.488,171.3709 200.11,171.8129 197.605,171.8129" id="Fill-41" fill="#000000"></path>
                <path d="M197.605,171.8129 C194.803,171.8129 191.983,171.3529 189.146,170.4309 C186.307,169.5099 183.709,168.1469 181.35,166.3389 C178.99,164.5339 177.11,162.3029 175.71,159.6489 C174.309,156.9959 173.609,153.9729 173.609,150.5819 C173.609,148.8119 173.831,147.0059 174.273,145.1639 C174.715,143.3219 175.304,141.4779 176.042,139.6339 L187.653,112.0999 C190.085,106.2769 193.126,101.8159 196.776,98.7189 C200.425,95.6239 205.161,94.0759 210.985,94.0759 C216.957,94.0759 221.748,95.6619 225.361,98.8309 C228.972,101.9999 231.958,106.4239 234.317,112.0999 L245.818,139.6339 C246.628,141.4779 247.217,143.3219 247.587,145.1639 C247.955,147.0059 248.14,148.8119 248.14,150.5819 C248.14,153.7519 247.513,156.6269 246.26,159.2069 C245.006,161.7889 243.255,164.0169 241.008,165.8969 C238.758,167.7769 236.215,169.2329 233.377,170.2649 C230.539,171.2979 227.498,171.8129 224.255,171.8129 C221.673,171.8129 219.26,171.3899 217.012,170.5419 C214.762,169.6949 212.716,168.4229 210.875,166.7259 C209.031,168.3489 206.985,169.6009 204.737,170.4859 C202.488,171.3709 200.11,171.8129 197.605,171.8129 Z" id="Stroke-43" stroke="#000000" stroke-width="2"></path>
                <path d="M197.605,165.6206 C199.375,165.6206 201.033,165.3086 202.581,164.6806 C204.129,164.0556 205.529,163.1516 206.783,161.9716 C206.267,161.1606 205.769,160.2956 205.291,159.3726 C204.81,158.4516 204.387,157.5126 204.019,156.5536 L198.932,144.3896 C198.416,143.0616 198.49,142.0116 199.153,141.2376 C199.817,140.4636 200.701,140.0766 201.807,140.0766 L213.197,140.0766 L208.553,129.0186 C208.036,127.6916 208.166,126.6046 208.939,125.7566 C209.713,124.9096 210.671,124.5036 211.814,124.5406 C212.957,124.5776 213.786,125.2596 214.303,126.5856 L220.827,141.9566 C221.342,143.1366 221.325,144.1506 220.772,144.9976 C220.219,145.8466 219.279,146.2686 217.952,146.2686 L206.452,146.2686 L209.769,154.1206 C211.39,157.9546 213.399,160.8296 215.795,162.7456 C218.19,164.6636 221.01,165.6206 224.255,165.6206 C226.981,165.6206 229.709,165.0506 232.438,163.9066 C235.164,162.7646 237.431,161.0866 239.238,158.8756 C241.044,156.6636 241.948,153.8986 241.948,150.5816 C241.948,149.2546 241.782,147.8546 241.45,146.3796 C241.118,144.9056 240.657,143.4686 240.068,142.0666 L228.567,114.5326 C226.428,109.4456 223.996,105.7966 221.269,103.5856 C218.541,101.3736 215.113,100.2676 210.985,100.2676 C206.783,100.2676 203.336,101.3736 200.646,103.5856 C197.954,105.7966 195.541,109.4456 193.403,114.5326 L181.792,142.0666 C181.201,143.4686 180.742,144.9056 180.41,146.3796 C180.078,147.8546 179.912,149.2546 179.912,150.5816 C179.912,153.3096 180.501,155.6326 181.682,157.5486 C182.86,159.4666 184.372,161.0146 186.215,162.1926 C188.057,163.3726 189.992,164.2376 192.021,164.7916 C194.047,165.3446 195.908,165.6206 197.605,165.6206" id="Fill-45" fill="#FFFFFF"></path>
                <path d="M283.8574,171.8129 C278.5494,171.8129 273.9414,170.9659 270.0354,169.2699 C266.1274,167.5749 263.1244,165.0679 261.0234,161.7499 C258.9214,158.4329 257.8714,154.3789 257.8714,149.5859 C257.8714,146.4899 258.3504,143.5599 259.3084,140.7949 C260.2664,138.0309 261.6304,135.6169 263.4004,133.5519 C261.0404,130.3089 259.5294,127.1389 258.8664,124.0419 C258.2034,120.9459 257.8714,118.3309 257.8714,116.1909 C257.8714,111.3259 258.9394,107.2529 261.0784,103.9719 C263.2154,100.6929 266.2374,98.2219 270.1454,96.5629 C274.0524,94.9049 278.6224,94.0759 283.8574,94.0759 L299.1174,94.0759 C304.4254,94.0759 309.0314,94.9229 312.9404,96.6189 C316.8464,98.3149 319.8514,100.8029 321.9524,104.0829 C324.0534,107.3639 325.1044,111.3999 325.1044,116.1909 C325.1044,119.3619 324.6064,122.3469 323.6104,125.1479 C322.6154,127.9509 321.2334,130.3449 319.4644,132.3359 C321.8224,135.5059 323.3524,138.6579 324.0534,141.7909 C324.7534,144.9239 325.1044,147.5599 325.1044,149.6969 C325.1044,154.4899 324.0154,158.5429 321.8414,161.8609 C319.6664,165.1779 316.6444,167.6669 312.7744,169.3249 C308.9034,170.9839 304.3514,171.8129 299.1174,171.8129 L283.8574,171.8129 Z" id="Fill-47" fill="#000000"></path>
                <path d="M283.8574,171.8129 C278.5494,171.8129 273.9414,170.9659 270.0354,169.2699 C266.1274,167.5749 263.1244,165.0679 261.0234,161.7499 C258.9214,158.4329 257.8714,154.3789 257.8714,149.5859 C257.8714,146.4899 258.3504,143.5599 259.3084,140.7949 C260.2664,138.0309 261.6304,135.6169 263.4004,133.5519 C261.0404,130.3089 259.5294,127.1389 258.8664,124.0419 C258.2034,120.9459 257.8714,118.3309 257.8714,116.1909 C257.8714,111.3259 258.9394,107.2529 261.0784,103.9719 C263.2154,100.6929 266.2374,98.2219 270.1454,96.5629 C274.0524,94.9049 278.6224,94.0759 283.8574,94.0759 L299.1174,94.0759 C304.4254,94.0759 309.0314,94.9229 312.9404,96.6189 C316.8464,98.3149 319.8514,100.8029 321.9524,104.0829 C324.0534,107.3639 325.1044,111.3999 325.1044,116.1909 C325.1044,119.3619 324.6064,122.3469 323.6104,125.1479 C322.6154,127.9509 321.2334,130.3449 319.4644,132.3359 C321.8224,135.5059 323.3524,138.6579 324.0534,141.7909 C324.7534,144.9239 325.1044,147.5599 325.1044,149.6969 C325.1044,154.4899 324.0154,158.5429 321.8414,161.8609 C319.6664,165.1779 316.6444,167.6669 312.7744,169.3249 C308.9034,170.9839 304.3514,171.8129 299.1174,171.8129 L283.8574,171.8129 Z" id="Stroke-49" stroke="#000000" stroke-width="2"></path>
                <path d="M283.8574,165.6206 L299.1174,165.6206 C303.2454,165.6206 306.7834,165.0316 309.7334,163.8506 C312.6804,162.6736 314.9474,160.9036 316.5334,158.5436 C318.1184,156.1846 318.9114,153.2356 318.9114,149.6966 C318.9114,144.9056 317.6204,140.6296 315.0414,136.8696 C312.4604,133.1096 308.9594,129.9766 304.5364,127.4706 L291.8194,120.3926 C290.5654,119.7296 289.9944,118.8456 290.1054,117.7396 C290.2154,116.6336 290.7314,115.7486 291.6534,115.0856 C292.5744,114.4226 293.6254,114.3866 294.8054,114.9746 L307.6324,122.0526 C309.1064,122.8636 310.4884,123.7296 311.7784,124.6506 C313.0674,125.5736 314.2294,126.5496 315.2624,127.5806 C316.4404,126.1066 317.3444,124.3926 317.9714,122.4386 C318.5964,120.4866 318.9114,118.4026 318.9114,116.1906 C318.9114,112.5066 318.0994,109.5016 316.4784,107.1796 C314.8564,104.8566 312.5704,103.1256 309.6224,101.9816 C306.6734,100.8396 303.1704,100.2676 299.1174,100.2676 L283.8574,100.2676 C279.7284,100.2676 276.1724,100.8396 273.1864,101.9816 C270.2014,103.1256 267.9344,104.8756 266.3854,107.2336 C264.8374,109.5946 264.0644,112.5806 264.0644,116.1906 C264.0644,119.3616 264.6524,122.3286 265.8334,125.0936 C267.0114,127.8576 268.6894,130.3456 270.8644,132.5576 C273.0384,134.7686 275.5644,136.6866 278.4394,138.3076 L291.1554,145.3846 C292.3344,146.0486 292.8874,146.9516 292.8144,148.0936 C292.7404,149.2376 292.2614,150.1396 291.3774,150.8036 C290.4924,151.4666 289.4224,151.5046 288.1694,150.9136 L275.3424,143.8366 C273.7944,143.0256 272.3744,142.1416 271.0854,141.1826 C269.7944,140.2246 268.6334,139.2666 267.6024,138.3076 C266.4964,139.7086 265.6284,141.3866 265.0034,143.3386 C264.3764,145.2926 264.0644,147.3746 264.0644,149.5866 C264.0644,153.3466 264.8744,156.4056 266.4964,158.7646 C268.1174,161.1246 270.4034,162.8556 273.3524,163.9616 C276.3004,165.0676 279.8024,165.6206 283.8574,165.6206" id="Fill-51" fill="#FFFFFF"></path>
                <path d="M362.147,171.8129 C356.839,171.8129 352.231,170.9659 348.325,169.2699 C344.417,167.5749 341.414,165.0679 339.313,161.7499 C337.211,158.4329 336.161,154.3789 336.161,149.5859 C336.161,146.4899 336.64,143.5599 337.598,140.7949 C338.556,138.0309 339.92,135.6169 341.69,133.5519 C339.33,130.3089 337.819,127.1389 337.156,124.0419 C336.493,120.9459 336.161,118.3309 336.161,116.1909 C336.161,111.3259 337.229,107.2529 339.368,103.9719 C341.505,100.6929 344.527,98.2219 348.435,96.5629 C352.342,94.9049 356.912,94.0759 362.147,94.0759 L377.407,94.0759 C382.715,94.0759 387.321,94.9229 391.23,96.6189 C395.136,98.3149 398.141,100.8029 400.242,104.0829 C402.343,107.3639 403.394,111.3999 403.394,116.1909 C403.394,119.3619 402.896,122.3469 401.9,125.1479 C400.905,127.9509 399.523,130.3449 397.754,132.3359 C400.112,135.5059 401.642,138.6579 402.343,141.7909 C403.043,144.9239 403.394,147.5599 403.394,149.6969 C403.394,154.4899 402.305,158.5429 400.131,161.8609 C397.956,165.1779 394.934,167.6669 391.064,169.3249 C387.193,170.9839 382.641,171.8129 377.407,171.8129 L362.147,171.8129 Z" id="Fill-53" fill="#000000"></path>
                <path d="M362.147,171.8129 C356.839,171.8129 352.231,170.9659 348.325,169.2699 C344.417,167.5749 341.414,165.0679 339.313,161.7499 C337.211,158.4329 336.161,154.3789 336.161,149.5859 C336.161,146.4899 336.64,143.5599 337.598,140.7949 C338.556,138.0309 339.92,135.6169 341.69,133.5519 C339.33,130.3089 337.819,127.1389 337.156,124.0419 C336.493,120.9459 336.161,118.3309 336.161,116.1909 C336.161,111.3259 337.229,107.2529 339.368,103.9719 C341.505,100.6929 344.527,98.2219 348.435,96.5629 C352.342,94.9049 356.912,94.0759 362.147,94.0759 L377.407,94.0759 C382.715,94.0759 387.321,94.9229 391.23,96.6189 C395.136,98.3149 398.141,100.8029 400.242,104.0829 C402.343,107.3639 403.394,111.3999 403.394,116.1909 C403.394,119.3619 402.896,122.3469 401.9,125.1479 C400.905,127.9509 399.523,130.3449 397.754,132.3359 C400.112,135.5059 401.642,138.6579 402.343,141.7909 C403.043,144.9239 403.394,147.5599 403.394,149.6969 C403.394,154.4899 402.305,158.5429 400.131,161.8609 C397.956,165.1779 394.934,167.6669 391.064,169.3249 C387.193,170.9839 382.641,171.8129 377.407,171.8129 L362.147,171.8129 Z" id="Stroke-55" stroke="#000000" stroke-width="2"></path>
                <path d="M362.147,165.6206 L377.407,165.6206 C381.535,165.6206 385.073,165.0316 388.023,163.8506 C390.97,162.6736 393.237,160.9036 394.823,158.5436 C396.408,156.1846 397.201,153.2356 397.201,149.6966 C397.201,144.9056 395.91,140.6296 393.331,136.8696 C390.75,133.1096 387.249,129.9766 382.826,127.4706 L370.109,120.3926 C368.855,119.7296 368.284,118.8456 368.395,117.7396 C368.505,116.6336 369.021,115.7486 369.943,115.0856 C370.864,114.4226 371.915,114.3866 373.095,114.9746 L385.922,122.0526 C387.396,122.8636 388.778,123.7296 390.068,124.6506 C391.357,125.5736 392.519,126.5496 393.552,127.5806 C394.73,126.1066 395.634,124.3926 396.261,122.4386 C396.886,120.4866 397.201,118.4026 397.201,116.1906 C397.201,112.5066 396.389,109.5016 394.768,107.1796 C393.146,104.8566 390.86,103.1256 387.912,101.9816 C384.963,100.8396 381.46,100.2676 377.407,100.2676 L362.147,100.2676 C358.018,100.2676 354.462,100.8396 351.476,101.9816 C348.491,103.1256 346.224,104.8756 344.675,107.2336 C343.127,109.5946 342.354,112.5806 342.354,116.1906 C342.354,119.3616 342.942,122.3286 344.123,125.0936 C345.301,127.8576 346.979,130.3456 349.154,132.5576 C351.328,134.7686 353.854,136.6866 356.729,138.3076 L369.445,145.3846 C370.624,146.0486 371.177,146.9516 371.104,148.0936 C371.03,149.2376 370.551,150.1396 369.667,150.8036 C368.782,151.4666 367.712,151.5046 366.459,150.9136 L353.632,143.8366 C352.084,143.0256 350.664,142.1416 349.375,141.1826 C348.084,140.2246 346.923,139.2666 345.892,138.3076 C344.786,139.7086 343.918,141.3866 343.293,143.3386 C342.666,145.2926 342.354,147.3746 342.354,149.5866 C342.354,153.3466 343.164,156.4056 344.786,158.7646 C346.407,161.1246 348.693,162.8556 351.642,163.9616 C354.59,165.0676 358.092,165.6206 362.147,165.6206" id="Fill-57" fill="#FFFFFF"></path>
            </g>
        </g>
    </g>
</svg>