<svg xmlns="http://www.w3.org/2000/svg" viewBox="0 0 576.9 79.3"><title>Proteau</title><g id="Layer_2" data-name="Layer 2"><g id="Layer_1-2" data-name="Layer 1"><path d="M22.9,78.3c-6.8,0-12.2-2.1-16.1-6.5S1,61.8,1,54.7V46.9a25.5,25.5,0,0,1,.7-6.7,16.8,16.8,0,0,1,2.2-5.1,22.5,22.5,0,0,1-2.2-5.6A25.1,25.1,0,0,1,1,23.1,21.7,21.7,0,0,1,4,11.6a21.1,21.1,0,0,1,8.4-7.8A26.7,26.7,0,0,1,25.1,1H49.5c6.2,0,11.3,1.1,15.4,3.4A21.6,21.6,0,0,1,74,14.2a35.5,35.5,0,0,1,3,15.2,32.9,32.9,0,0,1-3.2,14.8,22.4,22.4,0,0,1-9.1,9.9,26.7,26.7,0,0,1-13.8,3.4H44.7a26.8,26.8,0,0,1-3.3,11.1,19.2,19.2,0,0,1-7.5,7.2A22.6,22.6,0,0,1,22.9,78.3Z" stroke="#000" stroke-miterlimit="10" stroke-width="2"/><path d="M22.9,72.2a17.4,17.4,0,0,0,7.9-1.7,12.5,12.5,0,0,0,5.2-5,19.3,19.3,0,0,0,2.4-8H33.7a3.1,3.1,0,0,1-3-3,2.8,2.8,0,0,1,.9-2.2,2.9,2.9,0,0,1,2.1-.9H50.9a20,20,0,0,0,11-2.9,17.6,17.6,0,0,0,6.7-7.8,27.5,27.5,0,0,0,2.3-11.3c0-7.2-1.9-12.7-5.5-16.5S56.3,7.2,49.1,7.2H24.8a21.2,21.2,0,0,0-9.5,1.9,14.2,14.2,0,0,0-6.1,5.5,17.5,17.5,0,0,0-2,8.5,19.5,19.5,0,0,0,1.1,7.2,16.1,16.1,0,0,1,4.9-3.4,10.1,10.1,0,0,1,3.9-1,2.7,2.7,0,0,1,2.4,1,3.1,3.1,0,0,1,.3,2.3,3.3,3.3,0,0,1-2,2,20.9,20.9,0,0,0-8.2,6.6,16.9,16.9,0,0,0-2.4,9.3v7.6c0,5.4,1.3,9.7,4,12.8S17.8,72.2,22.9,72.2Z" fill="#fff"/><path d="M41.7,35.8a2.9,2.9,0,0,1-2.1-.9,2.7,2.7,0,0,1-1-2.2V25.6a2.6,2.6,0,0,1,1-2.1,3.2,3.2,0,0,1,2.1-.8,3.3,3.3,0,0,1,2.2.8,2.9,2.9,0,0,1,.9,2.1v7.1a3.1,3.1,0,0,1-3.1,3.1Z" stroke="#000" stroke-miterlimit="10" stroke-width="2"/><path d="M109.2,78.3c-6.8,0-12.2-2.1-16.3-6.5s-6.1-10-6.1-17.1V46.9a25.5,25.5,0,0,1,.7-6.7,16.8,16.8,0,0,1,2.2-5.1,22.5,22.5,0,0,1-2.2-5.6,25.1,25.1,0,0,1-.7-6.4,21.7,21.7,0,0,1,3-11.5,21.1,21.1,0,0,1,8.4-7.8A27,27,0,0,1,110.9,1h23.3c6.2,0,11.3,1.1,15.4,3.4a21.6,21.6,0,0,1,9.1,9.8,35.5,35.5,0,0,1,3,15.2,29.4,29.4,0,0,1-3.8,15.1,20.8,20.8,0,0,1,2.8,6.2,27.3,27.3,0,0,1,.9,6.5,19.1,19.1,0,0,1-3.1,10.7,22,22,0,0,1-8.4,7.6,24.3,24.3,0,0,1-11.6,2.8,23.7,23.7,0,0,1-7.6-1.2,22.7,22.7,0,0,1-6.4-3.7,19.3,19.3,0,0,1-7.1,3.7A28.6,28.6,0,0,1,109.2,78.3Z" stroke="#000" stroke-miterlimit="10" stroke-width="2"/><path d="M109.2,72.2a23.8,23.8,0,0,0,6.4-.8,12.3,12.3,0,0,0,4.7-2.4l-1.4-1.8-1.7-2.1-6.3-7.6a2.9,2.9,0,0,1-.6-3,3.8,3.8,0,0,1,2.3-2,2.7,2.7,0,0,1,2.9,1.1l10.9,12.7a17.2,17.2,0,0,0,3.5,3.2,13.6,13.6,0,0,0,4,2,17.6,17.6,0,0,0,4.6.6,18.3,18.3,0,0,0,8.9-2.2,17,17,0,0,0,5.9-5.7,13,13,0,0,0,2.1-7,11.5,11.5,0,0,0-.5-3.9,12.7,12.7,0,0,0-1.3-3.2,30.6,30.6,0,0,1-5.4,3.8,12.2,12.2,0,0,1-5.2,1.6,2.7,2.7,0,0,1-2.4-1.3,3.8,3.8,0,0,1-.3-2.6,2.6,2.6,0,0,1,2-1.9,16.6,16.6,0,0,0,9.7-7.3,23,23,0,0,0,3.6-13c0-7.2-1.9-12.7-5.5-16.5S141,7.2,133.8,7.2H110.6a21.2,21.2,0,0,0-9.5,1.9,13.4,13.4,0,0,0-6,5.5A16.5,16.5,0,0,0,93,23.1c0,1.3.1,2.6.2,3.8a18.9,18.9,0,0,0,.9,3.4A16.4,16.4,0,0,1,98,27.4a18.1,18.1,0,0,1,3.5-1.4,3.4,3.4,0,0,1,3.2.4,2.6,2.6,0,0,1,1,2.4A2.8,2.8,0,0,1,104,31a23.6,23.6,0,0,0-8.2,6.2c-1.9,2.3-2.8,5.6-2.8,9.9v7.6c0,5.4,1.4,9.7,4.3,12.8S104.2,72.2,109.2,72.2Z" fill="#fff"/><path d="M126.4,35.8a2.9,2.9,0,0,1-2.1-.9,2.7,2.7,0,0,1-1-2.2V25.6a2.6,2.6,0,0,1,1-2.1,3.2,3.2,0,0,1,2.1-.8,3.3,3.3,0,0,1,2.2.8,2.9,2.9,0,0,1,.9,2.1v7.1a3.1,3.1,0,0,1-3.1,3.1Z" stroke="#000" stroke-miterlimit="10" stroke-width="2"/><path d="M210.3,78.3a31.2,31.2,0,0,1-8.5-1.2,20.7,20.7,0,0,1-7.5-3.9,16.6,16.6,0,0,1-4.8-7.1,18.2,18.2,0,0,1-9.9-5.1,24.4,24.4,0,0,1-5.8-9.7,36,36,0,0,1-2-11.7,37.1,37.1,0,0,1,3-14.9,37.5,37.5,0,0,1,8.3-12.4A41,41,0,0,1,195.4,4a38.5,38.5,0,0,1,29.8,0,40.3,40.3,0,0,1,12.4,8.3,39.1,39.1,0,0,1,8.3,12.4,38.8,38.8,0,0,1,2.9,14.9,39.7,39.7,0,0,1-2.9,15,38.7,38.7,0,0,1-8.3,12.3,40.3,40.3,0,0,1-12.4,8.3A35.5,35.5,0,0,1,210.3,78.3Z" stroke="#000" stroke-miterlimit="10" stroke-width="2"/><path d="M210.3,72.2a31.1,31.1,0,0,0,12.5-2.6,31.8,31.8,0,0,0,10.4-7,33.1,33.1,0,0,0,6.9-10.4,31.8,31.8,0,0,0,0-25.2,31.6,31.6,0,0,0-6.9-10.3,33,33,0,0,0-10.3-7,32.8,32.8,0,0,0-25.1,0,33,33,0,0,0-10.3,7,31.9,31.9,0,0,0-7,10.3A31.2,31.2,0,0,0,178,39.6a28.6,28.6,0,0,0,1.3,8.9,22.3,22.3,0,0,0,3.7,7.2,14.9,14.9,0,0,0,5.7,4.4,6.9,6.9,0,0,1-.2-1.3v-1c0-4.8,1.8-8.5,5.2-11A20.7,20.7,0,0,1,206.3,43h2.4a7.8,7.8,0,0,0,4.2-.8,2.8,2.8,0,0,0,1.3-2.6,3.7,3.7,0,0,0-1-2.7,4.1,4.1,0,0,0-2.8-.9,3.7,3.7,0,0,0-2.8,1.1,2.9,2.9,0,0,1-3.1.7,3.2,3.2,0,0,1-2.1-2.1,2.6,2.6,0,0,1,.9-3,10.5,10.5,0,0,1,7.7-2.9,8.7,8.7,0,0,1,6.6,2.8,9.6,9.6,0,0,1,2.7,7,8.8,8.8,0,0,1-2.9,6.8c-2,1.8-4.9,2.7-8.8,2.7h-2.7a13.6,13.6,0,0,0-8.1,2.2c-2,1.5-3.1,3.9-3.1,7.1a13,13,0,0,0,1.9,7.1,12.6,12.6,0,0,0,5.3,4.9A18,18,0,0,0,210.3,72.2Z" fill="#fff"/><path d="M294.9,78.3c-6.8,0-12.2-2.1-16.3-6.5s-6.1-10-6.1-17.2V42.4a21,21,0,0,1-13-6.9,19.9,19.9,0,0,1-4.7-13.6c0-6.3,2.1-11.4,6.4-15.2S271.2,1,278.4,1h32.8c7.2,0,12.9,1.9,17.3,5.7s6.5,8.9,6.5,15.2a21.2,21.2,0,0,1-2.2,9.6,18.4,18.4,0,0,1-6,7,26.6,26.6,0,0,1-9.4,3.9V54.6c0,7.2-2.1,12.9-6.1,17.2S301.7,78.3,294.9,78.3Z" stroke="#000" stroke-miterlimit="10" stroke-width="2"/><path d="M294.9,72.2c5.2,0,9.2-1.6,12-4.7s4.3-7.4,4.3-12.9v-15a3.1,3.1,0,0,1,.8-2.2,3.7,3.7,0,0,1,2-.9c4.7-.6,8.4-2.1,10.9-4.5s3.8-5.8,3.8-10.1-1.5-8.2-4.6-10.8-7.4-3.9-12.9-3.9H278.4c-5.5,0-9.8,1.3-12.8,3.9a13.4,13.4,0,0,0-4.7,10.8,13.4,13.4,0,0,0,4.7,10.8c3,2.6,7.3,3.9,12.8,3.9h14.5a3.3,3.3,0,0,1,3.1,3.1,2.9,2.9,0,0,1-.9,2.2,2.8,2.8,0,0,1-2.2.9H278.6V54.6c0,5.5,1.5,9.8,4.4,12.9S289.9,72.2,294.9,72.2Z" fill="#fff"/><path d="M368.6,78.3c-7.9,0-14.2-1.9-18.8-5.6s-7-9.3-7-16.4a26.6,26.6,0,0,1,1.4-8.8,32.6,32.6,0,0,1,4-7.9,33.5,33.5,0,0,1-3.9-8.1,25.7,25.7,0,0,1-1.5-8.4c0-7.3,2.3-12.8,7.1-16.5S360.8,1,368.6,1h21.6c6.7,0,11.8,1.4,15.5,4.3s5.5,7.4,5.5,13.3-2.4,10.3-7.1,13a11.1,11.1,0,0,1,1.8,3.8,14.2,14.2,0,0,1,.6,4.2,14.6,14.6,0,0,1-2.5,8.2,14.2,14.2,0,0,1,5.4,5.2,15,15,0,0,1,1.9,7.8q0,8.9-5.7,13.2c-3.8,2.9-8.9,4.3-15.2,4.3Z" stroke="#000" stroke-miterlimit="10" stroke-width="2"/><path d="M368.6,72.2h21.8q6.5,0,9.6-1.8c2.1-1.3,3.5-2.7,4.1-4.5a15.7,15.7,0,0,0,.9-5.1,8.4,8.4,0,0,0-2.8-6.8c-1.9-1.7-4.6-2.5-8-2.5a36.1,36.1,0,0,0-9.3.9,19.6,19.6,0,0,1-5.1,1,2.8,2.8,0,0,1-2.5-1.2,3.6,3.6,0,0,1-.4-2.7,3.2,3.2,0,0,1,2.1-2,41,41,0,0,1,7.3-1.6,50.6,50.6,0,0,1,7.9-.6h3.5a7.7,7.7,0,0,0,2.6-5.9,8.7,8.7,0,0,0-.6-3.2,6.8,6.8,0,0,0-1.8-2.6h-3.5a74.5,74.5,0,0,1-7.9-.5,41.8,41.8,0,0,1-7.7-1.6,3.1,3.1,0,0,1-2-2,3.3,3.3,0,0,1,.5-2.7,2.6,2.6,0,0,1,2.4-1.2,22,22,0,0,1,5,.9,40.8,40.8,0,0,0,9.7.9c3.3,0,6-.8,7.8-2.5a8.8,8.8,0,0,0,2.8-6.7,16.1,16.1,0,0,0-.9-5.1,9.4,9.4,0,0,0-4-4.5c-2.1-1.2-5.3-1.8-9.7-1.8H368.6c-6.1,0-11,1.3-14.4,4s-5.3,6.6-5.3,11.9a20,20,0,0,0,1.5,7.4,24.6,24.6,0,0,0,3.9,7.1,3.3,3.3,0,0,1,0,4,29.3,29.3,0,0,0-3.9,6.9,20.8,20.8,0,0,0-1.5,7.8q0,8.1,5.4,12C357.8,70.9,362.6,72.2,368.6,72.2Z" fill="#fff"/><path d="M443.5,78.3a25.8,25.8,0,0,1-16.1-5.4,19.4,19.4,0,0,1-5.7-6.7,19.9,19.9,0,0,1-2-9,26.2,26.2,0,0,1,.6-5.4,44,44,0,0,1,1.8-5.5l11.5-27.4a34.7,34.7,0,0,1,9.1-13.3C446.3,2.5,451,1,456.8,1s10.7,1.6,14.3,4.7A35.2,35.2,0,0,1,480,18.9l11.5,27.4a24.7,24.7,0,0,1,1.7,5.5,26.2,26.2,0,0,1,.6,5.4,19.3,19.3,0,0,1-7.1,15.2,24,24,0,0,1-7.6,4.4,26.7,26.7,0,0,1-9.1,1.5,21.8,21.8,0,0,1-7.2-1.2,20.7,20.7,0,0,1-6.1-3.8,19.9,19.9,0,0,1-6.1,3.7A18.7,18.7,0,0,1,443.5,78.3Z" stroke="#000" stroke-miterlimit="10" stroke-width="2"/><path d="M443.5,72.2a12.1,12.1,0,0,0,5-1,13.7,13.7,0,0,0,4.2-2.7,12.8,12.8,0,0,1-1.5-2.5l-1.3-2.8L444.8,51a2.8,2.8,0,0,1,.3-3.1,3,3,0,0,1,2.6-1.1H459l-4.6-11a3,3,0,0,1,.4-3.3,3.8,3.8,0,0,1,2.9-1.2,2.6,2.6,0,0,1,2.4,2l6.5,15.3a3.4,3.4,0,0,1,0,3.1,3.2,3.2,0,0,1-2.8,1.2H452.3l3.3,7.8a21.2,21.2,0,0,0,6,8.6,13.2,13.2,0,0,0,8.4,2.9,21.5,21.5,0,0,0,8.2-1.7,17.6,17.6,0,0,0,6.7-5,12.7,12.7,0,0,0,2.7-8.3,16,16,0,0,0-.5-4.2,23.5,23.5,0,0,0-1.3-4.3L474.3,21.3q-3.2-7.5-7.2-10.8a15.9,15.9,0,0,0-10.3-3.3,15.4,15.4,0,0,0-10.2,3.3c-2.7,2.2-5.1,5.8-7.3,10.8L427.8,48.7a35.9,35.9,0,0,0-1.4,4.3,21.8,21.8,0,0,0-.5,4.2,12.7,12.7,0,0,0,1.8,6.9,15.6,15.6,0,0,0,4.5,4.7,21.2,21.2,0,0,0,5.8,2.5A19.1,19.1,0,0,0,443.5,72.2Z" fill="#fff"/><path d="M539.8,78.3c-8,0-14.8-1.2-20.4-3.7a26.4,26.4,0,0,1-12.7-11.3c-2.9-5.1-4.3-11.5-4.3-19.3V24.7a27.1,27.1,0,0,1,2.7-12.5,19.7,19.7,0,0,1,7.6-8.3A23.1,23.1,0,0,1,524.4,1a23.9,23.9,0,0,1,8.2,1.4,18.5,18.5,0,0,1,6.5,3.9A21.3,21.3,0,0,1,553.9,1a22.9,22.9,0,0,1,11.6,2.9,20.4,20.4,0,0,1,7.6,8.3,27.1,27.1,0,0,1,2.8,12.5V45.9a33,33,0,0,1-4.6,17.7,29.6,29.6,0,0,1-12.7,11C553.3,77.1,547,78.3,539.8,78.3Z" stroke="#000" stroke-miterlimit="10" stroke-width="2"/><path d="M539.8,72.2a40.1,40.1,0,0,0,15-2.8,24.4,24.4,0,0,0,10.8-8.7c2.7-3.9,4.1-8.8,4.1-14.8V24.7a21.2,21.2,0,0,0-1.9-9.5,13.9,13.9,0,0,0-5.5-6,16.8,16.8,0,0,0-8.4-2c-4.6,0-8.2,1.2-10.9,3.8a23,23,0,0,1,2.5,6.2,29.9,29.9,0,0,1,.9,7.6V44.7a2.8,2.8,0,0,1-3.1,3.1h-8.8a3,3,0,0,1-2.2-1,2.9,2.9,0,0,1-.9-2.1,3.1,3.1,0,0,1,.9-2.2,2.9,2.9,0,0,1,2.2-.9h5.7V24.7c0-5.5-1.4-9.7-4.2-12.9s-6.6-4.6-11.6-4.6a17.2,17.2,0,0,0-8.5,2,13.9,13.9,0,0,0-5.5,6,22.6,22.6,0,0,0-1.9,9.5V44c0,6.4,1.2,11.7,3.4,15.8a20.4,20.4,0,0,0,10.3,9.3C526.8,71.2,532.7,72.2,539.8,72.2Z" fill="#fff"/></g></g></svg>