<svg xmlns="http://www.w3.org/2000/svg" viewBox="0 0 577.9 80.3"><title>Proteau</title><g id="Layer_2" data-name="Layer 2"><g id="Layer_1-2" data-name="Layer 1"><path d="M23.4,78.8c-6.8,0-12.2-2.1-16.1-6.5s-5.8-10-5.8-17.1V47.4a25.5,25.5,0,0,1,.7-6.7,16.8,16.8,0,0,1,2.2-5.1A22.5,22.5,0,0,1,2.2,30a25.1,25.1,0,0,1-.7-6.4,21.7,21.7,0,0,1,3-11.5,21.1,21.1,0,0,1,8.4-7.8A27,27,0,0,1,25.6,1.5H50c6.2,0,11.3,1.1,15.4,3.4a21.6,21.6,0,0,1,9.1,9.8,35.5,35.5,0,0,1,3,15.2,32.9,32.9,0,0,1-3.2,14.8,22.4,22.4,0,0,1-9.1,9.9A26.7,26.7,0,0,1,51.4,58H45.2a26.8,26.8,0,0,1-3.3,11.1,19.2,19.2,0,0,1-7.5,7.2A22.6,22.6,0,0,1,23.4,78.8Z" stroke="#000" stroke-miterlimit="10" stroke-width="3"/><path d="M23.4,71.7c-4.8,0-8.4-1.4-10.9-4.4s-3.8-7-3.8-12.1V47.6A15.4,15.4,0,0,1,11,38.8c1.5-2.3,4.1-4.4,7.8-6.1A4.5,4.5,0,0,0,21.2,30a3.5,3.5,0,0,0-3.6-4.6,10.8,10.8,0,0,0-4.3,1.1,17.5,17.5,0,0,0-4,2.5,22.3,22.3,0,0,1-.6-5.4,15.5,15.5,0,0,1,1.9-8,13.2,13.2,0,0,1,5.6-5.1,21.1,21.1,0,0,1,9.1-1.8H49.6c6.9,0,12.2,1.8,15.6,5.4s5.2,8.9,5.2,15.8a26.3,26.3,0,0,1-2.2,10.8,16.8,16.8,0,0,1-6.4,7.5,18.5,18.5,0,0,1-10.4,2.7H34.2a3.8,3.8,0,0,0-2.8,1.2A3.7,3.7,0,0,0,30.2,55a3.9,3.9,0,0,0,1.2,2.8A3.6,3.6,0,0,0,34.2,59h3.6a19.9,19.9,0,0,1-2.1,6.5,12.5,12.5,0,0,1-4.8,4.6A17.3,17.3,0,0,1,23.4,71.7Z" fill="#fff"/><path d="M42.2,36.3a2.9,2.9,0,0,1-2.1-.9,2.7,2.7,0,0,1-1-2.2V26.1a2.6,2.6,0,0,1,1-2.1,3.2,3.2,0,0,1,2.1-.8,3.3,3.3,0,0,1,2.2.8,2.9,2.9,0,0,1,.9,2.1v7.1a3.1,3.1,0,0,1-3.1,3.1Z" stroke="#000" stroke-miterlimit="10"/><path d="M109.7,78.8c-6.8,0-12.2-2.1-16.3-6.5s-6.1-10-6.1-17.1V47.4a25.5,25.5,0,0,1,.7-6.7,16.8,16.8,0,0,1,2.2-5.1A22.5,22.5,0,0,1,88,30a25.1,25.1,0,0,1-.7-6.4,21.7,21.7,0,0,1,3-11.5,20.5,20.5,0,0,1,8.4-7.8,27,27,0,0,1,12.7-2.8h23.3c6.2,0,11.3,1.1,15.4,3.4a21.6,21.6,0,0,1,9.1,9.8,35.5,35.5,0,0,1,3,15.2A29.4,29.4,0,0,1,158.4,45a20.8,20.8,0,0,1,2.8,6.2,27.3,27.3,0,0,1,.9,6.5A19.1,19.1,0,0,1,159,68.4a22,22,0,0,1-8.4,7.6A24.3,24.3,0,0,1,139,78.8a23.7,23.7,0,0,1-7.6-1.2,22.7,22.7,0,0,1-6.4-3.7,19.3,19.3,0,0,1-7.1,3.7A28.6,28.6,0,0,1,109.7,78.8Z" stroke="#000" stroke-miterlimit="10" stroke-width="3"/><path d="M109.7,71.7c-4.8,0-8.4-1.5-11.2-4.4s-4-7-4-12.1V47.6c0-4,.8-7.1,2.6-9.3a23.5,23.5,0,0,1,7.8-5.9,3.8,3.8,0,0,0,2.3-3,3.5,3.5,0,0,0-1.3-3.2,3.7,3.7,0,0,0-2.5-.9l-1.6.2A18,18,0,0,0,98.1,27a17.4,17.4,0,0,0-3,2,10.5,10.5,0,0,1-.4-1.7c-.1-1.2-.2-2.4-.2-3.7a15.5,15.5,0,0,1,1.9-8,13.2,13.2,0,0,1,5.6-5.1,21.1,21.1,0,0,1,9.1-1.8h23.2c6.9,0,12.2,1.8,15.6,5.4s5.2,8.9,5.2,15.8a23.1,23.1,0,0,1-3.4,12.5,16.5,16.5,0,0,1-9.1,6.9,3.8,3.8,0,0,0-2.8,2.5,4.4,4.4,0,0,0,.5,3.4,3.4,3.4,0,0,0,3.2,1.8,12.4,12.4,0,0,0,5.7-1.8,28.5,28.5,0,0,0,4.6-3.1,15.9,15.9,0,0,1,.7,2,12.8,12.8,0,0,1,.4,3.6,11.5,11.5,0,0,1-2,6.5A15.8,15.8,0,0,1,139,71.6a14.9,14.9,0,0,1-4.3-.6,12.7,12.7,0,0,1-3.7-1.8,15.5,15.5,0,0,1-3.3-3L116.8,53.4a4,4,0,0,0-2.9-1.5l-1.1.2a4.5,4.5,0,0,0-2.9,2.5,3.9,3.9,0,0,0,.7,4.1l6.3,7.6,1.7,2.1.8.9a11.7,11.7,0,0,1-3.6,1.6A21.5,21.5,0,0,1,109.7,71.7Z" fill="#fff"/><path d="M126.9,36.3a2.9,2.9,0,0,1-2.1-.9,2.7,2.7,0,0,1-1-2.2V26.1a2.6,2.6,0,0,1,1-2.1,3.2,3.2,0,0,1,2.1-.8,3.3,3.3,0,0,1,2.2.8,2.9,2.9,0,0,1,.9,2.1v7.1a3.1,3.1,0,0,1-3.1,3.1Z" stroke="#000" stroke-miterlimit="10"/><path d="M210.8,78.8a31.2,31.2,0,0,1-8.5-1.2,20.7,20.7,0,0,1-7.5-3.9,16.6,16.6,0,0,1-4.8-7.1,18.2,18.2,0,0,1-9.9-5.1,24.4,24.4,0,0,1-5.8-9.7,36,36,0,0,1-2-11.7,37.1,37.1,0,0,1,3-14.9,37.5,37.5,0,0,1,8.3-12.4,41,41,0,0,1,12.3-8.3,38.5,38.5,0,0,1,29.8,0,40.3,40.3,0,0,1,12.4,8.3,39.1,39.1,0,0,1,8.3,12.4,38.8,38.8,0,0,1,2.9,14.9,39.7,39.7,0,0,1-2.9,15,38.7,38.7,0,0,1-8.3,12.3,42.4,42.4,0,0,1-12.4,8.4A37.1,37.1,0,0,1,210.8,78.8Z" stroke="#000" stroke-miterlimit="10" stroke-width="3"/><path d="M210.8,71.7a17.1,17.1,0,0,1-7.9-1.7,12.2,12.2,0,0,1-5-4.5,13,13,0,0,1-1.7-6.6c0-2.9.9-4.9,2.7-6.3a13.3,13.3,0,0,1,7.5-2h2.7c4.1,0,7.3-1,9.4-2.9a9.8,9.8,0,0,0,3.3-7.6,10.8,10.8,0,0,0-2.9-7.7,9.8,9.8,0,0,0-7.4-3.1,11.4,11.4,0,0,0-8.4,3.2,3.4,3.4,0,0,0-1.1,4,4.2,4.2,0,0,0,2.7,2.8l1.2.2a4.1,4.1,0,0,0,2.8-1.2,3.7,3.7,0,0,1,2.2-.8,3.1,3.1,0,0,1,2.1.6,2.6,2.6,0,0,1,.7,2,1.9,1.9,0,0,1-.8,1.8,7.8,7.8,0,0,1-3.7.6h-2.4a21.8,21.8,0,0,0-13.2,4c-3.7,2.7-5.5,6.7-5.5,11.8v.6a13.1,13.1,0,0,1-3.8-3.3,20.4,20.4,0,0,1-3.5-6.9,27.1,27.1,0,0,1-1.3-8.6,31.2,31.2,0,0,1,2.4-12.2,32.8,32.8,0,0,1,6.8-10,31.1,31.1,0,0,1,10-6.8,30.4,30.4,0,0,1,12.1-2.4A31.2,31.2,0,0,1,223,11.1a30.7,30.7,0,0,1,9.9,6.8,30.1,30.1,0,0,1,6.8,10,31.5,31.5,0,0,1-6.8,34.5,30.1,30.1,0,0,1-10,6.8A30.8,30.8,0,0,1,210.8,71.7Z" fill="#fff"/><path d="M295.4,78.8c-6.8,0-12.2-2.1-16.3-6.5s-6.1-10-6.1-17.2V42.9A21,21,0,0,1,260,36a19.9,19.9,0,0,1-4.7-13.6c0-6.3,2.1-11.4,6.4-15.2s10-5.7,17.2-5.7h32.8c7.2,0,12.9,1.9,17.3,5.7s6.5,8.9,6.5,15.2a21.2,21.2,0,0,1-2.2,9.6,18.4,18.4,0,0,1-6,7,26.6,26.6,0,0,1-9.4,3.9V55.1c0,7.2-2.1,12.9-6.1,17.2S302.2,78.8,295.4,78.8Z" stroke="#000" stroke-miterlimit="10" stroke-width="3"/><path d="M295.4,71.7c-4.7,0-8.5-1.5-11.2-4.4s-4.1-7-4.1-12.2V44.3h13.3a3.7,3.7,0,0,0,2.9-1.2,3.8,3.8,0,0,0,1.2-2.9,4.3,4.3,0,0,0-1.1-2.8,4.2,4.2,0,0,0-3-1.3H278.9c-5.2,0-9.3-1.2-12.2-3.6s-4.3-5.7-4.3-10.1,1.4-7.6,4.3-10.1,7-3.6,12.2-3.6h32.8c5.2,0,9.3,1.2,12.2,3.6s4.3,5.7,4.3,10.1-1.2,7.1-3.5,9.3-5.8,3.8-10.4,4.3a4.5,4.5,0,0,0-2.5,1.2,4,4,0,0,0-1.1,2.9v15c0,5.2-1.4,9.3-4,12.2S300.2,71.7,295.4,71.7Z" fill="#fff"/><path d="M369.1,78.8c-7.9,0-14.2-1.9-18.8-5.6s-7-9.3-7-16.4a26.6,26.6,0,0,1,1.4-8.8,32.6,32.6,0,0,1,4-7.9,33.5,33.5,0,0,1-3.9-8.1,25.7,25.7,0,0,1-1.5-8.4c0-7.3,2.3-12.8,7.1-16.5s10.9-5.6,18.7-5.6h21.6c6.7,0,11.8,1.4,15.5,4.3s5.5,7.4,5.5,13.3-2.4,10.3-7.1,13a11.1,11.1,0,0,1,1.8,3.8,14.6,14.6,0,0,1-1.9,12.3,15.2,15.2,0,0,1,5.4,5.3,15,15,0,0,1,1.9,7.8q0,8.9-5.7,13.2c-3.8,2.9-8.9,4.3-15.2,4.3Z" stroke="#000" stroke-miterlimit="10" stroke-width="3"/><path d="M369.1,71.7c-5.8,0-10.4-1.3-13.7-3.7s-5-6.1-5-11.2a21.1,21.1,0,0,1,1.4-7.4,31.4,31.4,0,0,1,3.8-6.7,4.2,4.2,0,0,0,.1-5.1,26.5,26.5,0,0,1-3.9-6.9,20.4,20.4,0,0,1-1.4-7.1c0-5,1.6-8.6,4.9-11.1s7.9-3.8,13.8-3.8h21.8c4.2,0,7.3.5,9.2,1.7a8.1,8.1,0,0,1,3.6,4,16,16,0,0,1,.8,4.7A7.5,7.5,0,0,1,402,25c-1.6,1.6-4,2.3-7.1,2.3a38.1,38.1,0,0,1-9.4-.9,24.9,24.9,0,0,0-5.3-.9,3.9,3.9,0,0,0-3.3,1.7,4.4,4.4,0,0,0-.6,3.5,4,4,0,0,0,2.7,2.7,44.1,44.1,0,0,0,7.9,1.6,76.3,76.3,0,0,0,8,.5h3.2a6.2,6.2,0,0,1,1.2,1.9,8.7,8.7,0,0,1,.5,2.8,7,7,0,0,1-2,4.9h-3a53.6,53.6,0,0,0-8.2.6,44.3,44.3,0,0,0-7.4,1.7,4,4,0,0,0-2.2,6.1,3.6,3.6,0,0,0,3.3,1.7,21.6,21.6,0,0,0,5.4-1,33.4,33.4,0,0,1,9.1-.9c3.1,0,5.5.7,7.2,2.2a7.6,7.6,0,0,1,2.5,6.1,17.2,17.2,0,0,1-.8,4.8A8.1,8.1,0,0,1,400,70c-1.9,1.1-5,1.7-9.1,1.7Z" fill="#fff"/><path d="M444,78.8a25.8,25.8,0,0,1-16.1-5.4,19.4,19.4,0,0,1-5.7-6.7,19.9,19.9,0,0,1-2-9,26.2,26.2,0,0,1,.6-5.4,44,44,0,0,1,1.8-5.5l11.5-27.4a34.7,34.7,0,0,1,9.1-13.3c3.6-3.1,8.3-4.6,14.1-4.6S468,3.1,471.6,6.2a35.2,35.2,0,0,1,8.9,13.2L492,46.8a24.7,24.7,0,0,1,1.7,5.5,26.2,26.2,0,0,1,.6,5.4,19.3,19.3,0,0,1-7.1,15.2,24,24,0,0,1-7.6,4.4,26.7,26.7,0,0,1-9.1,1.5,21.8,21.8,0,0,1-7.2-1.2,20.7,20.7,0,0,1-6.1-3.8,19.9,19.9,0,0,1-6.1,3.7A18.7,18.7,0,0,1,444,78.8Z" stroke="#000" stroke-miterlimit="10" stroke-width="3"/><path d="M470.5,71.7a12.1,12.1,0,0,1-7.8-2.7,20.1,20.1,0,0,1-5.6-8.2l-2.8-6.4h10a4.1,4.1,0,0,0,3.6-1.7,3.9,3.9,0,0,0,.1-4l-6.4-15.3c-.9-2.1-2.3-2.6-3.4-2.6H458a4.5,4.5,0,0,0-3.4,1.5c-.8.8-1.4,2.2-.6,4.3l4,9.7h-9.8a4.3,4.3,0,0,0-3.4,1.5c-.6.7-1.2,2-.4,4.1L449.5,64a25.5,25.5,0,0,0,1.3,2.9,11.8,11.8,0,0,0,1.1,1.9,11.2,11.2,0,0,1-3.3,2,11.4,11.4,0,0,1-4.6.9,22,22,0,0,1-5.3-.8,20.8,20.8,0,0,1-5.5-2.5,13.3,13.3,0,0,1-4.2-4.3,12.6,12.6,0,0,1-1.6-6.4,18.1,18.1,0,0,1,.5-3.9,29.2,29.2,0,0,1,1.3-4.2l11.6-27.4c2-4.8,4.4-8.4,6.9-10.5a16.9,16.9,0,0,1,19.2,0c2.6,2.1,5,5.7,7,10.5l11.4,27.4a23,23,0,0,1,1.4,4.2,17.8,17.8,0,0,1,.4,3.9,11.7,11.7,0,0,1-2.4,7.6,15.7,15.7,0,0,1-6.4,4.7A20,20,0,0,1,470.5,71.7Z" fill="#fff"/><path d="M540.3,78.8c-8,0-14.8-1.2-20.4-3.7a26.4,26.4,0,0,1-12.7-11.3c-2.9-5.1-4.3-11.5-4.3-19.3V25.2a27.1,27.1,0,0,1,2.7-12.5,19.7,19.7,0,0,1,7.6-8.3,23.1,23.1,0,0,1,11.7-2.9,23.9,23.9,0,0,1,8.2,1.4,18.5,18.5,0,0,1,6.5,3.9,21.3,21.3,0,0,1,14.8-5.3A22.9,22.9,0,0,1,566,4.4a20.4,20.4,0,0,1,7.6,8.3,27.1,27.1,0,0,1,2.8,12.5V46.4a33.3,33.3,0,0,1-4.6,17.7,29,29,0,0,1-12.7,11C553.8,77.6,547.5,78.8,540.3,78.8Z" stroke="#000" stroke-miterlimit="10" stroke-width="3"/><path d="M540.3,71.7c-7,0-12.8-1-17.2-3a19.7,19.7,0,0,1-9.8-8.8c-2.2-4-3.3-9.2-3.3-15.4V25.2a20.3,20.3,0,0,1,1.8-9,13.2,13.2,0,0,1,5.1-5.6,15.5,15.5,0,0,1,8-1.9c4.7,0,8.3,1.4,10.9,4.3s3.9,7,3.9,12.2V41.1H535a3.8,3.8,0,0,0-2.9,1.2,4.2,4.2,0,0,0-1.2,2.9,3.9,3.9,0,0,0,1.2,2.8,3.7,3.7,0,0,0,2.9,1.2h8.8c2.6,0,4.1-1.4,4.1-4V25.3a32.1,32.1,0,0,0-.9-7.8,25.1,25.1,0,0,0-2.3-5.8,15,15,0,0,1,9.7-3,15.2,15.2,0,0,1,7.9,1.9,13.2,13.2,0,0,1,5.1,5.6,20.3,20.3,0,0,1,1.8,9V46.4c0,5.8-1.3,10.6-3.9,14.3a22.8,22.8,0,0,1-10.4,8.2A36.5,36.5,0,0,1,540.3,71.7Z" fill="#fff"/></g></g></svg>