<svg xmlns="http://www.w3.org/2000/svg" viewBox="0 0 491.3 79.3"><title>Stantt_1</title><g id="Layer_2" data-name="Layer 2"><g id="Layer_1-2" data-name="Layer 1"><path d="M26.8,78.3a34.2,34.2,0,0,1-13.7-2.5,19.6,19.6,0,0,1-9-7.5A22,22,0,0,1,1,56.2a27.4,27.4,0,0,1,1.4-8.7,21.2,21.2,0,0,1,4.1-7.2A27.2,27.2,0,0,1,2,30.8,36.1,36.1,0,0,1,1,23,22.4,22.4,0,0,1,4.2,10.8a19.3,19.3,0,0,1,9-7.3A33.7,33.7,0,0,1,26.8,1H42A34.4,34.4,0,0,1,55.8,3.5,18.9,18.9,0,0,1,64.7,11a21.4,21.4,0,0,1,3.2,12,26,26,0,0,1-1.5,8.9,23,23,0,0,1-4.1,7.2,24.6,24.6,0,0,1,4.5,9.4,37.1,37.1,0,0,1,1.1,7.8,21.2,21.2,0,0,1-3.3,12.1,19.6,19.6,0,0,1-9,7.5A35.2,35.2,0,0,1,42,78.3Z"/><path d="M26.8,72.2H42a28,28,0,0,0,10.6-1.8,14.5,14.5,0,0,0,6.8-5.3,16,16,0,0,0,2.3-8.8,22.3,22.3,0,0,0-3.8-12.7,30.9,30.9,0,0,0-10.5-9.4l-12.6-7a2.7,2.7,0,0,1-1.7-2.7,3.5,3.5,0,0,1,1.5-2.6,2.7,2.7,0,0,1,3.1-.1l12.8,7a41,41,0,0,1,4.1,2.6,25.7,25.7,0,0,1,3.5,2.9,13.8,13.8,0,0,0,2.7-5.1,20.6,20.6,0,0,0,.9-6.2,15.4,15.4,0,0,0-2.4-9,14.2,14.2,0,0,0-6.8-5.1A27.9,27.9,0,0,0,42,7.2H26.8A28.4,28.4,0,0,0,16.2,8.9a13.1,13.1,0,0,0-6.7,5.2C7.9,16.4,7.2,19.4,7.2,23a22.1,22.1,0,0,0,1.7,8.9,26.1,26.1,0,0,0,5,7.4A33.6,33.6,0,0,0,21.5,45l12.6,7a3,3,0,0,1,1.7,2.7,3.4,3.4,0,0,1-1.5,2.7c-.8.7-1.9.7-3.2.1l-12.7-7a35,35,0,0,1-4.3-2.6c-1.2-1-2.4-1.9-3.4-2.9a15.8,15.8,0,0,0-2.6,5,20.6,20.6,0,0,0-.9,6.2c0,3.8.8,6.8,2.4,9.1a13.7,13.7,0,0,0,6.8,5.2A29.4,29.4,0,0,0,26.8,72.2Z"/><path d="M42,79.3H26.8a34.5,34.5,0,0,1-14.1-2.6,20.2,20.2,0,0,1-9.4-7.8A23.3,23.3,0,0,1,0,56.2a27.6,27.6,0,0,1,1.5-9.1,24.1,24.1,0,0,1,3.7-6.9A27.8,27.8,0,0,1,1,31a37,37,0,0,1-1-8c0-5,1.1-9.3,3.4-12.7a20.5,20.5,0,0,1,9.4-7.7A35.7,35.7,0,0,1,26.8,0H42A36.4,36.4,0,0,1,56.2,2.6a21.3,21.3,0,0,1,9.4,7.8A23,23,0,0,1,68.9,23a25.1,25.1,0,0,1-1.6,9.2,20.9,20.9,0,0,1-3.8,6.9,25.1,25.1,0,0,1,4.3,9.1,39.6,39.6,0,0,1,1.1,8.1A23.3,23.3,0,0,1,65.5,69,21.5,21.5,0,0,1,56,76.8,35.4,35.4,0,0,1,42,79.3Z"/><path d="M26.8,2A33.4,33.4,0,0,0,13.6,4.4a18.7,18.7,0,0,0-8.6,7A21.1,21.1,0,0,0,2,23a34.5,34.5,0,0,0,1,7.6,25,25,0,0,0,4.3,9.1l.5.6-.5.6a21.3,21.3,0,0,0-3.9,6.9A26,26,0,0,0,2,56.2,21.1,21.1,0,0,0,5,67.8a18.7,18.7,0,0,0,8.5,7.1,33.6,33.6,0,0,0,13.3,2.4H42a33.1,33.1,0,0,0,13.2-2.4,18.1,18.1,0,0,0,8.6-7,21.1,21.1,0,0,0,3.1-11.6,41.8,41.8,0,0,0-1-7.6,25,25,0,0,0-4.4-9L61,39l.5-.6a21.8,21.8,0,0,0,4-6.8A27.2,27.2,0,0,0,66.9,23a20.9,20.9,0,0,0-3-11.5,18.7,18.7,0,0,0-8.5-7.1A34.5,34.5,0,0,0,42,2Z"/><path d="M42,73.2H26.8A32.2,32.2,0,0,1,16,71.5a15.1,15.1,0,0,1-7.2-5.6C7,63.4,6.2,60.1,6.2,56.2a22.7,22.7,0,0,1,.9-6.5,17.8,17.8,0,0,1,2.8-5.3l.7-.9.8.8,3.3,2.8c1.3.9,2.7,1.7,4.1,2.5l12.8,7.1c1.2.5,1.8.2,2.1-.1a2.5,2.5,0,0,0,1.1-1.9,1.9,1.9,0,0,0-1.2-1.8L21,45.9A36.3,36.3,0,0,1,13.2,40,25.4,25.4,0,0,1,8,32.2,23.2,23.2,0,0,1,6.2,23a17.4,17.4,0,0,1,2.4-9.5,14.9,14.9,0,0,1,7.3-5.6A32,32,0,0,1,26.8,6.2H42A31.4,31.4,0,0,1,52.8,7.9a14.9,14.9,0,0,1,7.3,5.6A16.2,16.2,0,0,1,62.7,23a19.7,19.7,0,0,1-1,6.5A16.8,16.8,0,0,1,58.9,35l-.7.8-.8-.8A33.9,33.9,0,0,0,54,32.2a38.9,38.9,0,0,0-4-2.5l-12.7-7a1.7,1.7,0,0,0-2.1,0,2.3,2.3,0,0,0-1.1,1.9c-.1.5,0,1.1,1.1,1.7l12.7,7A32.9,32.9,0,0,1,58.7,43a22.9,22.9,0,0,1,4,13.3,16.5,16.5,0,0,1-2.5,9.4A15.1,15.1,0,0,1,53,71.3,28.5,28.5,0,0,1,42,73.2Z"/><path d="M10.8,46.5A19.1,19.1,0,0,0,9,50.3a22.1,22.1,0,0,0-.8,5.9,15,15,0,0,0,2.2,8.6,13.1,13.1,0,0,0,6.4,4.8,29.9,29.9,0,0,0,10,1.6H42a27.9,27.9,0,0,0,10.2-1.7,13.7,13.7,0,0,0,6.3-4.9,14.5,14.5,0,0,0,2.2-8.3A20.9,20.9,0,0,0,57,44.1a28.6,28.6,0,0,0-10.1-9l-12.6-7a3.7,3.7,0,0,1-2.2-3.7A4.4,4.4,0,0,1,34,21.1a3.8,3.8,0,0,1,4.2-.2L51,28a42.8,42.8,0,0,1,4.2,2.6L58,32.8a15.5,15.5,0,0,0,1.8-3.9,18.7,18.7,0,0,0,.9-5.9,14.4,14.4,0,0,0-2.2-8.4,13.8,13.8,0,0,0-6.4-4.8A27.8,27.8,0,0,0,42,8.2H26.8A28.4,28.4,0,0,0,16.6,9.8a13,13,0,0,0-6.3,4.8A15.4,15.4,0,0,0,8.2,23a21.8,21.8,0,0,0,1.6,8.5,26.1,26.1,0,0,0,4.8,7.1A31.7,31.7,0,0,0,22,44.1l12.6,7.1a3.8,3.8,0,0,1,2.2,3.6,4.6,4.6,0,0,1-1.9,3.4,3.8,3.8,0,0,1-4.2.2l-12.8-7a46.8,46.8,0,0,1-4.4-2.7Z" fill="#fff"/><path d="M116.2,78.3c-6.9,0-12.3-2.1-16.4-6.5s-6.1-10-6.1-17.2V42.4q-8.2-1.4-12.9-6.9A20,20,0,0,1,76,21.9c0-6.3,2.2-11.4,6.5-15.2S92.5,1,99.7,1h32.7c7.2,0,13,1.9,17.3,5.7s6.5,8.9,6.5,15.2a21.2,21.2,0,0,1-2.1,9.6,19.6,19.6,0,0,1-6.1,7,25.9,25.9,0,0,1-9.4,3.9V54.6c0,7.2-2,12.9-6.1,17.2S123,78.3,116.2,78.3Z"/><path d="M116.2,72.2c5.1,0,9.1-1.6,12-4.7s4.2-7.4,4.2-12.9v-15a2.8,2.8,0,0,1,.9-2.2,3.4,3.4,0,0,1,1.9-.9c4.8-.6,8.4-2.1,10.9-4.5s3.8-5.8,3.8-10.1-1.5-8.2-4.6-10.8-7.4-3.9-12.9-3.9H99.7q-8.2,0-12.9,3.9c-3.1,2.6-4.6,6.2-4.6,10.8s1.5,8.2,4.6,10.8,7.4,3.9,12.9,3.9h14.5a3,3,0,0,1,2.2,1,2.9,2.9,0,0,1,.9,2.1,3.1,3.1,0,0,1-3.1,3.1H99.9V54.6c0,5.5,1.4,9.8,4.3,12.9S111.1,72.2,116.2,72.2Z"/><path d="M116.2,79.3c-7.1,0-12.8-2.3-17.1-6.8S92.7,62,92.7,54.6V43.2A20.9,20.9,0,0,1,75,21.9C75,15.3,77.3,10,81.8,6S92.3,0,99.7,0h32.7q11.3,0,18,6c4.5,4,6.8,9.3,6.8,15.9A22.3,22.3,0,0,1,155,32a20.4,20.4,0,0,1-6.4,7.3,24.6,24.6,0,0,1-9,3.9V54.6c0,7.4-2.1,13.4-6.4,17.9S123.2,79.3,116.2,79.3Z"/><path d="M99.7,2C92.8,2,87.2,3.8,83.1,7.5S77,15.8,77,21.9a19.1,19.1,0,0,0,4.5,12.9,20.4,20.4,0,0,0,12.4,6.6h.8V54.6c0,6.9,2,12.4,5.9,16.6s9.1,6.1,15.6,6.1,11.7-2,15.6-6.1,5.8-9.7,5.8-16.6V41.5h.8a23.7,23.7,0,0,0,9-3.7,18.4,18.4,0,0,0,5.8-6.6,21.1,21.1,0,0,0,2-9.2c0-6.1-2-10.8-6.1-14.4S139.3,2,132.4,2Z"/><path d="M116.2,73.2c-5.4,0-9.6-1.7-12.7-5s-4.6-7.9-4.6-13.6V41.8h15.3a2.1,2.1,0,0,0,2.1-2.1,2,2,0,0,0-.6-1.4,1.8,1.8,0,0,0-1.5-.7H99.7c-5.7,0-10.3-1.4-13.5-4.1s-5-6.7-5-11.6,1.7-8.8,5-11.6S94,6.2,99.7,6.2h32.7c5.8,0,10.3,1.4,13.6,4.1s4.9,6.7,4.9,11.6-1.3,8.1-4.1,10.8-6.5,4.2-11.5,4.8a2.6,2.6,0,0,0-1.3.6,1.9,1.9,0,0,0-.6,1.5v15c0,5.7-1.5,10.3-4.5,13.6S121.6,73.2,116.2,73.2Z"/><path d="M100.9,43.8V54.6c0,5.2,1.4,9.3,4.1,12.2s6.4,4.4,11.2,4.4,8.6-1.5,11.2-4.4,4-7,4-12.2v-15a3.7,3.7,0,0,1,1.2-2.9,3.9,3.9,0,0,1,2.5-1.2c4.5-.5,8-2,10.3-4.3s3.5-5.3,3.5-9.3-1.4-7.6-4.2-10.1-7-3.6-12.3-3.6H99.7q-8,0-12.3,3.6c-2.8,2.5-4.2,5.7-4.2,10.1s1.4,7.6,4.2,10.1,7,3.6,12.3,3.6h14.5a4.1,4.1,0,0,1,2.9,1.3,3.9,3.9,0,0,1,1.2,2.8,3.8,3.8,0,0,1-1.2,2.9,4,4,0,0,1-2.9,1.2Z" fill="#fff"/><path d="M181.8,78.3a27.7,27.7,0,0,1-8.4-1.3,27.1,27.1,0,0,1-7.7-4.1,19.2,19.2,0,0,1-5.6-6.7,18.7,18.7,0,0,1-2.1-9,26.2,26.2,0,0,1,.6-5.4c.5-1.8,1.1-3.6,1.8-5.5l11.5-27.4c2.5-5.8,5.5-10.2,9.1-13.3S189.4,1,195.1,1s10.8,1.6,14.3,4.7a36.6,36.6,0,0,1,9,13.2l11.4,27.4a32,32,0,0,1,1.8,5.5,35,35,0,0,1,.5,5.4A19.3,19.3,0,0,1,225,72.4a24,24,0,0,1-7.6,4.4,26.7,26.7,0,0,1-9.1,1.5,21.8,21.8,0,0,1-7.2-1.2,20.7,20.7,0,0,1-6.1-3.8,19.9,19.9,0,0,1-6.1,3.7A18.7,18.7,0,0,1,181.8,78.3Z"/><path d="M181.8,72.2a12.1,12.1,0,0,0,5-1,13.7,13.7,0,0,0,4.2-2.7L189.5,66l-1.3-2.8-5-12.2a2.6,2.6,0,0,1,.2-3.1,3,3,0,0,1,2.6-1.1h11.3l-4.6-11a3,3,0,0,1,.4-3.3,3.8,3.8,0,0,1,2.9-1.2,2.6,2.6,0,0,1,2.4,2l6.5,15.3a3.1,3.1,0,0,1,0,3.1,3.2,3.2,0,0,1-2.8,1.2H190.6l3.3,7.8a23.3,23.3,0,0,0,6,8.6,13.2,13.2,0,0,0,8.4,2.9,21.5,21.5,0,0,0,8.2-1.7,18,18,0,0,0,6.8-5,12.7,12.7,0,0,0,2.6-8.3,21.2,21.2,0,0,0-.4-4.2,35.9,35.9,0,0,0-1.4-4.3L212.6,21.3q-3.2-7.5-7.2-10.8a15.7,15.7,0,0,0-10.3-3.3,15.4,15.4,0,0,0-10.2,3.3q-4.1,3.3-7.2,10.8L166.1,48.7a35.9,35.9,0,0,0-1.4,4.3,21.8,21.8,0,0,0-.5,4.2,12.7,12.7,0,0,0,1.8,6.9,15.6,15.6,0,0,0,4.5,4.7,21.2,21.2,0,0,0,5.8,2.5A19.6,19.6,0,0,0,181.8,72.2Z"/><path d="M208.3,79.3a20.8,20.8,0,0,1-7.5-1.3,20.1,20.1,0,0,1-5.8-3.4,20.2,20.2,0,0,1-5.7,3.3c-4.9,2-10.7,1.8-16.2,0a26.6,26.6,0,0,1-8-4.2A20.2,20.2,0,0,1,157,57.2a22,22,0,0,1,.7-5.6,31.3,31.3,0,0,1,1.8-5.7L171,18.5c2.5-5.9,5.6-10.5,9.4-13.6S189.1,0,195.1,0s11.2,1.7,15,5a36.2,36.2,0,0,1,9.2,13.5l11.4,27.4a25.1,25.1,0,0,1,1.8,5.7,27.4,27.4,0,0,1,.6,5.6,20.8,20.8,0,0,1-7.4,16,26.8,26.8,0,0,1-17.4,6.1Z"/><path d="M195.1,71.9l.6.6a17.6,17.6,0,0,0,5.8,3.6,19.1,19.1,0,0,0,6.8,1.2,28,28,0,0,0,8.8-1.4,25.3,25.3,0,0,0,7.3-4.2,18.6,18.6,0,0,0,6.7-14.5,31.5,31.5,0,0,0-.5-5.2,29.5,29.5,0,0,0-1.7-5.3L217.4,19.3a33.5,33.5,0,0,0-8.6-12.8c-3.4-3-8-4.5-13.7-4.5s-10,1.5-13.4,4.4-6.5,7.3-8.8,12.9L161.3,46.7a37.4,37.4,0,0,0-1.7,5.4,22.2,22.2,0,0,0-.6,5.1,18.4,18.4,0,0,0,1.9,8.6,20.6,20.6,0,0,0,5.4,6.3,25,25,0,0,0,7.4,3.9c5.1,1.7,10.4,1.9,14.9.1a23.4,23.4,0,0,0,5.8-3.6Z"/><path d="M208.3,73.2a14.4,14.4,0,0,1-9-3.1,22.5,22.5,0,0,1-6.3-9l-3.9-9.2h13c1.4,0,1.8-.6,1.9-.8s.5-.9,0-2.1l-6.5-15.3c-.5-1.2-1.1-1.4-1.6-1.4a2.5,2.5,0,0,0-2,.9c-.4.3-.7.9-.2,2.2l5.2,12.4H186a2.2,2.2,0,0,0-1.9.8c-.1.1-.6.7,0,2.1l5,12.1c.4.9.8,1.8,1.3,2.7a20.1,20.1,0,0,0,1.4,2.5l.5.7-.6.6a18.2,18.2,0,0,1-4.5,2.9c-3.2,1.3-6.9,1.3-11.2.1a23,23,0,0,1-6-2.7,15.3,15.3,0,0,1-4.9-4.9,14.9,14.9,0,0,1-1.9-7.5,17.2,17.2,0,0,1,.6-4.4,22.5,22.5,0,0,1,1.4-4.4L176.7,21c2.2-5.2,4.7-9,7.5-11.3a16.6,16.6,0,0,1,10.9-3.5c4.4,0,8,1.1,10.9,3.5s5.4,6.1,7.6,11.3L225,48.4a22.5,22.5,0,0,1,1.4,4.4,17,17,0,0,1,.5,4.4,13.4,13.4,0,0,1-2.9,8.9,18.7,18.7,0,0,1-7.1,5.3A21.8,21.8,0,0,1,208.3,73.2Z"/><path d="M192.1,53.9l2.8,6.4a19.3,19.3,0,0,0,5.7,8.2,11.7,11.7,0,0,0,7.7,2.7,20,20,0,0,0,7.8-1.7,15.1,15.1,0,0,0,6.4-4.7,11.7,11.7,0,0,0,2.4-7.6,19.4,19.4,0,0,0-.4-4,38.4,38.4,0,0,0-1.3-4.1L211.7,21.7c-2-4.8-4.4-8.4-7-10.5a16.9,16.9,0,0,0-19.2,0c-2.5,2.1-4.9,5.7-6.9,10.5L167,49.1a32.4,32.4,0,0,0-1.3,4.1,19.9,19.9,0,0,0-.5,4,11.7,11.7,0,0,0,1.7,6.4,13,13,0,0,0,4.1,4.3,20.8,20.8,0,0,0,5.5,2.5c3.9,1,7.1,1,9.9-.1a11.2,11.2,0,0,0,3.3-2,11.8,11.8,0,0,1-1.1-1.9,25.5,25.5,0,0,1-1.3-2.9l-5.1-12.1c-.8-2.1-.2-3.4.4-4.1a4.3,4.3,0,0,1,3.4-1.5h9.8l-4-9.7a4,4,0,0,1,.6-4.3,4.9,4.9,0,0,1,3.6-1.5c1.1,0,2.5.5,3.4,2.7l6.5,15.2a4.1,4.1,0,0,1-.2,4,4,4,0,0,1-3.6,1.7Z" fill="#fff"/><path d="M265.1,78.3q-10.7,0-16.8-6.3c-4-4.3-6.1-10.1-6.1-17.4V24.4c0-7,2-12.7,5.8-17S257.2,1,264.1,1a23.8,23.8,0,0,1,7.3,1.1A22,22,0,0,1,278,5.8a20.2,20.2,0,0,1,6.8-3.6A27.6,27.6,0,0,1,293,1c7.2,0,12.9,2.1,16.9,6.4s6.1,10,6.1,17.4V54.9c0,7.1-1.9,12.8-5.9,17.1s-9.3,6.3-16,6.3a20.9,20.9,0,0,1-7.2-1.1,21.6,21.6,0,0,1-6.6-3.6,23.1,23.1,0,0,1-6.8,3.5A28.4,28.4,0,0,1,265.1,78.3Z"/><path d="M265.1,72.2a18.9,18.9,0,0,0,6-.9,15.3,15.3,0,0,0,4.8-2.3,21.9,21.9,0,0,1-2.6-3.7l-2.7-4.5-7.1-12.6a2.4,2.4,0,0,1-.1-3.1,3.6,3.6,0,0,1,2.8-1.6,2.6,2.6,0,0,1,2.8,1.6l7.2,12.7a67.8,67.8,0,0,0,5.8,8.5,14.8,14.8,0,0,0,5.5,4.5,15.9,15.9,0,0,0,6.6,1.4c5.3,0,9.2-1.6,11.8-4.7s4-7.3,4-12.6V24.8c0-5.5-1.5-9.8-4.4-13s-7-4.6-12.5-4.6a17.8,17.8,0,0,0-10.7,3.1l2.5,3.6q1.3,2.1,2.7,4.5L294.8,31a2.7,2.7,0,0,1,.1,3.2,4.2,4.2,0,0,1-2.8,1.7,2.8,2.8,0,0,1-2.8-1.7L282,21.6a50.4,50.4,0,0,0-5.7-8.7,16.9,16.9,0,0,0-5.6-4.4,15.3,15.3,0,0,0-6.6-1.3c-5.1,0-9,1.5-11.7,4.7s-4,7.3-4,12.5V54.6c0,5.4,1.4,9.7,4.3,12.8S259.8,72.2,265.1,72.2Z"/><path d="M294.1,79.3a25.6,25.6,0,0,1-7.5-1.1,21.7,21.7,0,0,1-6.3-3.4,23.4,23.4,0,0,1-6.5,3.3,30.5,30.5,0,0,1-8.7,1.2c-7.4,0-13.2-2.2-17.5-6.7s-6.4-10.5-6.4-18V24.4c0-7.2,2.1-13.2,6.1-17.6S257,0,264.1,0a23.3,23.3,0,0,1,7.6,1.2A19.5,19.5,0,0,1,278,4.6a19,19,0,0,1,6.5-3.3A26.5,26.5,0,0,1,293,0c7.5,0,13.4,2.2,17.7,6.7S317,17.2,317,24.8V54.9c0,7.3-2,13.3-6.2,17.7S301.1,79.3,294.1,79.3Z"/><path d="M280.3,72.3l.6.5a22.1,22.1,0,0,0,6.3,3.5,21.7,21.7,0,0,0,6.9,1q9.6,0,15.3-6c3.7-4.1,5.6-9.6,5.6-16.4V24.8c0-7.1-1.9-12.7-5.8-16.7S299.9,2,293,2a25.6,25.6,0,0,0-7.9,1.2,19.2,19.2,0,0,0-6.5,3.4l-.6.5-.6-.5A21.5,21.5,0,0,0,271.1,3a25.7,25.7,0,0,0-7-1c-6.5,0-11.7,2.1-15.4,6.1s-5.5,9.6-5.5,16.3V54.6c0,7,2,12.6,5.9,16.7s9.2,6,16,6a29.9,29.9,0,0,0,8.1-1.1,21.2,21.2,0,0,0,6.5-3.4Z"/><path d="M294.1,73.2a17.5,17.5,0,0,1-7-1.4,18.1,18.1,0,0,1-5.8-4.8,68,68,0,0,1-5.9-8.7l-7.3-12.7c-.6-1.1-1.2-1.2-1.8-1.1a2.8,2.8,0,0,0-2.1,1.2c-.3.4-.5.9.1,2l7.2,12.6q1.3,2.4,2.7,4.5a26.5,26.5,0,0,0,2.4,3.5l.7.8-.8.7a17.3,17.3,0,0,1-5.1,2.5,20.8,20.8,0,0,1-6.3.9c-5.6,0-10-1.7-13.1-5.1s-4.6-7.9-4.6-13.5V24.4q0-8.1,4.2-13.2c2.9-3.3,7.1-5,12.5-5a15.6,15.6,0,0,1,7,1.4,15.9,15.9,0,0,1,5.9,4.7,51.2,51.2,0,0,1,5.9,8.8l7.3,12.6a1.7,1.7,0,0,0,1.8,1.2,3,3,0,0,0,2.1-1.3c.3-.4.5-1-.1-2l-7.3-12.7L284,14.5c-.9-1.3-1.7-2.5-2.5-3.5l-.7-.9.9-.6A19.1,19.1,0,0,1,293,6.2c5.7,0,10.2,1.6,13.3,5s4.6,7.8,4.6,13.6V54.9c0,5.5-1.4,10-4.2,13.2S299.6,73.2,294.1,73.2Z"/><path d="M266.6,42.4a3.6,3.6,0,0,1,3.2,2.2l7.3,12.7a74.8,74.8,0,0,0,5.7,8.4,15.1,15.1,0,0,0,5.2,4.2,13.1,13.1,0,0,0,6.1,1.3c5,0,8.6-1.4,11.1-4.4s3.7-6.9,3.7-11.9V24.8c0-5.3-1.4-9.4-4.1-12.3S298.2,8.2,293,8.2a17.4,17.4,0,0,0-9.3,2.4c.6.8,1.3,1.8,1.9,2.8a44.2,44.2,0,0,1,2.8,4.5l7.3,12.6a3.7,3.7,0,0,1,0,4.3,5,5,0,0,1-3.5,2.1,3.9,3.9,0,0,1-3.8-2.2l-7.2-12.6a47.8,47.8,0,0,0-5.7-8.5,13.4,13.4,0,0,0-11.4-5.4c-4.8,0-8.5,1.4-10.9,4.3s-3.8,7-3.8,11.9V54.6c0,5.1,1.4,9.2,4.1,12.2s6.6,4.4,11.6,4.4a20.1,20.1,0,0,0,5.7-.8,19.6,19.6,0,0,0,3.6-1.6l-2-2.9-2.7-4.6-7.1-12.6c-1.2-1.9-.7-3.4,0-4.2a4.6,4.6,0,0,1,3.5-2Z" fill="#fff"/><path d="M364.8,78.3c-6.9,0-12.3-2.1-16.4-6.5s-6.1-10-6.1-17.2V42.4a21,21,0,0,1-13-6.9,20.4,20.4,0,0,1-4.7-13.6c0-6.3,2.2-11.4,6.5-15.2S341.1,1,348.3,1H381c7.2,0,13,1.9,17.3,5.7s6.5,8.9,6.5,15.2a21.2,21.2,0,0,1-2.1,9.6,19.6,19.6,0,0,1-6.1,7,25.9,25.9,0,0,1-9.4,3.9V54.6c0,7.2-2,12.9-6.1,17.2S371.6,78.3,364.8,78.3Z"/><path d="M364.8,72.2c5.1,0,9.1-1.6,12-4.7s4.2-7.4,4.2-12.9v-15a2.8,2.8,0,0,1,.9-2.2,3.4,3.4,0,0,1,1.9-.9c4.8-.6,8.4-2.1,10.9-4.5s3.8-5.8,3.8-10.1-1.5-8.2-4.6-10.8S386.5,7.2,381,7.2H348.3q-8.2,0-12.9,3.9c-3.1,2.6-4.6,6.2-4.6,10.8s1.5,8.2,4.6,10.8,7.4,3.9,12.9,3.9h14.5a3,3,0,0,1,2.2,1,2.9,2.9,0,0,1,.9,2.1,3.1,3.1,0,0,1-3.1,3.1H348.5V54.6c0,5.5,1.4,9.8,4.3,12.9S359.7,72.2,364.8,72.2Z"/><path d="M364.8,79.3c-7.1,0-12.8-2.3-17.1-6.8s-6.4-10.5-6.4-17.9V43.2a20.9,20.9,0,0,1-17.7-21.3c0-6.6,2.3-11.9,6.8-15.9s10.5-6,17.9-6H381c7.4,0,13.5,2,18,6s6.8,9.3,6.8,15.9A22.3,22.3,0,0,1,403.6,32a20.4,20.4,0,0,1-6.4,7.3,24.6,24.6,0,0,1-9,3.9V54.6c0,7.4-2.1,13.4-6.4,17.9S371.8,79.3,364.8,79.3Z"/><path d="M348.3,2c-6.9,0-12.5,1.8-16.6,5.5s-6.1,8.3-6.1,14.4a19.1,19.1,0,0,0,4.5,12.9,20.4,20.4,0,0,0,12.4,6.6h.8V54.6c0,6.9,2,12.4,5.9,16.6s9.1,6.1,15.6,6.1,11.7-2,15.6-6.1,5.8-9.7,5.8-16.6V41.5h.8a23.7,23.7,0,0,0,9-3.7,18.4,18.4,0,0,0,5.8-6.6,21.1,21.1,0,0,0,2-9.2c0-6.1-2-10.8-6.1-14.4S387.9,2,381,2Z"/><path d="M364.8,73.2c-5.4,0-9.6-1.7-12.7-5s-4.6-7.9-4.6-13.6V41.8h15.3a2.1,2.1,0,0,0,2.1-2.1,2,2,0,0,0-.6-1.4,1.8,1.8,0,0,0-1.5-.7H348.3c-5.7,0-10.3-1.4-13.5-4.1s-5-6.7-5-11.6,1.7-8.8,5-11.6,7.8-4.1,13.5-4.1H381c5.8,0,10.3,1.4,13.6,4.1s4.9,6.7,4.9,11.6-1.3,8.1-4.1,10.8-6.5,4.2-11.5,4.8a2.6,2.6,0,0,0-1.3.6,1.9,1.9,0,0,0-.6,1.5v15c0,5.7-1.5,10.3-4.5,13.6S370.2,73.2,364.8,73.2Z"/><path d="M349.5,43.8V54.6c0,5.2,1.4,9.3,4.1,12.2s6.4,4.4,11.2,4.4,8.6-1.5,11.2-4.4,4-7,4-12.2v-15a3.7,3.7,0,0,1,1.2-2.9,3.9,3.9,0,0,1,2.5-1.2c4.5-.5,8-2,10.3-4.3s3.5-5.3,3.5-9.3-1.4-7.6-4.2-10.1-7-3.6-12.3-3.6H348.3q-7.9,0-12.3,3.6c-2.8,2.5-4.2,5.7-4.2,10.1s1.4,7.6,4.2,10.1,7,3.6,12.3,3.6h14.5a4.1,4.1,0,0,1,2.9,1.3,3.9,3.9,0,0,1,1.2,2.8,3.8,3.8,0,0,1-1.2,2.9,4,4,0,0,1-2.9,1.2Z" fill="#fff"/><path d="M450.2,78.3c-6.8,0-12.2-2.1-16.3-6.5s-6.1-10-6.1-17.2V42.4a21,21,0,0,1-13-6.9,20.4,20.4,0,0,1-4.7-13.6c0-6.3,2.1-11.4,6.4-15.2S426.5,1,433.7,1h32.8c7.2,0,13,1.9,17.3,5.7s6.5,8.9,6.5,15.2a20,20,0,0,1-2.2,9.6,18.4,18.4,0,0,1-6,7,26.6,26.6,0,0,1-9.4,3.9V54.6c0,7.2-2.1,12.9-6.1,17.2S457.1,78.3,450.2,78.3Z"/><path d="M450.2,72.2c5.2,0,9.2-1.6,12-4.7s4.3-7.4,4.3-12.9v-15a3.1,3.1,0,0,1,.8-2.2,3.7,3.7,0,0,1,2-.9c4.7-.6,8.4-2.1,10.9-4.5s3.8-5.8,3.8-10.1-1.5-8.2-4.6-10.8S472,7.2,466.5,7.2H433.7c-5.5,0-9.8,1.3-12.8,3.9a13.4,13.4,0,0,0-4.7,10.8,13.4,13.4,0,0,0,4.7,10.8c3,2.6,7.3,3.9,12.8,3.9h14.6a3.1,3.1,0,0,1,3,3.1,3.3,3.3,0,0,1-.8,2.2,3.1,3.1,0,0,1-2.2.9H434V54.6c0,5.5,1.4,9.8,4.3,12.9S445.2,72.2,450.2,72.2Z"/><path d="M450.2,79.3c-7,0-12.8-2.3-17-6.8s-6.4-10.5-6.4-17.9V43.2a20.9,20.9,0,0,1-17.7-21.3c0-6.6,2.3-11.9,6.8-15.9s10.4-6,17.8-6h32.8c7.4,0,13.5,2,17.9,6s6.9,9.3,6.9,15.9A22.4,22.4,0,0,1,489,32a20.1,20.1,0,0,1-6.3,7.3,26.2,26.2,0,0,1-9,3.9V54.6c0,7.4-2.2,13.4-6.4,17.9S457.3,79.3,450.2,79.3Z"/><path d="M433.7,2c-6.9,0-12.4,1.8-16.5,5.5s-6.1,8.3-6.1,14.4a19.1,19.1,0,0,0,4.5,12.9A20.1,20.1,0,0,0,428,41.4h.8V54.6c0,6.9,2,12.4,5.8,16.6s9.1,6.1,15.6,6.1,11.8-2,15.6-6.1,5.9-9.7,5.9-16.6V41.5h.8a24.4,24.4,0,0,0,9-3.7,17.2,17.2,0,0,0,5.7-6.6,19.8,19.8,0,0,0,2.1-9.2c0-6.1-2-10.8-6.2-14.4S473.4,2,466.5,2Z"/><path d="M450.2,73.2c-5.3,0-9.6-1.7-12.6-5S433,60.3,433,54.6V41.8h15.3a1.8,1.8,0,0,0,1.4-.6,1.7,1.7,0,0,0,.6-1.5,2,2,0,0,0-.6-1.4,1.6,1.6,0,0,0-1.4-.7H433.7c-5.7,0-10.2-1.4-13.5-4.1s-5-6.7-5-11.6,1.7-8.8,5-11.6,7.8-4.1,13.5-4.1h32.8c5.7,0,10.3,1.4,13.5,4.1s5,6.7,5,11.6a14.6,14.6,0,0,1-4.1,10.8c-2.7,2.6-6.5,4.2-11.5,4.8a3.5,3.5,0,0,0-1.4.6,2.3,2.3,0,0,0-.5,1.5v15c0,5.7-1.5,10.3-4.5,13.6S455.6,73.2,450.2,73.2Z"/><path d="M435,43.8V54.6c0,5.2,1.3,9.3,4,12.2s6.4,4.4,11.2,4.4,8.6-1.5,11.3-4.4,4-7,4-12.2v-15a3.7,3.7,0,0,1,1.2-2.9,3.9,3.9,0,0,1,2.5-1.2c4.5-.5,8-2,10.3-4.3s3.5-5.3,3.5-9.3-1.4-7.6-4.3-10.1-7-3.6-12.2-3.6H433.7c-5.2,0-9.3,1.2-12.2,3.6s-4.3,5.7-4.3,10.1,1.4,7.6,4.3,10.1,7,3.6,12.2,3.6h14.6a4.1,4.1,0,0,1,2.9,1.3,3.8,3.8,0,0,1,1.1,2.8,4.2,4.2,0,0,1-1.1,2.9,4,4,0,0,1-2.9,1.2Z" fill="#fff"/></g></g></svg>