<svg xmlns="http://www.w3.org/2000/svg" viewBox="0 0 493 78.9"><title>Stantt</title><g id="Layer_2" data-name="Layer 2"><g id="Layer_1-2" data-name="Layer 1"><path d="M26.6,78.3a34.9,34.9,0,0,1-13.9-2.5,19.3,19.3,0,0,1-9-7.6A22,22,0,0,1,.6,56.1,28.4,28.4,0,0,1,2,47.3a21.2,21.2,0,0,1,4.1-7.2,24.4,24.4,0,0,1-4.5-9.6,36.1,36.1,0,0,1-1-7.8c0-4.9,1-8.9,3.2-12.2a18.9,18.9,0,0,1,9-7.4A34.7,34.7,0,0,1,26.6.6H41.8A34.4,34.4,0,0,1,55.6,3.1a19.4,19.4,0,0,1,9.1,7.5,22,22,0,0,1,3.1,12.1,26,26,0,0,1-1.5,8.9,23,23,0,0,1-4.1,7.2,26.8,26.8,0,0,1,4.6,9.5,36.9,36.9,0,0,1,1,7.9,21.8,21.8,0,0,1-3.3,12.2,19.4,19.4,0,0,1-9,7.4,33.9,33.9,0,0,1-13.7,2.5Z" stroke="#000" stroke-miterlimit="10" stroke-width="1.15"/><path d="M26.6,72.1H41.8a30.2,30.2,0,0,0,10.6-1.7A13.8,13.8,0,0,0,59.2,65a15.2,15.2,0,0,0,2.4-8.8,21.8,21.8,0,0,0-3.9-12.8A29.2,29.2,0,0,0,47.2,34L34.5,26.9a2.8,2.8,0,0,1-1.7-2.7,3.2,3.2,0,0,1,1.6-2.6,2.7,2.7,0,0,1,3.1-.1l12.8,7.1a29.6,29.6,0,0,1,4.2,2.6A24.5,24.5,0,0,1,58,34.1a19.6,19.6,0,0,0,2.7-5.2,20.6,20.6,0,0,0,.9-6.2,15.4,15.4,0,0,0-2.4-9,14.1,14.1,0,0,0-6.9-5.2A27.5,27.5,0,0,0,41.8,6.8H26.6A28.6,28.6,0,0,0,15.9,8.5a13.4,13.4,0,0,0-6.8,5.2,15.9,15.9,0,0,0-2.3,9,23.9,23.9,0,0,0,1.7,8.9,24.9,24.9,0,0,0,5.1,7.5,33,33,0,0,0,7.5,5.7l12.8,7.1a2.8,2.8,0,0,1,1.6,2.7,3.6,3.6,0,0,1-1.4,2.7,2.8,2.8,0,0,1-3.2.1L18,50.3a42.8,42.8,0,0,1-4.2-2.6,36,36,0,0,1-3.5-2.9,15.8,15.8,0,0,0-2.6,5,21.8,21.8,0,0,0-.9,6.3,16.3,16.3,0,0,0,2.4,9.2,14.1,14.1,0,0,0,6.9,5.2A29.7,29.7,0,0,0,26.6,72.1Z" fill="#fff"/><path d="M116.4,78.3c-6.9,0-12.4-2.2-16.5-6.5s-6.1-10.1-6.1-17.4V42.2c-5.5-.9-9.9-3.2-13.1-7A20.4,20.4,0,0,1,76,21.6c0-6.4,2.1-11.4,6.5-15.3S92.5.6,99.8.6h32.9q10.8,0,17.4,5.7c4.3,3.9,6.5,8.9,6.5,15.3a20.7,20.7,0,0,1-2.2,9.7,19.2,19.2,0,0,1-6,7,27.1,27.1,0,0,1-9.5,3.9V54.4c0,7.3-2,13-6.1,17.4S123.2,78.3,116.4,78.3Z" stroke="#000" stroke-miterlimit="10" stroke-width="1.15"/><path d="M116.4,72.1c5.1,0,9.1-1.5,12-4.7s4.3-7.4,4.3-13v-15a2.9,2.9,0,0,1,.8-2.2,3.7,3.7,0,0,1,2-.9c4.8-.6,8.4-2.1,11-4.6s3.8-5.8,3.8-10.1-1.5-8.3-4.6-10.9-7.5-3.9-13-3.9H99.8c-5.6,0-9.9,1.3-13,3.9s-4.6,6.2-4.6,10.9,1.5,8.3,4.6,10.9,7.4,3.9,13,3.9h14.6a3.1,3.1,0,0,1,2.2.9,3.3,3.3,0,0,1,.9,2.2,2.9,2.9,0,0,1-.9,2.2,3.1,3.1,0,0,1-2.2.9H100V54.4c0,5.6,1.4,9.9,4.4,13S111.3,72.1,116.4,72.1Z" fill="#fff"/><path d="M182.4,78.3a25.3,25.3,0,0,1-8.5-1.4,26.5,26.5,0,0,1-7.8-4.1,20.3,20.3,0,0,1-5.6-6.7,18.7,18.7,0,0,1-2.1-9,24.8,24.8,0,0,1,.6-5.4c.5-1.9,1.1-3.7,1.8-5.6l11.6-27.5a35.1,35.1,0,0,1,9.1-13.4c3.7-3.1,8.4-4.6,14.2-4.6s10.8,1.6,14.4,4.7a36.2,36.2,0,0,1,9,13.3l11.5,27.5a30.4,30.4,0,0,1,1.8,5.6,32.9,32.9,0,0,1,.5,5.4,18.7,18.7,0,0,1-1.9,8.6,19.9,19.9,0,0,1-5.2,6.7A25.6,25.6,0,0,1,209,78.3a18.8,18.8,0,0,1-7.2-1.3,18.2,18.2,0,0,1-6.2-3.8,21.5,21.5,0,0,1-6.1,3.8A18.7,18.7,0,0,1,182.4,78.3Z" stroke="#000" stroke-miterlimit="10" stroke-width="1.15"/><path d="M182.4,72.1a13.3,13.3,0,0,0,4.9-.9,11.7,11.7,0,0,0,4.2-2.7,21.5,21.5,0,0,1-1.4-2.6,17.5,17.5,0,0,1-1.3-2.8l-5.1-12.2a3.2,3.2,0,0,1,.2-3.2,3.7,3.7,0,0,1,2.7-1.1H198l-4.7-11.1a2.8,2.8,0,0,1,.4-3.2,3.6,3.6,0,0,1,2.9-1.3,3.1,3.1,0,0,1,2.5,2.1l6.5,15.4a2.9,2.9,0,0,1-.1,3,3.2,3.2,0,0,1-2.8,1.3H191.2l3.3,7.8a21.6,21.6,0,0,0,6.1,8.6,12.6,12.6,0,0,0,8.4,2.9,21.9,21.9,0,0,0,8.2-1.7,17,17,0,0,0,6.8-5,12.7,12.7,0,0,0,2.7-8.3,22.3,22.3,0,0,0-1.9-8.5L213.3,21c-2.1-5.1-4.5-8.7-7.3-10.9a17.7,17.7,0,0,0-20.6,0c-2.7,2.2-5.1,5.8-7.2,10.9L166.6,48.6a21.6,21.6,0,0,0-1.4,4.3,16,16,0,0,0-.5,4.2,13.6,13.6,0,0,0,1.7,6.9,13.8,13.8,0,0,0,4.6,4.7,21.5,21.5,0,0,0,5.8,2.6A23.6,23.6,0,0,0,182.4,72.1Z" fill="#fff"/><path d="M266.1,78.3c-7.2,0-12.8-2.1-16.9-6.4s-6.1-10.1-6.1-17.5V24.1c0-7,1.9-12.7,5.8-17.1S258.2.6,265.1.6a21.5,21.5,0,0,1,7.3,1.1A22,22,0,0,1,279,5.4a20.6,20.6,0,0,1,6.9-3.6A27.3,27.3,0,0,1,294.2.6C301.4.6,307,2.7,311.1,7s6.2,10.1,6.2,17.5V54.8q0,10.7-6,17.1c-4,4.3-9.3,6.4-16,6.4a23.8,23.8,0,0,1-7.3-1.1,22,22,0,0,1-6.7-3.6,21.9,21.9,0,0,1-6.8,3.5A28.4,28.4,0,0,1,266.1,78.3Z" stroke="#000" stroke-miterlimit="10" stroke-width="1.15"/><path d="M266.1,72.1a22.3,22.3,0,0,0,6-.8,18,18,0,0,0,4.8-2.4,28,28,0,0,1-2.6-3.6l-2.7-4.6L264.4,48a2.5,2.5,0,0,1,0-3.1,3.6,3.6,0,0,1,2.8-1.6,2.5,2.5,0,0,1,2.7,1.6l7.3,12.7a80.3,80.3,0,0,0,5.9,8.7,17.1,17.1,0,0,0,5.5,4.5,16,16,0,0,0,6.7,1.3c5.2,0,9.1-1.5,11.8-4.7s4-7.3,4-12.6V24.5c0-5.6-1.5-9.9-4.4-13s-7.1-4.7-12.5-4.7A17.8,17.8,0,0,0,283.3,10a42.8,42.8,0,0,1,2.6,3.6c.9,1.3,1.8,2.8,2.7,4.4l7.3,12.8A2.6,2.6,0,0,1,296,34a3.9,3.9,0,0,1-2.8,1.6,2.7,2.7,0,0,1-2.8-1.6l-7.3-12.7a56.6,56.6,0,0,0-5.8-8.7,17.3,17.3,0,0,0-5.6-4.5,15.3,15.3,0,0,0-6.6-1.3c-5.2,0-9.1,1.6-11.8,4.7s-4,7.4-4,12.6V54.4c0,5.5,1.4,9.8,4.3,13S260.7,72.1,266.1,72.1Z" fill="#fff"/><path d="M366.3,78.3c-6.9,0-12.4-2.2-16.5-6.5s-6.1-10.1-6.1-17.4V42.2c-5.5-.9-9.9-3.2-13-7a20,20,0,0,1-4.8-13.6c0-6.4,2.2-11.4,6.5-15.3S342.4.6,349.7.6h32.9c7.3,0,13,1.9,17.4,5.7s6.5,8.9,6.5,15.3a21.9,21.9,0,0,1-2.1,9.7,20.5,20.5,0,0,1-6.1,7,26.4,26.4,0,0,1-9.5,3.9V54.4c0,7.3-2,13-6.1,17.4S373.1,78.3,366.3,78.3Z" stroke="#000" stroke-miterlimit="10" stroke-width="1.15"/><path d="M366.3,72.1c5.1,0,9.1-1.5,12-4.7s4.3-7.4,4.3-13v-15a2.7,2.7,0,0,1,.9-2.2,3.4,3.4,0,0,1,1.9-.9c4.8-.6,8.5-2.1,11-4.6s3.8-5.8,3.8-10.1-1.5-8.3-4.6-10.9-7.4-3.9-13-3.9H349.7c-5.6,0-9.9,1.3-13,3.9s-4.6,6.2-4.6,10.9,1.5,8.3,4.6,10.9,7.4,3.9,13,3.9h14.6a2.9,2.9,0,0,1,2.2.9,3.3,3.3,0,0,1,.9,2.2,3.1,3.1,0,0,1-3.1,3.1H349.9V54.4c0,5.6,1.5,9.9,4.4,13S361.2,72.1,366.3,72.1Z" fill="#fff"/><path d="M452.2,78.3c-6.9,0-12.3-2.2-16.4-6.5s-6.2-10.1-6.2-17.4V42.2c-5.5-.9-9.9-3.2-13-7a20,20,0,0,1-4.8-13.6c0-6.4,2.2-11.4,6.5-15.3S428.4.6,435.6.6h32.9q11,0,17.4,5.7c4.4,3.9,6.5,8.9,6.5,15.3a21.9,21.9,0,0,1-2.1,9.7,20.5,20.5,0,0,1-6.1,7,26.4,26.4,0,0,1-9.5,3.9V54.4c0,7.3-2,13-6.1,17.4S459,78.3,452.2,78.3Z" stroke="#000" stroke-miterlimit="10" stroke-width="1.15"/><path d="M452.2,72.1c5.1,0,9.2-1.5,12-4.7s4.3-7.4,4.3-13v-15a2.7,2.7,0,0,1,.9-2.2,3.4,3.4,0,0,1,1.9-.9c4.8-.6,8.5-2.1,11-4.6s3.8-5.8,3.8-10.1-1.5-8.3-4.6-10.9-7.4-3.9-13-3.9H435.6q-8.2,0-12.9,3.9c-3.1,2.6-4.7,6.2-4.7,10.9s1.6,8.3,4.7,10.9,7.4,3.9,12.9,3.9h14.6a2.9,2.9,0,0,1,2.2.9,3.3,3.3,0,0,1,.9,2.2,3.1,3.1,0,0,1-3.1,3.1H435.8V54.4c0,5.6,1.5,9.9,4.4,13S447.1,72.1,452.2,72.1Z" fill="#fff"/></g></g></svg>