<svg xmlns="http://www.w3.org/2000/svg" viewBox="0 0 380.3 97.2"><title>Tiege</title><g id="Layer_2" data-name="Layer 2"><g id="Layer_1-2" data-name="Layer 1"><path d="M41.1,78.3c-6.8,0-12.2-2.1-16.3-6.5s-6.1-10-6.1-17.2V42.4a21,21,0,0,1-13-6.9A20.4,20.4,0,0,1,1,21.9C1,15.6,3.1,10.5,7.4,6.7S17.5,1,24.6,1H57.4c7.2,0,13,1.9,17.3,5.7s6.5,8.9,6.5,15.2A20,20,0,0,1,79,31.5a18.4,18.4,0,0,1-6,7,25.9,25.9,0,0,1-9.4,3.9V54.6c0,7.2-2,12.9-6.1,17.2S48,78.3,41.1,78.3Z" stroke="#000" stroke-miterlimit="10" stroke-width="2"/><path d="M41.1,71.2c-4.7,0-8.5-1.5-11.2-4.4s-4-7-4-12.2V43.8H39.2a4,4,0,0,0,2.9-1.2,3.8,3.8,0,0,0,1.1-2.9,3.8,3.8,0,0,0-1.1-2.8,4.1,4.1,0,0,0-2.9-1.3H24.6c-5.2,0-9.3-1.2-12.2-3.6S8.2,26.3,8.2,21.9a12.8,12.8,0,0,1,4.2-10.1c2.9-2.4,7-3.6,12.2-3.6H57.4q8,0,12.3,3.6a12.8,12.8,0,0,1,4.2,10.1c0,4-1.2,7.1-3.5,9.3S64.6,35,60.1,35.5a3.9,3.9,0,0,0-2.5,1.2,3.7,3.7,0,0,0-1.2,2.9v15c0,5.2-1.3,9.3-4,12.2S46,71.2,41.1,71.2Z" fill="#fff"/><path d="M112.2,78.3c-6.8,0-12.3-2.1-16.3-6.5s-6.1-10-6.1-17.1V24.8c0-7.2,2-13,6.1-17.3S105.4,1,112.2,1s12.3,2.2,16.3,6.5,6.1,10.1,6.1,17.3V54.7c0,7.1-2,12.8-6.1,17.1S119,78.3,112.2,78.3Z" stroke="#000" stroke-miterlimit="10" stroke-width="2"/><path d="M112.2,71.2c-4.8,0-8.5-1.5-11.2-4.4s-4.1-7-4.1-12.1V24.8c0-5.3,1.4-9.4,4.1-12.3s6.5-4.3,11.2-4.3,8.6,1.4,11.3,4.3,4,7,4,12.3V54.7c0,5.1-1.4,9.2-4,12.1S117,71.2,112.2,71.2Z" fill="#fff"/><path d="M171.6,78.3c-7.9,0-14.2-1.9-18.9-5.6s-6.9-9.3-6.9-16.4a26.6,26.6,0,0,1,1.4-8.8,32.3,32.3,0,0,1,3.9-7.9,43.1,43.1,0,0,1-3.9-8.1,28.4,28.4,0,0,1-1.4-8.4c0-7.3,2.3-12.8,7.1-16.5S163.8,1,171.6,1h21.6c6.6,0,11.8,1.4,15.5,4.3s5.5,7.4,5.5,13.3-2.4,10.3-7.1,13a13.3,13.3,0,0,1,1.8,3.8,14.2,14.2,0,0,1,.5,4.2,15.3,15.3,0,0,1-2.4,8.2,14.2,14.2,0,0,1,5.4,5.2,16.1,16.1,0,0,1,1.9,7.8q0,8.9-5.7,13.2c-3.8,2.9-8.9,4.3-15.2,4.3Z" stroke="#000" stroke-miterlimit="10" stroke-width="2"/><path d="M171.6,71.2c-5.8,0-10.4-1.3-13.8-3.7s-4.9-6.1-4.9-11.2a21.1,21.1,0,0,1,1.4-7.4,31.4,31.4,0,0,1,3.8-6.7,4.4,4.4,0,0,0,0-5.1,29.3,29.3,0,0,1-3.8-6.9,20.4,20.4,0,0,1-1.4-7.1c0-5,1.6-8.6,4.9-11.1s7.9-3.8,13.8-3.8h21.8c4.2,0,7.3.5,9.1,1.7a7.2,7.2,0,0,1,3.6,4,13.5,13.5,0,0,1,.9,4.7,7.5,7.5,0,0,1-2.5,5.9c-1.6,1.6-4.1,2.3-7.2,2.3a37.2,37.2,0,0,1-9.3-.9,24.9,24.9,0,0,0-5.3-.9,3.8,3.8,0,0,0-3.3,1.7,4.4,4.4,0,0,0-.6,3.5,4,4,0,0,0,2.7,2.7,42.4,42.4,0,0,0,7.9,1.6,76.1,76.1,0,0,0,7.9.5h3.2a5,5,0,0,1,1.3,1.9,8.7,8.7,0,0,1,.5,2.8,7,7,0,0,1-2,4.9h-3.1a53.2,53.2,0,0,0-8.1.6,47.9,47.9,0,0,0-7.5,1.7,4.1,4.1,0,0,0-2.7,2.6,4.3,4.3,0,0,0,.6,3.5,3.4,3.4,0,0,0,3.3,1.7,21.6,21.6,0,0,0,5.4-1,33,33,0,0,1,9-.9c3.1,0,5.6.7,7.3,2.2a7.6,7.6,0,0,1,2.5,6.1,14.5,14.5,0,0,1-.9,4.8,7.4,7.4,0,0,1-3.6,3.9c-1.9,1.1-5,1.7-9.1,1.7Z" fill="#fff"/><path d="M279.1,96.2c-5.9,0-10.6-1.7-14.2-4.9s-5.7-7.6-6.4-13.2a39.4,39.4,0,0,1-18.6-6,32.7,32.7,0,0,1-12.1-13.2,40.6,40.6,0,0,1-4.3-19.2c0-8,1.7-15,5.1-20.8A34.1,34.1,0,0,1,242.7,5.6C248.8,2.5,255.9,1,264,1h9.6c7.9,0,14.1,2.1,18.7,6.2s6.9,9.8,6.9,17a22.6,22.6,0,0,1-5.6,15.6,24.2,24.2,0,0,1,4.6,7.7,28.6,28.6,0,0,1,1.7,9.9v17c0,6.7-1.9,12-5.6,15.9S285.5,96.2,279.1,96.2Z" stroke="#000" stroke-miterlimit="10" stroke-width="2"/><path d="M279.1,89a17.6,17.6,0,0,1-6.3-1.2,10,10,0,0,1-5.2-4.2c-1.3-2.1-2-5.2-2-9.3V64.9a3.9,3.9,0,0,0-1.3-2.8,3.9,3.9,0,0,0-2.8-1.2,4.2,4.2,0,0,0-2.9,1.2,3.8,3.8,0,0,0-1.2,2.8v5.9a32,32,0,0,1-13.9-4.9A25.9,25.9,0,0,1,234,55.2a34.4,34.4,0,0,1-3.3-15.5c0-6.6,1.3-12.3,4-17A26.6,26.6,0,0,1,246,12c5-2.6,11-3.8,17.9-3.8h9.3c6,0,10.7,1.3,14,4s4.8,6.6,4.8,12-1.5,8.8-4.5,11.6S280.4,40,275.4,40h-9.8V35.2a4.1,4.1,0,0,0-1.3-2.9,3.9,3.9,0,0,0-2.8-1.2,4.2,4.2,0,0,0-2.9,1.2,3.8,3.8,0,0,0-1.2,2.9v8.9c0,2.6,1.4,4.1,4,4.1h14a26.2,26.2,0,0,0,13.3-3.3c2.7,3,4,7.2,4,12.5V74.3q0,6.2-2.1,9.3a10.2,10.2,0,0,1-5.1,4.2A18.1,18.1,0,0,1,279.1,89Z" fill="#fff"/><path d="M336.6,78.3c-7.9,0-14.2-1.9-18.9-5.6s-6.9-9.3-6.9-16.4a26.6,26.6,0,0,1,1.4-8.8,32.3,32.3,0,0,1,3.9-7.9,43.1,43.1,0,0,1-3.9-8.1,28.4,28.4,0,0,1-1.4-8.4c0-7.3,2.3-12.8,7.1-16.5S328.8,1,336.6,1h21.6c6.6,0,11.8,1.4,15.5,4.3s5.5,7.4,5.5,13.3-2.4,10.3-7.1,13a13.3,13.3,0,0,1,1.8,3.8,14.2,14.2,0,0,1,.5,4.2,15.3,15.3,0,0,1-2.4,8.2,14.2,14.2,0,0,1,5.4,5.2,16.1,16.1,0,0,1,1.9,7.8q0,8.9-5.7,13.2c-3.8,2.9-8.9,4.3-15.2,4.3Z" stroke="#000" stroke-miterlimit="10" stroke-width="2"/><path d="M336.6,71.2c-5.8,0-10.4-1.3-13.8-3.7s-4.9-6.1-4.9-11.2a21.1,21.1,0,0,1,1.4-7.4,31.4,31.4,0,0,1,3.8-6.7,4.4,4.4,0,0,0,0-5.1,29.3,29.3,0,0,1-3.8-6.9,20.4,20.4,0,0,1-1.4-7.1c0-5,1.6-8.6,4.9-11.1s7.9-3.8,13.8-3.8h21.8c4.2,0,7.3.5,9.1,1.7a7.2,7.2,0,0,1,3.6,4,13.5,13.5,0,0,1,.9,4.7,7.5,7.5,0,0,1-2.5,5.9c-1.6,1.6-4.1,2.3-7.2,2.3a37.2,37.2,0,0,1-9.3-.9,24.9,24.9,0,0,0-5.3-.9,3.8,3.8,0,0,0-3.3,1.7,4.4,4.4,0,0,0-.6,3.5,4,4,0,0,0,2.7,2.7,42.4,42.4,0,0,0,7.9,1.6,76.1,76.1,0,0,0,7.9.5h3.2a5,5,0,0,1,1.3,1.9,8.7,8.7,0,0,1,.5,2.8,7,7,0,0,1-2,4.9h-3.1a53.2,53.2,0,0,0-8.1.6,45.5,45.5,0,0,0-7.5,1.7,4.1,4.1,0,0,0-2.7,2.6,4.3,4.3,0,0,0,.6,3.5,3.4,3.4,0,0,0,3.3,1.7,21.6,21.6,0,0,0,5.4-1,33,33,0,0,1,9-.9c3.1,0,5.6.7,7.3,2.2a7.6,7.6,0,0,1,2.5,6.1,14.5,14.5,0,0,1-.9,4.8,7.4,7.4,0,0,1-3.6,3.9c-1.9,1.1-5,1.7-9.1,1.7Z" fill="#fff"/></g></g></svg>