<svg id="Layer_1" data-name="Layer 1" xmlns="http://www.w3.org/2000/svg" viewBox="0 0 182 182"><title>Twitter</title><g id="Oval-Copy-2"><circle cx="91" cy="91" r="87" fill="#ffa3ba"/><path d="M91,181.5A90.5,90.5,0,1,1,181.5,91,90.6,90.6,0,0,1,91,181.5Zm0-174A83.5,83.5,0,1,0,174.5,91,83.6,83.6,0,0,0,91,7.5Z"/></g><path d="M77.5,124.5a44.9,44.9,0,0,1-24.9-7.4,3.5,3.5,0,0,1-1.4-4.1,3.5,3.5,0,0,1,3.3-2.3h.4l3.2.2a25.2,25.2,0,0,0,9.8-1.9,17.9,17.9,0,0,1-8.5-10.5,3.9,3.9,0,0,1,.2-2.8A18.7,18.7,0,0,1,54,82.3v-.2a3.4,3.4,0,0,1,1.7-3A19.1,19.1,0,0,1,56.6,62a3.3,3.3,0,0,1,2.7-1.7h.3a3.1,3.1,0,0,1,2.7,1.3A39,39,0,0,0,86.6,75.7,18.4,18.4,0,0,1,117,61.9a24.4,24.4,0,0,0,6.7-2.8,3.5,3.5,0,0,1,5.1,4.1l-.6,1.5a3.7,3.7,0,0,1,2,1.2,3.5,3.5,0,0,1,.2,4.2,32.8,32.8,0,0,1-6.9,7.5v.3a48.8,48.8,0,0,1-11.8,31.4C105.7,116.2,94.8,124.5,77.5,124.5Z" fill="#3bffb8" fill-rule="evenodd"/><path d="M105,61a15,15,0,0,1,11,4.8,29.8,29.8,0,0,0,9.5-3.7,15.3,15.3,0,0,1-6.6,8.4,31.4,31.4,0,0,0,8.6-2.4A33.1,33.1,0,0,1,120,76v1.9c0,20-15,43.1-42.5,43.1a42,42,0,0,1-23-6.8l3.6.2a29.8,29.8,0,0,0,18.6-6.5,15,15,0,0,1-14-10.5,13.5,13.5,0,0,0,6.8-.3,15,15,0,0,1-12-14.8v-.2A15.3,15.3,0,0,0,64.2,84a15.1,15.1,0,0,1-6.6-12.6,14.9,14.9,0,0,1,2-7.6A42.1,42.1,0,0,0,90.4,79.6a19.8,19.8,0,0,1-.3-3.5A15,15,0,0,1,105,61m0-7A22,22,0,0,0,83.6,71.5,35.6,35.6,0,0,1,65.1,59.4a7.1,7.1,0,0,0-5.5-2.6h-.5a7.3,7.3,0,0,0-5.6,3.5,22.4,22.4,0,0,0-2.9,11.1,21.5,21.5,0,0,0,1,6.8,7.7,7.7,0,0,0-1.1,3.9v.2a22.5,22.5,0,0,0,5.2,14.4,6.7,6.7,0,0,0,.3,2.8,22,22,0,0,0,4.3,7.8H54.5a7,7,0,0,0-6.6,4.6,7.1,7.1,0,0,0,2.8,8.3A48.6,48.6,0,0,0,77.5,128a48.3,48.3,0,0,0,36.9-16.4A52.6,52.6,0,0,0,127,79.2a38.6,38.6,0,0,0,6.3-7.1,7.1,7.1,0,0,0-.4-8.4l-.5-.6a7.2,7.2,0,0,0-2.6-6.5,7,7,0,0,0-4.3-1.5,8.2,8.2,0,0,0-3.7,1,17.4,17.4,0,0,1-4.1,2A21.2,21.2,0,0,0,105,54Z"/></svg>