<?xml version="1.0" encoding="UTF-8"?>
<svg width="463px" height="80px" viewBox="0 0 463 80" version="1.1" xmlns="http://www.w3.org/2000/svg" xmlns:xlink="http://www.w3.org/1999/xlink">
    <!-- Generator: Sketch 61.2 (89653) - https://sketch.com -->
    <title>Group 37</title>
    <desc>Created with Sketch.</desc>
    <g id="Recap-Page" stroke="none" stroke-width="1" fill="none" fill-rule="evenodd">
        <g id="1440---Recap-Homepage-v4" transform="translate(-789.000000, -5267.000000)">
            <g id="Group-37" transform="translate(790.000000, 5268.000000)">
                <path d="M38.1699,77.3306 C33.7709,77.3306 29.9919,76.3776 26.8399,74.4696 C23.6869,72.5646 21.2469,69.9246 19.5249,66.5496 C17.8009,63.1786 16.9409,59.2896 16.9409,54.8896 L16.9409,50.3796 L3.2999,30.7996 C2.1999,29.2606 1.3749,27.5376 0.8249,25.6296 C0.2749,23.7236 -0.0001,21.8186 -0.0001,19.9106 C-0.0001,15.9496 0.9159,12.4846 2.7499,9.5146 C4.5819,6.5456 7.0949,4.2176 10.2849,2.5296 C13.4759,0.8446 17.0859,0.0006 21.1199,0.0006 C24.1259,0.0006 26.9119,0.5146 29.4809,1.5396 C32.0459,2.5686 34.4659,4.1426 36.7399,6.2696 C38.9409,4.1426 41.3769,2.5686 44.0549,1.5396 C46.7319,0.5146 49.6469,0.0006 52.7999,0.0006 C57.3469,0.0006 61.2709,0.8796 64.5699,2.6396 C67.8699,4.4006 70.4369,6.8386 72.2709,9.9556 C74.1029,13.0726 75.0209,16.7196 75.0209,20.9006 C75.0209,22.9536 74.7269,25.0086 74.1409,27.0606 C73.5529,29.1136 72.7099,30.9476 71.6099,32.5606 L59.2899,50.9306 L59.2899,54.8896 C59.2899,59.2896 58.4459,63.1786 56.7599,66.5496 C55.0719,69.9246 52.6519,72.5646 49.4999,74.4696 C46.3469,76.3776 42.5699,77.3306 38.1699,77.3306" id="Fill-1" fill="#000000"></path>
                <path d="M38.1699,77.3306 C33.7709,77.3306 29.9919,76.3776 26.8399,74.4696 C23.6869,72.5646 21.2469,69.9246 19.5249,66.5496 C17.8009,63.1786 16.9409,59.2896 16.9409,54.8896 L16.9409,50.3796 L3.2999,30.7996 C2.1999,29.2606 1.3749,27.5376 0.8249,25.6296 C0.2749,23.7236 -0.0001,21.8186 -0.0001,19.9106 C-0.0001,15.9496 0.9159,12.4846 2.7499,9.5146 C4.5819,6.5456 7.0949,4.2176 10.2849,2.5296 C13.4759,0.8446 17.0859,0.0006 21.1199,0.0006 C24.1259,0.0006 26.9119,0.5146 29.4809,1.5396 C32.0459,2.5686 34.4659,4.1426 36.7399,6.2696 C38.9409,4.1426 41.3769,2.5686 44.0549,1.5396 C46.7319,0.5146 49.6469,0.0006 52.7999,0.0006 C57.3469,0.0006 61.2709,0.8796 64.5699,2.6396 C67.8699,4.4006 70.4369,6.8386 72.2709,9.9556 C74.1029,13.0726 75.0209,16.7196 75.0209,20.9006 C75.0209,22.9536 74.7269,25.0086 74.1409,27.0606 C73.5529,29.1136 72.7099,30.9476 71.6099,32.5606 L59.2899,50.9306 L59.2899,54.8896 C59.2899,59.2896 58.4459,63.1786 56.7599,66.5496 C55.0719,69.9246 52.6519,72.5646 49.4999,74.4696 C46.3469,76.3776 42.5699,77.3306 38.1699,77.3306 Z" id="Stroke-3" stroke="#000000" stroke-width="2"></path>
                <path d="M38.1699,71.1704 C41.3969,71.1704 44.1099,70.5294 46.3109,69.2444 C48.5099,67.9634 50.1959,66.1094 51.3699,63.6904 C52.5419,61.2704 53.1299,58.3384 53.1299,54.8894 L53.1299,50.1604 C53.1299,49.5744 53.2219,49.0784 53.4049,48.6744 C53.5869,48.2724 53.8999,47.7404 54.3399,47.0804 L66.4409,29.1504 C68.0529,26.7314 68.8599,23.9814 68.8599,20.9004 C68.8599,17.7484 68.2179,15.0884 66.9359,12.9244 C65.6509,10.7624 63.7999,9.0944 61.3799,7.9204 C58.9599,6.7484 56.1009,6.1604 52.7999,6.1604 C50.4519,6.1604 48.2899,6.5454 46.3109,7.3154 C44.3299,8.0844 42.4959,9.2774 40.8109,10.8894 C41.2499,11.4774 41.7069,12.1194 42.1859,12.8154 C42.6609,13.5124 43.1199,14.2274 43.5609,14.9594 L52.1409,29.0394 C52.9459,30.2874 53.0009,31.3694 52.3049,32.2854 C51.6079,33.2034 50.6909,33.6974 49.5549,33.7704 C48.4169,33.8444 47.5209,33.3304 46.8599,32.2314 L38.2799,18.1504 C35.7859,14.0434 33.1649,11.0184 30.4149,9.0744 C27.6649,7.1334 24.5659,6.1604 21.1199,6.1604 C17.6719,6.1604 14.8509,6.8384 12.6499,8.1954 C10.4499,9.5534 8.8169,11.2754 7.7549,13.3654 C6.6909,15.4554 6.1599,17.6374 6.1599,19.9104 C6.1599,21.3034 6.3429,22.6234 6.7099,23.8694 C7.0759,25.1174 7.6259,26.2544 8.3599,27.2794 L21.8909,46.6394 C22.6959,47.7404 23.1009,48.7684 23.1009,49.7194 L23.1009,54.8894 C23.1009,60.0244 24.4199,64.0204 27.0609,66.8794 C29.6999,69.7404 33.4019,71.1704 38.1699,71.1704" id="Fill-5" fill="#FFFFFF"></path>
                <path d="M106.4795,77.3306 C99.6595,77.3306 94.2145,75.1686 90.1445,70.8406 C86.0745,66.5146 84.0395,60.7936 84.0395,53.6806 L84.0395,23.7606 C84.0395,16.5746 86.0745,10.8186 90.1445,6.4906 C94.2145,2.1646 99.6595,0.0006 106.4795,0.0006 C113.2995,0.0006 118.7445,2.1646 122.8145,6.4906 C126.8845,10.8186 128.9185,16.5746 128.9185,23.7606 L128.9185,53.6806 C128.9185,60.7936 126.8845,66.5146 122.8145,70.8406 C118.7445,75.1686 113.2995,77.3306 106.4795,77.3306" id="Fill-7" fill="#000000"></path>
                <path d="M106.4795,77.3306 C99.6595,77.3306 94.2145,75.1686 90.1445,70.8406 C86.0745,66.5146 84.0395,60.7936 84.0395,53.6806 L84.0395,23.7606 C84.0395,16.5746 86.0745,10.8186 90.1445,6.4906 C94.2145,2.1646 99.6595,0.0006 106.4795,0.0006 C113.2995,0.0006 118.7445,2.1646 122.8145,6.4906 C126.8845,10.8186 128.9185,16.5746 128.9185,23.7606 L128.9185,53.6806 C128.9185,60.7936 126.8845,66.5146 122.8145,70.8406 C118.7445,75.1686 113.2995,77.3306 106.4795,77.3306 Z" id="Stroke-9" stroke="#000000" stroke-width="2"></path>
                <path d="M106.4795,71.1704 C111.6115,71.1704 115.6095,69.6134 118.4695,66.4944 C121.3295,63.3794 122.7595,59.1074 122.7595,53.6804 L122.7595,23.7604 C122.7595,18.2604 121.3295,13.9534 118.4695,10.8344 C115.6095,7.7194 111.6115,6.1604 106.4795,6.1604 C101.4185,6.1604 97.4405,7.7194 94.5435,10.8344 C91.6465,13.9534 90.1995,18.2604 90.1995,23.7604 L90.1995,53.6804 C90.1995,59.1074 91.6465,63.3794 94.5435,66.4944 C97.4405,69.6134 101.4185,71.1704 106.4795,71.1704" id="Fill-11" fill="#FFFFFF"></path>
                <path d="M163.6777,77.3306 C156.5647,77.3306 150.9737,75.2036 146.9037,70.9496 C142.8327,66.6976 140.7977,60.9046 140.7977,53.5706 L140.7977,23.4306 C140.7977,16.3896 142.7237,10.7256 146.5737,6.4356 C150.4227,2.1446 155.7937,0.0006 162.6887,0.0006 C165.3277,0.0006 167.7477,0.3676 169.9487,1.1006 C172.1487,1.8346 174.3487,3.0806 176.5477,4.8406 C178.5287,3.2266 180.8007,2.0176 183.3677,1.2096 C185.9347,0.4046 188.6847,0.0006 191.6177,0.0006 C198.8047,0.0006 204.4337,2.1276 208.5027,6.3796 C212.5737,10.6336 214.6087,16.4286 214.6087,23.7606 L214.6087,53.9006 C214.6087,61.0146 212.6277,66.6976 208.6677,70.9496 C204.7077,75.2036 199.3907,77.3306 192.7177,77.3306 C190.0777,77.3306 187.6577,76.9636 185.4577,76.2306 C183.2577,75.4986 181.0587,74.2876 178.8587,72.6006 C176.8777,74.1396 174.6047,75.3146 172.0377,76.1196 C169.4707,76.9286 166.6847,77.3306 163.6777,77.3306" id="Fill-13" fill="#000000"></path>
                <path d="M163.6777,77.3306 C156.5647,77.3306 150.9737,75.2036 146.9037,70.9496 C142.8327,66.6976 140.7977,60.9046 140.7977,53.5706 L140.7977,23.4306 C140.7977,16.3896 142.7237,10.7256 146.5737,6.4356 C150.4227,2.1446 155.7937,0.0006 162.6887,0.0006 C165.3277,0.0006 167.7477,0.3676 169.9487,1.1006 C172.1487,1.8346 174.3487,3.0806 176.5477,4.8406 C178.5287,3.2266 180.8007,2.0176 183.3677,1.2096 C185.9347,0.4046 188.6847,0.0006 191.6177,0.0006 C198.8047,0.0006 204.4337,2.1276 208.5027,6.3796 C212.5737,10.6336 214.6087,16.4286 214.6087,23.7606 L214.6087,53.9006 C214.6087,61.0146 212.6277,66.6976 208.6677,70.9496 C204.7077,75.2036 199.3907,77.3306 192.7177,77.3306 C190.0777,77.3306 187.6577,76.9636 185.4577,76.2306 C183.2577,75.4986 181.0587,74.2876 178.8587,72.6006 C176.8777,74.1396 174.6047,75.3146 172.0377,76.1196 C169.4707,76.9286 166.6847,77.3306 163.6777,77.3306 Z" id="Stroke-15" stroke="#000000" stroke-width="2"></path>
                <path d="M163.6777,71.1704 C165.8777,71.1704 167.8747,70.8954 169.6727,70.3444 C171.4697,69.7954 173.0647,69.0084 174.4577,67.9814 C173.5777,66.9534 172.7157,65.7444 171.8727,64.3504 C171.0297,62.9574 170.1297,61.4534 169.1777,59.8404 L162.0287,47.1904 C161.2937,46.0184 161.2757,44.9734 161.9737,44.0554 C162.6687,43.1394 163.6047,42.6084 164.7787,42.4594 C165.9497,42.3154 166.8677,42.8634 167.5287,44.1094 L174.7877,56.7604 C176.9137,60.3544 178.8587,63.2134 180.6177,65.3404 C182.3777,67.4674 184.2097,68.9694 186.1177,69.8504 C188.0247,70.7314 190.2247,71.1704 192.7177,71.1704 C197.9237,71.1704 201.8487,69.6134 204.4887,66.4944 C207.1277,63.3794 208.4487,59.1804 208.4487,53.9004 L208.4487,23.7604 C208.4487,18.2604 206.9987,13.9534 204.1037,10.8344 C201.2047,7.7194 197.0437,6.1604 191.6177,6.1604 C187.3647,6.1604 183.7707,7.2234 180.8377,9.3504 C181.6447,10.3774 182.4887,11.5684 183.3677,12.9244 C184.2477,14.2834 185.1637,15.7684 186.1177,17.3794 L193.3777,30.0294 C194.1107,31.2034 194.1287,32.2684 193.4337,33.2194 C192.7357,34.1744 191.8197,34.7234 190.6837,34.8694 C189.5447,35.0184 188.6107,34.4674 187.8777,33.2194 L180.6177,20.5704 C178.5647,16.9044 176.6397,14.0254 174.8427,11.9364 C173.0447,9.8444 171.1947,8.3594 169.2877,7.4814 C167.3797,6.6004 165.1807,6.1604 162.6887,6.1604 C157.5547,6.1604 153.6497,7.7384 150.9737,10.8894 C148.2947,14.0434 146.9577,18.2234 146.9577,23.4304 L146.9577,53.5704 C146.9577,58.9984 148.4057,63.2874 151.3027,66.4404 C154.1987,69.5944 158.3237,71.1704 163.6777,71.1704" id="Fill-17" fill="#FFFFFF"></path>
                <path d="M263.4473,77.3306 C260.5873,77.3306 257.7443,76.9286 254.9223,76.1196 C252.0983,75.3146 249.6043,74.0126 247.4423,72.2156 C245.2783,70.4186 243.6833,68.0536 242.6573,65.1196 C238.6973,64.3876 235.3973,62.6826 232.7573,60.0046 C230.1173,57.3286 228.1543,54.0846 226.8723,50.2696 C225.5883,46.4576 224.9473,42.5706 224.9473,38.6096 C224.9473,33.3306 225.9373,28.3446 227.9173,23.6506 C229.8973,18.9576 232.6643,14.8506 236.2213,11.3306 C239.7783,7.8106 243.8853,5.0436 248.5423,3.0256 C253.1983,1.0086 258.1673,0.0006 263.4473,0.0006 C268.7273,0.0006 273.6943,1.0086 278.3523,3.0256 C283.0083,5.0436 287.1143,7.8106 290.6723,11.3306 C294.2283,14.8506 296.9973,18.9576 298.9773,23.6506 C300.9573,28.3446 301.9473,33.3306 301.9473,38.6096 C301.9473,43.8896 300.9573,48.8776 298.9773,53.5706 C296.9973,58.2646 294.2283,62.3696 290.6723,65.8896 C287.1143,69.4106 283.0083,72.1976 278.3523,74.2506 C273.6943,76.3036 268.7273,77.3306 263.4473,77.3306" id="Fill-19" fill="#000000"></path>
                <path d="M263.4473,77.3306 C260.5873,77.3306 257.7443,76.9286 254.9223,76.1196 C252.0983,75.3146 249.6043,74.0126 247.4423,72.2156 C245.2783,70.4186 243.6833,68.0536 242.6573,65.1196 C238.6973,64.3876 235.3973,62.6826 232.7573,60.0046 C230.1173,57.3286 228.1543,54.0846 226.8723,50.2696 C225.5883,46.4576 224.9473,42.5706 224.9473,38.6096 C224.9473,33.3306 225.9373,28.3446 227.9173,23.6506 C229.8973,18.9576 232.6643,14.8506 236.2213,11.3306 C239.7783,7.8106 243.8853,5.0436 248.5423,3.0256 C253.1983,1.0086 258.1673,0.0006 263.4473,0.0006 C268.7273,0.0006 273.6943,1.0086 278.3523,3.0256 C283.0083,5.0436 287.1143,7.8106 290.6723,11.3306 C294.2283,14.8506 296.9973,18.9576 298.9773,23.6506 C300.9573,28.3446 301.9473,33.3306 301.9473,38.6096 C301.9473,43.8896 300.9573,48.8776 298.9773,53.5706 C296.9973,58.2646 294.2283,62.3696 290.6723,65.8896 C287.1143,69.4106 283.0083,72.1976 278.3523,74.2506 C273.6943,76.3036 268.7273,77.3306 263.4473,77.3306 Z" id="Stroke-21" stroke="#000000" stroke-width="2"></path>
                <path d="M263.4473,71.1704 C267.8463,71.1704 272.0083,70.3284 275.9313,68.6394 C279.8543,66.9534 283.3013,64.6084 286.2723,61.6004 C289.2423,58.5944 291.5693,55.1294 293.2573,51.2054 C294.9433,47.2834 295.7873,43.0844 295.7873,38.6094 C295.7873,34.1374 294.9433,29.9404 293.2573,26.0144 C291.5693,22.0924 289.2423,18.6454 286.2723,15.6744 C283.3013,12.7054 279.8733,10.3774 275.9873,8.6904 C272.0993,7.0044 267.9193,6.1604 263.4473,6.1604 C258.9733,6.1604 254.7933,7.0044 250.9073,8.6904 C247.0193,10.3774 243.5923,12.7054 240.6223,15.6744 C237.6523,18.6454 235.3233,22.0924 233.6363,26.0144 C231.9493,29.9404 231.1073,34.1374 231.1073,38.6094 C231.1073,41.7644 231.5473,44.7344 232.4263,47.5204 C233.3063,50.3074 234.5523,52.7094 236.1673,54.7254 C237.7793,56.7424 239.6493,58.1904 241.7773,59.0704 C241.7033,58.6294 241.6673,58.2094 241.6673,57.8054 L241.6673,56.7604 C241.6673,51.9944 243.3723,48.3444 246.7823,45.8154 C250.1923,43.2854 254.3893,42.0204 259.3773,42.0204 L261.7973,42.0204 C263.7033,42.0204 265.0963,41.7644 265.9773,41.2504 C266.8573,40.7384 267.2973,39.8584 267.2973,38.6094 C267.2973,37.4384 266.9673,36.5394 266.3063,35.9144 C265.6473,35.2934 264.7293,34.9814 263.5563,34.9814 C262.4573,34.9814 261.5033,35.3484 260.6973,36.0804 C259.6693,36.9594 258.6433,37.2174 257.6173,36.8504 C256.5893,36.4844 255.8933,35.7684 255.5273,34.7054 C255.1593,33.6434 255.4533,32.6334 256.4073,31.6804 C258.3133,29.7744 260.8793,28.8204 264.1073,28.8204 C266.7473,28.8204 268.9643,29.7384 270.7613,31.5704 C272.5583,33.4044 273.4573,35.7504 273.4573,38.6094 C273.4573,41.3974 272.4673,43.6704 270.4873,45.4304 C268.5073,47.1904 265.5733,48.0704 261.6873,48.0704 L259.0473,48.0704 C255.7473,48.0704 253.0513,48.8224 250.9623,50.3244 C248.8723,51.8284 247.8273,54.1934 247.8273,57.4204 C247.8273,60.0614 248.4493,62.4244 249.6973,64.5144 C250.9433,66.6064 252.7213,68.2384 255.0323,69.4104 C257.3423,70.5844 260.1473,71.1704 263.4473,71.1704" id="Fill-23" fill="#FFFFFF"></path>
                <path d="M345.6182,77.3306 C339.6782,77.3306 334.9102,75.7346 331.3182,72.5456 C327.7242,69.3556 324.7542,64.9736 322.4082,59.4006 L310.9682,32.0106 C310.2342,30.1786 309.6652,28.3446 309.2632,26.5106 C308.8592,24.6786 308.6582,22.8796 308.6582,21.1196 C308.6582,18.0396 309.2632,15.1996 310.4722,12.5946 C311.6832,9.9926 313.3692,7.7546 315.5332,5.8856 C317.6952,4.0146 320.2082,2.5686 323.0682,1.5396 C325.9282,0.5146 329.0442,0.0006 332.4182,0.0006 C334.9842,0.0006 337.3862,0.4396 339.6232,1.3206 C341.8592,2.1996 343.8942,3.4846 345.7282,5.1706 C347.6342,3.4846 350.0552,2.1996 352.9882,1.3206 C355.9202,0.4396 358.6342,0.0006 361.1282,0.0006 C365.3082,0.0006 369.0112,0.8246 372.2382,2.4756 C375.4642,4.1256 378.0132,6.5086 379.8832,9.6256 C381.7532,12.7426 382.6882,16.5746 382.6882,21.1196 C382.6882,22.8796 382.5232,24.6586 382.1932,26.4556 C381.8632,28.2526 381.2942,30.1036 380.4882,32.0106 L368.8282,59.4006 C367.2142,63.2876 365.3442,66.5686 363.2182,69.2446 C361.0902,71.9226 358.6152,73.9396 355.7932,75.2956 C352.9692,76.6526 349.5782,77.3306 345.6182,77.3306" id="Fill-25" fill="#000000"></path>
                <path d="M345.6182,77.3306 C339.6782,77.3306 334.9102,75.7346 331.3182,72.5456 C327.7242,69.3556 324.7542,64.9736 322.4082,59.4006 L310.9682,32.0106 C310.2342,30.1786 309.6652,28.3446 309.2632,26.5106 C308.8592,24.6786 308.6582,22.8796 308.6582,21.1196 C308.6582,18.0396 309.2632,15.1996 310.4722,12.5946 C311.6832,9.9926 313.3692,7.7546 315.5332,5.8856 C317.6952,4.0146 320.2082,2.5686 323.0682,1.5396 C325.9282,0.5146 329.0442,0.0006 332.4182,0.0006 C334.9842,0.0006 337.3862,0.4396 339.6232,1.3206 C341.8592,2.1996 343.8942,3.4846 345.7282,5.1706 C347.6342,3.4846 350.0552,2.1996 352.9882,1.3206 C355.9202,0.4396 358.6342,0.0006 361.1282,0.0006 C365.3082,0.0006 369.0112,0.8246 372.2382,2.4756 C375.4642,4.1256 378.0132,6.5086 379.8832,9.6256 C381.7532,12.7426 382.6882,16.5746 382.6882,21.1196 C382.6882,22.8796 382.5232,24.6586 382.1932,26.4556 C381.8632,28.2526 381.2942,30.1036 380.4882,32.0106 L368.8282,59.4006 C367.2142,63.2876 365.3442,66.5686 363.2182,69.2446 C361.0902,71.9226 358.6152,73.9396 355.7932,75.2956 C352.9692,76.6526 349.5782,77.3306 345.6182,77.3306 Z" id="Stroke-27" stroke="#000000" stroke-width="2"></path>
                <path d="M345.6182,71.1704 C348.4042,71.1704 350.8432,70.6934 352.9332,69.7404 C355.0232,68.7874 356.9102,67.2644 358.5972,65.1744 C360.2842,63.0844 361.8242,60.3544 363.2182,56.9814 L374.7682,29.5904 C375.3542,28.1234 375.7942,26.6744 376.0882,25.2444 C376.3802,23.8154 376.5282,22.4404 376.5282,21.1194 C376.5282,18.1134 375.9232,15.4924 374.7132,13.2544 C373.5032,11.0184 371.7432,9.2774 369.4332,8.0294 C367.1232,6.7834 364.3542,6.1604 361.1282,6.1604 C359.4402,6.1604 357.4602,6.4734 355.1882,7.0944 C352.9142,7.7194 351.0802,8.6544 349.6882,9.9004 C350.2742,10.6334 350.7882,11.4404 351.2282,12.3204 C351.6682,13.1994 352.1082,14.1544 352.5482,15.1804 L359.0382,30.6904 C359.6242,31.9384 359.5142,32.9634 358.7082,33.7704 C357.9002,34.5784 356.9302,34.9814 355.7932,34.9814 C354.6552,34.9814 353.8302,34.3574 353.3182,33.1094 L346.8282,17.6004 C345.2142,13.7134 343.2152,10.8344 340.8332,8.9654 C338.4492,7.0944 335.6442,6.1604 332.4182,6.1604 C328.5302,6.1604 325.2852,6.9124 322.6832,8.4144 C320.0792,9.9184 318.1182,11.8074 316.7982,14.0804 C315.4782,16.3544 314.8182,18.6994 314.8182,21.1194 C314.8182,22.4404 314.9832,23.8154 315.3132,25.2444 C315.6432,26.6744 316.1002,28.1234 316.6882,29.5904 L328.1282,56.9814 C330.2542,62.0394 332.6742,65.6704 335.3882,67.8694 C338.1002,70.0704 341.5112,71.1704 345.6182,71.1704" id="Fill-29" fill="#FFFFFF"></path>
                <path d="M410.6279,77.3306 C407.8409,77.3306 405.0349,76.8736 402.2129,75.9556 C399.3899,75.0396 396.8049,73.6826 394.4579,71.8856 C392.1099,70.0886 390.2399,67.8696 388.8489,65.2306 C387.4539,62.5906 386.7589,59.5846 386.7589,56.2096 C386.7589,54.4496 386.9789,52.6546 387.4179,50.8206 C387.8579,48.9886 388.4439,47.1546 389.1789,45.3206 L400.7289,17.9306 C403.1489,12.1376 406.1739,7.6996 409.8039,4.6196 C413.4339,1.5396 418.1449,0.0006 423.9389,0.0006 C429.8779,0.0006 434.6449,1.5786 438.2379,4.7306 C441.8299,7.8836 444.8009,12.2836 447.1489,17.9306 L458.5879,45.3206 C459.3949,47.1546 459.9809,48.9886 460.3489,50.8206 C460.7149,52.6546 460.8989,54.4496 460.8989,56.2096 C460.8989,59.3636 460.2739,62.2236 459.0279,64.7896 C457.7799,67.3576 456.0389,69.5746 453.8039,71.4456 C451.5659,73.3146 449.0349,74.7646 446.2129,75.7896 C443.3899,76.8186 440.3639,77.3306 437.1389,77.3306 C434.5699,77.3306 432.1699,76.9086 429.9339,76.0646 C427.6949,75.2236 425.6599,73.9576 423.8279,72.2696 C421.9939,73.8836 419.9589,75.1296 417.7239,76.0106 C415.4849,76.8896 413.1199,77.3306 410.6279,77.3306" id="Fill-31" fill="#000000"></path>
                <path d="M410.6279,77.3306 C407.8409,77.3306 405.0349,76.8736 402.2129,75.9556 C399.3899,75.0396 396.8049,73.6826 394.4579,71.8856 C392.1099,70.0886 390.2399,67.8696 388.8489,65.2306 C387.4539,62.5906 386.7589,59.5846 386.7589,56.2096 C386.7589,54.4496 386.9789,52.6546 387.4179,50.8206 C387.8579,48.9886 388.4439,47.1546 389.1789,45.3206 L400.7289,17.9306 C403.1489,12.1376 406.1739,7.6996 409.8039,4.6196 C413.4339,1.5396 418.1449,0.0006 423.9389,0.0006 C429.8779,0.0006 434.6449,1.5786 438.2379,4.7306 C441.8299,7.8836 444.8009,12.2836 447.1489,17.9306 L458.5879,45.3206 C459.3949,47.1546 459.9809,48.9886 460.3489,50.8206 C460.7149,52.6546 460.8989,54.4496 460.8989,56.2096 C460.8989,59.3636 460.2739,62.2236 459.0279,64.7896 C457.7799,67.3576 456.0389,69.5746 453.8039,71.4456 C451.5659,73.3146 449.0349,74.7646 446.2129,75.7896 C443.3899,76.8186 440.3639,77.3306 437.1389,77.3306 C434.5699,77.3306 432.1699,76.9086 429.9339,76.0646 C427.6949,75.2236 425.6599,73.9576 423.8279,72.2696 C421.9939,73.8836 419.9589,75.1296 417.7239,76.0106 C415.4849,76.8896 413.1199,77.3306 410.6279,77.3306 Z" id="Stroke-33" stroke="#000000" stroke-width="2"></path>
                <path d="M410.6279,71.1704 C412.3889,71.1704 414.0379,70.8594 415.5779,70.2344 C417.1179,69.6134 418.5109,68.7134 419.7589,67.5394 C419.2439,66.7344 418.7489,65.8734 418.2739,64.9554 C417.7959,64.0394 417.3739,63.1044 417.0089,62.1504 L411.9479,50.0494 C411.4349,48.7314 411.5089,47.6864 412.1679,46.9144 C412.8279,46.1454 413.7079,45.7604 414.8089,45.7604 L426.1389,45.7604 L421.5189,34.7604 C421.0049,33.4404 421.1339,32.3594 421.9029,31.5144 C422.6739,30.6724 423.6259,30.2684 424.7639,30.3054 C425.8989,30.3424 426.7249,31.0204 427.2379,32.3404 L433.7289,47.6294 C434.2399,48.8034 434.2239,49.8134 433.6739,50.6544 C433.1229,51.4984 432.1889,51.9204 430.8679,51.9204 L419.4289,51.9204 L422.7289,59.7314 C424.3409,63.5434 426.3399,66.4044 428.7239,68.3114 C431.1059,70.2174 433.9099,71.1704 437.1389,71.1704 C439.8509,71.1704 442.5649,70.6024 445.2779,69.4654 C447.9899,68.3284 450.2449,66.6604 452.0429,64.4594 C453.8399,62.2604 454.7379,59.5104 454.7379,56.2094 C454.7379,54.8894 454.5729,53.4984 454.2429,52.0294 C453.9129,50.5654 453.4539,49.1334 452.8679,47.7404 L441.4289,20.3504 C439.3009,15.2894 436.8809,11.6604 434.1679,9.4594 C431.4539,7.2604 428.0449,6.1604 423.9389,6.1604 C419.7589,6.1604 416.3289,7.2604 413.6529,9.4594 C410.9759,11.6604 408.5739,15.2894 406.4479,20.3504 L394.8989,47.7404 C394.3109,49.1334 393.8539,50.5654 393.5239,52.0294 C393.1929,53.4984 393.0279,54.8894 393.0279,56.2094 C393.0279,58.9244 393.6139,61.2344 394.7879,63.1394 C395.9609,65.0474 397.4649,66.5884 399.2989,67.7604 C401.1309,68.9344 403.0559,69.7954 405.0729,70.3444 C407.0899,70.8954 408.9409,71.1704 410.6279,71.1704" id="Fill-35" fill="#FFFFFF"></path>
            </g>
        </g>
    </g>
</svg>